M48
; DRILL file {KiCad 8.0.8} date 2025-08-25T22:33:12+0900
; FORMAT={-:-/ absolute / metric / decimal}
; #@! TF.CreationDate,2025-08-25T22:33:12+09:00
; #@! TF.GenerationSoftware,Kicad,Pcbnew,8.0.8
; #@! TF.FileFunction,Plated,1,2,PTH
FMAT,2
METRIC
; #@! TA.AperFunction,Plated,PTH,ViaDrill
T1C0.300
; #@! TA.AperFunction,Plated,PTH,ComponentDrill
T2C0.762
; #@! TA.AperFunction,Plated,PTH,ComponentDrill
T3C0.800
; #@! TA.AperFunction,Plated,PTH,ComponentDrill
T4C1.000
%
G90
G05
T1
X30.9Y-54.3
X30.9Y-73.6
X31.0Y-23.9
X31.0Y-26.4
X31.0Y-29.0
X31.0Y-46.8
X33.1Y-21.1
X33.7Y-46.7
X33.9Y-23.9
X33.9Y-26.4
X33.9Y-29.0
X33.9Y-42.6
X33.9Y-54.3
X34.0Y-32.8
X35.3Y-65.7
X36.6Y-39.9
X38.0Y-22.4
X38.2Y-73.7
X40.1Y-46.1
X41.1Y-32.7
X41.2Y-50.3
X41.3Y-66.7
X41.5Y-73.2
X42.3Y-57.6
X42.4Y-32.8
X44.5Y-39.9
X45.9Y-73.3
X48.7Y-67.1
X49.1Y-61.2
X49.8Y-73.0
X51.7Y-21.0
X51.9Y-33.6
X52.2Y-36.4
X52.2Y-38.9
X52.4Y-59.1
X53.4Y-73.7
X54.4Y-59.7
X54.5Y-28.3
X54.9Y-33.6
X55.2Y-72.1
X55.3Y-21.2
X55.3Y-40.1
X56.0Y-46.0
X56.0Y-62.2
X56.8Y-66.0
X58.8Y-64.6
X59.6Y-21.4
X59.976Y-31.524
X60.0Y-30.7
X60.1Y-40.3
X60.4Y-28.4
X60.6Y-46.7
X63.5Y-55.5
X64.5Y-44.0
X64.6Y-28.5
X65.0Y-32.1
X65.1Y-21.9
X66.2Y-34.3
X67.2Y-64.8
X68.2Y-59.7
X69.2Y-48.3
X69.4Y-52.4
X70.1Y-36.5
X74.0Y-32.2
X74.6Y-44.6
X74.6Y-48.6
X74.7Y-22.5
X74.7Y-27.3
X75.2Y-55.3
X76.7Y-39.6
X77.4Y-35.7
X77.7Y-44.0
X78.2Y-52.2
X79.7Y-48.0
X80.1Y-39.2
X80.7Y-43.6
X83.7Y-55.3
X83.9Y-41.1
X84.3Y-52.6
X84.7Y-22.5
X84.7Y-27.3
X88.2Y-31.7
X88.3Y-51.5
X89.8Y-48.9
X92.6Y-28.8
X92.7Y-44.1
X93.1Y-22.8
X93.5Y-40.8
X94.1Y-54.5
X95.2Y-51.6
X95.8Y-64.9
X96.1Y-36.1
X96.4Y-49.0
X96.7Y-44.1
X97.8Y-26.5
X99.1Y-20.8
X100.6Y-48.9
X102.9Y-57.2
X103.088Y-54.215
X103.6Y-53.6
X104.2Y-52.3
X104.6Y-30.3
X104.6Y-46.7
X105.2Y-49.6
X105.2Y-60.7
X105.5Y-21.4
X106.1Y-60.8
X107.0Y-59.8
X107.1Y-57.8
X107.2Y-53.7
X107.4Y-72.8
X108.2Y-57.8
X108.4Y-62.8
X108.6Y-36.1
X109.2Y-53.7
X109.2Y-56.0
X109.3Y-57.8
X111.5Y-38.2
X111.6Y-55.3
X111.8Y-58.9
X112.4Y-51.6
X113.7Y-33.5
X113.8Y-41.1
X113.9Y-31.0
X114.6Y-43.9
X116.6Y-26.9
X116.7Y-42.0
X118.3Y-20.8
X118.7Y-38.5
X120.5Y-51.1
X121.4Y-36.1
X122.9Y-20.8
X122.9Y-28.7
X123.1Y-26.4
T2
X32.3Y-22.64
X32.3Y-25.18
X32.3Y-27.72
X32.3Y-30.26
X32.3Y-32.8
X32.3Y-35.34
X32.3Y-37.88
X32.3Y-40.42
X32.3Y-42.96
X32.3Y-45.5
X32.3Y-48.04
X32.3Y-50.58
X32.3Y-53.12
X32.3Y-55.66
X32.3Y-58.2
X32.3Y-60.74
X32.3Y-63.28
X32.3Y-65.82
X32.3Y-68.36
X32.3Y-70.9
X37.22Y-25.5
X42.3Y-25.5
X47.54Y-22.64
X47.54Y-25.18
X47.54Y-27.72
X47.54Y-30.26
X47.54Y-32.8
X47.54Y-35.34
X47.54Y-37.88
X47.54Y-40.42
X47.54Y-42.96
X47.54Y-45.5
X47.54Y-48.04
X47.54Y-50.58
X47.54Y-53.12
X47.54Y-55.66
X47.54Y-58.2
X47.54Y-60.74
X47.54Y-63.28
X47.54Y-65.82
X47.54Y-68.36
X47.54Y-70.9
X53.4Y-21.784
X53.4Y-24.396
X53.4Y-27.008
X53.4Y-29.62
X53.4Y-32.232
X53.4Y-34.844
X53.4Y-37.6
X53.4Y-40.1
X53.4Y-42.68
X53.4Y-45.292
X53.4Y-47.904
X53.4Y-50.516
X55.7Y-55.63
X55.7Y-60.71
X58.24Y-55.63
X58.24Y-60.71
X61.559Y-56.649
X61.559Y-59.189
X63.4Y-21.784
X63.4Y-24.396
X63.4Y-27.008
X63.4Y-29.62
X63.4Y-32.232
X63.4Y-34.844
X63.4Y-37.6
X63.4Y-40.1
X63.4Y-42.68
X63.4Y-45.292
X63.4Y-47.904
X63.4Y-50.516
X70.7Y-55.63
X70.7Y-60.71
X73.24Y-55.63
X73.24Y-60.71
X76.759Y-56.749
X76.759Y-59.289
X85.71Y-55.65
X85.71Y-60.73
X88.25Y-55.65
X88.25Y-60.73
X91.759Y-56.649
X91.759Y-59.189
X95.59Y-37.6
X96.86Y-25.04
X98.35Y-55.86
X98.35Y-60.94
X99.4Y-22.5
X100.89Y-55.86
X100.89Y-60.94
X101.94Y-25.04
X103.21Y-37.6
X104.459Y-56.7
X104.459Y-59.24
X107.48Y-22.08
X107.48Y-24.62
X107.48Y-27.16
X107.48Y-29.7
X107.48Y-32.24
X107.48Y-34.78
X107.48Y-37.32
X107.48Y-39.86
X107.48Y-42.4
X109.944Y-34.8
X109.944Y-44.8
X110.056Y-22.1
X110.056Y-32.1
X112.556Y-22.1
X112.556Y-32.1
X112.556Y-34.8
X112.556Y-44.8
X115.1Y-22.08
X115.1Y-24.62
X115.1Y-27.16
X115.1Y-29.7
X115.1Y-32.24
X115.1Y-34.78
X115.1Y-37.32
X115.1Y-39.86
X115.1Y-42.4
X115.765Y-75.6
X117.644Y-34.8
X117.644Y-44.8
X117.649Y-22.219
X118.7Y-54.16
X118.7Y-59.24
X120.189Y-22.219
X120.444Y-34.8
X120.444Y-44.8
X120.845Y-75.6
X123.0Y-55.3
X123.049Y-22.219
X123.365Y-75.6
X123.56Y-51.4
X125.54Y-55.3
X125.589Y-22.219
X126.4Y-25.09
X126.4Y-32.71
X128.08Y-55.3
X128.445Y-75.6
X128.64Y-51.4
T3
X113.5Y-55.3
X113.5Y-57.8
X117.3Y-70.7
X119.8Y-70.7
X124.7Y-70.7
X125.0Y-46.3
X127.2Y-70.7
X127.5Y-46.3
T4
X71.095Y-37.925
X73.635Y-37.925
X76.175Y-37.925
X76.18Y-33.3
X78.715Y-37.925
X78.72Y-33.3
X81.255Y-37.925
X81.26Y-33.3
X83.795Y-37.925
X83.8Y-33.3
X86.335Y-37.925
X88.875Y-37.925
X96.72Y-31.3
X99.26Y-31.3
X101.8Y-31.3
X112.2Y-74.56
X112.2Y-77.1
X112.2Y-79.64
X112.2Y-85.06
X112.2Y-87.6
X112.2Y-90.14
X113.1Y-63.6
X115.64Y-63.6
X118.18Y-63.6
X121.2Y-26.245
X121.2Y-28.785
X121.2Y-31.325
X126.9Y-37.0
X126.9Y-39.5
X127.0Y-61.0
X127.0Y-63.5
M30
