%TF.GenerationSoftware,KiCad,Pcbnew,8.0.8*%
%TF.CreationDate,2025-08-25T22:32:07+09:00*%
%TF.ProjectId,Line_follower_robot,4c696e65-5f66-46f6-9c6c-6f7765725f72,rev?*%
%TF.SameCoordinates,Original*%
%TF.FileFunction,Soldermask,Top*%
%TF.FilePolarity,Negative*%
%FSLAX46Y46*%
G04 Gerber Fmt 4.6, Leading zero omitted, Abs format (unit mm)*
G04 Created by KiCad (PCBNEW 8.0.8) date 2025-08-25 22:32:07*
%MOMM*%
%LPD*%
G01*
G04 APERTURE LIST*
G04 Aperture macros list*
%AMRoundRect*
0 Rectangle with rounded corners*
0 $1 Rounding radius*
0 $2 $3 $4 $5 $6 $7 $8 $9 X,Y pos of 4 corners*
0 Add a 4 corners polygon primitive as box body*
4,1,4,$2,$3,$4,$5,$6,$7,$8,$9,$2,$3,0*
0 Add four circle primitives for the rounded corners*
1,1,$1+$1,$2,$3*
1,1,$1+$1,$4,$5*
1,1,$1+$1,$6,$7*
1,1,$1+$1,$8,$9*
0 Add four rect primitives between the rounded corners*
20,1,$1+$1,$2,$3,$4,$5,0*
20,1,$1+$1,$4,$5,$6,$7,0*
20,1,$1+$1,$6,$7,$8,$9,0*
20,1,$1+$1,$8,$9,$2,$3,0*%
G04 Aperture macros list end*
%ADD10C,1.524000*%
%ADD11R,1.600000X1.600000*%
%ADD12C,1.600000*%
%ADD13R,1.700000X1.700000*%
%ADD14O,1.700000X1.700000*%
%ADD15RoundRect,0.250000X-0.750000X0.600000X-0.750000X-0.600000X0.750000X-0.600000X0.750000X0.600000X0*%
%ADD16O,2.000000X1.700000*%
%ADD17C,3.200000*%
G04 APERTURE END LIST*
D10*
%TO.C,U5*%
X107480000Y-22080000D03*
X107480000Y-24620000D03*
X107480000Y-27160000D03*
X107480000Y-29700000D03*
X107480000Y-32240000D03*
X107480000Y-34780000D03*
X107480000Y-37320000D03*
X107480000Y-39860000D03*
X107480000Y-42400000D03*
X115100000Y-22080000D03*
X115100000Y-24620000D03*
X115100000Y-27160000D03*
X115100000Y-29700000D03*
X115100000Y-32240000D03*
X115100000Y-34780000D03*
X115100000Y-37320000D03*
X115100000Y-39860000D03*
X115100000Y-42400000D03*
%TD*%
%TO.C,IO13*%
X123048888Y-22218888D03*
X125588888Y-22218888D03*
%TD*%
%TO.C,IO12*%
X117648888Y-22218888D03*
X120188888Y-22218888D03*
%TD*%
%TO.C,Bluepill1*%
X47540000Y-70900000D03*
X47540000Y-68360000D03*
X47540000Y-65820000D03*
X47540000Y-63280000D03*
X47540000Y-60740000D03*
X47540000Y-58200000D03*
X47540000Y-55660000D03*
X47540000Y-53120000D03*
X47540000Y-50580000D03*
X47540000Y-48040000D03*
X47540000Y-45500000D03*
X47540000Y-42960000D03*
X47540000Y-40420000D03*
X47540000Y-37880000D03*
X47540000Y-35340000D03*
X47540000Y-32800000D03*
X47540000Y-30260000D03*
X47540000Y-27720000D03*
X47540000Y-25180000D03*
X47540000Y-22640000D03*
X32300000Y-70900000D03*
X32300000Y-68360000D03*
X32300000Y-65820000D03*
X32300000Y-63280000D03*
X32300000Y-60740000D03*
X32300000Y-58200000D03*
X32300000Y-55660000D03*
X32300000Y-53120000D03*
X32300000Y-50580000D03*
X32300000Y-48040000D03*
X32300000Y-45500000D03*
X32300000Y-42960000D03*
X32300000Y-40420000D03*
X32300000Y-37880000D03*
X32300000Y-35340000D03*
X32300000Y-32800000D03*
X32300000Y-30260000D03*
X32300000Y-27720000D03*
X32300000Y-25180000D03*
X32300000Y-22640000D03*
%TD*%
%TO.C,R18*%
X117644000Y-34800000D03*
X117644000Y-44800000D03*
%TD*%
%TO.C,R17*%
X120444000Y-34800000D03*
X120444000Y-44800000D03*
%TD*%
D11*
%TO.C,C4*%
X125000000Y-46300000D03*
D12*
X127500000Y-46300000D03*
%TD*%
D11*
%TO.C,C3*%
X113500000Y-55300000D03*
D12*
X113500000Y-57800000D03*
%TD*%
D13*
%TO.C,SW5*%
X118180000Y-63600000D03*
D14*
X115640000Y-63600000D03*
X113100000Y-63600000D03*
%TD*%
D10*
%TO.C,U7*%
X128080000Y-55300000D03*
X123000000Y-55300000D03*
X125540000Y-55300000D03*
%TD*%
%TO.C,U4*%
X100890000Y-55860000D03*
X98350000Y-55860000D03*
X100890000Y-60940000D03*
X98350000Y-60940000D03*
%TD*%
%TO.C,U3*%
X88250000Y-55650000D03*
X85710000Y-55650000D03*
X88250000Y-60730000D03*
X85710000Y-60730000D03*
%TD*%
%TO.C,U2*%
X73240000Y-55630000D03*
X70700000Y-55630000D03*
X73240000Y-60710000D03*
X70700000Y-60710000D03*
%TD*%
%TO.C,U1*%
X55700000Y-60710000D03*
X58240000Y-60710000D03*
X55700000Y-55630000D03*
X58240000Y-55630000D03*
%TD*%
D13*
%TO.C,SW4*%
X121200000Y-31325000D03*
D14*
X121200000Y-28785000D03*
X121200000Y-26245000D03*
%TD*%
D10*
%TO.C,SW3*%
X126400000Y-25090000D03*
X126400000Y-32710000D03*
%TD*%
D13*
%TO.C,SW2*%
X101800000Y-31300000D03*
D14*
X99260000Y-31300000D03*
X96720000Y-31300000D03*
%TD*%
D10*
%TO.C,SW1*%
X95590000Y-37600000D03*
X103210000Y-37600000D03*
%TD*%
%TO.C,RV1*%
X101940000Y-25040000D03*
X96860000Y-25040000D03*
X99400000Y-22500000D03*
%TD*%
%TO.C,R16*%
X110056000Y-22100000D03*
X110056000Y-32100000D03*
%TD*%
%TO.C,R15*%
X109944000Y-44800000D03*
X109944000Y-34800000D03*
%TD*%
%TO.C,R14*%
X112556000Y-22100000D03*
X112556000Y-32100000D03*
%TD*%
%TO.C,R13*%
X112556000Y-34800000D03*
X112556000Y-44800000D03*
%TD*%
%TO.C,R12*%
X53400000Y-50516000D03*
X63400000Y-50516000D03*
%TD*%
%TO.C,R11*%
X53400000Y-47904000D03*
X63400000Y-47904000D03*
%TD*%
%TO.C,R10*%
X53400000Y-45292000D03*
X63400000Y-45292000D03*
%TD*%
%TO.C,R9*%
X53400000Y-42680000D03*
X63400000Y-42680000D03*
%TD*%
%TO.C,R8*%
X63400000Y-40100000D03*
X53400000Y-40100000D03*
%TD*%
%TO.C,R7*%
X63400000Y-37600000D03*
X53400000Y-37600000D03*
%TD*%
%TO.C,R6*%
X63400000Y-34844000D03*
X53400000Y-34844000D03*
%TD*%
%TO.C,R5*%
X53400000Y-32232000D03*
X63400000Y-32232000D03*
%TD*%
%TO.C,R4*%
X53400000Y-29620000D03*
X63400000Y-29620000D03*
%TD*%
%TO.C,R3*%
X53400000Y-27008000D03*
X63400000Y-27008000D03*
%TD*%
%TO.C,R2*%
X53400000Y-24396000D03*
X63400000Y-24396000D03*
%TD*%
%TO.C,R1*%
X53400000Y-21784000D03*
X63400000Y-21784000D03*
%TD*%
%TO.C,LS1*%
X37220000Y-25500000D03*
X42300000Y-25500000D03*
%TD*%
D13*
%TO.C,J6*%
X88875000Y-37925000D03*
D14*
X86335000Y-37925000D03*
X83795000Y-37925000D03*
X81255000Y-37925000D03*
X78715000Y-37925000D03*
X76175000Y-37925000D03*
X73635000Y-37925000D03*
X71095000Y-37925000D03*
%TD*%
D13*
%TO.C,J5*%
X83800000Y-33300000D03*
D14*
X81260000Y-33300000D03*
X78720000Y-33300000D03*
X76180000Y-33300000D03*
%TD*%
D15*
%TO.C,J4*%
X127000000Y-61000000D03*
D16*
X127000000Y-63500000D03*
%TD*%
D15*
%TO.C,J3*%
X126900000Y-37000000D03*
D16*
X126900000Y-39500000D03*
%TD*%
D13*
%TO.C,J2*%
X112200000Y-85060000D03*
D14*
X112200000Y-87600000D03*
X112200000Y-90140000D03*
%TD*%
D13*
%TO.C,J1*%
X112200000Y-74560000D03*
D14*
X112200000Y-77100000D03*
X112200000Y-79640000D03*
%TD*%
D10*
%TO.C,D4*%
X104458888Y-56700000D03*
X104458888Y-59240000D03*
%TD*%
%TO.C,D3*%
X91758888Y-56648888D03*
X91758888Y-59188888D03*
%TD*%
%TO.C,D2*%
X76758888Y-56748888D03*
X76758888Y-59288888D03*
%TD*%
%TO.C,D1*%
X61558888Y-56648888D03*
X61558888Y-59188888D03*
%TD*%
%TO.C,C8*%
X115765112Y-75600000D03*
X120845112Y-75600000D03*
%TD*%
%TO.C,C7*%
X123365112Y-75600000D03*
X128445112Y-75600000D03*
%TD*%
D11*
%TO.C,C6*%
X117300000Y-70700000D03*
D12*
X119800000Y-70700000D03*
%TD*%
D11*
%TO.C,C5*%
X124700000Y-70700000D03*
D12*
X127200000Y-70700000D03*
%TD*%
D10*
%TO.C,C2*%
X123560000Y-51400000D03*
X128640000Y-51400000D03*
%TD*%
%TO.C,C1*%
X118700000Y-54160000D03*
X118700000Y-59240000D03*
%TD*%
D17*
%TO.C,REF\u002A\u002A*%
X35000000Y-84000000D03*
%TD*%
%TO.C,REF\u002A\u002A*%
X89900000Y-23500000D03*
%TD*%
%TO.C,REF\u002A\u002A*%
X125000000Y-84000000D03*
%TD*%
%TO.C,REF\u002A\u002A*%
X89900000Y-43300000D03*
%TD*%
%TO.C,REF\u002A\u002A*%
X70100000Y-23500000D03*
%TD*%
%TO.C,REF\u002A\u002A*%
X70100000Y-43300000D03*
%TD*%
M02*
