%TF.GenerationSoftware,KiCad,Pcbnew,8.0.8*%
%TF.CreationDate,2025-08-25T22:33:34+09:00*%
%TF.ProjectId,Line_follower_robot,4c696e65-5f66-46f6-9c6c-6f7765725f72,rev?*%
%TF.SameCoordinates,Original*%
%TF.FileFunction,Drillmap*%
%TF.FilePolarity,Positive*%
%FSLAX45Y45*%
G04 Gerber Fmt 4.5, Leading zero omitted, Abs format (unit mm)*
G04 Created by KiCad (PCBNEW 8.0.8) date 2025-08-25 22:33:34*
%MOMM*%
%LPD*%
G01*
G04 APERTURE LIST*
%ADD10C,0.050000*%
%ADD11C,0.200000*%
%ADD12C,0.100000*%
G04 APERTURE END LIST*
D10*
X3000000Y-12000000D02*
X4100000Y-12000000D01*
X13000000Y-9250000D02*
X13000000Y-2400000D01*
X12600000Y-2000000D02*
G75*
G02*
X13000000Y-2400000I0J-400000D01*
G01*
X11500000Y-11800000D02*
X11500000Y-12000000D01*
X11900000Y-11800000D02*
X11500000Y-11800000D01*
X13000000Y-12000000D02*
X13000000Y-9250000D01*
X4490000Y-12000000D02*
X4490000Y-11800000D01*
X4490000Y-11800000D02*
X4100000Y-11800000D01*
X11900000Y-12000000D02*
X11900000Y-11800000D01*
X3000000Y-12000000D02*
X3000000Y-9250000D01*
X11900000Y-12000000D02*
X13000000Y-12000000D01*
X4100000Y-11800000D02*
X4100000Y-12000000D01*
X4490000Y-12000000D02*
X11500000Y-12000000D01*
X3400000Y-2000000D02*
X12600000Y-2000000D01*
X3000000Y-2400000D02*
G75*
G02*
X3400000Y-2000000I400000J0D01*
G01*
X3000000Y-9250000D02*
X3000000Y-2400000D01*
D11*
D12*
X3075000Y-5415000D02*
X3105000Y-5445000D01*
X3105000Y-5415000D02*
X3075000Y-5445000D01*
X3075000Y-7345000D02*
X3105000Y-7375000D01*
X3105000Y-7345000D02*
X3075000Y-7375000D01*
X3085000Y-2375000D02*
X3115000Y-2405000D01*
X3115000Y-2375000D02*
X3085000Y-2405000D01*
X3085000Y-2625000D02*
X3115000Y-2655000D01*
X3115000Y-2625000D02*
X3085000Y-2655000D01*
X3085000Y-2885000D02*
X3115000Y-2915000D01*
X3115000Y-2885000D02*
X3085000Y-2915000D01*
X3085000Y-4665000D02*
X3115000Y-4695000D01*
X3115000Y-4665000D02*
X3085000Y-4695000D01*
X3295000Y-2095000D02*
X3325000Y-2125000D01*
X3325000Y-2095000D02*
X3295000Y-2125000D01*
X3355000Y-4655000D02*
X3385000Y-4685000D01*
X3385000Y-4655000D02*
X3355000Y-4685000D01*
X3375000Y-2375000D02*
X3405000Y-2405000D01*
X3405000Y-2375000D02*
X3375000Y-2405000D01*
X3375000Y-2625000D02*
X3405000Y-2655000D01*
X3405000Y-2625000D02*
X3375000Y-2655000D01*
X3375000Y-2885000D02*
X3405000Y-2915000D01*
X3405000Y-2885000D02*
X3375000Y-2915000D01*
X3375000Y-4245000D02*
X3405000Y-4275000D01*
X3405000Y-4245000D02*
X3375000Y-4275000D01*
X3375000Y-5415000D02*
X3405000Y-5445000D01*
X3405000Y-5415000D02*
X3375000Y-5445000D01*
X3385000Y-3265000D02*
X3415000Y-3295000D01*
X3415000Y-3265000D02*
X3385000Y-3295000D01*
X3515000Y-6555000D02*
X3545000Y-6585000D01*
X3545000Y-6555000D02*
X3515000Y-6585000D01*
X3645000Y-3975000D02*
X3675000Y-4005000D01*
X3675000Y-3975000D02*
X3645000Y-4005000D01*
X3785000Y-2225000D02*
X3815000Y-2255000D01*
X3815000Y-2225000D02*
X3785000Y-2255000D01*
X3805000Y-7355000D02*
X3835000Y-7385000D01*
X3835000Y-7355000D02*
X3805000Y-7385000D01*
X3995000Y-4595000D02*
X4025000Y-4625000D01*
X4025000Y-4595000D02*
X3995000Y-4625000D01*
X4095000Y-3255000D02*
X4125000Y-3285000D01*
X4125000Y-3255000D02*
X4095000Y-3285000D01*
X4105000Y-5015000D02*
X4135000Y-5045000D01*
X4135000Y-5015000D02*
X4105000Y-5045000D01*
X4115000Y-6655000D02*
X4145000Y-6685000D01*
X4145000Y-6655000D02*
X4115000Y-6685000D01*
X4135000Y-7305000D02*
X4165000Y-7335000D01*
X4165000Y-7305000D02*
X4135000Y-7335000D01*
X4215000Y-5745000D02*
X4245000Y-5775000D01*
X4245000Y-5745000D02*
X4215000Y-5775000D01*
X4225000Y-3265000D02*
X4255000Y-3295000D01*
X4255000Y-3265000D02*
X4225000Y-3295000D01*
X4435000Y-3975000D02*
X4465000Y-4005000D01*
X4465000Y-3975000D02*
X4435000Y-4005000D01*
X4575000Y-7315000D02*
X4605000Y-7345000D01*
X4605000Y-7315000D02*
X4575000Y-7345000D01*
X4855000Y-6695000D02*
X4885000Y-6725000D01*
X4885000Y-6695000D02*
X4855000Y-6725000D01*
X4895000Y-6105000D02*
X4925000Y-6135000D01*
X4925000Y-6105000D02*
X4895000Y-6135000D01*
X4965000Y-7285000D02*
X4995000Y-7315000D01*
X4995000Y-7285000D02*
X4965000Y-7315000D01*
X5155000Y-2085000D02*
X5185000Y-2115000D01*
X5185000Y-2085000D02*
X5155000Y-2115000D01*
X5175000Y-3345000D02*
X5205000Y-3375000D01*
X5205000Y-3345000D02*
X5175000Y-3375000D01*
X5205000Y-3625000D02*
X5235000Y-3655000D01*
X5235000Y-3625000D02*
X5205000Y-3655000D01*
X5205000Y-3875000D02*
X5235000Y-3905000D01*
X5235000Y-3875000D02*
X5205000Y-3905000D01*
X5225000Y-5895000D02*
X5255000Y-5925000D01*
X5255000Y-5895000D02*
X5225000Y-5925000D01*
X5325000Y-7355000D02*
X5355000Y-7385000D01*
X5355000Y-7355000D02*
X5325000Y-7385000D01*
X5425000Y-5955000D02*
X5455000Y-5985000D01*
X5455000Y-5955000D02*
X5425000Y-5985000D01*
X5435000Y-2815000D02*
X5465000Y-2845000D01*
X5465000Y-2815000D02*
X5435000Y-2845000D01*
X5475000Y-3345000D02*
X5505000Y-3375000D01*
X5505000Y-3345000D02*
X5475000Y-3375000D01*
X5505000Y-7195000D02*
X5535000Y-7225000D01*
X5535000Y-7195000D02*
X5505000Y-7225000D01*
X5515000Y-2105000D02*
X5545000Y-2135000D01*
X5545000Y-2105000D02*
X5515000Y-2135000D01*
X5515000Y-3995000D02*
X5545000Y-4025000D01*
X5545000Y-3995000D02*
X5515000Y-4025000D01*
X5585000Y-4585000D02*
X5615000Y-4615000D01*
X5615000Y-4585000D02*
X5585000Y-4615000D01*
X5585000Y-6205000D02*
X5615000Y-6235000D01*
X5615000Y-6205000D02*
X5585000Y-6235000D01*
X5665000Y-6585000D02*
X5695000Y-6615000D01*
X5695000Y-6585000D02*
X5665000Y-6615000D01*
X5865000Y-6445000D02*
X5895000Y-6475000D01*
X5895000Y-6445000D02*
X5865000Y-6475000D01*
X5945000Y-2125000D02*
X5975000Y-2155000D01*
X5975000Y-2125000D02*
X5945000Y-2155000D01*
X5982573Y-3137426D02*
X6012573Y-3167426D01*
X6012573Y-3137426D02*
X5982573Y-3167426D01*
X5985000Y-3055000D02*
X6015000Y-3085000D01*
X6015000Y-3055000D02*
X5985000Y-3085000D01*
X5995000Y-4015000D02*
X6025000Y-4045000D01*
X6025000Y-4015000D02*
X5995000Y-4045000D01*
X6025000Y-2825000D02*
X6055000Y-2855000D01*
X6055000Y-2825000D02*
X6025000Y-2855000D01*
X6045000Y-4655000D02*
X6075000Y-4685000D01*
X6075000Y-4655000D02*
X6045000Y-4685000D01*
X6335000Y-5535000D02*
X6365000Y-5565000D01*
X6365000Y-5535000D02*
X6335000Y-5565000D01*
X6435000Y-4385000D02*
X6465000Y-4415000D01*
X6465000Y-4385000D02*
X6435000Y-4415000D01*
X6445000Y-2835000D02*
X6475000Y-2865000D01*
X6475000Y-2835000D02*
X6445000Y-2865000D01*
X6485000Y-3195000D02*
X6515000Y-3225000D01*
X6515000Y-3195000D02*
X6485000Y-3225000D01*
X6495000Y-2175000D02*
X6525000Y-2205000D01*
X6525000Y-2175000D02*
X6495000Y-2205000D01*
X6605000Y-3415000D02*
X6635000Y-3445000D01*
X6635000Y-3415000D02*
X6605000Y-3445000D01*
X6705000Y-6465000D02*
X6735000Y-6495000D01*
X6735000Y-6465000D02*
X6705000Y-6495000D01*
X6805000Y-5955000D02*
X6835000Y-5985000D01*
X6835000Y-5955000D02*
X6805000Y-5985000D01*
X6905000Y-4815000D02*
X6935000Y-4845000D01*
X6935000Y-4815000D02*
X6905000Y-4845000D01*
X6925000Y-5225000D02*
X6955000Y-5255000D01*
X6955000Y-5225000D02*
X6925000Y-5255000D01*
X6995000Y-3635000D02*
X7025000Y-3665000D01*
X7025000Y-3635000D02*
X6995000Y-3665000D01*
X7385000Y-3205000D02*
X7415000Y-3235000D01*
X7415000Y-3205000D02*
X7385000Y-3235000D01*
X7445000Y-4445000D02*
X7475000Y-4475000D01*
X7475000Y-4445000D02*
X7445000Y-4475000D01*
X7445000Y-4845000D02*
X7475000Y-4875000D01*
X7475000Y-4845000D02*
X7445000Y-4875000D01*
X7455000Y-2235000D02*
X7485000Y-2265000D01*
X7485000Y-2235000D02*
X7455000Y-2265000D01*
X7455000Y-2715000D02*
X7485000Y-2745000D01*
X7485000Y-2715000D02*
X7455000Y-2745000D01*
X7505000Y-5515000D02*
X7535000Y-5545000D01*
X7535000Y-5515000D02*
X7505000Y-5545000D01*
X7655000Y-3945000D02*
X7685000Y-3975000D01*
X7685000Y-3945000D02*
X7655000Y-3975000D01*
X7725000Y-3555000D02*
X7755000Y-3585000D01*
X7755000Y-3555000D02*
X7725000Y-3585000D01*
X7755000Y-4385000D02*
X7785000Y-4415000D01*
X7785000Y-4385000D02*
X7755000Y-4415000D01*
X7805000Y-5205000D02*
X7835000Y-5235000D01*
X7835000Y-5205000D02*
X7805000Y-5235000D01*
X7955000Y-4785000D02*
X7985000Y-4815000D01*
X7985000Y-4785000D02*
X7955000Y-4815000D01*
X7995000Y-3905000D02*
X8025000Y-3935000D01*
X8025000Y-3905000D02*
X7995000Y-3935000D01*
X8055000Y-4345000D02*
X8085000Y-4375000D01*
X8085000Y-4345000D02*
X8055000Y-4375000D01*
X8355000Y-5515000D02*
X8385000Y-5545000D01*
X8385000Y-5515000D02*
X8355000Y-5545000D01*
X8375000Y-4095000D02*
X8405000Y-4125000D01*
X8405000Y-4095000D02*
X8375000Y-4125000D01*
X8415000Y-5245000D02*
X8445000Y-5275000D01*
X8445000Y-5245000D02*
X8415000Y-5275000D01*
X8455000Y-2235000D02*
X8485000Y-2265000D01*
X8485000Y-2235000D02*
X8455000Y-2265000D01*
X8455000Y-2715000D02*
X8485000Y-2745000D01*
X8485000Y-2715000D02*
X8455000Y-2745000D01*
X8805000Y-3155000D02*
X8835000Y-3185000D01*
X8835000Y-3155000D02*
X8805000Y-3185000D01*
X8815000Y-5135000D02*
X8845000Y-5165000D01*
X8845000Y-5135000D02*
X8815000Y-5165000D01*
X8965000Y-4875000D02*
X8995000Y-4905000D01*
X8995000Y-4875000D02*
X8965000Y-4905000D01*
X9245000Y-2865000D02*
X9275000Y-2895000D01*
X9275000Y-2865000D02*
X9245000Y-2895000D01*
X9255000Y-4395000D02*
X9285000Y-4425000D01*
X9285000Y-4395000D02*
X9255000Y-4425000D01*
X9295000Y-2265000D02*
X9325000Y-2295000D01*
X9325000Y-2265000D02*
X9295000Y-2295000D01*
X9335000Y-4065000D02*
X9365000Y-4095000D01*
X9365000Y-4065000D02*
X9335000Y-4095000D01*
X9395000Y-5435000D02*
X9425000Y-5465000D01*
X9425000Y-5435000D02*
X9395000Y-5465000D01*
X9505000Y-5145000D02*
X9535000Y-5175000D01*
X9535000Y-5145000D02*
X9505000Y-5175000D01*
X9565000Y-6475000D02*
X9595000Y-6505000D01*
X9595000Y-6475000D02*
X9565000Y-6505000D01*
X9595000Y-3595000D02*
X9625000Y-3625000D01*
X9625000Y-3595000D02*
X9595000Y-3625000D01*
X9625000Y-4885000D02*
X9655000Y-4915000D01*
X9655000Y-4885000D02*
X9625000Y-4915000D01*
X9655000Y-4395000D02*
X9685000Y-4425000D01*
X9685000Y-4395000D02*
X9655000Y-4425000D01*
X9765000Y-2635000D02*
X9795000Y-2665000D01*
X9795000Y-2635000D02*
X9765000Y-2665000D01*
X9895000Y-2065000D02*
X9925000Y-2095000D01*
X9925000Y-2065000D02*
X9895000Y-2095000D01*
X10045000Y-4875000D02*
X10075000Y-4905000D01*
X10075000Y-4875000D02*
X10045000Y-4905000D01*
X10275000Y-5705000D02*
X10305000Y-5735000D01*
X10305000Y-5705000D02*
X10275000Y-5735000D01*
X10293785Y-5406458D02*
X10323785Y-5436458D01*
X10323785Y-5406458D02*
X10293785Y-5436458D01*
X10345000Y-5345000D02*
X10375000Y-5375000D01*
X10375000Y-5345000D02*
X10345000Y-5375000D01*
X10405000Y-5215000D02*
X10435000Y-5245000D01*
X10435000Y-5215000D02*
X10405000Y-5245000D01*
X10445000Y-3015000D02*
X10475000Y-3045000D01*
X10475000Y-3015000D02*
X10445000Y-3045000D01*
X10445000Y-4655000D02*
X10475000Y-4685000D01*
X10475000Y-4655000D02*
X10445000Y-4685000D01*
X10505000Y-4945000D02*
X10535000Y-4975000D01*
X10535000Y-4945000D02*
X10505000Y-4975000D01*
X10505000Y-6055000D02*
X10535000Y-6085000D01*
X10535000Y-6055000D02*
X10505000Y-6085000D01*
X10535000Y-2125000D02*
X10565000Y-2155000D01*
X10565000Y-2125000D02*
X10535000Y-2155000D01*
X10595000Y-6065000D02*
X10625000Y-6095000D01*
X10625000Y-6065000D02*
X10595000Y-6095000D01*
X10685000Y-5965000D02*
X10715000Y-5995000D01*
X10715000Y-5965000D02*
X10685000Y-5995000D01*
X10695000Y-5765000D02*
X10725000Y-5795000D01*
X10725000Y-5765000D02*
X10695000Y-5795000D01*
X10705000Y-5355000D02*
X10735000Y-5385000D01*
X10735000Y-5355000D02*
X10705000Y-5385000D01*
X10725000Y-7265000D02*
X10755000Y-7295000D01*
X10755000Y-7265000D02*
X10725000Y-7295000D01*
X10805000Y-5765000D02*
X10835000Y-5795000D01*
X10835000Y-5765000D02*
X10805000Y-5795000D01*
X10825000Y-6265000D02*
X10855000Y-6295000D01*
X10855000Y-6265000D02*
X10825000Y-6295000D01*
X10845000Y-3595000D02*
X10875000Y-3625000D01*
X10875000Y-3595000D02*
X10845000Y-3625000D01*
X10905000Y-5355000D02*
X10935000Y-5385000D01*
X10935000Y-5355000D02*
X10905000Y-5385000D01*
X10905000Y-5585000D02*
X10935000Y-5615000D01*
X10935000Y-5585000D02*
X10905000Y-5615000D01*
X10915000Y-5765000D02*
X10945000Y-5795000D01*
X10945000Y-5765000D02*
X10915000Y-5795000D01*
X11135000Y-3805000D02*
X11165000Y-3835000D01*
X11165000Y-3805000D02*
X11135000Y-3835000D01*
X11145000Y-5515000D02*
X11175000Y-5545000D01*
X11175000Y-5515000D02*
X11145000Y-5545000D01*
X11165000Y-5875000D02*
X11195000Y-5905000D01*
X11195000Y-5875000D02*
X11165000Y-5905000D01*
X11225000Y-5145000D02*
X11255000Y-5175000D01*
X11255000Y-5145000D02*
X11225000Y-5175000D01*
X11355000Y-3335000D02*
X11385000Y-3365000D01*
X11385000Y-3335000D02*
X11355000Y-3365000D01*
X11365000Y-4095000D02*
X11395000Y-4125000D01*
X11395000Y-4095000D02*
X11365000Y-4125000D01*
X11375000Y-3085000D02*
X11405000Y-3115000D01*
X11405000Y-3085000D02*
X11375000Y-3115000D01*
X11445000Y-4375000D02*
X11475000Y-4405000D01*
X11475000Y-4375000D02*
X11445000Y-4405000D01*
X11645000Y-2675000D02*
X11675000Y-2705000D01*
X11675000Y-2675000D02*
X11645000Y-2705000D01*
X11655000Y-4185000D02*
X11685000Y-4215000D01*
X11685000Y-4185000D02*
X11655000Y-4215000D01*
X11815000Y-2065000D02*
X11845000Y-2095000D01*
X11845000Y-2065000D02*
X11815000Y-2095000D01*
X11855000Y-3835000D02*
X11885000Y-3865000D01*
X11885000Y-3835000D02*
X11855000Y-3865000D01*
X12035000Y-5095000D02*
X12065000Y-5125000D01*
X12065000Y-5095000D02*
X12035000Y-5125000D01*
X12125000Y-3595000D02*
X12155000Y-3625000D01*
X12155000Y-3595000D02*
X12125000Y-3625000D01*
X12275000Y-2065000D02*
X12305000Y-2095000D01*
X12305000Y-2065000D02*
X12275000Y-2095000D01*
X12275000Y-2855000D02*
X12305000Y-2885000D01*
X12305000Y-2855000D02*
X12275000Y-2885000D01*
X12295000Y-2625000D02*
X12325000Y-2655000D01*
X12325000Y-2625000D02*
X12295000Y-2655000D01*
X3268100Y-2264000D02*
G75*
G02*
X3191900Y-2264000I-38100J0D01*
G01*
X3191900Y-2264000D02*
G75*
G02*
X3268100Y-2264000I38100J0D01*
G01*
X3268100Y-2518000D02*
G75*
G02*
X3191900Y-2518000I-38100J0D01*
G01*
X3191900Y-2518000D02*
G75*
G02*
X3268100Y-2518000I38100J0D01*
G01*
X3268100Y-2772000D02*
G75*
G02*
X3191900Y-2772000I-38100J0D01*
G01*
X3191900Y-2772000D02*
G75*
G02*
X3268100Y-2772000I38100J0D01*
G01*
X3268100Y-3026000D02*
G75*
G02*
X3191900Y-3026000I-38100J0D01*
G01*
X3191900Y-3026000D02*
G75*
G02*
X3268100Y-3026000I38100J0D01*
G01*
X3268100Y-3280000D02*
G75*
G02*
X3191900Y-3280000I-38100J0D01*
G01*
X3191900Y-3280000D02*
G75*
G02*
X3268100Y-3280000I38100J0D01*
G01*
X3268100Y-3534000D02*
G75*
G02*
X3191900Y-3534000I-38100J0D01*
G01*
X3191900Y-3534000D02*
G75*
G02*
X3268100Y-3534000I38100J0D01*
G01*
X3268100Y-3788000D02*
G75*
G02*
X3191900Y-3788000I-38100J0D01*
G01*
X3191900Y-3788000D02*
G75*
G02*
X3268100Y-3788000I38100J0D01*
G01*
X3268100Y-4042000D02*
G75*
G02*
X3191900Y-4042000I-38100J0D01*
G01*
X3191900Y-4042000D02*
G75*
G02*
X3268100Y-4042000I38100J0D01*
G01*
X3268100Y-4296000D02*
G75*
G02*
X3191900Y-4296000I-38100J0D01*
G01*
X3191900Y-4296000D02*
G75*
G02*
X3268100Y-4296000I38100J0D01*
G01*
X3268100Y-4550000D02*
G75*
G02*
X3191900Y-4550000I-38100J0D01*
G01*
X3191900Y-4550000D02*
G75*
G02*
X3268100Y-4550000I38100J0D01*
G01*
X3268100Y-4804000D02*
G75*
G02*
X3191900Y-4804000I-38100J0D01*
G01*
X3191900Y-4804000D02*
G75*
G02*
X3268100Y-4804000I38100J0D01*
G01*
X3268100Y-5058000D02*
G75*
G02*
X3191900Y-5058000I-38100J0D01*
G01*
X3191900Y-5058000D02*
G75*
G02*
X3268100Y-5058000I38100J0D01*
G01*
X3268100Y-5312000D02*
G75*
G02*
X3191900Y-5312000I-38100J0D01*
G01*
X3191900Y-5312000D02*
G75*
G02*
X3268100Y-5312000I38100J0D01*
G01*
X3268100Y-5566000D02*
G75*
G02*
X3191900Y-5566000I-38100J0D01*
G01*
X3191900Y-5566000D02*
G75*
G02*
X3268100Y-5566000I38100J0D01*
G01*
X3268100Y-5820000D02*
G75*
G02*
X3191900Y-5820000I-38100J0D01*
G01*
X3191900Y-5820000D02*
G75*
G02*
X3268100Y-5820000I38100J0D01*
G01*
X3268100Y-6074000D02*
G75*
G02*
X3191900Y-6074000I-38100J0D01*
G01*
X3191900Y-6074000D02*
G75*
G02*
X3268100Y-6074000I38100J0D01*
G01*
X3268100Y-6328000D02*
G75*
G02*
X3191900Y-6328000I-38100J0D01*
G01*
X3191900Y-6328000D02*
G75*
G02*
X3268100Y-6328000I38100J0D01*
G01*
X3268100Y-6582000D02*
G75*
G02*
X3191900Y-6582000I-38100J0D01*
G01*
X3191900Y-6582000D02*
G75*
G02*
X3268100Y-6582000I38100J0D01*
G01*
X3268100Y-6836000D02*
G75*
G02*
X3191900Y-6836000I-38100J0D01*
G01*
X3191900Y-6836000D02*
G75*
G02*
X3268100Y-6836000I38100J0D01*
G01*
X3268100Y-7090000D02*
G75*
G02*
X3191900Y-7090000I-38100J0D01*
G01*
X3191900Y-7090000D02*
G75*
G02*
X3268100Y-7090000I38100J0D01*
G01*
X3760100Y-2550000D02*
G75*
G02*
X3683900Y-2550000I-38100J0D01*
G01*
X3683900Y-2550000D02*
G75*
G02*
X3760100Y-2550000I38100J0D01*
G01*
X4268100Y-2550000D02*
G75*
G02*
X4191900Y-2550000I-38100J0D01*
G01*
X4191900Y-2550000D02*
G75*
G02*
X4268100Y-2550000I38100J0D01*
G01*
X4792100Y-2264000D02*
G75*
G02*
X4715900Y-2264000I-38100J0D01*
G01*
X4715900Y-2264000D02*
G75*
G02*
X4792100Y-2264000I38100J0D01*
G01*
X4792100Y-2518000D02*
G75*
G02*
X4715900Y-2518000I-38100J0D01*
G01*
X4715900Y-2518000D02*
G75*
G02*
X4792100Y-2518000I38100J0D01*
G01*
X4792100Y-2772000D02*
G75*
G02*
X4715900Y-2772000I-38100J0D01*
G01*
X4715900Y-2772000D02*
G75*
G02*
X4792100Y-2772000I38100J0D01*
G01*
X4792100Y-3026000D02*
G75*
G02*
X4715900Y-3026000I-38100J0D01*
G01*
X4715900Y-3026000D02*
G75*
G02*
X4792100Y-3026000I38100J0D01*
G01*
X4792100Y-3280000D02*
G75*
G02*
X4715900Y-3280000I-38100J0D01*
G01*
X4715900Y-3280000D02*
G75*
G02*
X4792100Y-3280000I38100J0D01*
G01*
X4792100Y-3534000D02*
G75*
G02*
X4715900Y-3534000I-38100J0D01*
G01*
X4715900Y-3534000D02*
G75*
G02*
X4792100Y-3534000I38100J0D01*
G01*
X4792100Y-3788000D02*
G75*
G02*
X4715900Y-3788000I-38100J0D01*
G01*
X4715900Y-3788000D02*
G75*
G02*
X4792100Y-3788000I38100J0D01*
G01*
X4792100Y-4042000D02*
G75*
G02*
X4715900Y-4042000I-38100J0D01*
G01*
X4715900Y-4042000D02*
G75*
G02*
X4792100Y-4042000I38100J0D01*
G01*
X4792100Y-4296000D02*
G75*
G02*
X4715900Y-4296000I-38100J0D01*
G01*
X4715900Y-4296000D02*
G75*
G02*
X4792100Y-4296000I38100J0D01*
G01*
X4792100Y-4550000D02*
G75*
G02*
X4715900Y-4550000I-38100J0D01*
G01*
X4715900Y-4550000D02*
G75*
G02*
X4792100Y-4550000I38100J0D01*
G01*
X4792100Y-4804000D02*
G75*
G02*
X4715900Y-4804000I-38100J0D01*
G01*
X4715900Y-4804000D02*
G75*
G02*
X4792100Y-4804000I38100J0D01*
G01*
X4792100Y-5058000D02*
G75*
G02*
X4715900Y-5058000I-38100J0D01*
G01*
X4715900Y-5058000D02*
G75*
G02*
X4792100Y-5058000I38100J0D01*
G01*
X4792100Y-5312000D02*
G75*
G02*
X4715900Y-5312000I-38100J0D01*
G01*
X4715900Y-5312000D02*
G75*
G02*
X4792100Y-5312000I38100J0D01*
G01*
X4792100Y-5566000D02*
G75*
G02*
X4715900Y-5566000I-38100J0D01*
G01*
X4715900Y-5566000D02*
G75*
G02*
X4792100Y-5566000I38100J0D01*
G01*
X4792100Y-5820000D02*
G75*
G02*
X4715900Y-5820000I-38100J0D01*
G01*
X4715900Y-5820000D02*
G75*
G02*
X4792100Y-5820000I38100J0D01*
G01*
X4792100Y-6074000D02*
G75*
G02*
X4715900Y-6074000I-38100J0D01*
G01*
X4715900Y-6074000D02*
G75*
G02*
X4792100Y-6074000I38100J0D01*
G01*
X4792100Y-6328000D02*
G75*
G02*
X4715900Y-6328000I-38100J0D01*
G01*
X4715900Y-6328000D02*
G75*
G02*
X4792100Y-6328000I38100J0D01*
G01*
X4792100Y-6582000D02*
G75*
G02*
X4715900Y-6582000I-38100J0D01*
G01*
X4715900Y-6582000D02*
G75*
G02*
X4792100Y-6582000I38100J0D01*
G01*
X4792100Y-6836000D02*
G75*
G02*
X4715900Y-6836000I-38100J0D01*
G01*
X4715900Y-6836000D02*
G75*
G02*
X4792100Y-6836000I38100J0D01*
G01*
X4792100Y-7090000D02*
G75*
G02*
X4715900Y-7090000I-38100J0D01*
G01*
X4715900Y-7090000D02*
G75*
G02*
X4792100Y-7090000I38100J0D01*
G01*
X5378100Y-2178400D02*
G75*
G02*
X5301900Y-2178400I-38100J0D01*
G01*
X5301900Y-2178400D02*
G75*
G02*
X5378100Y-2178400I38100J0D01*
G01*
X5378100Y-2439600D02*
G75*
G02*
X5301900Y-2439600I-38100J0D01*
G01*
X5301900Y-2439600D02*
G75*
G02*
X5378100Y-2439600I38100J0D01*
G01*
X5378100Y-2700800D02*
G75*
G02*
X5301900Y-2700800I-38100J0D01*
G01*
X5301900Y-2700800D02*
G75*
G02*
X5378100Y-2700800I38100J0D01*
G01*
X5378100Y-2962000D02*
G75*
G02*
X5301900Y-2962000I-38100J0D01*
G01*
X5301900Y-2962000D02*
G75*
G02*
X5378100Y-2962000I38100J0D01*
G01*
X5378100Y-3223200D02*
G75*
G02*
X5301900Y-3223200I-38100J0D01*
G01*
X5301900Y-3223200D02*
G75*
G02*
X5378100Y-3223200I38100J0D01*
G01*
X5378100Y-3484400D02*
G75*
G02*
X5301900Y-3484400I-38100J0D01*
G01*
X5301900Y-3484400D02*
G75*
G02*
X5378100Y-3484400I38100J0D01*
G01*
X5378100Y-3760000D02*
G75*
G02*
X5301900Y-3760000I-38100J0D01*
G01*
X5301900Y-3760000D02*
G75*
G02*
X5378100Y-3760000I38100J0D01*
G01*
X5378100Y-4010000D02*
G75*
G02*
X5301900Y-4010000I-38100J0D01*
G01*
X5301900Y-4010000D02*
G75*
G02*
X5378100Y-4010000I38100J0D01*
G01*
X5378100Y-4268000D02*
G75*
G02*
X5301900Y-4268000I-38100J0D01*
G01*
X5301900Y-4268000D02*
G75*
G02*
X5378100Y-4268000I38100J0D01*
G01*
X5378100Y-4529200D02*
G75*
G02*
X5301900Y-4529200I-38100J0D01*
G01*
X5301900Y-4529200D02*
G75*
G02*
X5378100Y-4529200I38100J0D01*
G01*
X5378100Y-4790400D02*
G75*
G02*
X5301900Y-4790400I-38100J0D01*
G01*
X5301900Y-4790400D02*
G75*
G02*
X5378100Y-4790400I38100J0D01*
G01*
X5378100Y-5051600D02*
G75*
G02*
X5301900Y-5051600I-38100J0D01*
G01*
X5301900Y-5051600D02*
G75*
G02*
X5378100Y-5051600I38100J0D01*
G01*
X5608100Y-5563000D02*
G75*
G02*
X5531900Y-5563000I-38100J0D01*
G01*
X5531900Y-5563000D02*
G75*
G02*
X5608100Y-5563000I38100J0D01*
G01*
X5608100Y-6071000D02*
G75*
G02*
X5531900Y-6071000I-38100J0D01*
G01*
X5531900Y-6071000D02*
G75*
G02*
X5608100Y-6071000I38100J0D01*
G01*
X5862100Y-5563000D02*
G75*
G02*
X5785900Y-5563000I-38100J0D01*
G01*
X5785900Y-5563000D02*
G75*
G02*
X5862100Y-5563000I38100J0D01*
G01*
X5862100Y-6071000D02*
G75*
G02*
X5785900Y-6071000I-38100J0D01*
G01*
X5785900Y-6071000D02*
G75*
G02*
X5862100Y-6071000I38100J0D01*
G01*
X6193989Y-5664889D02*
G75*
G02*
X6117789Y-5664889I-38100J0D01*
G01*
X6117789Y-5664889D02*
G75*
G02*
X6193989Y-5664889I38100J0D01*
G01*
X6193989Y-5918889D02*
G75*
G02*
X6117789Y-5918889I-38100J0D01*
G01*
X6117789Y-5918889D02*
G75*
G02*
X6193989Y-5918889I38100J0D01*
G01*
X6378100Y-2178400D02*
G75*
G02*
X6301900Y-2178400I-38100J0D01*
G01*
X6301900Y-2178400D02*
G75*
G02*
X6378100Y-2178400I38100J0D01*
G01*
X6378100Y-2439600D02*
G75*
G02*
X6301900Y-2439600I-38100J0D01*
G01*
X6301900Y-2439600D02*
G75*
G02*
X6378100Y-2439600I38100J0D01*
G01*
X6378100Y-2700800D02*
G75*
G02*
X6301900Y-2700800I-38100J0D01*
G01*
X6301900Y-2700800D02*
G75*
G02*
X6378100Y-2700800I38100J0D01*
G01*
X6378100Y-2962000D02*
G75*
G02*
X6301900Y-2962000I-38100J0D01*
G01*
X6301900Y-2962000D02*
G75*
G02*
X6378100Y-2962000I38100J0D01*
G01*
X6378100Y-3223200D02*
G75*
G02*
X6301900Y-3223200I-38100J0D01*
G01*
X6301900Y-3223200D02*
G75*
G02*
X6378100Y-3223200I38100J0D01*
G01*
X6378100Y-3484400D02*
G75*
G02*
X6301900Y-3484400I-38100J0D01*
G01*
X6301900Y-3484400D02*
G75*
G02*
X6378100Y-3484400I38100J0D01*
G01*
X6378100Y-3760000D02*
G75*
G02*
X6301900Y-3760000I-38100J0D01*
G01*
X6301900Y-3760000D02*
G75*
G02*
X6378100Y-3760000I38100J0D01*
G01*
X6378100Y-4010000D02*
G75*
G02*
X6301900Y-4010000I-38100J0D01*
G01*
X6301900Y-4010000D02*
G75*
G02*
X6378100Y-4010000I38100J0D01*
G01*
X6378100Y-4268000D02*
G75*
G02*
X6301900Y-4268000I-38100J0D01*
G01*
X6301900Y-4268000D02*
G75*
G02*
X6378100Y-4268000I38100J0D01*
G01*
X6378100Y-4529200D02*
G75*
G02*
X6301900Y-4529200I-38100J0D01*
G01*
X6301900Y-4529200D02*
G75*
G02*
X6378100Y-4529200I38100J0D01*
G01*
X6378100Y-4790400D02*
G75*
G02*
X6301900Y-4790400I-38100J0D01*
G01*
X6301900Y-4790400D02*
G75*
G02*
X6378100Y-4790400I38100J0D01*
G01*
X6378100Y-5051600D02*
G75*
G02*
X6301900Y-5051600I-38100J0D01*
G01*
X6301900Y-5051600D02*
G75*
G02*
X6378100Y-5051600I38100J0D01*
G01*
X7108100Y-5563000D02*
G75*
G02*
X7031900Y-5563000I-38100J0D01*
G01*
X7031900Y-5563000D02*
G75*
G02*
X7108100Y-5563000I38100J0D01*
G01*
X7108100Y-6071000D02*
G75*
G02*
X7031900Y-6071000I-38100J0D01*
G01*
X7031900Y-6071000D02*
G75*
G02*
X7108100Y-6071000I38100J0D01*
G01*
X7362100Y-5563000D02*
G75*
G02*
X7285900Y-5563000I-38100J0D01*
G01*
X7285900Y-5563000D02*
G75*
G02*
X7362100Y-5563000I38100J0D01*
G01*
X7362100Y-6071000D02*
G75*
G02*
X7285900Y-6071000I-38100J0D01*
G01*
X7285900Y-6071000D02*
G75*
G02*
X7362100Y-6071000I38100J0D01*
G01*
X7713989Y-5674889D02*
G75*
G02*
X7637789Y-5674889I-38100J0D01*
G01*
X7637789Y-5674889D02*
G75*
G02*
X7713989Y-5674889I38100J0D01*
G01*
X7713989Y-5928889D02*
G75*
G02*
X7637789Y-5928889I-38100J0D01*
G01*
X7637789Y-5928889D02*
G75*
G02*
X7713989Y-5928889I38100J0D01*
G01*
X8609100Y-5565000D02*
G75*
G02*
X8532900Y-5565000I-38100J0D01*
G01*
X8532900Y-5565000D02*
G75*
G02*
X8609100Y-5565000I38100J0D01*
G01*
X8609100Y-6073000D02*
G75*
G02*
X8532900Y-6073000I-38100J0D01*
G01*
X8532900Y-6073000D02*
G75*
G02*
X8609100Y-6073000I38100J0D01*
G01*
X8863100Y-5565000D02*
G75*
G02*
X8786900Y-5565000I-38100J0D01*
G01*
X8786900Y-5565000D02*
G75*
G02*
X8863100Y-5565000I38100J0D01*
G01*
X8863100Y-6073000D02*
G75*
G02*
X8786900Y-6073000I-38100J0D01*
G01*
X8786900Y-6073000D02*
G75*
G02*
X8863100Y-6073000I38100J0D01*
G01*
X9213989Y-5664889D02*
G75*
G02*
X9137789Y-5664889I-38100J0D01*
G01*
X9137789Y-5664889D02*
G75*
G02*
X9213989Y-5664889I38100J0D01*
G01*
X9213989Y-5918889D02*
G75*
G02*
X9137789Y-5918889I-38100J0D01*
G01*
X9137789Y-5918889D02*
G75*
G02*
X9213989Y-5918889I38100J0D01*
G01*
X9597100Y-3760000D02*
G75*
G02*
X9520900Y-3760000I-38100J0D01*
G01*
X9520900Y-3760000D02*
G75*
G02*
X9597100Y-3760000I38100J0D01*
G01*
X9724100Y-2504000D02*
G75*
G02*
X9647900Y-2504000I-38100J0D01*
G01*
X9647900Y-2504000D02*
G75*
G02*
X9724100Y-2504000I38100J0D01*
G01*
X9873100Y-5586000D02*
G75*
G02*
X9796900Y-5586000I-38100J0D01*
G01*
X9796900Y-5586000D02*
G75*
G02*
X9873100Y-5586000I38100J0D01*
G01*
X9873100Y-6094000D02*
G75*
G02*
X9796900Y-6094000I-38100J0D01*
G01*
X9796900Y-6094000D02*
G75*
G02*
X9873100Y-6094000I38100J0D01*
G01*
X9978100Y-2250000D02*
G75*
G02*
X9901900Y-2250000I-38100J0D01*
G01*
X9901900Y-2250000D02*
G75*
G02*
X9978100Y-2250000I38100J0D01*
G01*
X10127100Y-5586000D02*
G75*
G02*
X10050900Y-5586000I-38100J0D01*
G01*
X10050900Y-5586000D02*
G75*
G02*
X10127100Y-5586000I38100J0D01*
G01*
X10127100Y-6094000D02*
G75*
G02*
X10050900Y-6094000I-38100J0D01*
G01*
X10050900Y-6094000D02*
G75*
G02*
X10127100Y-6094000I38100J0D01*
G01*
X10232100Y-2504000D02*
G75*
G02*
X10155900Y-2504000I-38100J0D01*
G01*
X10155900Y-2504000D02*
G75*
G02*
X10232100Y-2504000I38100J0D01*
G01*
X10359100Y-3760000D02*
G75*
G02*
X10282900Y-3760000I-38100J0D01*
G01*
X10282900Y-3760000D02*
G75*
G02*
X10359100Y-3760000I38100J0D01*
G01*
X10483989Y-5670000D02*
G75*
G02*
X10407789Y-5670000I-38100J0D01*
G01*
X10407789Y-5670000D02*
G75*
G02*
X10483989Y-5670000I38100J0D01*
G01*
X10483989Y-5924000D02*
G75*
G02*
X10407789Y-5924000I-38100J0D01*
G01*
X10407789Y-5924000D02*
G75*
G02*
X10483989Y-5924000I38100J0D01*
G01*
X10786100Y-2208000D02*
G75*
G02*
X10709900Y-2208000I-38100J0D01*
G01*
X10709900Y-2208000D02*
G75*
G02*
X10786100Y-2208000I38100J0D01*
G01*
X10786100Y-2462000D02*
G75*
G02*
X10709900Y-2462000I-38100J0D01*
G01*
X10709900Y-2462000D02*
G75*
G02*
X10786100Y-2462000I38100J0D01*
G01*
X10786100Y-2716000D02*
G75*
G02*
X10709900Y-2716000I-38100J0D01*
G01*
X10709900Y-2716000D02*
G75*
G02*
X10786100Y-2716000I38100J0D01*
G01*
X10786100Y-2970000D02*
G75*
G02*
X10709900Y-2970000I-38100J0D01*
G01*
X10709900Y-2970000D02*
G75*
G02*
X10786100Y-2970000I38100J0D01*
G01*
X10786100Y-3224000D02*
G75*
G02*
X10709900Y-3224000I-38100J0D01*
G01*
X10709900Y-3224000D02*
G75*
G02*
X10786100Y-3224000I38100J0D01*
G01*
X10786100Y-3478000D02*
G75*
G02*
X10709900Y-3478000I-38100J0D01*
G01*
X10709900Y-3478000D02*
G75*
G02*
X10786100Y-3478000I38100J0D01*
G01*
X10786100Y-3732000D02*
G75*
G02*
X10709900Y-3732000I-38100J0D01*
G01*
X10709900Y-3732000D02*
G75*
G02*
X10786100Y-3732000I38100J0D01*
G01*
X10786100Y-3986000D02*
G75*
G02*
X10709900Y-3986000I-38100J0D01*
G01*
X10709900Y-3986000D02*
G75*
G02*
X10786100Y-3986000I38100J0D01*
G01*
X10786100Y-4240000D02*
G75*
G02*
X10709900Y-4240000I-38100J0D01*
G01*
X10709900Y-4240000D02*
G75*
G02*
X10786100Y-4240000I38100J0D01*
G01*
X11032500Y-3480000D02*
G75*
G02*
X10956300Y-3480000I-38100J0D01*
G01*
X10956300Y-3480000D02*
G75*
G02*
X11032500Y-3480000I38100J0D01*
G01*
X11032500Y-4480000D02*
G75*
G02*
X10956300Y-4480000I-38100J0D01*
G01*
X10956300Y-4480000D02*
G75*
G02*
X11032500Y-4480000I38100J0D01*
G01*
X11043700Y-2210000D02*
G75*
G02*
X10967500Y-2210000I-38100J0D01*
G01*
X10967500Y-2210000D02*
G75*
G02*
X11043700Y-2210000I38100J0D01*
G01*
X11043700Y-3210000D02*
G75*
G02*
X10967500Y-3210000I-38100J0D01*
G01*
X10967500Y-3210000D02*
G75*
G02*
X11043700Y-3210000I38100J0D01*
G01*
X11293700Y-2210000D02*
G75*
G02*
X11217500Y-2210000I-38100J0D01*
G01*
X11217500Y-2210000D02*
G75*
G02*
X11293700Y-2210000I38100J0D01*
G01*
X11293700Y-3210000D02*
G75*
G02*
X11217500Y-3210000I-38100J0D01*
G01*
X11217500Y-3210000D02*
G75*
G02*
X11293700Y-3210000I38100J0D01*
G01*
X11293700Y-3480000D02*
G75*
G02*
X11217500Y-3480000I-38100J0D01*
G01*
X11217500Y-3480000D02*
G75*
G02*
X11293700Y-3480000I38100J0D01*
G01*
X11293700Y-4480000D02*
G75*
G02*
X11217500Y-4480000I-38100J0D01*
G01*
X11217500Y-4480000D02*
G75*
G02*
X11293700Y-4480000I38100J0D01*
G01*
X11548100Y-2208000D02*
G75*
G02*
X11471900Y-2208000I-38100J0D01*
G01*
X11471900Y-2208000D02*
G75*
G02*
X11548100Y-2208000I38100J0D01*
G01*
X11548100Y-2462000D02*
G75*
G02*
X11471900Y-2462000I-38100J0D01*
G01*
X11471900Y-2462000D02*
G75*
G02*
X11548100Y-2462000I38100J0D01*
G01*
X11548100Y-2716000D02*
G75*
G02*
X11471900Y-2716000I-38100J0D01*
G01*
X11471900Y-2716000D02*
G75*
G02*
X11548100Y-2716000I38100J0D01*
G01*
X11548100Y-2970000D02*
G75*
G02*
X11471900Y-2970000I-38100J0D01*
G01*
X11471900Y-2970000D02*
G75*
G02*
X11548100Y-2970000I38100J0D01*
G01*
X11548100Y-3224000D02*
G75*
G02*
X11471900Y-3224000I-38100J0D01*
G01*
X11471900Y-3224000D02*
G75*
G02*
X11548100Y-3224000I38100J0D01*
G01*
X11548100Y-3478000D02*
G75*
G02*
X11471900Y-3478000I-38100J0D01*
G01*
X11471900Y-3478000D02*
G75*
G02*
X11548100Y-3478000I38100J0D01*
G01*
X11548100Y-3732000D02*
G75*
G02*
X11471900Y-3732000I-38100J0D01*
G01*
X11471900Y-3732000D02*
G75*
G02*
X11548100Y-3732000I38100J0D01*
G01*
X11548100Y-3986000D02*
G75*
G02*
X11471900Y-3986000I-38100J0D01*
G01*
X11471900Y-3986000D02*
G75*
G02*
X11548100Y-3986000I38100J0D01*
G01*
X11548100Y-4240000D02*
G75*
G02*
X11471900Y-4240000I-38100J0D01*
G01*
X11471900Y-4240000D02*
G75*
G02*
X11548100Y-4240000I38100J0D01*
G01*
X11614611Y-7560000D02*
G75*
G02*
X11538411Y-7560000I-38100J0D01*
G01*
X11538411Y-7560000D02*
G75*
G02*
X11614611Y-7560000I38100J0D01*
G01*
X11802500Y-3480000D02*
G75*
G02*
X11726300Y-3480000I-38100J0D01*
G01*
X11726300Y-3480000D02*
G75*
G02*
X11802500Y-3480000I38100J0D01*
G01*
X11802500Y-4480000D02*
G75*
G02*
X11726300Y-4480000I-38100J0D01*
G01*
X11726300Y-4480000D02*
G75*
G02*
X11802500Y-4480000I38100J0D01*
G01*
X11802989Y-2221889D02*
G75*
G02*
X11726789Y-2221889I-38100J0D01*
G01*
X11726789Y-2221889D02*
G75*
G02*
X11802989Y-2221889I38100J0D01*
G01*
X11908100Y-5416000D02*
G75*
G02*
X11831900Y-5416000I-38100J0D01*
G01*
X11831900Y-5416000D02*
G75*
G02*
X11908100Y-5416000I38100J0D01*
G01*
X11908100Y-5924000D02*
G75*
G02*
X11831900Y-5924000I-38100J0D01*
G01*
X11831900Y-5924000D02*
G75*
G02*
X11908100Y-5924000I38100J0D01*
G01*
X12056989Y-2221889D02*
G75*
G02*
X11980789Y-2221889I-38100J0D01*
G01*
X11980789Y-2221889D02*
G75*
G02*
X12056989Y-2221889I38100J0D01*
G01*
X12082500Y-3480000D02*
G75*
G02*
X12006300Y-3480000I-38100J0D01*
G01*
X12006300Y-3480000D02*
G75*
G02*
X12082500Y-3480000I38100J0D01*
G01*
X12082500Y-4480000D02*
G75*
G02*
X12006300Y-4480000I-38100J0D01*
G01*
X12006300Y-4480000D02*
G75*
G02*
X12082500Y-4480000I38100J0D01*
G01*
X12122611Y-7560000D02*
G75*
G02*
X12046411Y-7560000I-38100J0D01*
G01*
X12046411Y-7560000D02*
G75*
G02*
X12122611Y-7560000I38100J0D01*
G01*
X12338100Y-5530000D02*
G75*
G02*
X12261900Y-5530000I-38100J0D01*
G01*
X12261900Y-5530000D02*
G75*
G02*
X12338100Y-5530000I38100J0D01*
G01*
X12342989Y-2221889D02*
G75*
G02*
X12266789Y-2221889I-38100J0D01*
G01*
X12266789Y-2221889D02*
G75*
G02*
X12342989Y-2221889I38100J0D01*
G01*
X12374611Y-7560000D02*
G75*
G02*
X12298411Y-7560000I-38100J0D01*
G01*
X12298411Y-7560000D02*
G75*
G02*
X12374611Y-7560000I38100J0D01*
G01*
X12394100Y-5140000D02*
G75*
G02*
X12317900Y-5140000I-38100J0D01*
G01*
X12317900Y-5140000D02*
G75*
G02*
X12394100Y-5140000I38100J0D01*
G01*
X12592100Y-5530000D02*
G75*
G02*
X12515900Y-5530000I-38100J0D01*
G01*
X12515900Y-5530000D02*
G75*
G02*
X12592100Y-5530000I38100J0D01*
G01*
X12596989Y-2221889D02*
G75*
G02*
X12520789Y-2221889I-38100J0D01*
G01*
X12520789Y-2221889D02*
G75*
G02*
X12596989Y-2221889I38100J0D01*
G01*
X12678100Y-2509000D02*
G75*
G02*
X12601900Y-2509000I-38100J0D01*
G01*
X12601900Y-2509000D02*
G75*
G02*
X12678100Y-2509000I38100J0D01*
G01*
X12678100Y-3271000D02*
G75*
G02*
X12601900Y-3271000I-38100J0D01*
G01*
X12601900Y-3271000D02*
G75*
G02*
X12678100Y-3271000I38100J0D01*
G01*
X12846100Y-5530000D02*
G75*
G02*
X12769900Y-5530000I-38100J0D01*
G01*
X12769900Y-5530000D02*
G75*
G02*
X12846100Y-5530000I38100J0D01*
G01*
X12882611Y-7560000D02*
G75*
G02*
X12806411Y-7560000I-38100J0D01*
G01*
X12806411Y-7560000D02*
G75*
G02*
X12882611Y-7560000I38100J0D01*
G01*
X12902100Y-5140000D02*
G75*
G02*
X12825900Y-5140000I-38100J0D01*
G01*
X12825900Y-5140000D02*
G75*
G02*
X12902100Y-5140000I38100J0D01*
G01*
X11350000Y-5490000D02*
X11350000Y-5570000D01*
X11310000Y-5530000D02*
X11390000Y-5530000D01*
X11350000Y-5740000D02*
X11350000Y-5820000D01*
X11310000Y-5780000D02*
X11390000Y-5780000D01*
X11730000Y-7030000D02*
X11730000Y-7110000D01*
X11690000Y-7070000D02*
X11770000Y-7070000D01*
X11980000Y-7030000D02*
X11980000Y-7110000D01*
X11940000Y-7070000D02*
X12020000Y-7070000D01*
X12470000Y-7030000D02*
X12470000Y-7110000D01*
X12430000Y-7070000D02*
X12510000Y-7070000D01*
X12500000Y-4590000D02*
X12500000Y-4670000D01*
X12460000Y-4630000D02*
X12540000Y-4630000D01*
X12720000Y-7030000D02*
X12720000Y-7110000D01*
X12680000Y-7070000D02*
X12760000Y-7070000D01*
X12750000Y-4590000D02*
X12750000Y-4670000D01*
X12710000Y-4630000D02*
X12790000Y-4630000D01*
X7144856Y-3827856D02*
X7144856Y-3757144D01*
X7074144Y-3757144D01*
X7074144Y-3827856D01*
X7144856Y-3827856D01*
X7398856Y-3827856D02*
X7398856Y-3757144D01*
X7328144Y-3757144D01*
X7328144Y-3827856D01*
X7398856Y-3827856D01*
X7652856Y-3827856D02*
X7652856Y-3757144D01*
X7582144Y-3757144D01*
X7582144Y-3827856D01*
X7652856Y-3827856D01*
X7653356Y-3365356D02*
X7653356Y-3294644D01*
X7582644Y-3294644D01*
X7582644Y-3365356D01*
X7653356Y-3365356D01*
X7906856Y-3827856D02*
X7906856Y-3757144D01*
X7836144Y-3757144D01*
X7836144Y-3827856D01*
X7906856Y-3827856D01*
X7907356Y-3365356D02*
X7907356Y-3294644D01*
X7836644Y-3294644D01*
X7836644Y-3365356D01*
X7907356Y-3365356D01*
X8160856Y-3827856D02*
X8160856Y-3757144D01*
X8090144Y-3757144D01*
X8090144Y-3827856D01*
X8160856Y-3827856D01*
X8161356Y-3365356D02*
X8161356Y-3294644D01*
X8090644Y-3294644D01*
X8090644Y-3365356D01*
X8161356Y-3365356D01*
X8414856Y-3827856D02*
X8414856Y-3757144D01*
X8344144Y-3757144D01*
X8344144Y-3827856D01*
X8414856Y-3827856D01*
X8415356Y-3365356D02*
X8415356Y-3294644D01*
X8344644Y-3294644D01*
X8344644Y-3365356D01*
X8415356Y-3365356D01*
X8668856Y-3827856D02*
X8668856Y-3757144D01*
X8598144Y-3757144D01*
X8598144Y-3827856D01*
X8668856Y-3827856D01*
X8922856Y-3827856D02*
X8922856Y-3757144D01*
X8852144Y-3757144D01*
X8852144Y-3827856D01*
X8922856Y-3827856D01*
X9707356Y-3165356D02*
X9707356Y-3094644D01*
X9636644Y-3094644D01*
X9636644Y-3165356D01*
X9707356Y-3165356D01*
X9961356Y-3165356D02*
X9961356Y-3094644D01*
X9890644Y-3094644D01*
X9890644Y-3165356D01*
X9961356Y-3165356D01*
X10215356Y-3165356D02*
X10215356Y-3094644D01*
X10144644Y-3094644D01*
X10144644Y-3165356D01*
X10215356Y-3165356D01*
X11255356Y-7491356D02*
X11255356Y-7420644D01*
X11184644Y-7420644D01*
X11184644Y-7491356D01*
X11255356Y-7491356D01*
X11255356Y-7745356D02*
X11255356Y-7674644D01*
X11184644Y-7674644D01*
X11184644Y-7745356D01*
X11255356Y-7745356D01*
X11255356Y-7999356D02*
X11255356Y-7928644D01*
X11184644Y-7928644D01*
X11184644Y-7999356D01*
X11255356Y-7999356D01*
X11255356Y-8541356D02*
X11255356Y-8470644D01*
X11184644Y-8470644D01*
X11184644Y-8541356D01*
X11255356Y-8541356D01*
X11255356Y-8795356D02*
X11255356Y-8724644D01*
X11184644Y-8724644D01*
X11184644Y-8795356D01*
X11255356Y-8795356D01*
X11255356Y-9049356D02*
X11255356Y-8978644D01*
X11184644Y-8978644D01*
X11184644Y-9049356D01*
X11255356Y-9049356D01*
X11345356Y-6395356D02*
X11345356Y-6324644D01*
X11274644Y-6324644D01*
X11274644Y-6395356D01*
X11345356Y-6395356D01*
X11599356Y-6395356D02*
X11599356Y-6324644D01*
X11528644Y-6324644D01*
X11528644Y-6395356D01*
X11599356Y-6395356D01*
X11853356Y-6395356D02*
X11853356Y-6324644D01*
X11782644Y-6324644D01*
X11782644Y-6395356D01*
X11853356Y-6395356D01*
X12155356Y-2659856D02*
X12155356Y-2589144D01*
X12084644Y-2589144D01*
X12084644Y-2659856D01*
X12155356Y-2659856D01*
X12155356Y-2913856D02*
X12155356Y-2843144D01*
X12084644Y-2843144D01*
X12084644Y-2913856D01*
X12155356Y-2913856D01*
X12155356Y-3167856D02*
X12155356Y-3097144D01*
X12084644Y-3097144D01*
X12084644Y-3167856D01*
X12155356Y-3167856D01*
X12725356Y-3735356D02*
X12725356Y-3664644D01*
X12654644Y-3664644D01*
X12654644Y-3735356D01*
X12725356Y-3735356D01*
X12725356Y-3985356D02*
X12725356Y-3914644D01*
X12654644Y-3914644D01*
X12654644Y-3985356D01*
X12725356Y-3985356D01*
X12735356Y-6135356D02*
X12735356Y-6064644D01*
X12664644Y-6064644D01*
X12664644Y-6135356D01*
X12735356Y-6135356D01*
X12735356Y-6385356D02*
X12735356Y-6314644D01*
X12664644Y-6314644D01*
X12664644Y-6385356D01*
X12735356Y-6385356D01*
D11*
X3258277Y-12313984D02*
X3258277Y-12113984D01*
X3258277Y-12113984D02*
X3305896Y-12113984D01*
X3305896Y-12113984D02*
X3334467Y-12123508D01*
X3334467Y-12123508D02*
X3353515Y-12142555D01*
X3353515Y-12142555D02*
X3363039Y-12161603D01*
X3363039Y-12161603D02*
X3372562Y-12199698D01*
X3372562Y-12199698D02*
X3372562Y-12228269D01*
X3372562Y-12228269D02*
X3363039Y-12266365D01*
X3363039Y-12266365D02*
X3353515Y-12285412D01*
X3353515Y-12285412D02*
X3334467Y-12304460D01*
X3334467Y-12304460D02*
X3305896Y-12313984D01*
X3305896Y-12313984D02*
X3258277Y-12313984D01*
X3458277Y-12313984D02*
X3458277Y-12180650D01*
X3458277Y-12218746D02*
X3467801Y-12199698D01*
X3467801Y-12199698D02*
X3477324Y-12190174D01*
X3477324Y-12190174D02*
X3496372Y-12180650D01*
X3496372Y-12180650D02*
X3515420Y-12180650D01*
X3582086Y-12313984D02*
X3582086Y-12180650D01*
X3582086Y-12113984D02*
X3572562Y-12123508D01*
X3572562Y-12123508D02*
X3582086Y-12133031D01*
X3582086Y-12133031D02*
X3591610Y-12123508D01*
X3591610Y-12123508D02*
X3582086Y-12113984D01*
X3582086Y-12113984D02*
X3582086Y-12133031D01*
X3705896Y-12313984D02*
X3686848Y-12304460D01*
X3686848Y-12304460D02*
X3677324Y-12285412D01*
X3677324Y-12285412D02*
X3677324Y-12113984D01*
X3810658Y-12313984D02*
X3791610Y-12304460D01*
X3791610Y-12304460D02*
X3782086Y-12285412D01*
X3782086Y-12285412D02*
X3782086Y-12113984D01*
X4039229Y-12313984D02*
X4039229Y-12113984D01*
X4039229Y-12113984D02*
X4105896Y-12256841D01*
X4105896Y-12256841D02*
X4172562Y-12113984D01*
X4172562Y-12113984D02*
X4172562Y-12313984D01*
X4353515Y-12313984D02*
X4353515Y-12209222D01*
X4353515Y-12209222D02*
X4343991Y-12190174D01*
X4343991Y-12190174D02*
X4324944Y-12180650D01*
X4324944Y-12180650D02*
X4286848Y-12180650D01*
X4286848Y-12180650D02*
X4267801Y-12190174D01*
X4353515Y-12304460D02*
X4334467Y-12313984D01*
X4334467Y-12313984D02*
X4286848Y-12313984D01*
X4286848Y-12313984D02*
X4267801Y-12304460D01*
X4267801Y-12304460D02*
X4258277Y-12285412D01*
X4258277Y-12285412D02*
X4258277Y-12266365D01*
X4258277Y-12266365D02*
X4267801Y-12247317D01*
X4267801Y-12247317D02*
X4286848Y-12237793D01*
X4286848Y-12237793D02*
X4334467Y-12237793D01*
X4334467Y-12237793D02*
X4353515Y-12228269D01*
X4448753Y-12180650D02*
X4448753Y-12380650D01*
X4448753Y-12190174D02*
X4467801Y-12180650D01*
X4467801Y-12180650D02*
X4505896Y-12180650D01*
X4505896Y-12180650D02*
X4524944Y-12190174D01*
X4524944Y-12190174D02*
X4534467Y-12199698D01*
X4534467Y-12199698D02*
X4543991Y-12218746D01*
X4543991Y-12218746D02*
X4543991Y-12275888D01*
X4543991Y-12275888D02*
X4534467Y-12294936D01*
X4534467Y-12294936D02*
X4524944Y-12304460D01*
X4524944Y-12304460D02*
X4505896Y-12313984D01*
X4505896Y-12313984D02*
X4467801Y-12313984D01*
X4467801Y-12313984D02*
X4448753Y-12304460D01*
X4629705Y-12294936D02*
X4639229Y-12304460D01*
X4639229Y-12304460D02*
X4629705Y-12313984D01*
X4629705Y-12313984D02*
X4620182Y-12304460D01*
X4620182Y-12304460D02*
X4629705Y-12294936D01*
X4629705Y-12294936D02*
X4629705Y-12313984D01*
X4629705Y-12190174D02*
X4639229Y-12199698D01*
X4639229Y-12199698D02*
X4629705Y-12209222D01*
X4629705Y-12209222D02*
X4620182Y-12199698D01*
X4620182Y-12199698D02*
X4629705Y-12190174D01*
X4629705Y-12190174D02*
X4629705Y-12209222D01*
D12*
X2967500Y-12627500D02*
X2997500Y-12657500D01*
X2997500Y-12627500D02*
X2967500Y-12657500D01*
D11*
X3296372Y-12533984D02*
X3315420Y-12533984D01*
X3315420Y-12533984D02*
X3334467Y-12543508D01*
X3334467Y-12543508D02*
X3343991Y-12553031D01*
X3343991Y-12553031D02*
X3353515Y-12572079D01*
X3353515Y-12572079D02*
X3363039Y-12610174D01*
X3363039Y-12610174D02*
X3363039Y-12657793D01*
X3363039Y-12657793D02*
X3353515Y-12695888D01*
X3353515Y-12695888D02*
X3343991Y-12714936D01*
X3343991Y-12714936D02*
X3334467Y-12724460D01*
X3334467Y-12724460D02*
X3315420Y-12733984D01*
X3315420Y-12733984D02*
X3296372Y-12733984D01*
X3296372Y-12733984D02*
X3277324Y-12724460D01*
X3277324Y-12724460D02*
X3267801Y-12714936D01*
X3267801Y-12714936D02*
X3258277Y-12695888D01*
X3258277Y-12695888D02*
X3248753Y-12657793D01*
X3248753Y-12657793D02*
X3248753Y-12610174D01*
X3248753Y-12610174D02*
X3258277Y-12572079D01*
X3258277Y-12572079D02*
X3267801Y-12553031D01*
X3267801Y-12553031D02*
X3277324Y-12543508D01*
X3277324Y-12543508D02*
X3296372Y-12533984D01*
X3448753Y-12714936D02*
X3458277Y-12724460D01*
X3458277Y-12724460D02*
X3448753Y-12733984D01*
X3448753Y-12733984D02*
X3439229Y-12724460D01*
X3439229Y-12724460D02*
X3448753Y-12714936D01*
X3448753Y-12714936D02*
X3448753Y-12733984D01*
X3524943Y-12533984D02*
X3648753Y-12533984D01*
X3648753Y-12533984D02*
X3582086Y-12610174D01*
X3582086Y-12610174D02*
X3610658Y-12610174D01*
X3610658Y-12610174D02*
X3629705Y-12619698D01*
X3629705Y-12619698D02*
X3639229Y-12629222D01*
X3639229Y-12629222D02*
X3648753Y-12648269D01*
X3648753Y-12648269D02*
X3648753Y-12695888D01*
X3648753Y-12695888D02*
X3639229Y-12714936D01*
X3639229Y-12714936D02*
X3629705Y-12724460D01*
X3629705Y-12724460D02*
X3610658Y-12733984D01*
X3610658Y-12733984D02*
X3553515Y-12733984D01*
X3553515Y-12733984D02*
X3534467Y-12724460D01*
X3534467Y-12724460D02*
X3524943Y-12714936D01*
X3772562Y-12533984D02*
X3791610Y-12533984D01*
X3791610Y-12533984D02*
X3810658Y-12543508D01*
X3810658Y-12543508D02*
X3820182Y-12553031D01*
X3820182Y-12553031D02*
X3829705Y-12572079D01*
X3829705Y-12572079D02*
X3839229Y-12610174D01*
X3839229Y-12610174D02*
X3839229Y-12657793D01*
X3839229Y-12657793D02*
X3829705Y-12695888D01*
X3829705Y-12695888D02*
X3820182Y-12714936D01*
X3820182Y-12714936D02*
X3810658Y-12724460D01*
X3810658Y-12724460D02*
X3791610Y-12733984D01*
X3791610Y-12733984D02*
X3772562Y-12733984D01*
X3772562Y-12733984D02*
X3753515Y-12724460D01*
X3753515Y-12724460D02*
X3743991Y-12714936D01*
X3743991Y-12714936D02*
X3734467Y-12695888D01*
X3734467Y-12695888D02*
X3724943Y-12657793D01*
X3724943Y-12657793D02*
X3724943Y-12610174D01*
X3724943Y-12610174D02*
X3734467Y-12572079D01*
X3734467Y-12572079D02*
X3743991Y-12553031D01*
X3743991Y-12553031D02*
X3753515Y-12543508D01*
X3753515Y-12543508D02*
X3772562Y-12533984D01*
X3963039Y-12533984D02*
X3982086Y-12533984D01*
X3982086Y-12533984D02*
X4001134Y-12543508D01*
X4001134Y-12543508D02*
X4010658Y-12553031D01*
X4010658Y-12553031D02*
X4020182Y-12572079D01*
X4020182Y-12572079D02*
X4029705Y-12610174D01*
X4029705Y-12610174D02*
X4029705Y-12657793D01*
X4029705Y-12657793D02*
X4020182Y-12695888D01*
X4020182Y-12695888D02*
X4010658Y-12714936D01*
X4010658Y-12714936D02*
X4001134Y-12724460D01*
X4001134Y-12724460D02*
X3982086Y-12733984D01*
X3982086Y-12733984D02*
X3963039Y-12733984D01*
X3963039Y-12733984D02*
X3943991Y-12724460D01*
X3943991Y-12724460D02*
X3934467Y-12714936D01*
X3934467Y-12714936D02*
X3924943Y-12695888D01*
X3924943Y-12695888D02*
X3915420Y-12657793D01*
X3915420Y-12657793D02*
X3915420Y-12610174D01*
X3915420Y-12610174D02*
X3924943Y-12572079D01*
X3924943Y-12572079D02*
X3934467Y-12553031D01*
X3934467Y-12553031D02*
X3943991Y-12543508D01*
X3943991Y-12543508D02*
X3963039Y-12533984D01*
X4115420Y-12733984D02*
X4115420Y-12600650D01*
X4115420Y-12619698D02*
X4124943Y-12610174D01*
X4124943Y-12610174D02*
X4143991Y-12600650D01*
X4143991Y-12600650D02*
X4172563Y-12600650D01*
X4172563Y-12600650D02*
X4191610Y-12610174D01*
X4191610Y-12610174D02*
X4201134Y-12629222D01*
X4201134Y-12629222D02*
X4201134Y-12733984D01*
X4201134Y-12629222D02*
X4210658Y-12610174D01*
X4210658Y-12610174D02*
X4229705Y-12600650D01*
X4229705Y-12600650D02*
X4258277Y-12600650D01*
X4258277Y-12600650D02*
X4277325Y-12610174D01*
X4277325Y-12610174D02*
X4286848Y-12629222D01*
X4286848Y-12629222D02*
X4286848Y-12733984D01*
X4382086Y-12733984D02*
X4382086Y-12600650D01*
X4382086Y-12619698D02*
X4391610Y-12610174D01*
X4391610Y-12610174D02*
X4410658Y-12600650D01*
X4410658Y-12600650D02*
X4439229Y-12600650D01*
X4439229Y-12600650D02*
X4458277Y-12610174D01*
X4458277Y-12610174D02*
X4467801Y-12629222D01*
X4467801Y-12629222D02*
X4467801Y-12733984D01*
X4467801Y-12629222D02*
X4477325Y-12610174D01*
X4477325Y-12610174D02*
X4496372Y-12600650D01*
X4496372Y-12600650D02*
X4524944Y-12600650D01*
X4524944Y-12600650D02*
X4543991Y-12610174D01*
X4543991Y-12610174D02*
X4553515Y-12629222D01*
X4553515Y-12629222D02*
X4553515Y-12733984D01*
X4943991Y-12524460D02*
X4772563Y-12781603D01*
X5201134Y-12533984D02*
X5220182Y-12533984D01*
X5220182Y-12533984D02*
X5239229Y-12543508D01*
X5239229Y-12543508D02*
X5248753Y-12553031D01*
X5248753Y-12553031D02*
X5258277Y-12572079D01*
X5258277Y-12572079D02*
X5267801Y-12610174D01*
X5267801Y-12610174D02*
X5267801Y-12657793D01*
X5267801Y-12657793D02*
X5258277Y-12695888D01*
X5258277Y-12695888D02*
X5248753Y-12714936D01*
X5248753Y-12714936D02*
X5239229Y-12724460D01*
X5239229Y-12724460D02*
X5220182Y-12733984D01*
X5220182Y-12733984D02*
X5201134Y-12733984D01*
X5201134Y-12733984D02*
X5182087Y-12724460D01*
X5182087Y-12724460D02*
X5172563Y-12714936D01*
X5172563Y-12714936D02*
X5163039Y-12695888D01*
X5163039Y-12695888D02*
X5153515Y-12657793D01*
X5153515Y-12657793D02*
X5153515Y-12610174D01*
X5153515Y-12610174D02*
X5163039Y-12572079D01*
X5163039Y-12572079D02*
X5172563Y-12553031D01*
X5172563Y-12553031D02*
X5182087Y-12543508D01*
X5182087Y-12543508D02*
X5201134Y-12533984D01*
X5353515Y-12714936D02*
X5363039Y-12724460D01*
X5363039Y-12724460D02*
X5353515Y-12733984D01*
X5353515Y-12733984D02*
X5343991Y-12724460D01*
X5343991Y-12724460D02*
X5353515Y-12714936D01*
X5353515Y-12714936D02*
X5353515Y-12733984D01*
X5486848Y-12533984D02*
X5505896Y-12533984D01*
X5505896Y-12533984D02*
X5524944Y-12543508D01*
X5524944Y-12543508D02*
X5534468Y-12553031D01*
X5534468Y-12553031D02*
X5543991Y-12572079D01*
X5543991Y-12572079D02*
X5553515Y-12610174D01*
X5553515Y-12610174D02*
X5553515Y-12657793D01*
X5553515Y-12657793D02*
X5543991Y-12695888D01*
X5543991Y-12695888D02*
X5534468Y-12714936D01*
X5534468Y-12714936D02*
X5524944Y-12724460D01*
X5524944Y-12724460D02*
X5505896Y-12733984D01*
X5505896Y-12733984D02*
X5486848Y-12733984D01*
X5486848Y-12733984D02*
X5467801Y-12724460D01*
X5467801Y-12724460D02*
X5458277Y-12714936D01*
X5458277Y-12714936D02*
X5448753Y-12695888D01*
X5448753Y-12695888D02*
X5439229Y-12657793D01*
X5439229Y-12657793D02*
X5439229Y-12610174D01*
X5439229Y-12610174D02*
X5448753Y-12572079D01*
X5448753Y-12572079D02*
X5458277Y-12553031D01*
X5458277Y-12553031D02*
X5467801Y-12543508D01*
X5467801Y-12543508D02*
X5486848Y-12533984D01*
X5743991Y-12733984D02*
X5629706Y-12733984D01*
X5686848Y-12733984D02*
X5686848Y-12533984D01*
X5686848Y-12533984D02*
X5667801Y-12562555D01*
X5667801Y-12562555D02*
X5648753Y-12581603D01*
X5648753Y-12581603D02*
X5629706Y-12591127D01*
X5934467Y-12733984D02*
X5820182Y-12733984D01*
X5877325Y-12733984D02*
X5877325Y-12533984D01*
X5877325Y-12533984D02*
X5858277Y-12562555D01*
X5858277Y-12562555D02*
X5839229Y-12581603D01*
X5839229Y-12581603D02*
X5820182Y-12591127D01*
X6048753Y-12619698D02*
X6029706Y-12610174D01*
X6029706Y-12610174D02*
X6020182Y-12600650D01*
X6020182Y-12600650D02*
X6010658Y-12581603D01*
X6010658Y-12581603D02*
X6010658Y-12572079D01*
X6010658Y-12572079D02*
X6020182Y-12553031D01*
X6020182Y-12553031D02*
X6029706Y-12543508D01*
X6029706Y-12543508D02*
X6048753Y-12533984D01*
X6048753Y-12533984D02*
X6086848Y-12533984D01*
X6086848Y-12533984D02*
X6105896Y-12543508D01*
X6105896Y-12543508D02*
X6115420Y-12553031D01*
X6115420Y-12553031D02*
X6124944Y-12572079D01*
X6124944Y-12572079D02*
X6124944Y-12581603D01*
X6124944Y-12581603D02*
X6115420Y-12600650D01*
X6115420Y-12600650D02*
X6105896Y-12610174D01*
X6105896Y-12610174D02*
X6086848Y-12619698D01*
X6086848Y-12619698D02*
X6048753Y-12619698D01*
X6048753Y-12619698D02*
X6029706Y-12629222D01*
X6029706Y-12629222D02*
X6020182Y-12638746D01*
X6020182Y-12638746D02*
X6010658Y-12657793D01*
X6010658Y-12657793D02*
X6010658Y-12695888D01*
X6010658Y-12695888D02*
X6020182Y-12714936D01*
X6020182Y-12714936D02*
X6029706Y-12724460D01*
X6029706Y-12724460D02*
X6048753Y-12733984D01*
X6048753Y-12733984D02*
X6086848Y-12733984D01*
X6086848Y-12733984D02*
X6105896Y-12724460D01*
X6105896Y-12724460D02*
X6115420Y-12714936D01*
X6115420Y-12714936D02*
X6124944Y-12695888D01*
X6124944Y-12695888D02*
X6124944Y-12657793D01*
X6124944Y-12657793D02*
X6115420Y-12638746D01*
X6115420Y-12638746D02*
X6105896Y-12629222D01*
X6105896Y-12629222D02*
X6086848Y-12619698D01*
X6201134Y-12533984D02*
X6201134Y-12572079D01*
X6277325Y-12533984D02*
X6277325Y-12572079D01*
X6572563Y-12810174D02*
X6563039Y-12800650D01*
X6563039Y-12800650D02*
X6543991Y-12772079D01*
X6543991Y-12772079D02*
X6534468Y-12753031D01*
X6534468Y-12753031D02*
X6524944Y-12724460D01*
X6524944Y-12724460D02*
X6515420Y-12676841D01*
X6515420Y-12676841D02*
X6515420Y-12638746D01*
X6515420Y-12638746D02*
X6524944Y-12591127D01*
X6524944Y-12591127D02*
X6534468Y-12562555D01*
X6534468Y-12562555D02*
X6543991Y-12543508D01*
X6543991Y-12543508D02*
X6563039Y-12514936D01*
X6563039Y-12514936D02*
X6572563Y-12505412D01*
X6753515Y-12733984D02*
X6639229Y-12733984D01*
X6696372Y-12733984D02*
X6696372Y-12533984D01*
X6696372Y-12533984D02*
X6677325Y-12562555D01*
X6677325Y-12562555D02*
X6658277Y-12581603D01*
X6658277Y-12581603D02*
X6639229Y-12591127D01*
X6820182Y-12533984D02*
X6943991Y-12533984D01*
X6943991Y-12533984D02*
X6877325Y-12610174D01*
X6877325Y-12610174D02*
X6905896Y-12610174D01*
X6905896Y-12610174D02*
X6924944Y-12619698D01*
X6924944Y-12619698D02*
X6934468Y-12629222D01*
X6934468Y-12629222D02*
X6943991Y-12648269D01*
X6943991Y-12648269D02*
X6943991Y-12695888D01*
X6943991Y-12695888D02*
X6934468Y-12714936D01*
X6934468Y-12714936D02*
X6924944Y-12724460D01*
X6924944Y-12724460D02*
X6905896Y-12733984D01*
X6905896Y-12733984D02*
X6848753Y-12733984D01*
X6848753Y-12733984D02*
X6829706Y-12724460D01*
X6829706Y-12724460D02*
X6820182Y-12714936D01*
X7115420Y-12600650D02*
X7115420Y-12733984D01*
X7067801Y-12524460D02*
X7020182Y-12667317D01*
X7020182Y-12667317D02*
X7143991Y-12667317D01*
X7372563Y-12733984D02*
X7372563Y-12533984D01*
X7458277Y-12733984D02*
X7458277Y-12629222D01*
X7458277Y-12629222D02*
X7448753Y-12610174D01*
X7448753Y-12610174D02*
X7429706Y-12600650D01*
X7429706Y-12600650D02*
X7401134Y-12600650D01*
X7401134Y-12600650D02*
X7382087Y-12610174D01*
X7382087Y-12610174D02*
X7372563Y-12619698D01*
X7582087Y-12733984D02*
X7563039Y-12724460D01*
X7563039Y-12724460D02*
X7553515Y-12714936D01*
X7553515Y-12714936D02*
X7543991Y-12695888D01*
X7543991Y-12695888D02*
X7543991Y-12638746D01*
X7543991Y-12638746D02*
X7553515Y-12619698D01*
X7553515Y-12619698D02*
X7563039Y-12610174D01*
X7563039Y-12610174D02*
X7582087Y-12600650D01*
X7582087Y-12600650D02*
X7610658Y-12600650D01*
X7610658Y-12600650D02*
X7629706Y-12610174D01*
X7629706Y-12610174D02*
X7639230Y-12619698D01*
X7639230Y-12619698D02*
X7648753Y-12638746D01*
X7648753Y-12638746D02*
X7648753Y-12695888D01*
X7648753Y-12695888D02*
X7639230Y-12714936D01*
X7639230Y-12714936D02*
X7629706Y-12724460D01*
X7629706Y-12724460D02*
X7610658Y-12733984D01*
X7610658Y-12733984D02*
X7582087Y-12733984D01*
X7763039Y-12733984D02*
X7743991Y-12724460D01*
X7743991Y-12724460D02*
X7734468Y-12705412D01*
X7734468Y-12705412D02*
X7734468Y-12533984D01*
X7915420Y-12724460D02*
X7896372Y-12733984D01*
X7896372Y-12733984D02*
X7858277Y-12733984D01*
X7858277Y-12733984D02*
X7839230Y-12724460D01*
X7839230Y-12724460D02*
X7829706Y-12705412D01*
X7829706Y-12705412D02*
X7829706Y-12629222D01*
X7829706Y-12629222D02*
X7839230Y-12610174D01*
X7839230Y-12610174D02*
X7858277Y-12600650D01*
X7858277Y-12600650D02*
X7896372Y-12600650D01*
X7896372Y-12600650D02*
X7915420Y-12610174D01*
X7915420Y-12610174D02*
X7924944Y-12629222D01*
X7924944Y-12629222D02*
X7924944Y-12648269D01*
X7924944Y-12648269D02*
X7829706Y-12667317D01*
X8001134Y-12724460D02*
X8020182Y-12733984D01*
X8020182Y-12733984D02*
X8058277Y-12733984D01*
X8058277Y-12733984D02*
X8077325Y-12724460D01*
X8077325Y-12724460D02*
X8086849Y-12705412D01*
X8086849Y-12705412D02*
X8086849Y-12695888D01*
X8086849Y-12695888D02*
X8077325Y-12676841D01*
X8077325Y-12676841D02*
X8058277Y-12667317D01*
X8058277Y-12667317D02*
X8029706Y-12667317D01*
X8029706Y-12667317D02*
X8010658Y-12657793D01*
X8010658Y-12657793D02*
X8001134Y-12638746D01*
X8001134Y-12638746D02*
X8001134Y-12629222D01*
X8001134Y-12629222D02*
X8010658Y-12610174D01*
X8010658Y-12610174D02*
X8029706Y-12600650D01*
X8029706Y-12600650D02*
X8058277Y-12600650D01*
X8058277Y-12600650D02*
X8077325Y-12610174D01*
X8153515Y-12810174D02*
X8163039Y-12800650D01*
X8163039Y-12800650D02*
X8182087Y-12772079D01*
X8182087Y-12772079D02*
X8191611Y-12753031D01*
X8191611Y-12753031D02*
X8201134Y-12724460D01*
X8201134Y-12724460D02*
X8210658Y-12676841D01*
X8210658Y-12676841D02*
X8210658Y-12638746D01*
X8210658Y-12638746D02*
X8201134Y-12591127D01*
X8201134Y-12591127D02*
X8191611Y-12562555D01*
X8191611Y-12562555D02*
X8182087Y-12543508D01*
X8182087Y-12543508D02*
X8163039Y-12514936D01*
X8163039Y-12514936D02*
X8153515Y-12505412D01*
D12*
X2997500Y-12906500D02*
G75*
G02*
X2921300Y-12906500I-38100J0D01*
G01*
X2921300Y-12906500D02*
G75*
G02*
X2997500Y-12906500I38100J0D01*
G01*
D11*
X3296372Y-12797984D02*
X3315420Y-12797984D01*
X3315420Y-12797984D02*
X3334467Y-12807508D01*
X3334467Y-12807508D02*
X3343991Y-12817031D01*
X3343991Y-12817031D02*
X3353515Y-12836079D01*
X3353515Y-12836079D02*
X3363039Y-12874174D01*
X3363039Y-12874174D02*
X3363039Y-12921793D01*
X3363039Y-12921793D02*
X3353515Y-12959888D01*
X3353515Y-12959888D02*
X3343991Y-12978936D01*
X3343991Y-12978936D02*
X3334467Y-12988460D01*
X3334467Y-12988460D02*
X3315420Y-12997984D01*
X3315420Y-12997984D02*
X3296372Y-12997984D01*
X3296372Y-12997984D02*
X3277324Y-12988460D01*
X3277324Y-12988460D02*
X3267801Y-12978936D01*
X3267801Y-12978936D02*
X3258277Y-12959888D01*
X3258277Y-12959888D02*
X3248753Y-12921793D01*
X3248753Y-12921793D02*
X3248753Y-12874174D01*
X3248753Y-12874174D02*
X3258277Y-12836079D01*
X3258277Y-12836079D02*
X3267801Y-12817031D01*
X3267801Y-12817031D02*
X3277324Y-12807508D01*
X3277324Y-12807508D02*
X3296372Y-12797984D01*
X3448753Y-12978936D02*
X3458277Y-12988460D01*
X3458277Y-12988460D02*
X3448753Y-12997984D01*
X3448753Y-12997984D02*
X3439229Y-12988460D01*
X3439229Y-12988460D02*
X3448753Y-12978936D01*
X3448753Y-12978936D02*
X3448753Y-12997984D01*
X3524943Y-12797984D02*
X3658277Y-12797984D01*
X3658277Y-12797984D02*
X3572562Y-12997984D01*
X3820182Y-12797984D02*
X3782086Y-12797984D01*
X3782086Y-12797984D02*
X3763039Y-12807508D01*
X3763039Y-12807508D02*
X3753515Y-12817031D01*
X3753515Y-12817031D02*
X3734467Y-12845603D01*
X3734467Y-12845603D02*
X3724943Y-12883698D01*
X3724943Y-12883698D02*
X3724943Y-12959888D01*
X3724943Y-12959888D02*
X3734467Y-12978936D01*
X3734467Y-12978936D02*
X3743991Y-12988460D01*
X3743991Y-12988460D02*
X3763039Y-12997984D01*
X3763039Y-12997984D02*
X3801134Y-12997984D01*
X3801134Y-12997984D02*
X3820182Y-12988460D01*
X3820182Y-12988460D02*
X3829705Y-12978936D01*
X3829705Y-12978936D02*
X3839229Y-12959888D01*
X3839229Y-12959888D02*
X3839229Y-12912269D01*
X3839229Y-12912269D02*
X3829705Y-12893222D01*
X3829705Y-12893222D02*
X3820182Y-12883698D01*
X3820182Y-12883698D02*
X3801134Y-12874174D01*
X3801134Y-12874174D02*
X3763039Y-12874174D01*
X3763039Y-12874174D02*
X3743991Y-12883698D01*
X3743991Y-12883698D02*
X3734467Y-12893222D01*
X3734467Y-12893222D02*
X3724943Y-12912269D01*
X3915420Y-12817031D02*
X3924943Y-12807508D01*
X3924943Y-12807508D02*
X3943991Y-12797984D01*
X3943991Y-12797984D02*
X3991610Y-12797984D01*
X3991610Y-12797984D02*
X4010658Y-12807508D01*
X4010658Y-12807508D02*
X4020182Y-12817031D01*
X4020182Y-12817031D02*
X4029705Y-12836079D01*
X4029705Y-12836079D02*
X4029705Y-12855127D01*
X4029705Y-12855127D02*
X4020182Y-12883698D01*
X4020182Y-12883698D02*
X3905896Y-12997984D01*
X3905896Y-12997984D02*
X4029705Y-12997984D01*
X4115420Y-12997984D02*
X4115420Y-12864650D01*
X4115420Y-12883698D02*
X4124943Y-12874174D01*
X4124943Y-12874174D02*
X4143991Y-12864650D01*
X4143991Y-12864650D02*
X4172563Y-12864650D01*
X4172563Y-12864650D02*
X4191610Y-12874174D01*
X4191610Y-12874174D02*
X4201134Y-12893222D01*
X4201134Y-12893222D02*
X4201134Y-12997984D01*
X4201134Y-12893222D02*
X4210658Y-12874174D01*
X4210658Y-12874174D02*
X4229705Y-12864650D01*
X4229705Y-12864650D02*
X4258277Y-12864650D01*
X4258277Y-12864650D02*
X4277325Y-12874174D01*
X4277325Y-12874174D02*
X4286848Y-12893222D01*
X4286848Y-12893222D02*
X4286848Y-12997984D01*
X4382086Y-12997984D02*
X4382086Y-12864650D01*
X4382086Y-12883698D02*
X4391610Y-12874174D01*
X4391610Y-12874174D02*
X4410658Y-12864650D01*
X4410658Y-12864650D02*
X4439229Y-12864650D01*
X4439229Y-12864650D02*
X4458277Y-12874174D01*
X4458277Y-12874174D02*
X4467801Y-12893222D01*
X4467801Y-12893222D02*
X4467801Y-12997984D01*
X4467801Y-12893222D02*
X4477325Y-12874174D01*
X4477325Y-12874174D02*
X4496372Y-12864650D01*
X4496372Y-12864650D02*
X4524944Y-12864650D01*
X4524944Y-12864650D02*
X4543991Y-12874174D01*
X4543991Y-12874174D02*
X4553515Y-12893222D01*
X4553515Y-12893222D02*
X4553515Y-12997984D01*
X4943991Y-12788460D02*
X4772563Y-13045603D01*
X5201134Y-12797984D02*
X5220182Y-12797984D01*
X5220182Y-12797984D02*
X5239229Y-12807508D01*
X5239229Y-12807508D02*
X5248753Y-12817031D01*
X5248753Y-12817031D02*
X5258277Y-12836079D01*
X5258277Y-12836079D02*
X5267801Y-12874174D01*
X5267801Y-12874174D02*
X5267801Y-12921793D01*
X5267801Y-12921793D02*
X5258277Y-12959888D01*
X5258277Y-12959888D02*
X5248753Y-12978936D01*
X5248753Y-12978936D02*
X5239229Y-12988460D01*
X5239229Y-12988460D02*
X5220182Y-12997984D01*
X5220182Y-12997984D02*
X5201134Y-12997984D01*
X5201134Y-12997984D02*
X5182087Y-12988460D01*
X5182087Y-12988460D02*
X5172563Y-12978936D01*
X5172563Y-12978936D02*
X5163039Y-12959888D01*
X5163039Y-12959888D02*
X5153515Y-12921793D01*
X5153515Y-12921793D02*
X5153515Y-12874174D01*
X5153515Y-12874174D02*
X5163039Y-12836079D01*
X5163039Y-12836079D02*
X5172563Y-12817031D01*
X5172563Y-12817031D02*
X5182087Y-12807508D01*
X5182087Y-12807508D02*
X5201134Y-12797984D01*
X5353515Y-12978936D02*
X5363039Y-12988460D01*
X5363039Y-12988460D02*
X5353515Y-12997984D01*
X5353515Y-12997984D02*
X5343991Y-12988460D01*
X5343991Y-12988460D02*
X5353515Y-12978936D01*
X5353515Y-12978936D02*
X5353515Y-12997984D01*
X5486848Y-12797984D02*
X5505896Y-12797984D01*
X5505896Y-12797984D02*
X5524944Y-12807508D01*
X5524944Y-12807508D02*
X5534468Y-12817031D01*
X5534468Y-12817031D02*
X5543991Y-12836079D01*
X5543991Y-12836079D02*
X5553515Y-12874174D01*
X5553515Y-12874174D02*
X5553515Y-12921793D01*
X5553515Y-12921793D02*
X5543991Y-12959888D01*
X5543991Y-12959888D02*
X5534468Y-12978936D01*
X5534468Y-12978936D02*
X5524944Y-12988460D01*
X5524944Y-12988460D02*
X5505896Y-12997984D01*
X5505896Y-12997984D02*
X5486848Y-12997984D01*
X5486848Y-12997984D02*
X5467801Y-12988460D01*
X5467801Y-12988460D02*
X5458277Y-12978936D01*
X5458277Y-12978936D02*
X5448753Y-12959888D01*
X5448753Y-12959888D02*
X5439229Y-12921793D01*
X5439229Y-12921793D02*
X5439229Y-12874174D01*
X5439229Y-12874174D02*
X5448753Y-12836079D01*
X5448753Y-12836079D02*
X5458277Y-12817031D01*
X5458277Y-12817031D02*
X5467801Y-12807508D01*
X5467801Y-12807508D02*
X5486848Y-12797984D01*
X5620182Y-12797984D02*
X5743991Y-12797984D01*
X5743991Y-12797984D02*
X5677325Y-12874174D01*
X5677325Y-12874174D02*
X5705896Y-12874174D01*
X5705896Y-12874174D02*
X5724944Y-12883698D01*
X5724944Y-12883698D02*
X5734467Y-12893222D01*
X5734467Y-12893222D02*
X5743991Y-12912269D01*
X5743991Y-12912269D02*
X5743991Y-12959888D01*
X5743991Y-12959888D02*
X5734467Y-12978936D01*
X5734467Y-12978936D02*
X5724944Y-12988460D01*
X5724944Y-12988460D02*
X5705896Y-12997984D01*
X5705896Y-12997984D02*
X5648753Y-12997984D01*
X5648753Y-12997984D02*
X5629706Y-12988460D01*
X5629706Y-12988460D02*
X5620182Y-12978936D01*
X5867801Y-12797984D02*
X5886848Y-12797984D01*
X5886848Y-12797984D02*
X5905896Y-12807508D01*
X5905896Y-12807508D02*
X5915420Y-12817031D01*
X5915420Y-12817031D02*
X5924944Y-12836079D01*
X5924944Y-12836079D02*
X5934467Y-12874174D01*
X5934467Y-12874174D02*
X5934467Y-12921793D01*
X5934467Y-12921793D02*
X5924944Y-12959888D01*
X5924944Y-12959888D02*
X5915420Y-12978936D01*
X5915420Y-12978936D02*
X5905896Y-12988460D01*
X5905896Y-12988460D02*
X5886848Y-12997984D01*
X5886848Y-12997984D02*
X5867801Y-12997984D01*
X5867801Y-12997984D02*
X5848753Y-12988460D01*
X5848753Y-12988460D02*
X5839229Y-12978936D01*
X5839229Y-12978936D02*
X5829706Y-12959888D01*
X5829706Y-12959888D02*
X5820182Y-12921793D01*
X5820182Y-12921793D02*
X5820182Y-12874174D01*
X5820182Y-12874174D02*
X5829706Y-12836079D01*
X5829706Y-12836079D02*
X5839229Y-12817031D01*
X5839229Y-12817031D02*
X5848753Y-12807508D01*
X5848753Y-12807508D02*
X5867801Y-12797984D01*
X6058277Y-12797984D02*
X6077325Y-12797984D01*
X6077325Y-12797984D02*
X6096372Y-12807508D01*
X6096372Y-12807508D02*
X6105896Y-12817031D01*
X6105896Y-12817031D02*
X6115420Y-12836079D01*
X6115420Y-12836079D02*
X6124944Y-12874174D01*
X6124944Y-12874174D02*
X6124944Y-12921793D01*
X6124944Y-12921793D02*
X6115420Y-12959888D01*
X6115420Y-12959888D02*
X6105896Y-12978936D01*
X6105896Y-12978936D02*
X6096372Y-12988460D01*
X6096372Y-12988460D02*
X6077325Y-12997984D01*
X6077325Y-12997984D02*
X6058277Y-12997984D01*
X6058277Y-12997984D02*
X6039229Y-12988460D01*
X6039229Y-12988460D02*
X6029706Y-12978936D01*
X6029706Y-12978936D02*
X6020182Y-12959888D01*
X6020182Y-12959888D02*
X6010658Y-12921793D01*
X6010658Y-12921793D02*
X6010658Y-12874174D01*
X6010658Y-12874174D02*
X6020182Y-12836079D01*
X6020182Y-12836079D02*
X6029706Y-12817031D01*
X6029706Y-12817031D02*
X6039229Y-12807508D01*
X6039229Y-12807508D02*
X6058277Y-12797984D01*
X6201134Y-12797984D02*
X6201134Y-12836079D01*
X6277325Y-12797984D02*
X6277325Y-12836079D01*
X6572563Y-13074174D02*
X6563039Y-13064650D01*
X6563039Y-13064650D02*
X6543991Y-13036079D01*
X6543991Y-13036079D02*
X6534468Y-13017031D01*
X6534468Y-13017031D02*
X6524944Y-12988460D01*
X6524944Y-12988460D02*
X6515420Y-12940841D01*
X6515420Y-12940841D02*
X6515420Y-12902746D01*
X6515420Y-12902746D02*
X6524944Y-12855127D01*
X6524944Y-12855127D02*
X6534468Y-12826555D01*
X6534468Y-12826555D02*
X6543991Y-12807508D01*
X6543991Y-12807508D02*
X6563039Y-12778936D01*
X6563039Y-12778936D02*
X6572563Y-12769412D01*
X6753515Y-12997984D02*
X6639229Y-12997984D01*
X6696372Y-12997984D02*
X6696372Y-12797984D01*
X6696372Y-12797984D02*
X6677325Y-12826555D01*
X6677325Y-12826555D02*
X6658277Y-12845603D01*
X6658277Y-12845603D02*
X6639229Y-12855127D01*
X6924944Y-12864650D02*
X6924944Y-12997984D01*
X6877325Y-12788460D02*
X6829706Y-12931317D01*
X6829706Y-12931317D02*
X6953515Y-12931317D01*
X7020182Y-12817031D02*
X7029706Y-12807508D01*
X7029706Y-12807508D02*
X7048753Y-12797984D01*
X7048753Y-12797984D02*
X7096372Y-12797984D01*
X7096372Y-12797984D02*
X7115420Y-12807508D01*
X7115420Y-12807508D02*
X7124944Y-12817031D01*
X7124944Y-12817031D02*
X7134468Y-12836079D01*
X7134468Y-12836079D02*
X7134468Y-12855127D01*
X7134468Y-12855127D02*
X7124944Y-12883698D01*
X7124944Y-12883698D02*
X7010658Y-12997984D01*
X7010658Y-12997984D02*
X7134468Y-12997984D01*
X7372563Y-12997984D02*
X7372563Y-12797984D01*
X7458277Y-12997984D02*
X7458277Y-12893222D01*
X7458277Y-12893222D02*
X7448753Y-12874174D01*
X7448753Y-12874174D02*
X7429706Y-12864650D01*
X7429706Y-12864650D02*
X7401134Y-12864650D01*
X7401134Y-12864650D02*
X7382087Y-12874174D01*
X7382087Y-12874174D02*
X7372563Y-12883698D01*
X7582087Y-12997984D02*
X7563039Y-12988460D01*
X7563039Y-12988460D02*
X7553515Y-12978936D01*
X7553515Y-12978936D02*
X7543991Y-12959888D01*
X7543991Y-12959888D02*
X7543991Y-12902746D01*
X7543991Y-12902746D02*
X7553515Y-12883698D01*
X7553515Y-12883698D02*
X7563039Y-12874174D01*
X7563039Y-12874174D02*
X7582087Y-12864650D01*
X7582087Y-12864650D02*
X7610658Y-12864650D01*
X7610658Y-12864650D02*
X7629706Y-12874174D01*
X7629706Y-12874174D02*
X7639230Y-12883698D01*
X7639230Y-12883698D02*
X7648753Y-12902746D01*
X7648753Y-12902746D02*
X7648753Y-12959888D01*
X7648753Y-12959888D02*
X7639230Y-12978936D01*
X7639230Y-12978936D02*
X7629706Y-12988460D01*
X7629706Y-12988460D02*
X7610658Y-12997984D01*
X7610658Y-12997984D02*
X7582087Y-12997984D01*
X7763039Y-12997984D02*
X7743991Y-12988460D01*
X7743991Y-12988460D02*
X7734468Y-12969412D01*
X7734468Y-12969412D02*
X7734468Y-12797984D01*
X7915420Y-12988460D02*
X7896372Y-12997984D01*
X7896372Y-12997984D02*
X7858277Y-12997984D01*
X7858277Y-12997984D02*
X7839230Y-12988460D01*
X7839230Y-12988460D02*
X7829706Y-12969412D01*
X7829706Y-12969412D02*
X7829706Y-12893222D01*
X7829706Y-12893222D02*
X7839230Y-12874174D01*
X7839230Y-12874174D02*
X7858277Y-12864650D01*
X7858277Y-12864650D02*
X7896372Y-12864650D01*
X7896372Y-12864650D02*
X7915420Y-12874174D01*
X7915420Y-12874174D02*
X7924944Y-12893222D01*
X7924944Y-12893222D02*
X7924944Y-12912269D01*
X7924944Y-12912269D02*
X7829706Y-12931317D01*
X8001134Y-12988460D02*
X8020182Y-12997984D01*
X8020182Y-12997984D02*
X8058277Y-12997984D01*
X8058277Y-12997984D02*
X8077325Y-12988460D01*
X8077325Y-12988460D02*
X8086849Y-12969412D01*
X8086849Y-12969412D02*
X8086849Y-12959888D01*
X8086849Y-12959888D02*
X8077325Y-12940841D01*
X8077325Y-12940841D02*
X8058277Y-12931317D01*
X8058277Y-12931317D02*
X8029706Y-12931317D01*
X8029706Y-12931317D02*
X8010658Y-12921793D01*
X8010658Y-12921793D02*
X8001134Y-12902746D01*
X8001134Y-12902746D02*
X8001134Y-12893222D01*
X8001134Y-12893222D02*
X8010658Y-12874174D01*
X8010658Y-12874174D02*
X8029706Y-12864650D01*
X8029706Y-12864650D02*
X8058277Y-12864650D01*
X8058277Y-12864650D02*
X8077325Y-12874174D01*
X8153515Y-13074174D02*
X8163039Y-13064650D01*
X8163039Y-13064650D02*
X8182087Y-13036079D01*
X8182087Y-13036079D02*
X8191611Y-13017031D01*
X8191611Y-13017031D02*
X8201134Y-12988460D01*
X8201134Y-12988460D02*
X8210658Y-12940841D01*
X8210658Y-12940841D02*
X8210658Y-12902746D01*
X8210658Y-12902746D02*
X8201134Y-12855127D01*
X8201134Y-12855127D02*
X8191611Y-12826555D01*
X8191611Y-12826555D02*
X8182087Y-12807508D01*
X8182087Y-12807508D02*
X8163039Y-12778936D01*
X8163039Y-12778936D02*
X8153515Y-12769412D01*
D12*
X2957500Y-13130500D02*
X2957500Y-13210500D01*
X2917500Y-13170500D02*
X2997500Y-13170500D01*
D11*
X3296372Y-13061984D02*
X3315420Y-13061984D01*
X3315420Y-13061984D02*
X3334467Y-13071508D01*
X3334467Y-13071508D02*
X3343991Y-13081031D01*
X3343991Y-13081031D02*
X3353515Y-13100079D01*
X3353515Y-13100079D02*
X3363039Y-13138174D01*
X3363039Y-13138174D02*
X3363039Y-13185793D01*
X3363039Y-13185793D02*
X3353515Y-13223888D01*
X3353515Y-13223888D02*
X3343991Y-13242936D01*
X3343991Y-13242936D02*
X3334467Y-13252460D01*
X3334467Y-13252460D02*
X3315420Y-13261984D01*
X3315420Y-13261984D02*
X3296372Y-13261984D01*
X3296372Y-13261984D02*
X3277324Y-13252460D01*
X3277324Y-13252460D02*
X3267801Y-13242936D01*
X3267801Y-13242936D02*
X3258277Y-13223888D01*
X3258277Y-13223888D02*
X3248753Y-13185793D01*
X3248753Y-13185793D02*
X3248753Y-13138174D01*
X3248753Y-13138174D02*
X3258277Y-13100079D01*
X3258277Y-13100079D02*
X3267801Y-13081031D01*
X3267801Y-13081031D02*
X3277324Y-13071508D01*
X3277324Y-13071508D02*
X3296372Y-13061984D01*
X3448753Y-13242936D02*
X3458277Y-13252460D01*
X3458277Y-13252460D02*
X3448753Y-13261984D01*
X3448753Y-13261984D02*
X3439229Y-13252460D01*
X3439229Y-13252460D02*
X3448753Y-13242936D01*
X3448753Y-13242936D02*
X3448753Y-13261984D01*
X3572562Y-13147698D02*
X3553515Y-13138174D01*
X3553515Y-13138174D02*
X3543991Y-13128650D01*
X3543991Y-13128650D02*
X3534467Y-13109603D01*
X3534467Y-13109603D02*
X3534467Y-13100079D01*
X3534467Y-13100079D02*
X3543991Y-13081031D01*
X3543991Y-13081031D02*
X3553515Y-13071508D01*
X3553515Y-13071508D02*
X3572562Y-13061984D01*
X3572562Y-13061984D02*
X3610658Y-13061984D01*
X3610658Y-13061984D02*
X3629705Y-13071508D01*
X3629705Y-13071508D02*
X3639229Y-13081031D01*
X3639229Y-13081031D02*
X3648753Y-13100079D01*
X3648753Y-13100079D02*
X3648753Y-13109603D01*
X3648753Y-13109603D02*
X3639229Y-13128650D01*
X3639229Y-13128650D02*
X3629705Y-13138174D01*
X3629705Y-13138174D02*
X3610658Y-13147698D01*
X3610658Y-13147698D02*
X3572562Y-13147698D01*
X3572562Y-13147698D02*
X3553515Y-13157222D01*
X3553515Y-13157222D02*
X3543991Y-13166746D01*
X3543991Y-13166746D02*
X3534467Y-13185793D01*
X3534467Y-13185793D02*
X3534467Y-13223888D01*
X3534467Y-13223888D02*
X3543991Y-13242936D01*
X3543991Y-13242936D02*
X3553515Y-13252460D01*
X3553515Y-13252460D02*
X3572562Y-13261984D01*
X3572562Y-13261984D02*
X3610658Y-13261984D01*
X3610658Y-13261984D02*
X3629705Y-13252460D01*
X3629705Y-13252460D02*
X3639229Y-13242936D01*
X3639229Y-13242936D02*
X3648753Y-13223888D01*
X3648753Y-13223888D02*
X3648753Y-13185793D01*
X3648753Y-13185793D02*
X3639229Y-13166746D01*
X3639229Y-13166746D02*
X3629705Y-13157222D01*
X3629705Y-13157222D02*
X3610658Y-13147698D01*
X3772562Y-13061984D02*
X3791610Y-13061984D01*
X3791610Y-13061984D02*
X3810658Y-13071508D01*
X3810658Y-13071508D02*
X3820182Y-13081031D01*
X3820182Y-13081031D02*
X3829705Y-13100079D01*
X3829705Y-13100079D02*
X3839229Y-13138174D01*
X3839229Y-13138174D02*
X3839229Y-13185793D01*
X3839229Y-13185793D02*
X3829705Y-13223888D01*
X3829705Y-13223888D02*
X3820182Y-13242936D01*
X3820182Y-13242936D02*
X3810658Y-13252460D01*
X3810658Y-13252460D02*
X3791610Y-13261984D01*
X3791610Y-13261984D02*
X3772562Y-13261984D01*
X3772562Y-13261984D02*
X3753515Y-13252460D01*
X3753515Y-13252460D02*
X3743991Y-13242936D01*
X3743991Y-13242936D02*
X3734467Y-13223888D01*
X3734467Y-13223888D02*
X3724943Y-13185793D01*
X3724943Y-13185793D02*
X3724943Y-13138174D01*
X3724943Y-13138174D02*
X3734467Y-13100079D01*
X3734467Y-13100079D02*
X3743991Y-13081031D01*
X3743991Y-13081031D02*
X3753515Y-13071508D01*
X3753515Y-13071508D02*
X3772562Y-13061984D01*
X3963039Y-13061984D02*
X3982086Y-13061984D01*
X3982086Y-13061984D02*
X4001134Y-13071508D01*
X4001134Y-13071508D02*
X4010658Y-13081031D01*
X4010658Y-13081031D02*
X4020182Y-13100079D01*
X4020182Y-13100079D02*
X4029705Y-13138174D01*
X4029705Y-13138174D02*
X4029705Y-13185793D01*
X4029705Y-13185793D02*
X4020182Y-13223888D01*
X4020182Y-13223888D02*
X4010658Y-13242936D01*
X4010658Y-13242936D02*
X4001134Y-13252460D01*
X4001134Y-13252460D02*
X3982086Y-13261984D01*
X3982086Y-13261984D02*
X3963039Y-13261984D01*
X3963039Y-13261984D02*
X3943991Y-13252460D01*
X3943991Y-13252460D02*
X3934467Y-13242936D01*
X3934467Y-13242936D02*
X3924943Y-13223888D01*
X3924943Y-13223888D02*
X3915420Y-13185793D01*
X3915420Y-13185793D02*
X3915420Y-13138174D01*
X3915420Y-13138174D02*
X3924943Y-13100079D01*
X3924943Y-13100079D02*
X3934467Y-13081031D01*
X3934467Y-13081031D02*
X3943991Y-13071508D01*
X3943991Y-13071508D02*
X3963039Y-13061984D01*
X4115420Y-13261984D02*
X4115420Y-13128650D01*
X4115420Y-13147698D02*
X4124943Y-13138174D01*
X4124943Y-13138174D02*
X4143991Y-13128650D01*
X4143991Y-13128650D02*
X4172563Y-13128650D01*
X4172563Y-13128650D02*
X4191610Y-13138174D01*
X4191610Y-13138174D02*
X4201134Y-13157222D01*
X4201134Y-13157222D02*
X4201134Y-13261984D01*
X4201134Y-13157222D02*
X4210658Y-13138174D01*
X4210658Y-13138174D02*
X4229705Y-13128650D01*
X4229705Y-13128650D02*
X4258277Y-13128650D01*
X4258277Y-13128650D02*
X4277325Y-13138174D01*
X4277325Y-13138174D02*
X4286848Y-13157222D01*
X4286848Y-13157222D02*
X4286848Y-13261984D01*
X4382086Y-13261984D02*
X4382086Y-13128650D01*
X4382086Y-13147698D02*
X4391610Y-13138174D01*
X4391610Y-13138174D02*
X4410658Y-13128650D01*
X4410658Y-13128650D02*
X4439229Y-13128650D01*
X4439229Y-13128650D02*
X4458277Y-13138174D01*
X4458277Y-13138174D02*
X4467801Y-13157222D01*
X4467801Y-13157222D02*
X4467801Y-13261984D01*
X4467801Y-13157222D02*
X4477325Y-13138174D01*
X4477325Y-13138174D02*
X4496372Y-13128650D01*
X4496372Y-13128650D02*
X4524944Y-13128650D01*
X4524944Y-13128650D02*
X4543991Y-13138174D01*
X4543991Y-13138174D02*
X4553515Y-13157222D01*
X4553515Y-13157222D02*
X4553515Y-13261984D01*
X4943991Y-13052460D02*
X4772563Y-13309603D01*
X5201134Y-13061984D02*
X5220182Y-13061984D01*
X5220182Y-13061984D02*
X5239229Y-13071508D01*
X5239229Y-13071508D02*
X5248753Y-13081031D01*
X5248753Y-13081031D02*
X5258277Y-13100079D01*
X5258277Y-13100079D02*
X5267801Y-13138174D01*
X5267801Y-13138174D02*
X5267801Y-13185793D01*
X5267801Y-13185793D02*
X5258277Y-13223888D01*
X5258277Y-13223888D02*
X5248753Y-13242936D01*
X5248753Y-13242936D02*
X5239229Y-13252460D01*
X5239229Y-13252460D02*
X5220182Y-13261984D01*
X5220182Y-13261984D02*
X5201134Y-13261984D01*
X5201134Y-13261984D02*
X5182087Y-13252460D01*
X5182087Y-13252460D02*
X5172563Y-13242936D01*
X5172563Y-13242936D02*
X5163039Y-13223888D01*
X5163039Y-13223888D02*
X5153515Y-13185793D01*
X5153515Y-13185793D02*
X5153515Y-13138174D01*
X5153515Y-13138174D02*
X5163039Y-13100079D01*
X5163039Y-13100079D02*
X5172563Y-13081031D01*
X5172563Y-13081031D02*
X5182087Y-13071508D01*
X5182087Y-13071508D02*
X5201134Y-13061984D01*
X5353515Y-13242936D02*
X5363039Y-13252460D01*
X5363039Y-13252460D02*
X5353515Y-13261984D01*
X5353515Y-13261984D02*
X5343991Y-13252460D01*
X5343991Y-13252460D02*
X5353515Y-13242936D01*
X5353515Y-13242936D02*
X5353515Y-13261984D01*
X5486848Y-13061984D02*
X5505896Y-13061984D01*
X5505896Y-13061984D02*
X5524944Y-13071508D01*
X5524944Y-13071508D02*
X5534468Y-13081031D01*
X5534468Y-13081031D02*
X5543991Y-13100079D01*
X5543991Y-13100079D02*
X5553515Y-13138174D01*
X5553515Y-13138174D02*
X5553515Y-13185793D01*
X5553515Y-13185793D02*
X5543991Y-13223888D01*
X5543991Y-13223888D02*
X5534468Y-13242936D01*
X5534468Y-13242936D02*
X5524944Y-13252460D01*
X5524944Y-13252460D02*
X5505896Y-13261984D01*
X5505896Y-13261984D02*
X5486848Y-13261984D01*
X5486848Y-13261984D02*
X5467801Y-13252460D01*
X5467801Y-13252460D02*
X5458277Y-13242936D01*
X5458277Y-13242936D02*
X5448753Y-13223888D01*
X5448753Y-13223888D02*
X5439229Y-13185793D01*
X5439229Y-13185793D02*
X5439229Y-13138174D01*
X5439229Y-13138174D02*
X5448753Y-13100079D01*
X5448753Y-13100079D02*
X5458277Y-13081031D01*
X5458277Y-13081031D02*
X5467801Y-13071508D01*
X5467801Y-13071508D02*
X5486848Y-13061984D01*
X5620182Y-13061984D02*
X5743991Y-13061984D01*
X5743991Y-13061984D02*
X5677325Y-13138174D01*
X5677325Y-13138174D02*
X5705896Y-13138174D01*
X5705896Y-13138174D02*
X5724944Y-13147698D01*
X5724944Y-13147698D02*
X5734467Y-13157222D01*
X5734467Y-13157222D02*
X5743991Y-13176269D01*
X5743991Y-13176269D02*
X5743991Y-13223888D01*
X5743991Y-13223888D02*
X5734467Y-13242936D01*
X5734467Y-13242936D02*
X5724944Y-13252460D01*
X5724944Y-13252460D02*
X5705896Y-13261984D01*
X5705896Y-13261984D02*
X5648753Y-13261984D01*
X5648753Y-13261984D02*
X5629706Y-13252460D01*
X5629706Y-13252460D02*
X5620182Y-13242936D01*
X5934467Y-13261984D02*
X5820182Y-13261984D01*
X5877325Y-13261984D02*
X5877325Y-13061984D01*
X5877325Y-13061984D02*
X5858277Y-13090555D01*
X5858277Y-13090555D02*
X5839229Y-13109603D01*
X5839229Y-13109603D02*
X5820182Y-13119127D01*
X6115420Y-13061984D02*
X6020182Y-13061984D01*
X6020182Y-13061984D02*
X6010658Y-13157222D01*
X6010658Y-13157222D02*
X6020182Y-13147698D01*
X6020182Y-13147698D02*
X6039229Y-13138174D01*
X6039229Y-13138174D02*
X6086848Y-13138174D01*
X6086848Y-13138174D02*
X6105896Y-13147698D01*
X6105896Y-13147698D02*
X6115420Y-13157222D01*
X6115420Y-13157222D02*
X6124944Y-13176269D01*
X6124944Y-13176269D02*
X6124944Y-13223888D01*
X6124944Y-13223888D02*
X6115420Y-13242936D01*
X6115420Y-13242936D02*
X6105896Y-13252460D01*
X6105896Y-13252460D02*
X6086848Y-13261984D01*
X6086848Y-13261984D02*
X6039229Y-13261984D01*
X6039229Y-13261984D02*
X6020182Y-13252460D01*
X6020182Y-13252460D02*
X6010658Y-13242936D01*
X6201134Y-13061984D02*
X6201134Y-13100079D01*
X6277325Y-13061984D02*
X6277325Y-13100079D01*
X6572563Y-13338174D02*
X6563039Y-13328650D01*
X6563039Y-13328650D02*
X6543991Y-13300079D01*
X6543991Y-13300079D02*
X6534468Y-13281031D01*
X6534468Y-13281031D02*
X6524944Y-13252460D01*
X6524944Y-13252460D02*
X6515420Y-13204841D01*
X6515420Y-13204841D02*
X6515420Y-13166746D01*
X6515420Y-13166746D02*
X6524944Y-13119127D01*
X6524944Y-13119127D02*
X6534468Y-13090555D01*
X6534468Y-13090555D02*
X6543991Y-13071508D01*
X6543991Y-13071508D02*
X6563039Y-13042936D01*
X6563039Y-13042936D02*
X6572563Y-13033412D01*
X6677325Y-13147698D02*
X6658277Y-13138174D01*
X6658277Y-13138174D02*
X6648753Y-13128650D01*
X6648753Y-13128650D02*
X6639229Y-13109603D01*
X6639229Y-13109603D02*
X6639229Y-13100079D01*
X6639229Y-13100079D02*
X6648753Y-13081031D01*
X6648753Y-13081031D02*
X6658277Y-13071508D01*
X6658277Y-13071508D02*
X6677325Y-13061984D01*
X6677325Y-13061984D02*
X6715420Y-13061984D01*
X6715420Y-13061984D02*
X6734468Y-13071508D01*
X6734468Y-13071508D02*
X6743991Y-13081031D01*
X6743991Y-13081031D02*
X6753515Y-13100079D01*
X6753515Y-13100079D02*
X6753515Y-13109603D01*
X6753515Y-13109603D02*
X6743991Y-13128650D01*
X6743991Y-13128650D02*
X6734468Y-13138174D01*
X6734468Y-13138174D02*
X6715420Y-13147698D01*
X6715420Y-13147698D02*
X6677325Y-13147698D01*
X6677325Y-13147698D02*
X6658277Y-13157222D01*
X6658277Y-13157222D02*
X6648753Y-13166746D01*
X6648753Y-13166746D02*
X6639229Y-13185793D01*
X6639229Y-13185793D02*
X6639229Y-13223888D01*
X6639229Y-13223888D02*
X6648753Y-13242936D01*
X6648753Y-13242936D02*
X6658277Y-13252460D01*
X6658277Y-13252460D02*
X6677325Y-13261984D01*
X6677325Y-13261984D02*
X6715420Y-13261984D01*
X6715420Y-13261984D02*
X6734468Y-13252460D01*
X6734468Y-13252460D02*
X6743991Y-13242936D01*
X6743991Y-13242936D02*
X6753515Y-13223888D01*
X6753515Y-13223888D02*
X6753515Y-13185793D01*
X6753515Y-13185793D02*
X6743991Y-13166746D01*
X6743991Y-13166746D02*
X6734468Y-13157222D01*
X6734468Y-13157222D02*
X6715420Y-13147698D01*
X6991610Y-13261984D02*
X6991610Y-13061984D01*
X7077325Y-13261984D02*
X7077325Y-13157222D01*
X7077325Y-13157222D02*
X7067801Y-13138174D01*
X7067801Y-13138174D02*
X7048753Y-13128650D01*
X7048753Y-13128650D02*
X7020182Y-13128650D01*
X7020182Y-13128650D02*
X7001134Y-13138174D01*
X7001134Y-13138174D02*
X6991610Y-13147698D01*
X7201134Y-13261984D02*
X7182087Y-13252460D01*
X7182087Y-13252460D02*
X7172563Y-13242936D01*
X7172563Y-13242936D02*
X7163039Y-13223888D01*
X7163039Y-13223888D02*
X7163039Y-13166746D01*
X7163039Y-13166746D02*
X7172563Y-13147698D01*
X7172563Y-13147698D02*
X7182087Y-13138174D01*
X7182087Y-13138174D02*
X7201134Y-13128650D01*
X7201134Y-13128650D02*
X7229706Y-13128650D01*
X7229706Y-13128650D02*
X7248753Y-13138174D01*
X7248753Y-13138174D02*
X7258277Y-13147698D01*
X7258277Y-13147698D02*
X7267801Y-13166746D01*
X7267801Y-13166746D02*
X7267801Y-13223888D01*
X7267801Y-13223888D02*
X7258277Y-13242936D01*
X7258277Y-13242936D02*
X7248753Y-13252460D01*
X7248753Y-13252460D02*
X7229706Y-13261984D01*
X7229706Y-13261984D02*
X7201134Y-13261984D01*
X7382087Y-13261984D02*
X7363039Y-13252460D01*
X7363039Y-13252460D02*
X7353515Y-13233412D01*
X7353515Y-13233412D02*
X7353515Y-13061984D01*
X7534468Y-13252460D02*
X7515420Y-13261984D01*
X7515420Y-13261984D02*
X7477325Y-13261984D01*
X7477325Y-13261984D02*
X7458277Y-13252460D01*
X7458277Y-13252460D02*
X7448753Y-13233412D01*
X7448753Y-13233412D02*
X7448753Y-13157222D01*
X7448753Y-13157222D02*
X7458277Y-13138174D01*
X7458277Y-13138174D02*
X7477325Y-13128650D01*
X7477325Y-13128650D02*
X7515420Y-13128650D01*
X7515420Y-13128650D02*
X7534468Y-13138174D01*
X7534468Y-13138174D02*
X7543991Y-13157222D01*
X7543991Y-13157222D02*
X7543991Y-13176269D01*
X7543991Y-13176269D02*
X7448753Y-13195317D01*
X7620182Y-13252460D02*
X7639230Y-13261984D01*
X7639230Y-13261984D02*
X7677325Y-13261984D01*
X7677325Y-13261984D02*
X7696372Y-13252460D01*
X7696372Y-13252460D02*
X7705896Y-13233412D01*
X7705896Y-13233412D02*
X7705896Y-13223888D01*
X7705896Y-13223888D02*
X7696372Y-13204841D01*
X7696372Y-13204841D02*
X7677325Y-13195317D01*
X7677325Y-13195317D02*
X7648753Y-13195317D01*
X7648753Y-13195317D02*
X7629706Y-13185793D01*
X7629706Y-13185793D02*
X7620182Y-13166746D01*
X7620182Y-13166746D02*
X7620182Y-13157222D01*
X7620182Y-13157222D02*
X7629706Y-13138174D01*
X7629706Y-13138174D02*
X7648753Y-13128650D01*
X7648753Y-13128650D02*
X7677325Y-13128650D01*
X7677325Y-13128650D02*
X7696372Y-13138174D01*
X7772563Y-13338174D02*
X7782087Y-13328650D01*
X7782087Y-13328650D02*
X7801134Y-13300079D01*
X7801134Y-13300079D02*
X7810658Y-13281031D01*
X7810658Y-13281031D02*
X7820182Y-13252460D01*
X7820182Y-13252460D02*
X7829706Y-13204841D01*
X7829706Y-13204841D02*
X7829706Y-13166746D01*
X7829706Y-13166746D02*
X7820182Y-13119127D01*
X7820182Y-13119127D02*
X7810658Y-13090555D01*
X7810658Y-13090555D02*
X7801134Y-13071508D01*
X7801134Y-13071508D02*
X7782087Y-13042936D01*
X7782087Y-13042936D02*
X7772563Y-13033412D01*
D12*
X2982856Y-13469856D02*
X2982856Y-13399144D01*
X2912144Y-13399144D01*
X2912144Y-13469856D01*
X2982856Y-13469856D01*
D11*
X3363039Y-13525984D02*
X3248753Y-13525984D01*
X3305896Y-13525984D02*
X3305896Y-13325984D01*
X3305896Y-13325984D02*
X3286848Y-13354555D01*
X3286848Y-13354555D02*
X3267801Y-13373603D01*
X3267801Y-13373603D02*
X3248753Y-13383127D01*
X3448753Y-13506936D02*
X3458277Y-13516460D01*
X3458277Y-13516460D02*
X3448753Y-13525984D01*
X3448753Y-13525984D02*
X3439229Y-13516460D01*
X3439229Y-13516460D02*
X3448753Y-13506936D01*
X3448753Y-13506936D02*
X3448753Y-13525984D01*
X3582086Y-13325984D02*
X3601134Y-13325984D01*
X3601134Y-13325984D02*
X3620182Y-13335508D01*
X3620182Y-13335508D02*
X3629705Y-13345031D01*
X3629705Y-13345031D02*
X3639229Y-13364079D01*
X3639229Y-13364079D02*
X3648753Y-13402174D01*
X3648753Y-13402174D02*
X3648753Y-13449793D01*
X3648753Y-13449793D02*
X3639229Y-13487888D01*
X3639229Y-13487888D02*
X3629705Y-13506936D01*
X3629705Y-13506936D02*
X3620182Y-13516460D01*
X3620182Y-13516460D02*
X3601134Y-13525984D01*
X3601134Y-13525984D02*
X3582086Y-13525984D01*
X3582086Y-13525984D02*
X3563039Y-13516460D01*
X3563039Y-13516460D02*
X3553515Y-13506936D01*
X3553515Y-13506936D02*
X3543991Y-13487888D01*
X3543991Y-13487888D02*
X3534467Y-13449793D01*
X3534467Y-13449793D02*
X3534467Y-13402174D01*
X3534467Y-13402174D02*
X3543991Y-13364079D01*
X3543991Y-13364079D02*
X3553515Y-13345031D01*
X3553515Y-13345031D02*
X3563039Y-13335508D01*
X3563039Y-13335508D02*
X3582086Y-13325984D01*
X3772562Y-13325984D02*
X3791610Y-13325984D01*
X3791610Y-13325984D02*
X3810658Y-13335508D01*
X3810658Y-13335508D02*
X3820182Y-13345031D01*
X3820182Y-13345031D02*
X3829705Y-13364079D01*
X3829705Y-13364079D02*
X3839229Y-13402174D01*
X3839229Y-13402174D02*
X3839229Y-13449793D01*
X3839229Y-13449793D02*
X3829705Y-13487888D01*
X3829705Y-13487888D02*
X3820182Y-13506936D01*
X3820182Y-13506936D02*
X3810658Y-13516460D01*
X3810658Y-13516460D02*
X3791610Y-13525984D01*
X3791610Y-13525984D02*
X3772562Y-13525984D01*
X3772562Y-13525984D02*
X3753515Y-13516460D01*
X3753515Y-13516460D02*
X3743991Y-13506936D01*
X3743991Y-13506936D02*
X3734467Y-13487888D01*
X3734467Y-13487888D02*
X3724943Y-13449793D01*
X3724943Y-13449793D02*
X3724943Y-13402174D01*
X3724943Y-13402174D02*
X3734467Y-13364079D01*
X3734467Y-13364079D02*
X3743991Y-13345031D01*
X3743991Y-13345031D02*
X3753515Y-13335508D01*
X3753515Y-13335508D02*
X3772562Y-13325984D01*
X3963039Y-13325984D02*
X3982086Y-13325984D01*
X3982086Y-13325984D02*
X4001134Y-13335508D01*
X4001134Y-13335508D02*
X4010658Y-13345031D01*
X4010658Y-13345031D02*
X4020182Y-13364079D01*
X4020182Y-13364079D02*
X4029705Y-13402174D01*
X4029705Y-13402174D02*
X4029705Y-13449793D01*
X4029705Y-13449793D02*
X4020182Y-13487888D01*
X4020182Y-13487888D02*
X4010658Y-13506936D01*
X4010658Y-13506936D02*
X4001134Y-13516460D01*
X4001134Y-13516460D02*
X3982086Y-13525984D01*
X3982086Y-13525984D02*
X3963039Y-13525984D01*
X3963039Y-13525984D02*
X3943991Y-13516460D01*
X3943991Y-13516460D02*
X3934467Y-13506936D01*
X3934467Y-13506936D02*
X3924943Y-13487888D01*
X3924943Y-13487888D02*
X3915420Y-13449793D01*
X3915420Y-13449793D02*
X3915420Y-13402174D01*
X3915420Y-13402174D02*
X3924943Y-13364079D01*
X3924943Y-13364079D02*
X3934467Y-13345031D01*
X3934467Y-13345031D02*
X3943991Y-13335508D01*
X3943991Y-13335508D02*
X3963039Y-13325984D01*
X4115420Y-13525984D02*
X4115420Y-13392650D01*
X4115420Y-13411698D02*
X4124943Y-13402174D01*
X4124943Y-13402174D02*
X4143991Y-13392650D01*
X4143991Y-13392650D02*
X4172563Y-13392650D01*
X4172563Y-13392650D02*
X4191610Y-13402174D01*
X4191610Y-13402174D02*
X4201134Y-13421222D01*
X4201134Y-13421222D02*
X4201134Y-13525984D01*
X4201134Y-13421222D02*
X4210658Y-13402174D01*
X4210658Y-13402174D02*
X4229705Y-13392650D01*
X4229705Y-13392650D02*
X4258277Y-13392650D01*
X4258277Y-13392650D02*
X4277325Y-13402174D01*
X4277325Y-13402174D02*
X4286848Y-13421222D01*
X4286848Y-13421222D02*
X4286848Y-13525984D01*
X4382086Y-13525984D02*
X4382086Y-13392650D01*
X4382086Y-13411698D02*
X4391610Y-13402174D01*
X4391610Y-13402174D02*
X4410658Y-13392650D01*
X4410658Y-13392650D02*
X4439229Y-13392650D01*
X4439229Y-13392650D02*
X4458277Y-13402174D01*
X4458277Y-13402174D02*
X4467801Y-13421222D01*
X4467801Y-13421222D02*
X4467801Y-13525984D01*
X4467801Y-13421222D02*
X4477325Y-13402174D01*
X4477325Y-13402174D02*
X4496372Y-13392650D01*
X4496372Y-13392650D02*
X4524944Y-13392650D01*
X4524944Y-13392650D02*
X4543991Y-13402174D01*
X4543991Y-13402174D02*
X4553515Y-13421222D01*
X4553515Y-13421222D02*
X4553515Y-13525984D01*
X4943991Y-13316460D02*
X4772563Y-13573603D01*
X5201134Y-13325984D02*
X5220182Y-13325984D01*
X5220182Y-13325984D02*
X5239229Y-13335508D01*
X5239229Y-13335508D02*
X5248753Y-13345031D01*
X5248753Y-13345031D02*
X5258277Y-13364079D01*
X5258277Y-13364079D02*
X5267801Y-13402174D01*
X5267801Y-13402174D02*
X5267801Y-13449793D01*
X5267801Y-13449793D02*
X5258277Y-13487888D01*
X5258277Y-13487888D02*
X5248753Y-13506936D01*
X5248753Y-13506936D02*
X5239229Y-13516460D01*
X5239229Y-13516460D02*
X5220182Y-13525984D01*
X5220182Y-13525984D02*
X5201134Y-13525984D01*
X5201134Y-13525984D02*
X5182087Y-13516460D01*
X5182087Y-13516460D02*
X5172563Y-13506936D01*
X5172563Y-13506936D02*
X5163039Y-13487888D01*
X5163039Y-13487888D02*
X5153515Y-13449793D01*
X5153515Y-13449793D02*
X5153515Y-13402174D01*
X5153515Y-13402174D02*
X5163039Y-13364079D01*
X5163039Y-13364079D02*
X5172563Y-13345031D01*
X5172563Y-13345031D02*
X5182087Y-13335508D01*
X5182087Y-13335508D02*
X5201134Y-13325984D01*
X5353515Y-13506936D02*
X5363039Y-13516460D01*
X5363039Y-13516460D02*
X5353515Y-13525984D01*
X5353515Y-13525984D02*
X5343991Y-13516460D01*
X5343991Y-13516460D02*
X5353515Y-13506936D01*
X5353515Y-13506936D02*
X5353515Y-13525984D01*
X5486848Y-13325984D02*
X5505896Y-13325984D01*
X5505896Y-13325984D02*
X5524944Y-13335508D01*
X5524944Y-13335508D02*
X5534468Y-13345031D01*
X5534468Y-13345031D02*
X5543991Y-13364079D01*
X5543991Y-13364079D02*
X5553515Y-13402174D01*
X5553515Y-13402174D02*
X5553515Y-13449793D01*
X5553515Y-13449793D02*
X5543991Y-13487888D01*
X5543991Y-13487888D02*
X5534468Y-13506936D01*
X5534468Y-13506936D02*
X5524944Y-13516460D01*
X5524944Y-13516460D02*
X5505896Y-13525984D01*
X5505896Y-13525984D02*
X5486848Y-13525984D01*
X5486848Y-13525984D02*
X5467801Y-13516460D01*
X5467801Y-13516460D02*
X5458277Y-13506936D01*
X5458277Y-13506936D02*
X5448753Y-13487888D01*
X5448753Y-13487888D02*
X5439229Y-13449793D01*
X5439229Y-13449793D02*
X5439229Y-13402174D01*
X5439229Y-13402174D02*
X5448753Y-13364079D01*
X5448753Y-13364079D02*
X5458277Y-13345031D01*
X5458277Y-13345031D02*
X5467801Y-13335508D01*
X5467801Y-13335508D02*
X5486848Y-13325984D01*
X5620182Y-13325984D02*
X5743991Y-13325984D01*
X5743991Y-13325984D02*
X5677325Y-13402174D01*
X5677325Y-13402174D02*
X5705896Y-13402174D01*
X5705896Y-13402174D02*
X5724944Y-13411698D01*
X5724944Y-13411698D02*
X5734467Y-13421222D01*
X5734467Y-13421222D02*
X5743991Y-13440269D01*
X5743991Y-13440269D02*
X5743991Y-13487888D01*
X5743991Y-13487888D02*
X5734467Y-13506936D01*
X5734467Y-13506936D02*
X5724944Y-13516460D01*
X5724944Y-13516460D02*
X5705896Y-13525984D01*
X5705896Y-13525984D02*
X5648753Y-13525984D01*
X5648753Y-13525984D02*
X5629706Y-13516460D01*
X5629706Y-13516460D02*
X5620182Y-13506936D01*
X5839229Y-13525984D02*
X5877325Y-13525984D01*
X5877325Y-13525984D02*
X5896372Y-13516460D01*
X5896372Y-13516460D02*
X5905896Y-13506936D01*
X5905896Y-13506936D02*
X5924944Y-13478365D01*
X5924944Y-13478365D02*
X5934467Y-13440269D01*
X5934467Y-13440269D02*
X5934467Y-13364079D01*
X5934467Y-13364079D02*
X5924944Y-13345031D01*
X5924944Y-13345031D02*
X5915420Y-13335508D01*
X5915420Y-13335508D02*
X5896372Y-13325984D01*
X5896372Y-13325984D02*
X5858277Y-13325984D01*
X5858277Y-13325984D02*
X5839229Y-13335508D01*
X5839229Y-13335508D02*
X5829706Y-13345031D01*
X5829706Y-13345031D02*
X5820182Y-13364079D01*
X5820182Y-13364079D02*
X5820182Y-13411698D01*
X5820182Y-13411698D02*
X5829706Y-13430746D01*
X5829706Y-13430746D02*
X5839229Y-13440269D01*
X5839229Y-13440269D02*
X5858277Y-13449793D01*
X5858277Y-13449793D02*
X5896372Y-13449793D01*
X5896372Y-13449793D02*
X5915420Y-13440269D01*
X5915420Y-13440269D02*
X5924944Y-13430746D01*
X5924944Y-13430746D02*
X5934467Y-13411698D01*
X6105896Y-13392650D02*
X6105896Y-13525984D01*
X6058277Y-13316460D02*
X6010658Y-13459317D01*
X6010658Y-13459317D02*
X6134467Y-13459317D01*
X6201134Y-13325984D02*
X6201134Y-13364079D01*
X6277325Y-13325984D02*
X6277325Y-13364079D01*
X6572563Y-13602174D02*
X6563039Y-13592650D01*
X6563039Y-13592650D02*
X6543991Y-13564079D01*
X6543991Y-13564079D02*
X6534468Y-13545031D01*
X6534468Y-13545031D02*
X6524944Y-13516460D01*
X6524944Y-13516460D02*
X6515420Y-13468841D01*
X6515420Y-13468841D02*
X6515420Y-13430746D01*
X6515420Y-13430746D02*
X6524944Y-13383127D01*
X6524944Y-13383127D02*
X6534468Y-13354555D01*
X6534468Y-13354555D02*
X6543991Y-13335508D01*
X6543991Y-13335508D02*
X6563039Y-13306936D01*
X6563039Y-13306936D02*
X6572563Y-13297412D01*
X6629706Y-13325984D02*
X6753515Y-13325984D01*
X6753515Y-13325984D02*
X6686848Y-13402174D01*
X6686848Y-13402174D02*
X6715420Y-13402174D01*
X6715420Y-13402174D02*
X6734468Y-13411698D01*
X6734468Y-13411698D02*
X6743991Y-13421222D01*
X6743991Y-13421222D02*
X6753515Y-13440269D01*
X6753515Y-13440269D02*
X6753515Y-13487888D01*
X6753515Y-13487888D02*
X6743991Y-13506936D01*
X6743991Y-13506936D02*
X6734468Y-13516460D01*
X6734468Y-13516460D02*
X6715420Y-13525984D01*
X6715420Y-13525984D02*
X6658277Y-13525984D01*
X6658277Y-13525984D02*
X6639229Y-13516460D01*
X6639229Y-13516460D02*
X6629706Y-13506936D01*
X6943991Y-13525984D02*
X6829706Y-13525984D01*
X6886848Y-13525984D02*
X6886848Y-13325984D01*
X6886848Y-13325984D02*
X6867801Y-13354555D01*
X6867801Y-13354555D02*
X6848753Y-13373603D01*
X6848753Y-13373603D02*
X6829706Y-13383127D01*
X7182087Y-13525984D02*
X7182087Y-13325984D01*
X7267801Y-13525984D02*
X7267801Y-13421222D01*
X7267801Y-13421222D02*
X7258277Y-13402174D01*
X7258277Y-13402174D02*
X7239230Y-13392650D01*
X7239230Y-13392650D02*
X7210658Y-13392650D01*
X7210658Y-13392650D02*
X7191610Y-13402174D01*
X7191610Y-13402174D02*
X7182087Y-13411698D01*
X7391610Y-13525984D02*
X7372563Y-13516460D01*
X7372563Y-13516460D02*
X7363039Y-13506936D01*
X7363039Y-13506936D02*
X7353515Y-13487888D01*
X7353515Y-13487888D02*
X7353515Y-13430746D01*
X7353515Y-13430746D02*
X7363039Y-13411698D01*
X7363039Y-13411698D02*
X7372563Y-13402174D01*
X7372563Y-13402174D02*
X7391610Y-13392650D01*
X7391610Y-13392650D02*
X7420182Y-13392650D01*
X7420182Y-13392650D02*
X7439230Y-13402174D01*
X7439230Y-13402174D02*
X7448753Y-13411698D01*
X7448753Y-13411698D02*
X7458277Y-13430746D01*
X7458277Y-13430746D02*
X7458277Y-13487888D01*
X7458277Y-13487888D02*
X7448753Y-13506936D01*
X7448753Y-13506936D02*
X7439230Y-13516460D01*
X7439230Y-13516460D02*
X7420182Y-13525984D01*
X7420182Y-13525984D02*
X7391610Y-13525984D01*
X7572563Y-13525984D02*
X7553515Y-13516460D01*
X7553515Y-13516460D02*
X7543991Y-13497412D01*
X7543991Y-13497412D02*
X7543991Y-13325984D01*
X7724944Y-13516460D02*
X7705896Y-13525984D01*
X7705896Y-13525984D02*
X7667801Y-13525984D01*
X7667801Y-13525984D02*
X7648753Y-13516460D01*
X7648753Y-13516460D02*
X7639230Y-13497412D01*
X7639230Y-13497412D02*
X7639230Y-13421222D01*
X7639230Y-13421222D02*
X7648753Y-13402174D01*
X7648753Y-13402174D02*
X7667801Y-13392650D01*
X7667801Y-13392650D02*
X7705896Y-13392650D01*
X7705896Y-13392650D02*
X7724944Y-13402174D01*
X7724944Y-13402174D02*
X7734468Y-13421222D01*
X7734468Y-13421222D02*
X7734468Y-13440269D01*
X7734468Y-13440269D02*
X7639230Y-13459317D01*
X7810658Y-13516460D02*
X7829706Y-13525984D01*
X7829706Y-13525984D02*
X7867801Y-13525984D01*
X7867801Y-13525984D02*
X7886849Y-13516460D01*
X7886849Y-13516460D02*
X7896372Y-13497412D01*
X7896372Y-13497412D02*
X7896372Y-13487888D01*
X7896372Y-13487888D02*
X7886849Y-13468841D01*
X7886849Y-13468841D02*
X7867801Y-13459317D01*
X7867801Y-13459317D02*
X7839230Y-13459317D01*
X7839230Y-13459317D02*
X7820182Y-13449793D01*
X7820182Y-13449793D02*
X7810658Y-13430746D01*
X7810658Y-13430746D02*
X7810658Y-13421222D01*
X7810658Y-13421222D02*
X7820182Y-13402174D01*
X7820182Y-13402174D02*
X7839230Y-13392650D01*
X7839230Y-13392650D02*
X7867801Y-13392650D01*
X7867801Y-13392650D02*
X7886849Y-13402174D01*
X7963039Y-13602174D02*
X7972563Y-13592650D01*
X7972563Y-13592650D02*
X7991611Y-13564079D01*
X7991611Y-13564079D02*
X8001134Y-13545031D01*
X8001134Y-13545031D02*
X8010658Y-13516460D01*
X8010658Y-13516460D02*
X8020182Y-13468841D01*
X8020182Y-13468841D02*
X8020182Y-13430746D01*
X8020182Y-13430746D02*
X8010658Y-13383127D01*
X8010658Y-13383127D02*
X8001134Y-13354555D01*
X8001134Y-13354555D02*
X7991611Y-13335508D01*
X7991611Y-13335508D02*
X7972563Y-13306936D01*
X7972563Y-13306936D02*
X7963039Y-13297412D01*
M02*
