%TF.GenerationSoftware,KiCad,Pcbnew,8.0.8*%
%TF.CreationDate,2025-08-25T22:32:07+09:00*%
%TF.ProjectId,Line_follower_robot,4c696e65-5f66-46f6-9c6c-6f7765725f72,rev?*%
%TF.SameCoordinates,Original*%
%TF.FileFunction,Legend,Bot*%
%TF.FilePolarity,Positive*%
%FSLAX46Y46*%
G04 Gerber Fmt 4.6, Leading zero omitted, Abs format (unit mm)*
G04 Created by KiCad (PCBNEW 8.0.8) date 2025-08-25 22:32:07*
%MOMM*%
%LPD*%
G01*
G04 APERTURE LIST*
%ADD10C,0.100000*%
%ADD11C,0.200000*%
%ADD12C,0.120000*%
G04 APERTURE END LIST*
D10*
X118610514Y-25603884D02*
X118610514Y-26556265D01*
X118800990Y-25651503D02*
X118800990Y-26556265D01*
X119039085Y-25461027D02*
X119039085Y-26699122D01*
X118372419Y-25508646D02*
X118562895Y-25508646D01*
X118229561Y-26080074D02*
X118372419Y-26080074D01*
X118372419Y-25508646D02*
X118372419Y-26651503D01*
X118372419Y-26651503D02*
X118562895Y-26651503D01*
X119039085Y-26080074D02*
X119229561Y-26270550D01*
X119229561Y-26270550D02*
X119372419Y-26603884D01*
X118515276Y-26080074D02*
X118991466Y-26080074D01*
X118991466Y-26080074D02*
X119134323Y-26032455D01*
X119134323Y-26032455D02*
X119229561Y-25889598D01*
X119229561Y-25889598D02*
X119372419Y-25508646D01*
X118324800Y-27461026D02*
X118324800Y-28127693D01*
X118658133Y-27413407D02*
X118658133Y-28175312D01*
X119372419Y-27651502D02*
X119372419Y-27937217D01*
X118658133Y-27222931D02*
X119372419Y-27222931D01*
X118658133Y-27937217D02*
X119372419Y-27937217D01*
X118229561Y-27222931D02*
X118515276Y-26984836D01*
X118515276Y-27318169D02*
X118896228Y-26937217D01*
X118467657Y-29461026D02*
X118467657Y-30699121D01*
X118610514Y-29603883D02*
X118610514Y-30508645D01*
X118753371Y-29556264D02*
X118753371Y-30603883D01*
X118896228Y-29461026D02*
X118896228Y-30699121D01*
X119181942Y-29651502D02*
X119181942Y-30508645D01*
X119324800Y-29651502D02*
X119324800Y-30508645D01*
X119039085Y-29651502D02*
X119372419Y-29651502D01*
X118229561Y-30080073D02*
X118896228Y-30080073D01*
X118324800Y-29603883D02*
X118324800Y-30508645D01*
X118324800Y-30508645D02*
X118610514Y-30508645D01*
X119039085Y-29651502D02*
X119039085Y-30508645D01*
X119039085Y-30508645D02*
X119372419Y-30508645D01*
X118515276Y-31127692D02*
X118420038Y-31508644D01*
X118753371Y-31080073D02*
X118610514Y-31651501D01*
X118277180Y-31270549D02*
X118991466Y-31461025D01*
X118991466Y-31461025D02*
X118991466Y-31318168D01*
X119039085Y-31127692D02*
X119181942Y-31127692D01*
X119181942Y-31127692D02*
X119277180Y-31222930D01*
X119277180Y-31222930D02*
X119324800Y-31413406D01*
X118277180Y-32080073D02*
X118467657Y-32222930D01*
X118753371Y-31984835D02*
X118753371Y-32222930D01*
X118753371Y-32222930D02*
X119181942Y-32222930D01*
X119181942Y-32222930D02*
X119372419Y-32032454D01*
X118324800Y-32508644D02*
X118324800Y-32794358D01*
X118324800Y-32794358D02*
X118705752Y-32841977D01*
X118705752Y-32841977D02*
X118943847Y-32984835D01*
X118943847Y-32984835D02*
X119181942Y-33175311D01*
X118562895Y-32794358D02*
X118943847Y-32603882D01*
X118943847Y-32603882D02*
X119134323Y-32413406D01*
X119277180Y-32127692D02*
X119372419Y-32699120D01*
X119372419Y-32699120D02*
X119372419Y-33175311D01*
X118420038Y-33651501D02*
X118420038Y-33937215D01*
X118420038Y-33937215D02*
X118753371Y-33841977D01*
X118753371Y-33841977D02*
X119229561Y-33651501D01*
X119229561Y-33651501D02*
X119086704Y-33556263D01*
X119086704Y-33556263D02*
X118943847Y-33556263D01*
X118943847Y-33556263D02*
X118848609Y-33699120D01*
X118848609Y-33699120D02*
X118848609Y-33889596D01*
X118848609Y-33889596D02*
X119039085Y-34222929D01*
X118610514Y-34080072D02*
X118896228Y-34080072D01*
X118896228Y-34080072D02*
X119086704Y-34032453D01*
X119086704Y-34032453D02*
X119277180Y-33889596D01*
X129672419Y-27675312D02*
X129196228Y-27341979D01*
X129672419Y-27103884D02*
X128672419Y-27103884D01*
X128672419Y-27103884D02*
X128672419Y-27484836D01*
X128672419Y-27484836D02*
X128720038Y-27580074D01*
X128720038Y-27580074D02*
X128767657Y-27627693D01*
X128767657Y-27627693D02*
X128862895Y-27675312D01*
X128862895Y-27675312D02*
X129005752Y-27675312D01*
X129005752Y-27675312D02*
X129100990Y-27627693D01*
X129100990Y-27627693D02*
X129148609Y-27580074D01*
X129148609Y-27580074D02*
X129196228Y-27484836D01*
X129196228Y-27484836D02*
X129196228Y-27103884D01*
X129148609Y-28103884D02*
X129148609Y-28437217D01*
X129672419Y-28580074D02*
X129672419Y-28103884D01*
X129672419Y-28103884D02*
X128672419Y-28103884D01*
X128672419Y-28103884D02*
X128672419Y-28580074D01*
X129624800Y-28961027D02*
X129672419Y-29103884D01*
X129672419Y-29103884D02*
X129672419Y-29341979D01*
X129672419Y-29341979D02*
X129624800Y-29437217D01*
X129624800Y-29437217D02*
X129577180Y-29484836D01*
X129577180Y-29484836D02*
X129481942Y-29532455D01*
X129481942Y-29532455D02*
X129386704Y-29532455D01*
X129386704Y-29532455D02*
X129291466Y-29484836D01*
X129291466Y-29484836D02*
X129243847Y-29437217D01*
X129243847Y-29437217D02*
X129196228Y-29341979D01*
X129196228Y-29341979D02*
X129148609Y-29151503D01*
X129148609Y-29151503D02*
X129100990Y-29056265D01*
X129100990Y-29056265D02*
X129053371Y-29008646D01*
X129053371Y-29008646D02*
X128958133Y-28961027D01*
X128958133Y-28961027D02*
X128862895Y-28961027D01*
X128862895Y-28961027D02*
X128767657Y-29008646D01*
X128767657Y-29008646D02*
X128720038Y-29056265D01*
X128720038Y-29056265D02*
X128672419Y-29151503D01*
X128672419Y-29151503D02*
X128672419Y-29389598D01*
X128672419Y-29389598D02*
X128720038Y-29532455D01*
X129148609Y-29961027D02*
X129148609Y-30294360D01*
X129672419Y-30437217D02*
X129672419Y-29961027D01*
X129672419Y-29961027D02*
X128672419Y-29961027D01*
X128672419Y-29961027D02*
X128672419Y-30437217D01*
X128672419Y-30722932D02*
X128672419Y-31294360D01*
X129672419Y-31008646D02*
X128672419Y-31008646D01*
D11*
X40798183Y-32348171D02*
X40839850Y-32300552D01*
X40839850Y-32300552D02*
X40917231Y-32157695D01*
X40917231Y-32157695D02*
X40952945Y-32062457D01*
X40952945Y-32062457D02*
X40982707Y-31919600D01*
X40982707Y-31919600D02*
X41000564Y-31681504D01*
X41000564Y-31681504D02*
X40976755Y-31491028D01*
X40976755Y-31491028D02*
X40899374Y-31252933D01*
X40899374Y-31252933D02*
X40833898Y-31110076D01*
X40833898Y-31110076D02*
X40774374Y-31014838D01*
X40774374Y-31014838D02*
X40661279Y-30871980D01*
X40661279Y-30871980D02*
X40607707Y-30824361D01*
X40381516Y-31681504D02*
X39905326Y-31681504D01*
X40512469Y-31967219D02*
X40054135Y-30967219D01*
X40054135Y-30967219D02*
X39845802Y-31967219D01*
X39196992Y-30967219D02*
X39101754Y-30967219D01*
X39101754Y-30967219D02*
X39012469Y-31014838D01*
X39012469Y-31014838D02*
X38970802Y-31062457D01*
X38970802Y-31062457D02*
X38935088Y-31157695D01*
X38935088Y-31157695D02*
X38911278Y-31348171D01*
X38911278Y-31348171D02*
X38941040Y-31586266D01*
X38941040Y-31586266D02*
X39012469Y-31776742D01*
X39012469Y-31776742D02*
X39071992Y-31871980D01*
X39071992Y-31871980D02*
X39125564Y-31919600D01*
X39125564Y-31919600D02*
X39226754Y-31967219D01*
X39226754Y-31967219D02*
X39321992Y-31967219D01*
X39321992Y-31967219D02*
X39411278Y-31919600D01*
X39411278Y-31919600D02*
X39452945Y-31871980D01*
X39452945Y-31871980D02*
X39488659Y-31776742D01*
X39488659Y-31776742D02*
X39512469Y-31586266D01*
X39512469Y-31586266D02*
X39482707Y-31348171D01*
X39482707Y-31348171D02*
X39411278Y-31157695D01*
X39411278Y-31157695D02*
X39351754Y-31062457D01*
X39351754Y-31062457D02*
X39298183Y-31014838D01*
X39298183Y-31014838D02*
X39196992Y-30967219D01*
X38702945Y-32348171D02*
X38649373Y-32300552D01*
X38649373Y-32300552D02*
X38536278Y-32157695D01*
X38536278Y-32157695D02*
X38476754Y-32062457D01*
X38476754Y-32062457D02*
X38411278Y-31919600D01*
X38411278Y-31919600D02*
X38333897Y-31681504D01*
X38333897Y-31681504D02*
X38310088Y-31491028D01*
X38310088Y-31491028D02*
X38327945Y-31252933D01*
X38327945Y-31252933D02*
X38357707Y-31110076D01*
X38357707Y-31110076D02*
X38393421Y-31014838D01*
X38393421Y-31014838D02*
X38470802Y-30871980D01*
X38470802Y-30871980D02*
X38512469Y-30824361D01*
X96888183Y-58658171D02*
X96929850Y-58610552D01*
X96929850Y-58610552D02*
X97007231Y-58467695D01*
X97007231Y-58467695D02*
X97042945Y-58372457D01*
X97042945Y-58372457D02*
X97072707Y-58229600D01*
X97072707Y-58229600D02*
X97090564Y-57991504D01*
X97090564Y-57991504D02*
X97066755Y-57801028D01*
X97066755Y-57801028D02*
X96989374Y-57562933D01*
X96989374Y-57562933D02*
X96923898Y-57420076D01*
X96923898Y-57420076D02*
X96864374Y-57324838D01*
X96864374Y-57324838D02*
X96751279Y-57181980D01*
X96751279Y-57181980D02*
X96697707Y-57134361D01*
X96471516Y-57991504D02*
X95995326Y-57991504D01*
X96602469Y-58277219D02*
X96144135Y-57277219D01*
X96144135Y-57277219D02*
X95935802Y-58277219D01*
X95090564Y-57610552D02*
X95173897Y-58277219D01*
X95281040Y-57229600D02*
X95608421Y-57943885D01*
X95608421Y-57943885D02*
X94989373Y-57943885D01*
X94792945Y-58658171D02*
X94739373Y-58610552D01*
X94739373Y-58610552D02*
X94626278Y-58467695D01*
X94626278Y-58467695D02*
X94566754Y-58372457D01*
X94566754Y-58372457D02*
X94501278Y-58229600D01*
X94501278Y-58229600D02*
X94423897Y-57991504D01*
X94423897Y-57991504D02*
X94400088Y-57801028D01*
X94400088Y-57801028D02*
X94417945Y-57562933D01*
X94417945Y-57562933D02*
X94447707Y-57420076D01*
X94447707Y-57420076D02*
X94483421Y-57324838D01*
X94483421Y-57324838D02*
X94560802Y-57181980D01*
X94560802Y-57181980D02*
X94602469Y-57134361D01*
X84248183Y-58448171D02*
X84289850Y-58400552D01*
X84289850Y-58400552D02*
X84367231Y-58257695D01*
X84367231Y-58257695D02*
X84402945Y-58162457D01*
X84402945Y-58162457D02*
X84432707Y-58019600D01*
X84432707Y-58019600D02*
X84450564Y-57781504D01*
X84450564Y-57781504D02*
X84426755Y-57591028D01*
X84426755Y-57591028D02*
X84349374Y-57352933D01*
X84349374Y-57352933D02*
X84283898Y-57210076D01*
X84283898Y-57210076D02*
X84224374Y-57114838D01*
X84224374Y-57114838D02*
X84111279Y-56971980D01*
X84111279Y-56971980D02*
X84057707Y-56924361D01*
X83831516Y-57781504D02*
X83355326Y-57781504D01*
X83962469Y-58067219D02*
X83504135Y-57067219D01*
X83504135Y-57067219D02*
X83295802Y-58067219D01*
X82932707Y-57067219D02*
X82313659Y-57067219D01*
X82313659Y-57067219D02*
X82694612Y-57448171D01*
X82694612Y-57448171D02*
X82551754Y-57448171D01*
X82551754Y-57448171D02*
X82462469Y-57495790D01*
X82462469Y-57495790D02*
X82420802Y-57543409D01*
X82420802Y-57543409D02*
X82385088Y-57638647D01*
X82385088Y-57638647D02*
X82414850Y-57876742D01*
X82414850Y-57876742D02*
X82474373Y-57971980D01*
X82474373Y-57971980D02*
X82527945Y-58019600D01*
X82527945Y-58019600D02*
X82629135Y-58067219D01*
X82629135Y-58067219D02*
X82914850Y-58067219D01*
X82914850Y-58067219D02*
X83004135Y-58019600D01*
X83004135Y-58019600D02*
X83045802Y-57971980D01*
X82152945Y-58448171D02*
X82099373Y-58400552D01*
X82099373Y-58400552D02*
X81986278Y-58257695D01*
X81986278Y-58257695D02*
X81926754Y-58162457D01*
X81926754Y-58162457D02*
X81861278Y-58019600D01*
X81861278Y-58019600D02*
X81783897Y-57781504D01*
X81783897Y-57781504D02*
X81760088Y-57591028D01*
X81760088Y-57591028D02*
X81777945Y-57352933D01*
X81777945Y-57352933D02*
X81807707Y-57210076D01*
X81807707Y-57210076D02*
X81843421Y-57114838D01*
X81843421Y-57114838D02*
X81920802Y-56971980D01*
X81920802Y-56971980D02*
X81962469Y-56924361D01*
X69238183Y-58428171D02*
X69279850Y-58380552D01*
X69279850Y-58380552D02*
X69357231Y-58237695D01*
X69357231Y-58237695D02*
X69392945Y-58142457D01*
X69392945Y-58142457D02*
X69422707Y-57999600D01*
X69422707Y-57999600D02*
X69440564Y-57761504D01*
X69440564Y-57761504D02*
X69416755Y-57571028D01*
X69416755Y-57571028D02*
X69339374Y-57332933D01*
X69339374Y-57332933D02*
X69273898Y-57190076D01*
X69273898Y-57190076D02*
X69214374Y-57094838D01*
X69214374Y-57094838D02*
X69101279Y-56951980D01*
X69101279Y-56951980D02*
X69047707Y-56904361D01*
X68821516Y-57761504D02*
X68345326Y-57761504D01*
X68952469Y-58047219D02*
X68494135Y-57047219D01*
X68494135Y-57047219D02*
X68285802Y-58047219D01*
X67886992Y-57142457D02*
X67833421Y-57094838D01*
X67833421Y-57094838D02*
X67732231Y-57047219D01*
X67732231Y-57047219D02*
X67494135Y-57047219D01*
X67494135Y-57047219D02*
X67404850Y-57094838D01*
X67404850Y-57094838D02*
X67363183Y-57142457D01*
X67363183Y-57142457D02*
X67327469Y-57237695D01*
X67327469Y-57237695D02*
X67339373Y-57332933D01*
X67339373Y-57332933D02*
X67404850Y-57475790D01*
X67404850Y-57475790D02*
X68047707Y-58047219D01*
X68047707Y-58047219D02*
X67428659Y-58047219D01*
X67142945Y-58428171D02*
X67089373Y-58380552D01*
X67089373Y-58380552D02*
X66976278Y-58237695D01*
X66976278Y-58237695D02*
X66916754Y-58142457D01*
X66916754Y-58142457D02*
X66851278Y-57999600D01*
X66851278Y-57999600D02*
X66773897Y-57761504D01*
X66773897Y-57761504D02*
X66750088Y-57571028D01*
X66750088Y-57571028D02*
X66767945Y-57332933D01*
X66767945Y-57332933D02*
X66797707Y-57190076D01*
X66797707Y-57190076D02*
X66833421Y-57094838D01*
X66833421Y-57094838D02*
X66910802Y-56951980D01*
X66910802Y-56951980D02*
X66952469Y-56904361D01*
X54238183Y-58428171D02*
X54279850Y-58380552D01*
X54279850Y-58380552D02*
X54357231Y-58237695D01*
X54357231Y-58237695D02*
X54392945Y-58142457D01*
X54392945Y-58142457D02*
X54422707Y-57999600D01*
X54422707Y-57999600D02*
X54440564Y-57761504D01*
X54440564Y-57761504D02*
X54416755Y-57571028D01*
X54416755Y-57571028D02*
X54339374Y-57332933D01*
X54339374Y-57332933D02*
X54273898Y-57190076D01*
X54273898Y-57190076D02*
X54214374Y-57094838D01*
X54214374Y-57094838D02*
X54101279Y-56951980D01*
X54101279Y-56951980D02*
X54047707Y-56904361D01*
X53821516Y-57761504D02*
X53345326Y-57761504D01*
X53952469Y-58047219D02*
X53494135Y-57047219D01*
X53494135Y-57047219D02*
X53285802Y-58047219D01*
X52428659Y-58047219D02*
X53000088Y-58047219D01*
X52714373Y-58047219D02*
X52589373Y-57047219D01*
X52589373Y-57047219D02*
X52702469Y-57190076D01*
X52702469Y-57190076D02*
X52809612Y-57285314D01*
X52809612Y-57285314D02*
X52910802Y-57332933D01*
X52142945Y-58428171D02*
X52089373Y-58380552D01*
X52089373Y-58380552D02*
X51976278Y-58237695D01*
X51976278Y-58237695D02*
X51916754Y-58142457D01*
X51916754Y-58142457D02*
X51851278Y-57999600D01*
X51851278Y-57999600D02*
X51773897Y-57761504D01*
X51773897Y-57761504D02*
X51750088Y-57571028D01*
X51750088Y-57571028D02*
X51767945Y-57332933D01*
X51767945Y-57332933D02*
X51797707Y-57190076D01*
X51797707Y-57190076D02*
X51833421Y-57094838D01*
X51833421Y-57094838D02*
X51910802Y-56951980D01*
X51910802Y-56951980D02*
X51952469Y-56904361D01*
D10*
X50000000Y-61900000D02*
X110000000Y-61900000D01*
X110000000Y-119900000D01*
X50000000Y-119900000D01*
X50000000Y-61900000D01*
X100651904Y-53717419D02*
X100651904Y-54526942D01*
X100651904Y-54526942D02*
X100604285Y-54622180D01*
X100604285Y-54622180D02*
X100556666Y-54669800D01*
X100556666Y-54669800D02*
X100461428Y-54717419D01*
X100461428Y-54717419D02*
X100270952Y-54717419D01*
X100270952Y-54717419D02*
X100175714Y-54669800D01*
X100175714Y-54669800D02*
X100128095Y-54622180D01*
X100128095Y-54622180D02*
X100080476Y-54526942D01*
X100080476Y-54526942D02*
X100080476Y-53717419D01*
X99175714Y-54050752D02*
X99175714Y-54717419D01*
X99413809Y-53669800D02*
X99651904Y-54384085D01*
X99651904Y-54384085D02*
X99032857Y-54384085D01*
X88011904Y-53507419D02*
X88011904Y-54316942D01*
X88011904Y-54316942D02*
X87964285Y-54412180D01*
X87964285Y-54412180D02*
X87916666Y-54459800D01*
X87916666Y-54459800D02*
X87821428Y-54507419D01*
X87821428Y-54507419D02*
X87630952Y-54507419D01*
X87630952Y-54507419D02*
X87535714Y-54459800D01*
X87535714Y-54459800D02*
X87488095Y-54412180D01*
X87488095Y-54412180D02*
X87440476Y-54316942D01*
X87440476Y-54316942D02*
X87440476Y-53507419D01*
X87059523Y-53507419D02*
X86440476Y-53507419D01*
X86440476Y-53507419D02*
X86773809Y-53888371D01*
X86773809Y-53888371D02*
X86630952Y-53888371D01*
X86630952Y-53888371D02*
X86535714Y-53935990D01*
X86535714Y-53935990D02*
X86488095Y-53983609D01*
X86488095Y-53983609D02*
X86440476Y-54078847D01*
X86440476Y-54078847D02*
X86440476Y-54316942D01*
X86440476Y-54316942D02*
X86488095Y-54412180D01*
X86488095Y-54412180D02*
X86535714Y-54459800D01*
X86535714Y-54459800D02*
X86630952Y-54507419D01*
X86630952Y-54507419D02*
X86916666Y-54507419D01*
X86916666Y-54507419D02*
X87011904Y-54459800D01*
X87011904Y-54459800D02*
X87059523Y-54412180D01*
X73001904Y-53487419D02*
X73001904Y-54296942D01*
X73001904Y-54296942D02*
X72954285Y-54392180D01*
X72954285Y-54392180D02*
X72906666Y-54439800D01*
X72906666Y-54439800D02*
X72811428Y-54487419D01*
X72811428Y-54487419D02*
X72620952Y-54487419D01*
X72620952Y-54487419D02*
X72525714Y-54439800D01*
X72525714Y-54439800D02*
X72478095Y-54392180D01*
X72478095Y-54392180D02*
X72430476Y-54296942D01*
X72430476Y-54296942D02*
X72430476Y-53487419D01*
X72001904Y-53582657D02*
X71954285Y-53535038D01*
X71954285Y-53535038D02*
X71859047Y-53487419D01*
X71859047Y-53487419D02*
X71620952Y-53487419D01*
X71620952Y-53487419D02*
X71525714Y-53535038D01*
X71525714Y-53535038D02*
X71478095Y-53582657D01*
X71478095Y-53582657D02*
X71430476Y-53677895D01*
X71430476Y-53677895D02*
X71430476Y-53773133D01*
X71430476Y-53773133D02*
X71478095Y-53915990D01*
X71478095Y-53915990D02*
X72049523Y-54487419D01*
X72049523Y-54487419D02*
X71430476Y-54487419D01*
X58001904Y-53487419D02*
X58001904Y-54296942D01*
X58001904Y-54296942D02*
X57954285Y-54392180D01*
X57954285Y-54392180D02*
X57906666Y-54439800D01*
X57906666Y-54439800D02*
X57811428Y-54487419D01*
X57811428Y-54487419D02*
X57620952Y-54487419D01*
X57620952Y-54487419D02*
X57525714Y-54439800D01*
X57525714Y-54439800D02*
X57478095Y-54392180D01*
X57478095Y-54392180D02*
X57430476Y-54296942D01*
X57430476Y-54296942D02*
X57430476Y-53487419D01*
X56430476Y-54487419D02*
X57001904Y-54487419D01*
X56716190Y-54487419D02*
X56716190Y-53487419D01*
X56716190Y-53487419D02*
X56811428Y-53630276D01*
X56811428Y-53630276D02*
X56906666Y-53725514D01*
X56906666Y-53725514D02*
X57001904Y-53773133D01*
X127109800Y-27666667D02*
X127157419Y-27809524D01*
X127157419Y-27809524D02*
X127157419Y-28047619D01*
X127157419Y-28047619D02*
X127109800Y-28142857D01*
X127109800Y-28142857D02*
X127062180Y-28190476D01*
X127062180Y-28190476D02*
X126966942Y-28238095D01*
X126966942Y-28238095D02*
X126871704Y-28238095D01*
X126871704Y-28238095D02*
X126776466Y-28190476D01*
X126776466Y-28190476D02*
X126728847Y-28142857D01*
X126728847Y-28142857D02*
X126681228Y-28047619D01*
X126681228Y-28047619D02*
X126633609Y-27857143D01*
X126633609Y-27857143D02*
X126585990Y-27761905D01*
X126585990Y-27761905D02*
X126538371Y-27714286D01*
X126538371Y-27714286D02*
X126443133Y-27666667D01*
X126443133Y-27666667D02*
X126347895Y-27666667D01*
X126347895Y-27666667D02*
X126252657Y-27714286D01*
X126252657Y-27714286D02*
X126205038Y-27761905D01*
X126205038Y-27761905D02*
X126157419Y-27857143D01*
X126157419Y-27857143D02*
X126157419Y-28095238D01*
X126157419Y-28095238D02*
X126205038Y-28238095D01*
X126157419Y-28571429D02*
X127157419Y-28809524D01*
X127157419Y-28809524D02*
X126443133Y-29000000D01*
X126443133Y-29000000D02*
X127157419Y-29190476D01*
X127157419Y-29190476D02*
X126157419Y-29428572D01*
X126157419Y-29714286D02*
X126157419Y-30333333D01*
X126157419Y-30333333D02*
X126538371Y-30000000D01*
X126538371Y-30000000D02*
X126538371Y-30142857D01*
X126538371Y-30142857D02*
X126585990Y-30238095D01*
X126585990Y-30238095D02*
X126633609Y-30285714D01*
X126633609Y-30285714D02*
X126728847Y-30333333D01*
X126728847Y-30333333D02*
X126966942Y-30333333D01*
X126966942Y-30333333D02*
X127062180Y-30285714D01*
X127062180Y-30285714D02*
X127109800Y-30238095D01*
X127109800Y-30238095D02*
X127157419Y-30142857D01*
X127157419Y-30142857D02*
X127157419Y-29857143D01*
X127157419Y-29857143D02*
X127109800Y-29761905D01*
X127109800Y-29761905D02*
X127062180Y-29714286D01*
X110457419Y-26457142D02*
X109981228Y-26123809D01*
X110457419Y-25885714D02*
X109457419Y-25885714D01*
X109457419Y-25885714D02*
X109457419Y-26266666D01*
X109457419Y-26266666D02*
X109505038Y-26361904D01*
X109505038Y-26361904D02*
X109552657Y-26409523D01*
X109552657Y-26409523D02*
X109647895Y-26457142D01*
X109647895Y-26457142D02*
X109790752Y-26457142D01*
X109790752Y-26457142D02*
X109885990Y-26409523D01*
X109885990Y-26409523D02*
X109933609Y-26361904D01*
X109933609Y-26361904D02*
X109981228Y-26266666D01*
X109981228Y-26266666D02*
X109981228Y-25885714D01*
X110457419Y-27409523D02*
X110457419Y-26838095D01*
X110457419Y-27123809D02*
X109457419Y-27123809D01*
X109457419Y-27123809D02*
X109600276Y-27028571D01*
X109600276Y-27028571D02*
X109695514Y-26933333D01*
X109695514Y-26933333D02*
X109743133Y-26838095D01*
X109457419Y-28266666D02*
X109457419Y-28076190D01*
X109457419Y-28076190D02*
X109505038Y-27980952D01*
X109505038Y-27980952D02*
X109552657Y-27933333D01*
X109552657Y-27933333D02*
X109695514Y-27838095D01*
X109695514Y-27838095D02*
X109885990Y-27790476D01*
X109885990Y-27790476D02*
X110266942Y-27790476D01*
X110266942Y-27790476D02*
X110362180Y-27838095D01*
X110362180Y-27838095D02*
X110409800Y-27885714D01*
X110409800Y-27885714D02*
X110457419Y-27980952D01*
X110457419Y-27980952D02*
X110457419Y-28171428D01*
X110457419Y-28171428D02*
X110409800Y-28266666D01*
X110409800Y-28266666D02*
X110362180Y-28314285D01*
X110362180Y-28314285D02*
X110266942Y-28361904D01*
X110266942Y-28361904D02*
X110028847Y-28361904D01*
X110028847Y-28361904D02*
X109933609Y-28314285D01*
X109933609Y-28314285D02*
X109885990Y-28266666D01*
X109885990Y-28266666D02*
X109838371Y-28171428D01*
X109838371Y-28171428D02*
X109838371Y-27980952D01*
X109838371Y-27980952D02*
X109885990Y-27885714D01*
X109885990Y-27885714D02*
X109933609Y-27838095D01*
X109933609Y-27838095D02*
X110028847Y-27790476D01*
X110557419Y-39257142D02*
X110081228Y-38923809D01*
X110557419Y-38685714D02*
X109557419Y-38685714D01*
X109557419Y-38685714D02*
X109557419Y-39066666D01*
X109557419Y-39066666D02*
X109605038Y-39161904D01*
X109605038Y-39161904D02*
X109652657Y-39209523D01*
X109652657Y-39209523D02*
X109747895Y-39257142D01*
X109747895Y-39257142D02*
X109890752Y-39257142D01*
X109890752Y-39257142D02*
X109985990Y-39209523D01*
X109985990Y-39209523D02*
X110033609Y-39161904D01*
X110033609Y-39161904D02*
X110081228Y-39066666D01*
X110081228Y-39066666D02*
X110081228Y-38685714D01*
X110557419Y-40209523D02*
X110557419Y-39638095D01*
X110557419Y-39923809D02*
X109557419Y-39923809D01*
X109557419Y-39923809D02*
X109700276Y-39828571D01*
X109700276Y-39828571D02*
X109795514Y-39733333D01*
X109795514Y-39733333D02*
X109843133Y-39638095D01*
X109557419Y-41114285D02*
X109557419Y-40638095D01*
X109557419Y-40638095D02*
X110033609Y-40590476D01*
X110033609Y-40590476D02*
X109985990Y-40638095D01*
X109985990Y-40638095D02*
X109938371Y-40733333D01*
X109938371Y-40733333D02*
X109938371Y-40971428D01*
X109938371Y-40971428D02*
X109985990Y-41066666D01*
X109985990Y-41066666D02*
X110033609Y-41114285D01*
X110033609Y-41114285D02*
X110128847Y-41161904D01*
X110128847Y-41161904D02*
X110366942Y-41161904D01*
X110366942Y-41161904D02*
X110462180Y-41114285D01*
X110462180Y-41114285D02*
X110509800Y-41066666D01*
X110509800Y-41066666D02*
X110557419Y-40971428D01*
X110557419Y-40971428D02*
X110557419Y-40733333D01*
X110557419Y-40733333D02*
X110509800Y-40638095D01*
X110509800Y-40638095D02*
X110462180Y-40590476D01*
X112957419Y-26457142D02*
X112481228Y-26123809D01*
X112957419Y-25885714D02*
X111957419Y-25885714D01*
X111957419Y-25885714D02*
X111957419Y-26266666D01*
X111957419Y-26266666D02*
X112005038Y-26361904D01*
X112005038Y-26361904D02*
X112052657Y-26409523D01*
X112052657Y-26409523D02*
X112147895Y-26457142D01*
X112147895Y-26457142D02*
X112290752Y-26457142D01*
X112290752Y-26457142D02*
X112385990Y-26409523D01*
X112385990Y-26409523D02*
X112433609Y-26361904D01*
X112433609Y-26361904D02*
X112481228Y-26266666D01*
X112481228Y-26266666D02*
X112481228Y-25885714D01*
X112957419Y-27409523D02*
X112957419Y-26838095D01*
X112957419Y-27123809D02*
X111957419Y-27123809D01*
X111957419Y-27123809D02*
X112100276Y-27028571D01*
X112100276Y-27028571D02*
X112195514Y-26933333D01*
X112195514Y-26933333D02*
X112243133Y-26838095D01*
X112290752Y-28266666D02*
X112957419Y-28266666D01*
X111909800Y-28028571D02*
X112624085Y-27790476D01*
X112624085Y-27790476D02*
X112624085Y-28409523D01*
X112957419Y-39257142D02*
X112481228Y-38923809D01*
X112957419Y-38685714D02*
X111957419Y-38685714D01*
X111957419Y-38685714D02*
X111957419Y-39066666D01*
X111957419Y-39066666D02*
X112005038Y-39161904D01*
X112005038Y-39161904D02*
X112052657Y-39209523D01*
X112052657Y-39209523D02*
X112147895Y-39257142D01*
X112147895Y-39257142D02*
X112290752Y-39257142D01*
X112290752Y-39257142D02*
X112385990Y-39209523D01*
X112385990Y-39209523D02*
X112433609Y-39161904D01*
X112433609Y-39161904D02*
X112481228Y-39066666D01*
X112481228Y-39066666D02*
X112481228Y-38685714D01*
X112957419Y-40209523D02*
X112957419Y-39638095D01*
X112957419Y-39923809D02*
X111957419Y-39923809D01*
X111957419Y-39923809D02*
X112100276Y-39828571D01*
X112100276Y-39828571D02*
X112195514Y-39733333D01*
X112195514Y-39733333D02*
X112243133Y-39638095D01*
X111957419Y-40542857D02*
X111957419Y-41161904D01*
X111957419Y-41161904D02*
X112338371Y-40828571D01*
X112338371Y-40828571D02*
X112338371Y-40971428D01*
X112338371Y-40971428D02*
X112385990Y-41066666D01*
X112385990Y-41066666D02*
X112433609Y-41114285D01*
X112433609Y-41114285D02*
X112528847Y-41161904D01*
X112528847Y-41161904D02*
X112766942Y-41161904D01*
X112766942Y-41161904D02*
X112862180Y-41114285D01*
X112862180Y-41114285D02*
X112909800Y-41066666D01*
X112909800Y-41066666D02*
X112957419Y-40971428D01*
X112957419Y-40971428D02*
X112957419Y-40685714D01*
X112957419Y-40685714D02*
X112909800Y-40590476D01*
X112909800Y-40590476D02*
X112862180Y-40542857D01*
X45542857Y-21657419D02*
X46019047Y-21657419D01*
X46019047Y-21657419D02*
X46019047Y-20657419D01*
X45257142Y-21609800D02*
X45114285Y-21657419D01*
X45114285Y-21657419D02*
X44876190Y-21657419D01*
X44876190Y-21657419D02*
X44780952Y-21609800D01*
X44780952Y-21609800D02*
X44733333Y-21562180D01*
X44733333Y-21562180D02*
X44685714Y-21466942D01*
X44685714Y-21466942D02*
X44685714Y-21371704D01*
X44685714Y-21371704D02*
X44733333Y-21276466D01*
X44733333Y-21276466D02*
X44780952Y-21228847D01*
X44780952Y-21228847D02*
X44876190Y-21181228D01*
X44876190Y-21181228D02*
X45066666Y-21133609D01*
X45066666Y-21133609D02*
X45161904Y-21085990D01*
X45161904Y-21085990D02*
X45209523Y-21038371D01*
X45209523Y-21038371D02*
X45257142Y-20943133D01*
X45257142Y-20943133D02*
X45257142Y-20847895D01*
X45257142Y-20847895D02*
X45209523Y-20752657D01*
X45209523Y-20752657D02*
X45161904Y-20705038D01*
X45161904Y-20705038D02*
X45066666Y-20657419D01*
X45066666Y-20657419D02*
X44828571Y-20657419D01*
X44828571Y-20657419D02*
X44685714Y-20705038D01*
X43733333Y-21657419D02*
X44304761Y-21657419D01*
X44019047Y-21657419D02*
X44019047Y-20657419D01*
X44019047Y-20657419D02*
X44114285Y-20800276D01*
X44114285Y-20800276D02*
X44209523Y-20895514D01*
X44209523Y-20895514D02*
X44304761Y-20943133D01*
%TO.C,U4*%
X98890000Y-57060000D02*
X100590000Y-57060000D01*
X99890000Y-57460000D02*
X99890000Y-56660000D01*
X99290000Y-57060000D02*
X99890000Y-57460000D01*
X100190000Y-60260000D02*
X99890000Y-59560000D01*
X99490000Y-58160000D02*
X99690000Y-57660000D01*
X99690000Y-59160000D02*
X99690000Y-59360000D01*
X99490000Y-57960000D02*
X99490000Y-58160000D01*
X99690000Y-59360000D02*
X99490000Y-58860000D01*
X99290000Y-57360000D02*
X99290000Y-56660000D01*
X99890000Y-56660000D02*
X99290000Y-57060000D01*
X99290000Y-57010000D02*
X99290000Y-57460000D01*
X99090000Y-58160000D02*
X99290000Y-57660000D01*
X99290000Y-59160000D02*
X99290000Y-59360000D01*
X99390000Y-59960000D02*
X99290000Y-59560000D01*
X98990000Y-59760000D02*
X99290000Y-59560000D01*
X99090000Y-57960000D02*
X99090000Y-58160000D01*
X99290000Y-59360000D02*
X99090000Y-58860000D01*
X99290000Y-59560000D02*
X98990000Y-60260000D01*
X100290000Y-59560000D02*
X98890000Y-59560000D01*
X101790000Y-54960000D02*
X97490000Y-54960000D01*
X97490000Y-61860000D01*
X101790000Y-61860000D01*
X101790000Y-54960000D01*
%TO.C,U3*%
X86250000Y-56850000D02*
X87950000Y-56850000D01*
X87250000Y-57250000D02*
X87250000Y-56450000D01*
X86650000Y-56850000D02*
X87250000Y-57250000D01*
X87550000Y-60050000D02*
X87250000Y-59350000D01*
X86850000Y-57950000D02*
X87050000Y-57450000D01*
X87050000Y-58950000D02*
X87050000Y-59150000D01*
X86850000Y-57750000D02*
X86850000Y-57950000D01*
X87050000Y-59150000D02*
X86850000Y-58650000D01*
X86650000Y-57150000D02*
X86650000Y-56450000D01*
X87250000Y-56450000D02*
X86650000Y-56850000D01*
X86650000Y-56800000D02*
X86650000Y-57250000D01*
X86450000Y-57950000D02*
X86650000Y-57450000D01*
X86650000Y-58950000D02*
X86650000Y-59150000D01*
X86750000Y-59750000D02*
X86650000Y-59350000D01*
X86350000Y-59550000D02*
X86650000Y-59350000D01*
X86450000Y-57750000D02*
X86450000Y-57950000D01*
X86650000Y-59150000D02*
X86450000Y-58650000D01*
X86650000Y-59350000D02*
X86350000Y-60050000D01*
X87650000Y-59350000D02*
X86250000Y-59350000D01*
X89150000Y-54750000D02*
X84850000Y-54750000D01*
X84850000Y-61650000D01*
X89150000Y-61650000D01*
X89150000Y-54750000D01*
%TO.C,U2*%
X71240000Y-56830000D02*
X72940000Y-56830000D01*
X72240000Y-57230000D02*
X72240000Y-56430000D01*
X71640000Y-56830000D02*
X72240000Y-57230000D01*
X72540000Y-60030000D02*
X72240000Y-59330000D01*
X71840000Y-57930000D02*
X72040000Y-57430000D01*
X72040000Y-58930000D02*
X72040000Y-59130000D01*
X71840000Y-57730000D02*
X71840000Y-57930000D01*
X72040000Y-59130000D02*
X71840000Y-58630000D01*
X71640000Y-57130000D02*
X71640000Y-56430000D01*
X72240000Y-56430000D02*
X71640000Y-56830000D01*
X71640000Y-56780000D02*
X71640000Y-57230000D01*
X71440000Y-57930000D02*
X71640000Y-57430000D01*
X71640000Y-58930000D02*
X71640000Y-59130000D01*
X71740000Y-59730000D02*
X71640000Y-59330000D01*
X71340000Y-59530000D02*
X71640000Y-59330000D01*
X71440000Y-57730000D02*
X71440000Y-57930000D01*
X71640000Y-59130000D02*
X71440000Y-58630000D01*
X71640000Y-59330000D02*
X71340000Y-60030000D01*
X72640000Y-59330000D02*
X71240000Y-59330000D01*
X74140000Y-54730000D02*
X69840000Y-54730000D01*
X69840000Y-61630000D01*
X74140000Y-61630000D01*
X74140000Y-54730000D01*
%TO.C,U1*%
X59140000Y-54730000D02*
X54840000Y-54730000D01*
X54840000Y-61630000D01*
X59140000Y-61630000D01*
X59140000Y-54730000D01*
X57640000Y-59330000D02*
X56240000Y-59330000D01*
X56640000Y-59330000D02*
X56340000Y-60030000D01*
X56640000Y-59130000D02*
X56440000Y-58630000D01*
X56440000Y-57730000D02*
X56440000Y-57930000D01*
X56340000Y-59530000D02*
X56640000Y-59330000D01*
X56740000Y-59730000D02*
X56640000Y-59330000D01*
X56640000Y-58930000D02*
X56640000Y-59130000D01*
X56440000Y-57930000D02*
X56640000Y-57430000D01*
X56640000Y-56780000D02*
X56640000Y-57230000D01*
X57240000Y-56430000D02*
X56640000Y-56830000D01*
X56640000Y-57130000D02*
X56640000Y-56430000D01*
X57040000Y-59130000D02*
X56840000Y-58630000D01*
X56840000Y-57730000D02*
X56840000Y-57930000D01*
X57040000Y-58930000D02*
X57040000Y-59130000D01*
X56840000Y-57930000D02*
X57040000Y-57430000D01*
X57540000Y-60030000D02*
X57240000Y-59330000D01*
X56640000Y-56830000D02*
X57240000Y-57230000D01*
X57240000Y-57230000D02*
X57240000Y-56430000D01*
X56240000Y-56830000D02*
X57940000Y-56830000D01*
D12*
%TO.C,SW4*%
X121200000Y-32655000D02*
X119870000Y-32655000D01*
X119870000Y-32655000D02*
X119870000Y-31325000D01*
X119870000Y-24915000D02*
X119870000Y-30055000D01*
X122530000Y-30055000D02*
X119870000Y-30055000D01*
X122530000Y-24915000D02*
X119870000Y-24915000D01*
X122530000Y-24915000D02*
X122530000Y-30055000D01*
%TO.C,SW3*%
D10*
X128500000Y-32710000D02*
X124500000Y-32710000D01*
X124500000Y-25110000D01*
X128500000Y-25110000D01*
X128500000Y-32710000D01*
%TO.C,R16*%
X110656000Y-30000000D02*
X109256000Y-30000000D01*
X109256000Y-24300000D01*
X110656000Y-24300000D01*
X110656000Y-30000000D01*
%TO.C,R15*%
X109344000Y-36900000D02*
X110744000Y-36900000D01*
X110744000Y-42600000D01*
X109344000Y-42600000D01*
X109344000Y-36900000D01*
%TO.C,R14*%
X113156000Y-30000000D02*
X111756000Y-30000000D01*
X111756000Y-24300000D01*
X113156000Y-24300000D01*
X113156000Y-30000000D01*
%TO.C,R13*%
X113156000Y-42700000D02*
X111756000Y-42700000D01*
X111756000Y-37000000D01*
X113156000Y-37000000D01*
X113156000Y-42700000D01*
%TO.C,LS1*%
X44840000Y-25500000D02*
G75*
G02*
X34680000Y-25500000I-5080000J0D01*
G01*
X34680000Y-25500000D02*
G75*
G02*
X44840000Y-25500000I5080000J0D01*
G01*
%TD*%
M02*
