%TF.GenerationSoftware,KiCad,Pcbnew,8.0.8*%
%TF.CreationDate,2025-08-25T22:32:07+09:00*%
%TF.ProjectId,Line_follower_robot,4c696e65-5f66-46f6-9c6c-6f7765725f72,rev?*%
%TF.SameCoordinates,Original*%
%TF.FileFunction,Legend,Top*%
%TF.FilePolarity,Positive*%
%FSLAX46Y46*%
G04 Gerber Fmt 4.6, Leading zero omitted, Abs format (unit mm)*
G04 Created by KiCad (PCBNEW 8.0.8) date 2025-08-25 22:32:07*
%MOMM*%
%LPD*%
G01*
G04 APERTURE LIST*
%ADD10C,0.100000*%
%ADD11C,0.200000*%
%ADD12C,0.700000*%
%ADD13C,0.150000*%
%ADD14C,0.300000*%
%ADD15C,0.120000*%
G04 APERTURE END LIST*
D10*
X116380000Y-41980000D02*
X116400000Y-30500000D01*
X106180000Y-41880000D02*
X106200000Y-30500000D01*
X108703884Y-76820038D02*
X109656265Y-76820038D01*
X108561027Y-77105752D02*
X109799122Y-77105752D01*
X109132455Y-77772419D02*
X109370550Y-77772419D01*
X109180074Y-76629561D02*
X109180074Y-77105752D01*
X109370550Y-77105752D02*
X109370550Y-77772419D01*
X109561027Y-77296228D02*
X109751503Y-77486704D01*
X108751503Y-77343847D02*
X108561027Y-77534323D01*
X109037217Y-77105752D02*
X108989598Y-77534323D01*
X108989598Y-77534323D02*
X108751503Y-77772419D01*
X108703884Y-87220038D02*
X109656265Y-87220038D01*
X108561027Y-87505752D02*
X109799122Y-87505752D01*
X109132455Y-88172419D02*
X109370550Y-88172419D01*
X109180074Y-87029561D02*
X109180074Y-87505752D01*
X109370550Y-87505752D02*
X109370550Y-88172419D01*
X109561027Y-87696228D02*
X109751503Y-87886704D01*
X108751503Y-87743847D02*
X108561027Y-87934323D01*
X109037217Y-87505752D02*
X108989598Y-87934323D01*
X108989598Y-87934323D02*
X108751503Y-88172419D01*
X108461027Y-89772419D02*
X109651503Y-89772419D01*
X108651503Y-90343847D02*
X109508646Y-90343847D01*
X108841979Y-89629561D02*
X108841979Y-89915276D01*
X109080074Y-90153371D02*
X109080074Y-90772419D01*
X109318169Y-89629561D02*
X109318169Y-89915276D01*
X109318169Y-90439085D02*
X109603884Y-90724800D01*
X108794360Y-90486704D02*
X108556265Y-90724800D01*
X109080074Y-89867657D02*
X109270550Y-90058133D01*
X109270550Y-90058133D02*
X109699122Y-90248609D01*
X109032455Y-89867657D02*
X108841979Y-90105752D01*
X108841979Y-90105752D02*
X108461027Y-90296228D01*
X108461027Y-79172419D02*
X109651503Y-79172419D01*
X108651503Y-79743847D02*
X109508646Y-79743847D01*
X108841979Y-79029561D02*
X108841979Y-79315276D01*
X109080074Y-79553371D02*
X109080074Y-80172419D01*
X109318169Y-79029561D02*
X109318169Y-79315276D01*
X109318169Y-79839085D02*
X109603884Y-80124800D01*
X108794360Y-79886704D02*
X108556265Y-80124800D01*
X109080074Y-79267657D02*
X109270550Y-79458133D01*
X109270550Y-79458133D02*
X109699122Y-79648609D01*
X109032455Y-79267657D02*
X108841979Y-79505752D01*
X108841979Y-79505752D02*
X108461027Y-79696228D01*
D11*
X107501816Y-85548171D02*
X107460149Y-85500552D01*
X107460149Y-85500552D02*
X107382768Y-85357695D01*
X107382768Y-85357695D02*
X107347054Y-85262457D01*
X107347054Y-85262457D02*
X107317292Y-85119600D01*
X107317292Y-85119600D02*
X107299435Y-84881504D01*
X107299435Y-84881504D02*
X107323244Y-84691028D01*
X107323244Y-84691028D02*
X107400625Y-84452933D01*
X107400625Y-84452933D02*
X107466101Y-84310076D01*
X107466101Y-84310076D02*
X107525625Y-84214838D01*
X107525625Y-84214838D02*
X107638720Y-84071980D01*
X107638720Y-84071980D02*
X107692292Y-84024361D01*
X107918483Y-84881504D02*
X108394673Y-84881504D01*
X107787530Y-85167219D02*
X108245864Y-84167219D01*
X108245864Y-84167219D02*
X108454197Y-85167219D01*
X108817292Y-84167219D02*
X109483959Y-84167219D01*
X109483959Y-84167219D02*
X108930388Y-85167219D01*
X109597054Y-85548171D02*
X109650626Y-85500552D01*
X109650626Y-85500552D02*
X109763721Y-85357695D01*
X109763721Y-85357695D02*
X109823245Y-85262457D01*
X109823245Y-85262457D02*
X109888721Y-85119600D01*
X109888721Y-85119600D02*
X109966102Y-84881504D01*
X109966102Y-84881504D02*
X109989911Y-84691028D01*
X109989911Y-84691028D02*
X109972054Y-84452933D01*
X109972054Y-84452933D02*
X109942292Y-84310076D01*
X109942292Y-84310076D02*
X109906578Y-84214838D01*
X109906578Y-84214838D02*
X109829197Y-84071980D01*
X109829197Y-84071980D02*
X109787530Y-84024361D01*
X107601816Y-75248171D02*
X107560149Y-75200552D01*
X107560149Y-75200552D02*
X107482768Y-75057695D01*
X107482768Y-75057695D02*
X107447054Y-74962457D01*
X107447054Y-74962457D02*
X107417292Y-74819600D01*
X107417292Y-74819600D02*
X107399435Y-74581504D01*
X107399435Y-74581504D02*
X107423244Y-74391028D01*
X107423244Y-74391028D02*
X107500625Y-74152933D01*
X107500625Y-74152933D02*
X107566101Y-74010076D01*
X107566101Y-74010076D02*
X107625625Y-73914838D01*
X107625625Y-73914838D02*
X107738720Y-73771980D01*
X107738720Y-73771980D02*
X107792292Y-73724361D01*
X108018483Y-74581504D02*
X108494673Y-74581504D01*
X107887530Y-74867219D02*
X108345864Y-73867219D01*
X108345864Y-73867219D02*
X108554197Y-74867219D01*
X109441102Y-73867219D02*
X109250626Y-73867219D01*
X109250626Y-73867219D02*
X109149435Y-73914838D01*
X109149435Y-73914838D02*
X109095864Y-73962457D01*
X109095864Y-73962457D02*
X108982768Y-74105314D01*
X108982768Y-74105314D02*
X108911340Y-74295790D01*
X108911340Y-74295790D02*
X108863721Y-74676742D01*
X108863721Y-74676742D02*
X108899435Y-74771980D01*
X108899435Y-74771980D02*
X108941102Y-74819600D01*
X108941102Y-74819600D02*
X109030388Y-74867219D01*
X109030388Y-74867219D02*
X109220864Y-74867219D01*
X109220864Y-74867219D02*
X109322054Y-74819600D01*
X109322054Y-74819600D02*
X109375626Y-74771980D01*
X109375626Y-74771980D02*
X109435149Y-74676742D01*
X109435149Y-74676742D02*
X109464911Y-74438647D01*
X109464911Y-74438647D02*
X109429197Y-74343409D01*
X109429197Y-74343409D02*
X109387530Y-74295790D01*
X109387530Y-74295790D02*
X109298245Y-74248171D01*
X109298245Y-74248171D02*
X109107768Y-74248171D01*
X109107768Y-74248171D02*
X109006578Y-74295790D01*
X109006578Y-74295790D02*
X108953007Y-74343409D01*
X108953007Y-74343409D02*
X108893483Y-74438647D01*
X109697054Y-75248171D02*
X109750626Y-75200552D01*
X109750626Y-75200552D02*
X109863721Y-75057695D01*
X109863721Y-75057695D02*
X109923245Y-74962457D01*
X109923245Y-74962457D02*
X109988721Y-74819600D01*
X109988721Y-74819600D02*
X110066102Y-74581504D01*
X110066102Y-74581504D02*
X110089911Y-74391028D01*
X110089911Y-74391028D02*
X110072054Y-74152933D01*
X110072054Y-74152933D02*
X110042292Y-74010076D01*
X110042292Y-74010076D02*
X110006578Y-73914838D01*
X110006578Y-73914838D02*
X109929197Y-73771980D01*
X109929197Y-73771980D02*
X109887530Y-73724361D01*
D10*
X105528609Y-43376115D02*
X105528609Y-43042782D01*
X106052419Y-42899925D02*
X106052419Y-43376115D01*
X106052419Y-43376115D02*
X105052419Y-43376115D01*
X105052419Y-43376115D02*
X105052419Y-42899925D01*
X106004800Y-42518972D02*
X106052419Y-42376115D01*
X106052419Y-42376115D02*
X106052419Y-42138020D01*
X106052419Y-42138020D02*
X106004800Y-42042782D01*
X106004800Y-42042782D02*
X105957180Y-41995163D01*
X105957180Y-41995163D02*
X105861942Y-41947544D01*
X105861942Y-41947544D02*
X105766704Y-41947544D01*
X105766704Y-41947544D02*
X105671466Y-41995163D01*
X105671466Y-41995163D02*
X105623847Y-42042782D01*
X105623847Y-42042782D02*
X105576228Y-42138020D01*
X105576228Y-42138020D02*
X105528609Y-42328496D01*
X105528609Y-42328496D02*
X105480990Y-42423734D01*
X105480990Y-42423734D02*
X105433371Y-42471353D01*
X105433371Y-42471353D02*
X105338133Y-42518972D01*
X105338133Y-42518972D02*
X105242895Y-42518972D01*
X105242895Y-42518972D02*
X105147657Y-42471353D01*
X105147657Y-42471353D02*
X105100038Y-42423734D01*
X105100038Y-42423734D02*
X105052419Y-42328496D01*
X105052419Y-42328496D02*
X105052419Y-42090401D01*
X105052419Y-42090401D02*
X105100038Y-41947544D01*
X106052419Y-41518972D02*
X105052419Y-41518972D01*
X105052419Y-41518972D02*
X105052419Y-41138020D01*
X105052419Y-41138020D02*
X105100038Y-41042782D01*
X105100038Y-41042782D02*
X105147657Y-40995163D01*
X105147657Y-40995163D02*
X105242895Y-40947544D01*
X105242895Y-40947544D02*
X105385752Y-40947544D01*
X105385752Y-40947544D02*
X105480990Y-40995163D01*
X105480990Y-40995163D02*
X105528609Y-41042782D01*
X105528609Y-41042782D02*
X105576228Y-41138020D01*
X105576228Y-41138020D02*
X105576228Y-41518972D01*
X105671466Y-40518972D02*
X105671466Y-39757068D01*
X105052419Y-39376115D02*
X106052419Y-39138020D01*
X106052419Y-39138020D02*
X105338133Y-38947544D01*
X105338133Y-38947544D02*
X106052419Y-38757068D01*
X106052419Y-38757068D02*
X105052419Y-38518973D01*
X106052419Y-37566592D02*
X105576228Y-37899925D01*
X106052419Y-38138020D02*
X105052419Y-38138020D01*
X105052419Y-38138020D02*
X105052419Y-37757068D01*
X105052419Y-37757068D02*
X105100038Y-37661830D01*
X105100038Y-37661830D02*
X105147657Y-37614211D01*
X105147657Y-37614211D02*
X105242895Y-37566592D01*
X105242895Y-37566592D02*
X105385752Y-37566592D01*
X105385752Y-37566592D02*
X105480990Y-37614211D01*
X105480990Y-37614211D02*
X105528609Y-37661830D01*
X105528609Y-37661830D02*
X105576228Y-37757068D01*
X105576228Y-37757068D02*
X105576228Y-38138020D01*
X105052419Y-36947544D02*
X105052419Y-36757068D01*
X105052419Y-36757068D02*
X105100038Y-36661830D01*
X105100038Y-36661830D02*
X105195276Y-36566592D01*
X105195276Y-36566592D02*
X105385752Y-36518973D01*
X105385752Y-36518973D02*
X105719085Y-36518973D01*
X105719085Y-36518973D02*
X105909561Y-36566592D01*
X105909561Y-36566592D02*
X106004800Y-36661830D01*
X106004800Y-36661830D02*
X106052419Y-36757068D01*
X106052419Y-36757068D02*
X106052419Y-36947544D01*
X106052419Y-36947544D02*
X106004800Y-37042782D01*
X106004800Y-37042782D02*
X105909561Y-37138020D01*
X105909561Y-37138020D02*
X105719085Y-37185639D01*
X105719085Y-37185639D02*
X105385752Y-37185639D01*
X105385752Y-37185639D02*
X105195276Y-37138020D01*
X105195276Y-37138020D02*
X105100038Y-37042782D01*
X105100038Y-37042782D02*
X105052419Y-36947544D01*
X105052419Y-35899925D02*
X105052419Y-35709449D01*
X105052419Y-35709449D02*
X105100038Y-35614211D01*
X105100038Y-35614211D02*
X105195276Y-35518973D01*
X105195276Y-35518973D02*
X105385752Y-35471354D01*
X105385752Y-35471354D02*
X105719085Y-35471354D01*
X105719085Y-35471354D02*
X105909561Y-35518973D01*
X105909561Y-35518973D02*
X106004800Y-35614211D01*
X106004800Y-35614211D02*
X106052419Y-35709449D01*
X106052419Y-35709449D02*
X106052419Y-35899925D01*
X106052419Y-35899925D02*
X106004800Y-35995163D01*
X106004800Y-35995163D02*
X105909561Y-36090401D01*
X105909561Y-36090401D02*
X105719085Y-36138020D01*
X105719085Y-36138020D02*
X105385752Y-36138020D01*
X105385752Y-36138020D02*
X105195276Y-36090401D01*
X105195276Y-36090401D02*
X105100038Y-35995163D01*
X105100038Y-35995163D02*
X105052419Y-35899925D01*
X106052419Y-35042782D02*
X105052419Y-35042782D01*
X105052419Y-35042782D02*
X105766704Y-34709449D01*
X105766704Y-34709449D02*
X105052419Y-34376116D01*
X105052419Y-34376116D02*
X106052419Y-34376116D01*
X105671466Y-33899925D02*
X105671466Y-33138021D01*
X105052419Y-32471354D02*
X105052419Y-32376116D01*
X105052419Y-32376116D02*
X105100038Y-32280878D01*
X105100038Y-32280878D02*
X105147657Y-32233259D01*
X105147657Y-32233259D02*
X105242895Y-32185640D01*
X105242895Y-32185640D02*
X105433371Y-32138021D01*
X105433371Y-32138021D02*
X105671466Y-32138021D01*
X105671466Y-32138021D02*
X105861942Y-32185640D01*
X105861942Y-32185640D02*
X105957180Y-32233259D01*
X105957180Y-32233259D02*
X106004800Y-32280878D01*
X106004800Y-32280878D02*
X106052419Y-32376116D01*
X106052419Y-32376116D02*
X106052419Y-32471354D01*
X106052419Y-32471354D02*
X106004800Y-32566592D01*
X106004800Y-32566592D02*
X105957180Y-32614211D01*
X105957180Y-32614211D02*
X105861942Y-32661830D01*
X105861942Y-32661830D02*
X105671466Y-32709449D01*
X105671466Y-32709449D02*
X105433371Y-32709449D01*
X105433371Y-32709449D02*
X105242895Y-32661830D01*
X105242895Y-32661830D02*
X105147657Y-32614211D01*
X105147657Y-32614211D02*
X105100038Y-32566592D01*
X105100038Y-32566592D02*
X105052419Y-32471354D01*
X105147657Y-31757068D02*
X105100038Y-31709449D01*
X105100038Y-31709449D02*
X105052419Y-31614211D01*
X105052419Y-31614211D02*
X105052419Y-31376116D01*
X105052419Y-31376116D02*
X105100038Y-31280878D01*
X105100038Y-31280878D02*
X105147657Y-31233259D01*
X105147657Y-31233259D02*
X105242895Y-31185640D01*
X105242895Y-31185640D02*
X105338133Y-31185640D01*
X105338133Y-31185640D02*
X105480990Y-31233259D01*
X105480990Y-31233259D02*
X106052419Y-31804687D01*
X106052419Y-31804687D02*
X106052419Y-31185640D01*
D11*
X98501816Y-28948171D02*
X98460149Y-28900552D01*
X98460149Y-28900552D02*
X98382768Y-28757695D01*
X98382768Y-28757695D02*
X98347054Y-28662457D01*
X98347054Y-28662457D02*
X98317292Y-28519600D01*
X98317292Y-28519600D02*
X98299435Y-28281504D01*
X98299435Y-28281504D02*
X98323244Y-28091028D01*
X98323244Y-28091028D02*
X98400625Y-27852933D01*
X98400625Y-27852933D02*
X98466101Y-27710076D01*
X98466101Y-27710076D02*
X98525625Y-27614838D01*
X98525625Y-27614838D02*
X98638720Y-27471980D01*
X98638720Y-27471980D02*
X98692292Y-27424361D01*
X98918483Y-28281504D02*
X99394673Y-28281504D01*
X98787530Y-28567219D02*
X99245864Y-27567219D01*
X99245864Y-27567219D02*
X99454197Y-28567219D01*
X100388721Y-27567219D02*
X99912530Y-27567219D01*
X99912530Y-27567219D02*
X99805388Y-28043409D01*
X99805388Y-28043409D02*
X99858959Y-27995790D01*
X99858959Y-27995790D02*
X99960149Y-27948171D01*
X99960149Y-27948171D02*
X100198245Y-27948171D01*
X100198245Y-27948171D02*
X100287530Y-27995790D01*
X100287530Y-27995790D02*
X100329197Y-28043409D01*
X100329197Y-28043409D02*
X100364911Y-28138647D01*
X100364911Y-28138647D02*
X100335149Y-28376742D01*
X100335149Y-28376742D02*
X100275626Y-28471980D01*
X100275626Y-28471980D02*
X100222054Y-28519600D01*
X100222054Y-28519600D02*
X100120864Y-28567219D01*
X100120864Y-28567219D02*
X99882768Y-28567219D01*
X99882768Y-28567219D02*
X99793483Y-28519600D01*
X99793483Y-28519600D02*
X99751816Y-28471980D01*
X100597054Y-28948171D02*
X100650626Y-28900552D01*
X100650626Y-28900552D02*
X100763721Y-28757695D01*
X100763721Y-28757695D02*
X100823245Y-28662457D01*
X100823245Y-28662457D02*
X100888721Y-28519600D01*
X100888721Y-28519600D02*
X100966102Y-28281504D01*
X100966102Y-28281504D02*
X100989911Y-28091028D01*
X100989911Y-28091028D02*
X100972054Y-27852933D01*
X100972054Y-27852933D02*
X100942292Y-27710076D01*
X100942292Y-27710076D02*
X100906578Y-27614838D01*
X100906578Y-27614838D02*
X100829197Y-27471980D01*
X100829197Y-27471980D02*
X100787530Y-27424361D01*
X98201816Y-34748171D02*
X98160149Y-34700552D01*
X98160149Y-34700552D02*
X98082768Y-34557695D01*
X98082768Y-34557695D02*
X98047054Y-34462457D01*
X98047054Y-34462457D02*
X98017292Y-34319600D01*
X98017292Y-34319600D02*
X97999435Y-34081504D01*
X97999435Y-34081504D02*
X98023244Y-33891028D01*
X98023244Y-33891028D02*
X98100625Y-33652933D01*
X98100625Y-33652933D02*
X98166101Y-33510076D01*
X98166101Y-33510076D02*
X98225625Y-33414838D01*
X98225625Y-33414838D02*
X98338720Y-33271980D01*
X98338720Y-33271980D02*
X98392292Y-33224361D01*
X99029197Y-33843409D02*
X99166102Y-33891028D01*
X99166102Y-33891028D02*
X99207768Y-33938647D01*
X99207768Y-33938647D02*
X99243483Y-34033885D01*
X99243483Y-34033885D02*
X99225625Y-34176742D01*
X99225625Y-34176742D02*
X99166102Y-34271980D01*
X99166102Y-34271980D02*
X99112530Y-34319600D01*
X99112530Y-34319600D02*
X99011340Y-34367219D01*
X99011340Y-34367219D02*
X98630387Y-34367219D01*
X98630387Y-34367219D02*
X98755387Y-33367219D01*
X98755387Y-33367219D02*
X99088721Y-33367219D01*
X99088721Y-33367219D02*
X99178006Y-33414838D01*
X99178006Y-33414838D02*
X99219673Y-33462457D01*
X99219673Y-33462457D02*
X99255387Y-33557695D01*
X99255387Y-33557695D02*
X99243483Y-33652933D01*
X99243483Y-33652933D02*
X99183959Y-33748171D01*
X99183959Y-33748171D02*
X99130387Y-33795790D01*
X99130387Y-33795790D02*
X99029197Y-33843409D01*
X99029197Y-33843409D02*
X98695864Y-33843409D01*
X100154197Y-34367219D02*
X99582768Y-34367219D01*
X99868483Y-34367219D02*
X99993483Y-33367219D01*
X99993483Y-33367219D02*
X99880387Y-33510076D01*
X99880387Y-33510076D02*
X99773245Y-33605314D01*
X99773245Y-33605314D02*
X99672054Y-33652933D01*
X100612530Y-33367219D02*
X101231578Y-33367219D01*
X101231578Y-33367219D02*
X100850626Y-33748171D01*
X100850626Y-33748171D02*
X100993483Y-33748171D01*
X100993483Y-33748171D02*
X101082768Y-33795790D01*
X101082768Y-33795790D02*
X101124435Y-33843409D01*
X101124435Y-33843409D02*
X101160149Y-33938647D01*
X101160149Y-33938647D02*
X101130387Y-34176742D01*
X101130387Y-34176742D02*
X101070864Y-34271980D01*
X101070864Y-34271980D02*
X101017292Y-34319600D01*
X101017292Y-34319600D02*
X100916102Y-34367219D01*
X100916102Y-34367219D02*
X100630387Y-34367219D01*
X100630387Y-34367219D02*
X100541102Y-34319600D01*
X100541102Y-34319600D02*
X100499435Y-34271980D01*
X101392292Y-34748171D02*
X101445864Y-34700552D01*
X101445864Y-34700552D02*
X101558959Y-34557695D01*
X101558959Y-34557695D02*
X101618483Y-34462457D01*
X101618483Y-34462457D02*
X101683959Y-34319600D01*
X101683959Y-34319600D02*
X101761340Y-34081504D01*
X101761340Y-34081504D02*
X101785149Y-33891028D01*
X101785149Y-33891028D02*
X101767292Y-33652933D01*
X101767292Y-33652933D02*
X101737530Y-33510076D01*
X101737530Y-33510076D02*
X101701816Y-33414838D01*
X101701816Y-33414838D02*
X101624435Y-33271980D01*
X101624435Y-33271980D02*
X101582768Y-33224361D01*
X98201816Y-41248171D02*
X98160149Y-41200552D01*
X98160149Y-41200552D02*
X98082768Y-41057695D01*
X98082768Y-41057695D02*
X98047054Y-40962457D01*
X98047054Y-40962457D02*
X98017292Y-40819600D01*
X98017292Y-40819600D02*
X97999435Y-40581504D01*
X97999435Y-40581504D02*
X98023244Y-40391028D01*
X98023244Y-40391028D02*
X98100625Y-40152933D01*
X98100625Y-40152933D02*
X98166101Y-40010076D01*
X98166101Y-40010076D02*
X98225625Y-39914838D01*
X98225625Y-39914838D02*
X98338720Y-39771980D01*
X98338720Y-39771980D02*
X98392292Y-39724361D01*
X99029197Y-40343409D02*
X99166102Y-40391028D01*
X99166102Y-40391028D02*
X99207768Y-40438647D01*
X99207768Y-40438647D02*
X99243483Y-40533885D01*
X99243483Y-40533885D02*
X99225625Y-40676742D01*
X99225625Y-40676742D02*
X99166102Y-40771980D01*
X99166102Y-40771980D02*
X99112530Y-40819600D01*
X99112530Y-40819600D02*
X99011340Y-40867219D01*
X99011340Y-40867219D02*
X98630387Y-40867219D01*
X98630387Y-40867219D02*
X98755387Y-39867219D01*
X98755387Y-39867219D02*
X99088721Y-39867219D01*
X99088721Y-39867219D02*
X99178006Y-39914838D01*
X99178006Y-39914838D02*
X99219673Y-39962457D01*
X99219673Y-39962457D02*
X99255387Y-40057695D01*
X99255387Y-40057695D02*
X99243483Y-40152933D01*
X99243483Y-40152933D02*
X99183959Y-40248171D01*
X99183959Y-40248171D02*
X99130387Y-40295790D01*
X99130387Y-40295790D02*
X99029197Y-40343409D01*
X99029197Y-40343409D02*
X98695864Y-40343409D01*
X100154197Y-40867219D02*
X99582768Y-40867219D01*
X99868483Y-40867219D02*
X99993483Y-39867219D01*
X99993483Y-39867219D02*
X99880387Y-40010076D01*
X99880387Y-40010076D02*
X99773245Y-40105314D01*
X99773245Y-40105314D02*
X99672054Y-40152933D01*
X100648245Y-39962457D02*
X100701816Y-39914838D01*
X100701816Y-39914838D02*
X100803006Y-39867219D01*
X100803006Y-39867219D02*
X101041102Y-39867219D01*
X101041102Y-39867219D02*
X101130387Y-39914838D01*
X101130387Y-39914838D02*
X101172054Y-39962457D01*
X101172054Y-39962457D02*
X101207768Y-40057695D01*
X101207768Y-40057695D02*
X101195864Y-40152933D01*
X101195864Y-40152933D02*
X101130387Y-40295790D01*
X101130387Y-40295790D02*
X100487530Y-40867219D01*
X100487530Y-40867219D02*
X101106578Y-40867219D01*
X101392292Y-41248171D02*
X101445864Y-41200552D01*
X101445864Y-41200552D02*
X101558959Y-41057695D01*
X101558959Y-41057695D02*
X101618483Y-40962457D01*
X101618483Y-40962457D02*
X101683959Y-40819600D01*
X101683959Y-40819600D02*
X101761340Y-40581504D01*
X101761340Y-40581504D02*
X101785149Y-40391028D01*
X101785149Y-40391028D02*
X101767292Y-40152933D01*
X101767292Y-40152933D02*
X101737530Y-40010076D01*
X101737530Y-40010076D02*
X101701816Y-39914838D01*
X101701816Y-39914838D02*
X101624435Y-39771980D01*
X101624435Y-39771980D02*
X101582768Y-39724361D01*
D10*
X76532455Y-53124800D02*
X76437217Y-53172419D01*
X76437217Y-53172419D02*
X76246741Y-53172419D01*
X76246741Y-53172419D02*
X76151503Y-53124800D01*
X76151503Y-53124800D02*
X76103884Y-53077180D01*
X76103884Y-53077180D02*
X76056265Y-52981942D01*
X76056265Y-52981942D02*
X76056265Y-52696228D01*
X76056265Y-52696228D02*
X76103884Y-52600990D01*
X76103884Y-52600990D02*
X76151503Y-52553371D01*
X76151503Y-52553371D02*
X76246741Y-52505752D01*
X76246741Y-52505752D02*
X76437217Y-52505752D01*
X76437217Y-52505752D02*
X76532455Y-52553371D01*
X76961027Y-53172419D02*
X76961027Y-52505752D01*
X76961027Y-52696228D02*
X77008646Y-52600990D01*
X77008646Y-52600990D02*
X77056265Y-52553371D01*
X77056265Y-52553371D02*
X77151503Y-52505752D01*
X77151503Y-52505752D02*
X77246741Y-52505752D01*
X77961027Y-53124800D02*
X77865789Y-53172419D01*
X77865789Y-53172419D02*
X77675313Y-53172419D01*
X77675313Y-53172419D02*
X77580075Y-53124800D01*
X77580075Y-53124800D02*
X77532456Y-53029561D01*
X77532456Y-53029561D02*
X77532456Y-52648609D01*
X77532456Y-52648609D02*
X77580075Y-52553371D01*
X77580075Y-52553371D02*
X77675313Y-52505752D01*
X77675313Y-52505752D02*
X77865789Y-52505752D01*
X77865789Y-52505752D02*
X77961027Y-52553371D01*
X77961027Y-52553371D02*
X78008646Y-52648609D01*
X78008646Y-52648609D02*
X78008646Y-52743847D01*
X78008646Y-52743847D02*
X77532456Y-52839085D01*
X78865789Y-53172419D02*
X78865789Y-52648609D01*
X78865789Y-52648609D02*
X78818170Y-52553371D01*
X78818170Y-52553371D02*
X78722932Y-52505752D01*
X78722932Y-52505752D02*
X78532456Y-52505752D01*
X78532456Y-52505752D02*
X78437218Y-52553371D01*
X78865789Y-53124800D02*
X78770551Y-53172419D01*
X78770551Y-53172419D02*
X78532456Y-53172419D01*
X78532456Y-53172419D02*
X78437218Y-53124800D01*
X78437218Y-53124800D02*
X78389599Y-53029561D01*
X78389599Y-53029561D02*
X78389599Y-52934323D01*
X78389599Y-52934323D02*
X78437218Y-52839085D01*
X78437218Y-52839085D02*
X78532456Y-52791466D01*
X78532456Y-52791466D02*
X78770551Y-52791466D01*
X78770551Y-52791466D02*
X78865789Y-52743847D01*
X79199123Y-52505752D02*
X79580075Y-52505752D01*
X79341980Y-52172419D02*
X79341980Y-53029561D01*
X79341980Y-53029561D02*
X79389599Y-53124800D01*
X79389599Y-53124800D02*
X79484837Y-53172419D01*
X79484837Y-53172419D02*
X79580075Y-53172419D01*
X80294361Y-53124800D02*
X80199123Y-53172419D01*
X80199123Y-53172419D02*
X80008647Y-53172419D01*
X80008647Y-53172419D02*
X79913409Y-53124800D01*
X79913409Y-53124800D02*
X79865790Y-53029561D01*
X79865790Y-53029561D02*
X79865790Y-52648609D01*
X79865790Y-52648609D02*
X79913409Y-52553371D01*
X79913409Y-52553371D02*
X80008647Y-52505752D01*
X80008647Y-52505752D02*
X80199123Y-52505752D01*
X80199123Y-52505752D02*
X80294361Y-52553371D01*
X80294361Y-52553371D02*
X80341980Y-52648609D01*
X80341980Y-52648609D02*
X80341980Y-52743847D01*
X80341980Y-52743847D02*
X79865790Y-52839085D01*
X81199123Y-53172419D02*
X81199123Y-52172419D01*
X81199123Y-53124800D02*
X81103885Y-53172419D01*
X81103885Y-53172419D02*
X80913409Y-53172419D01*
X80913409Y-53172419D02*
X80818171Y-53124800D01*
X80818171Y-53124800D02*
X80770552Y-53077180D01*
X80770552Y-53077180D02*
X80722933Y-52981942D01*
X80722933Y-52981942D02*
X80722933Y-52696228D01*
X80722933Y-52696228D02*
X80770552Y-52600990D01*
X80770552Y-52600990D02*
X80818171Y-52553371D01*
X80818171Y-52553371D02*
X80913409Y-52505752D01*
X80913409Y-52505752D02*
X81103885Y-52505752D01*
X81103885Y-52505752D02*
X81199123Y-52553371D01*
X82437219Y-53172419D02*
X82437219Y-52172419D01*
X82437219Y-52553371D02*
X82532457Y-52505752D01*
X82532457Y-52505752D02*
X82722933Y-52505752D01*
X82722933Y-52505752D02*
X82818171Y-52553371D01*
X82818171Y-52553371D02*
X82865790Y-52600990D01*
X82865790Y-52600990D02*
X82913409Y-52696228D01*
X82913409Y-52696228D02*
X82913409Y-52981942D01*
X82913409Y-52981942D02*
X82865790Y-53077180D01*
X82865790Y-53077180D02*
X82818171Y-53124800D01*
X82818171Y-53124800D02*
X82722933Y-53172419D01*
X82722933Y-53172419D02*
X82532457Y-53172419D01*
X82532457Y-53172419D02*
X82437219Y-53124800D01*
X83246743Y-52505752D02*
X83484838Y-53172419D01*
X83722933Y-52505752D02*
X83484838Y-53172419D01*
X83484838Y-53172419D02*
X83389600Y-53410514D01*
X83389600Y-53410514D02*
X83341981Y-53458133D01*
X83341981Y-53458133D02*
X83246743Y-53505752D01*
X84865791Y-53172419D02*
X84865791Y-52505752D01*
X84865791Y-52696228D02*
X84913410Y-52600990D01*
X84913410Y-52600990D02*
X84961029Y-52553371D01*
X84961029Y-52553371D02*
X85056267Y-52505752D01*
X85056267Y-52505752D02*
X85151505Y-52505752D01*
X85865791Y-53124800D02*
X85770553Y-53172419D01*
X85770553Y-53172419D02*
X85580077Y-53172419D01*
X85580077Y-53172419D02*
X85484839Y-53124800D01*
X85484839Y-53124800D02*
X85437220Y-53029561D01*
X85437220Y-53029561D02*
X85437220Y-52648609D01*
X85437220Y-52648609D02*
X85484839Y-52553371D01*
X85484839Y-52553371D02*
X85580077Y-52505752D01*
X85580077Y-52505752D02*
X85770553Y-52505752D01*
X85770553Y-52505752D02*
X85865791Y-52553371D01*
X85865791Y-52553371D02*
X85913410Y-52648609D01*
X85913410Y-52648609D02*
X85913410Y-52743847D01*
X85913410Y-52743847D02*
X85437220Y-52839085D01*
X86341982Y-53172419D02*
X86341982Y-52505752D01*
X86341982Y-52172419D02*
X86294363Y-52220038D01*
X86294363Y-52220038D02*
X86341982Y-52267657D01*
X86341982Y-52267657D02*
X86389601Y-52220038D01*
X86389601Y-52220038D02*
X86341982Y-52172419D01*
X86341982Y-52172419D02*
X86341982Y-52267657D01*
X86818172Y-52505752D02*
X86818172Y-53362895D01*
X86818172Y-53362895D02*
X86770553Y-53458133D01*
X86770553Y-53458133D02*
X86675315Y-53505752D01*
X86675315Y-53505752D02*
X86627696Y-53505752D01*
X86818172Y-52172419D02*
X86770553Y-52220038D01*
X86770553Y-52220038D02*
X86818172Y-52267657D01*
X86818172Y-52267657D02*
X86865791Y-52220038D01*
X86865791Y-52220038D02*
X86818172Y-52172419D01*
X86818172Y-52172419D02*
X86818172Y-52267657D01*
X87294362Y-53172419D02*
X87294362Y-52505752D01*
X87294362Y-52172419D02*
X87246743Y-52220038D01*
X87246743Y-52220038D02*
X87294362Y-52267657D01*
X87294362Y-52267657D02*
X87341981Y-52220038D01*
X87341981Y-52220038D02*
X87294362Y-52172419D01*
X87294362Y-52172419D02*
X87294362Y-52267657D01*
D11*
X73641101Y-51671980D02*
X73593482Y-51719600D01*
X73593482Y-51719600D02*
X73450625Y-51767219D01*
X73450625Y-51767219D02*
X73355387Y-51767219D01*
X73355387Y-51767219D02*
X73212530Y-51719600D01*
X73212530Y-51719600D02*
X73117292Y-51624361D01*
X73117292Y-51624361D02*
X73069673Y-51529123D01*
X73069673Y-51529123D02*
X73022054Y-51338647D01*
X73022054Y-51338647D02*
X73022054Y-51195790D01*
X73022054Y-51195790D02*
X73069673Y-51005314D01*
X73069673Y-51005314D02*
X73117292Y-50910076D01*
X73117292Y-50910076D02*
X73212530Y-50814838D01*
X73212530Y-50814838D02*
X73355387Y-50767219D01*
X73355387Y-50767219D02*
X73450625Y-50767219D01*
X73450625Y-50767219D02*
X73593482Y-50814838D01*
X73593482Y-50814838D02*
X73641101Y-50862457D01*
X74069673Y-51767219D02*
X74069673Y-50767219D01*
X74498244Y-51767219D02*
X74498244Y-51243409D01*
X74498244Y-51243409D02*
X74450625Y-51148171D01*
X74450625Y-51148171D02*
X74355387Y-51100552D01*
X74355387Y-51100552D02*
X74212530Y-51100552D01*
X74212530Y-51100552D02*
X74117292Y-51148171D01*
X74117292Y-51148171D02*
X74069673Y-51195790D01*
X74974435Y-51767219D02*
X74974435Y-51100552D01*
X74974435Y-50767219D02*
X74926816Y-50814838D01*
X74926816Y-50814838D02*
X74974435Y-50862457D01*
X74974435Y-50862457D02*
X75022054Y-50814838D01*
X75022054Y-50814838D02*
X74974435Y-50767219D01*
X74974435Y-50767219D02*
X74974435Y-50862457D01*
X75450625Y-51767219D02*
X75450625Y-50767219D01*
X75450625Y-51148171D02*
X75545863Y-51100552D01*
X75545863Y-51100552D02*
X75736339Y-51100552D01*
X75736339Y-51100552D02*
X75831577Y-51148171D01*
X75831577Y-51148171D02*
X75879196Y-51195790D01*
X75879196Y-51195790D02*
X75926815Y-51291028D01*
X75926815Y-51291028D02*
X75926815Y-51576742D01*
X75926815Y-51576742D02*
X75879196Y-51671980D01*
X75879196Y-51671980D02*
X75831577Y-51719600D01*
X75831577Y-51719600D02*
X75736339Y-51767219D01*
X75736339Y-51767219D02*
X75545863Y-51767219D01*
X75545863Y-51767219D02*
X75450625Y-51719600D01*
X76783958Y-51767219D02*
X76783958Y-51243409D01*
X76783958Y-51243409D02*
X76736339Y-51148171D01*
X76736339Y-51148171D02*
X76641101Y-51100552D01*
X76641101Y-51100552D02*
X76450625Y-51100552D01*
X76450625Y-51100552D02*
X76355387Y-51148171D01*
X76783958Y-51719600D02*
X76688720Y-51767219D01*
X76688720Y-51767219D02*
X76450625Y-51767219D01*
X76450625Y-51767219D02*
X76355387Y-51719600D01*
X76355387Y-51719600D02*
X76307768Y-51624361D01*
X76307768Y-51624361D02*
X76307768Y-51529123D01*
X76307768Y-51529123D02*
X76355387Y-51433885D01*
X76355387Y-51433885D02*
X76450625Y-51386266D01*
X76450625Y-51386266D02*
X76688720Y-51386266D01*
X76688720Y-51386266D02*
X76783958Y-51338647D01*
X78593482Y-51767219D02*
X78260149Y-51291028D01*
X78022054Y-51767219D02*
X78022054Y-50767219D01*
X78022054Y-50767219D02*
X78403006Y-50767219D01*
X78403006Y-50767219D02*
X78498244Y-50814838D01*
X78498244Y-50814838D02*
X78545863Y-50862457D01*
X78545863Y-50862457D02*
X78593482Y-50957695D01*
X78593482Y-50957695D02*
X78593482Y-51100552D01*
X78593482Y-51100552D02*
X78545863Y-51195790D01*
X78545863Y-51195790D02*
X78498244Y-51243409D01*
X78498244Y-51243409D02*
X78403006Y-51291028D01*
X78403006Y-51291028D02*
X78022054Y-51291028D01*
X79164911Y-51767219D02*
X79069673Y-51719600D01*
X79069673Y-51719600D02*
X79022054Y-51671980D01*
X79022054Y-51671980D02*
X78974435Y-51576742D01*
X78974435Y-51576742D02*
X78974435Y-51291028D01*
X78974435Y-51291028D02*
X79022054Y-51195790D01*
X79022054Y-51195790D02*
X79069673Y-51148171D01*
X79069673Y-51148171D02*
X79164911Y-51100552D01*
X79164911Y-51100552D02*
X79307768Y-51100552D01*
X79307768Y-51100552D02*
X79403006Y-51148171D01*
X79403006Y-51148171D02*
X79450625Y-51195790D01*
X79450625Y-51195790D02*
X79498244Y-51291028D01*
X79498244Y-51291028D02*
X79498244Y-51576742D01*
X79498244Y-51576742D02*
X79450625Y-51671980D01*
X79450625Y-51671980D02*
X79403006Y-51719600D01*
X79403006Y-51719600D02*
X79307768Y-51767219D01*
X79307768Y-51767219D02*
X79164911Y-51767219D01*
X79926816Y-51767219D02*
X79926816Y-50767219D01*
X79926816Y-51148171D02*
X80022054Y-51100552D01*
X80022054Y-51100552D02*
X80212530Y-51100552D01*
X80212530Y-51100552D02*
X80307768Y-51148171D01*
X80307768Y-51148171D02*
X80355387Y-51195790D01*
X80355387Y-51195790D02*
X80403006Y-51291028D01*
X80403006Y-51291028D02*
X80403006Y-51576742D01*
X80403006Y-51576742D02*
X80355387Y-51671980D01*
X80355387Y-51671980D02*
X80307768Y-51719600D01*
X80307768Y-51719600D02*
X80212530Y-51767219D01*
X80212530Y-51767219D02*
X80022054Y-51767219D01*
X80022054Y-51767219D02*
X79926816Y-51719600D01*
X80974435Y-51767219D02*
X80879197Y-51719600D01*
X80879197Y-51719600D02*
X80831578Y-51671980D01*
X80831578Y-51671980D02*
X80783959Y-51576742D01*
X80783959Y-51576742D02*
X80783959Y-51291028D01*
X80783959Y-51291028D02*
X80831578Y-51195790D01*
X80831578Y-51195790D02*
X80879197Y-51148171D01*
X80879197Y-51148171D02*
X80974435Y-51100552D01*
X80974435Y-51100552D02*
X81117292Y-51100552D01*
X81117292Y-51100552D02*
X81212530Y-51148171D01*
X81212530Y-51148171D02*
X81260149Y-51195790D01*
X81260149Y-51195790D02*
X81307768Y-51291028D01*
X81307768Y-51291028D02*
X81307768Y-51576742D01*
X81307768Y-51576742D02*
X81260149Y-51671980D01*
X81260149Y-51671980D02*
X81212530Y-51719600D01*
X81212530Y-51719600D02*
X81117292Y-51767219D01*
X81117292Y-51767219D02*
X80974435Y-51767219D01*
X81593483Y-51100552D02*
X81974435Y-51100552D01*
X81736340Y-50767219D02*
X81736340Y-51624361D01*
X81736340Y-51624361D02*
X81783959Y-51719600D01*
X81783959Y-51719600D02*
X81879197Y-51767219D01*
X81879197Y-51767219D02*
X81974435Y-51767219D01*
X83022055Y-51719600D02*
X83164912Y-51767219D01*
X83164912Y-51767219D02*
X83403007Y-51767219D01*
X83403007Y-51767219D02*
X83498245Y-51719600D01*
X83498245Y-51719600D02*
X83545864Y-51671980D01*
X83545864Y-51671980D02*
X83593483Y-51576742D01*
X83593483Y-51576742D02*
X83593483Y-51481504D01*
X83593483Y-51481504D02*
X83545864Y-51386266D01*
X83545864Y-51386266D02*
X83498245Y-51338647D01*
X83498245Y-51338647D02*
X83403007Y-51291028D01*
X83403007Y-51291028D02*
X83212531Y-51243409D01*
X83212531Y-51243409D02*
X83117293Y-51195790D01*
X83117293Y-51195790D02*
X83069674Y-51148171D01*
X83069674Y-51148171D02*
X83022055Y-51052933D01*
X83022055Y-51052933D02*
X83022055Y-50957695D01*
X83022055Y-50957695D02*
X83069674Y-50862457D01*
X83069674Y-50862457D02*
X83117293Y-50814838D01*
X83117293Y-50814838D02*
X83212531Y-50767219D01*
X83212531Y-50767219D02*
X83450626Y-50767219D01*
X83450626Y-50767219D02*
X83593483Y-50814838D01*
X83879198Y-51100552D02*
X84260150Y-51100552D01*
X84022055Y-50767219D02*
X84022055Y-51624361D01*
X84022055Y-51624361D02*
X84069674Y-51719600D01*
X84069674Y-51719600D02*
X84164912Y-51767219D01*
X84164912Y-51767219D02*
X84260150Y-51767219D01*
X85022055Y-51100552D02*
X85022055Y-51767219D01*
X84593484Y-51100552D02*
X84593484Y-51624361D01*
X84593484Y-51624361D02*
X84641103Y-51719600D01*
X84641103Y-51719600D02*
X84736341Y-51767219D01*
X84736341Y-51767219D02*
X84879198Y-51767219D01*
X84879198Y-51767219D02*
X84974436Y-51719600D01*
X84974436Y-51719600D02*
X85022055Y-51671980D01*
X85926817Y-51767219D02*
X85926817Y-50767219D01*
X85926817Y-51719600D02*
X85831579Y-51767219D01*
X85831579Y-51767219D02*
X85641103Y-51767219D01*
X85641103Y-51767219D02*
X85545865Y-51719600D01*
X85545865Y-51719600D02*
X85498246Y-51671980D01*
X85498246Y-51671980D02*
X85450627Y-51576742D01*
X85450627Y-51576742D02*
X85450627Y-51291028D01*
X85450627Y-51291028D02*
X85498246Y-51195790D01*
X85498246Y-51195790D02*
X85545865Y-51148171D01*
X85545865Y-51148171D02*
X85641103Y-51100552D01*
X85641103Y-51100552D02*
X85831579Y-51100552D01*
X85831579Y-51100552D02*
X85926817Y-51148171D01*
X86403008Y-51767219D02*
X86403008Y-51100552D01*
X86403008Y-50767219D02*
X86355389Y-50814838D01*
X86355389Y-50814838D02*
X86403008Y-50862457D01*
X86403008Y-50862457D02*
X86450627Y-50814838D01*
X86450627Y-50814838D02*
X86403008Y-50767219D01*
X86403008Y-50767219D02*
X86403008Y-50862457D01*
X87022055Y-51767219D02*
X86926817Y-51719600D01*
X86926817Y-51719600D02*
X86879198Y-51671980D01*
X86879198Y-51671980D02*
X86831579Y-51576742D01*
X86831579Y-51576742D02*
X86831579Y-51291028D01*
X86831579Y-51291028D02*
X86879198Y-51195790D01*
X86879198Y-51195790D02*
X86926817Y-51148171D01*
X86926817Y-51148171D02*
X87022055Y-51100552D01*
X87022055Y-51100552D02*
X87164912Y-51100552D01*
X87164912Y-51100552D02*
X87260150Y-51148171D01*
X87260150Y-51148171D02*
X87307769Y-51195790D01*
X87307769Y-51195790D02*
X87355388Y-51291028D01*
X87355388Y-51291028D02*
X87355388Y-51576742D01*
X87355388Y-51576742D02*
X87307769Y-51671980D01*
X87307769Y-51671980D02*
X87260150Y-51719600D01*
X87260150Y-51719600D02*
X87164912Y-51767219D01*
X87164912Y-51767219D02*
X87022055Y-51767219D01*
D12*
X82500000Y-49900000D02*
X80000000Y-45600000D01*
X77500000Y-49900000D02*
X82500000Y-49900000D01*
X82500000Y-49900000D02*
X84950000Y-45650000D01*
X77500000Y-49900000D02*
X75049982Y-45650010D01*
X77500000Y-41300000D02*
X82500000Y-41300000D01*
X75000000Y-45600000D02*
X77500000Y-41300000D01*
X85000000Y-45600000D02*
X82499964Y-41300021D01*
X75000000Y-45600000D02*
X85000000Y-45600000D01*
D10*
X86003884Y-35872419D02*
X86003884Y-34872419D01*
X86003884Y-34872419D02*
X86337217Y-35586704D01*
X86337217Y-35586704D02*
X86670550Y-34872419D01*
X86670550Y-34872419D02*
X86670550Y-35872419D01*
X87146741Y-35872419D02*
X87146741Y-34872419D01*
X87146741Y-34872419D02*
X87527693Y-34872419D01*
X87527693Y-34872419D02*
X87622931Y-34920038D01*
X87622931Y-34920038D02*
X87670550Y-34967657D01*
X87670550Y-34967657D02*
X87718169Y-35062895D01*
X87718169Y-35062895D02*
X87718169Y-35205752D01*
X87718169Y-35205752D02*
X87670550Y-35300990D01*
X87670550Y-35300990D02*
X87622931Y-35348609D01*
X87622931Y-35348609D02*
X87527693Y-35396228D01*
X87527693Y-35396228D02*
X87146741Y-35396228D01*
X88146741Y-34872419D02*
X88146741Y-35681942D01*
X88146741Y-35681942D02*
X88194360Y-35777180D01*
X88194360Y-35777180D02*
X88241979Y-35824800D01*
X88241979Y-35824800D02*
X88337217Y-35872419D01*
X88337217Y-35872419D02*
X88527693Y-35872419D01*
X88527693Y-35872419D02*
X88622931Y-35824800D01*
X88622931Y-35824800D02*
X88670550Y-35777180D01*
X88670550Y-35777180D02*
X88718169Y-35681942D01*
X88718169Y-35681942D02*
X88718169Y-34872419D01*
X89622931Y-34872419D02*
X89432455Y-34872419D01*
X89432455Y-34872419D02*
X89337217Y-34920038D01*
X89337217Y-34920038D02*
X89289598Y-34967657D01*
X89289598Y-34967657D02*
X89194360Y-35110514D01*
X89194360Y-35110514D02*
X89146741Y-35300990D01*
X89146741Y-35300990D02*
X89146741Y-35681942D01*
X89146741Y-35681942D02*
X89194360Y-35777180D01*
X89194360Y-35777180D02*
X89241979Y-35824800D01*
X89241979Y-35824800D02*
X89337217Y-35872419D01*
X89337217Y-35872419D02*
X89527693Y-35872419D01*
X89527693Y-35872419D02*
X89622931Y-35824800D01*
X89622931Y-35824800D02*
X89670550Y-35777180D01*
X89670550Y-35777180D02*
X89718169Y-35681942D01*
X89718169Y-35681942D02*
X89718169Y-35443847D01*
X89718169Y-35443847D02*
X89670550Y-35348609D01*
X89670550Y-35348609D02*
X89622931Y-35300990D01*
X89622931Y-35300990D02*
X89527693Y-35253371D01*
X89527693Y-35253371D02*
X89337217Y-35253371D01*
X89337217Y-35253371D02*
X89241979Y-35300990D01*
X89241979Y-35300990D02*
X89194360Y-35348609D01*
X89194360Y-35348609D02*
X89146741Y-35443847D01*
X90337217Y-34872419D02*
X90432455Y-34872419D01*
X90432455Y-34872419D02*
X90527693Y-34920038D01*
X90527693Y-34920038D02*
X90575312Y-34967657D01*
X90575312Y-34967657D02*
X90622931Y-35062895D01*
X90622931Y-35062895D02*
X90670550Y-35253371D01*
X90670550Y-35253371D02*
X90670550Y-35491466D01*
X90670550Y-35491466D02*
X90622931Y-35681942D01*
X90622931Y-35681942D02*
X90575312Y-35777180D01*
X90575312Y-35777180D02*
X90527693Y-35824800D01*
X90527693Y-35824800D02*
X90432455Y-35872419D01*
X90432455Y-35872419D02*
X90337217Y-35872419D01*
X90337217Y-35872419D02*
X90241979Y-35824800D01*
X90241979Y-35824800D02*
X90194360Y-35777180D01*
X90194360Y-35777180D02*
X90146741Y-35681942D01*
X90146741Y-35681942D02*
X90099122Y-35491466D01*
X90099122Y-35491466D02*
X90099122Y-35253371D01*
X90099122Y-35253371D02*
X90146741Y-35062895D01*
X90146741Y-35062895D02*
X90194360Y-34967657D01*
X90194360Y-34967657D02*
X90241979Y-34920038D01*
X90241979Y-34920038D02*
X90337217Y-34872419D01*
X91575312Y-34872419D02*
X91099122Y-34872419D01*
X91099122Y-34872419D02*
X91051503Y-35348609D01*
X91051503Y-35348609D02*
X91099122Y-35300990D01*
X91099122Y-35300990D02*
X91194360Y-35253371D01*
X91194360Y-35253371D02*
X91432455Y-35253371D01*
X91432455Y-35253371D02*
X91527693Y-35300990D01*
X91527693Y-35300990D02*
X91575312Y-35348609D01*
X91575312Y-35348609D02*
X91622931Y-35443847D01*
X91622931Y-35443847D02*
X91622931Y-35681942D01*
X91622931Y-35681942D02*
X91575312Y-35777180D01*
X91575312Y-35777180D02*
X91527693Y-35824800D01*
X91527693Y-35824800D02*
X91432455Y-35872419D01*
X91432455Y-35872419D02*
X91194360Y-35872419D01*
X91194360Y-35872419D02*
X91099122Y-35824800D01*
X91099122Y-35824800D02*
X91051503Y-35777180D01*
X92241979Y-34872419D02*
X92337217Y-34872419D01*
X92337217Y-34872419D02*
X92432455Y-34920038D01*
X92432455Y-34920038D02*
X92480074Y-34967657D01*
X92480074Y-34967657D02*
X92527693Y-35062895D01*
X92527693Y-35062895D02*
X92575312Y-35253371D01*
X92575312Y-35253371D02*
X92575312Y-35491466D01*
X92575312Y-35491466D02*
X92527693Y-35681942D01*
X92527693Y-35681942D02*
X92480074Y-35777180D01*
X92480074Y-35777180D02*
X92432455Y-35824800D01*
X92432455Y-35824800D02*
X92337217Y-35872419D01*
X92337217Y-35872419D02*
X92241979Y-35872419D01*
X92241979Y-35872419D02*
X92146741Y-35824800D01*
X92146741Y-35824800D02*
X92099122Y-35777180D01*
X92099122Y-35777180D02*
X92051503Y-35681942D01*
X92051503Y-35681942D02*
X92003884Y-35491466D01*
X92003884Y-35491466D02*
X92003884Y-35253371D01*
X92003884Y-35253371D02*
X92051503Y-35062895D01*
X92051503Y-35062895D02*
X92099122Y-34967657D01*
X92099122Y-34967657D02*
X92146741Y-34920038D01*
X92146741Y-34920038D02*
X92241979Y-34872419D01*
X83980074Y-31372419D02*
X83503884Y-31372419D01*
X83503884Y-31372419D02*
X83503884Y-30372419D01*
X84884836Y-31277180D02*
X84837217Y-31324800D01*
X84837217Y-31324800D02*
X84694360Y-31372419D01*
X84694360Y-31372419D02*
X84599122Y-31372419D01*
X84599122Y-31372419D02*
X84456265Y-31324800D01*
X84456265Y-31324800D02*
X84361027Y-31229561D01*
X84361027Y-31229561D02*
X84313408Y-31134323D01*
X84313408Y-31134323D02*
X84265789Y-30943847D01*
X84265789Y-30943847D02*
X84265789Y-30800990D01*
X84265789Y-30800990D02*
X84313408Y-30610514D01*
X84313408Y-30610514D02*
X84361027Y-30515276D01*
X84361027Y-30515276D02*
X84456265Y-30420038D01*
X84456265Y-30420038D02*
X84599122Y-30372419D01*
X84599122Y-30372419D02*
X84694360Y-30372419D01*
X84694360Y-30372419D02*
X84837217Y-30420038D01*
X84837217Y-30420038D02*
X84884836Y-30467657D01*
X85313408Y-31372419D02*
X85313408Y-30372419D01*
X85313408Y-30372419D02*
X85551503Y-30372419D01*
X85551503Y-30372419D02*
X85694360Y-30420038D01*
X85694360Y-30420038D02*
X85789598Y-30515276D01*
X85789598Y-30515276D02*
X85837217Y-30610514D01*
X85837217Y-30610514D02*
X85884836Y-30800990D01*
X85884836Y-30800990D02*
X85884836Y-30943847D01*
X85884836Y-30943847D02*
X85837217Y-31134323D01*
X85837217Y-31134323D02*
X85789598Y-31229561D01*
X85789598Y-31229561D02*
X85694360Y-31324800D01*
X85694360Y-31324800D02*
X85551503Y-31372419D01*
X85551503Y-31372419D02*
X85313408Y-31372419D01*
X67556265Y-34114856D02*
X67699122Y-34162475D01*
X67699122Y-34162475D02*
X67937217Y-34162475D01*
X67937217Y-34162475D02*
X68032455Y-34114856D01*
X68032455Y-34114856D02*
X68080074Y-34067236D01*
X68080074Y-34067236D02*
X68127693Y-33971998D01*
X68127693Y-33971998D02*
X68127693Y-33876760D01*
X68127693Y-33876760D02*
X68080074Y-33781522D01*
X68080074Y-33781522D02*
X68032455Y-33733903D01*
X68032455Y-33733903D02*
X67937217Y-33686284D01*
X67937217Y-33686284D02*
X67746741Y-33638665D01*
X67746741Y-33638665D02*
X67651503Y-33591046D01*
X67651503Y-33591046D02*
X67603884Y-33543427D01*
X67603884Y-33543427D02*
X67556265Y-33448189D01*
X67556265Y-33448189D02*
X67556265Y-33352951D01*
X67556265Y-33352951D02*
X67603884Y-33257713D01*
X67603884Y-33257713D02*
X67651503Y-33210094D01*
X67651503Y-33210094D02*
X67746741Y-33162475D01*
X67746741Y-33162475D02*
X67984836Y-33162475D01*
X67984836Y-33162475D02*
X68127693Y-33210094D01*
X69127693Y-34067236D02*
X69080074Y-34114856D01*
X69080074Y-34114856D02*
X68937217Y-34162475D01*
X68937217Y-34162475D02*
X68841979Y-34162475D01*
X68841979Y-34162475D02*
X68699122Y-34114856D01*
X68699122Y-34114856D02*
X68603884Y-34019617D01*
X68603884Y-34019617D02*
X68556265Y-33924379D01*
X68556265Y-33924379D02*
X68508646Y-33733903D01*
X68508646Y-33733903D02*
X68508646Y-33591046D01*
X68508646Y-33591046D02*
X68556265Y-33400570D01*
X68556265Y-33400570D02*
X68603884Y-33305332D01*
X68603884Y-33305332D02*
X68699122Y-33210094D01*
X68699122Y-33210094D02*
X68841979Y-33162475D01*
X68841979Y-33162475D02*
X68937217Y-33162475D01*
X68937217Y-33162475D02*
X69080074Y-33210094D01*
X69080074Y-33210094D02*
X69127693Y-33257713D01*
X70032455Y-34162475D02*
X69556265Y-34162475D01*
X69556265Y-34162475D02*
X69556265Y-33162475D01*
X70365789Y-34067236D02*
X70413408Y-34114856D01*
X70413408Y-34114856D02*
X70365789Y-34162475D01*
X70365789Y-34162475D02*
X70318170Y-34114856D01*
X70318170Y-34114856D02*
X70365789Y-34067236D01*
X70365789Y-34067236D02*
X70365789Y-34162475D01*
X70365789Y-33543427D02*
X70413408Y-33591046D01*
X70413408Y-33591046D02*
X70365789Y-33638665D01*
X70365789Y-33638665D02*
X70318170Y-33591046D01*
X70318170Y-33591046D02*
X70365789Y-33543427D01*
X70365789Y-33543427D02*
X70365789Y-33638665D01*
X70841979Y-34162475D02*
X70841979Y-33162475D01*
X70841979Y-33162475D02*
X71222931Y-33162475D01*
X71222931Y-33162475D02*
X71318169Y-33210094D01*
X71318169Y-33210094D02*
X71365788Y-33257713D01*
X71365788Y-33257713D02*
X71413407Y-33352951D01*
X71413407Y-33352951D02*
X71413407Y-33495808D01*
X71413407Y-33495808D02*
X71365788Y-33591046D01*
X71365788Y-33591046D02*
X71318169Y-33638665D01*
X71318169Y-33638665D02*
X71222931Y-33686284D01*
X71222931Y-33686284D02*
X70841979Y-33686284D01*
X72175312Y-33638665D02*
X72318169Y-33686284D01*
X72318169Y-33686284D02*
X72365788Y-33733903D01*
X72365788Y-33733903D02*
X72413407Y-33829141D01*
X72413407Y-33829141D02*
X72413407Y-33971998D01*
X72413407Y-33971998D02*
X72365788Y-34067236D01*
X72365788Y-34067236D02*
X72318169Y-34114856D01*
X72318169Y-34114856D02*
X72222931Y-34162475D01*
X72222931Y-34162475D02*
X71841979Y-34162475D01*
X71841979Y-34162475D02*
X71841979Y-33162475D01*
X71841979Y-33162475D02*
X72175312Y-33162475D01*
X72175312Y-33162475D02*
X72270550Y-33210094D01*
X72270550Y-33210094D02*
X72318169Y-33257713D01*
X72318169Y-33257713D02*
X72365788Y-33352951D01*
X72365788Y-33352951D02*
X72365788Y-33448189D01*
X72365788Y-33448189D02*
X72318169Y-33543427D01*
X72318169Y-33543427D02*
X72270550Y-33591046D01*
X72270550Y-33591046D02*
X72175312Y-33638665D01*
X72175312Y-33638665D02*
X71841979Y-33638665D01*
X73270550Y-33162475D02*
X73080074Y-33162475D01*
X73080074Y-33162475D02*
X72984836Y-33210094D01*
X72984836Y-33210094D02*
X72937217Y-33257713D01*
X72937217Y-33257713D02*
X72841979Y-33400570D01*
X72841979Y-33400570D02*
X72794360Y-33591046D01*
X72794360Y-33591046D02*
X72794360Y-33971998D01*
X72794360Y-33971998D02*
X72841979Y-34067236D01*
X72841979Y-34067236D02*
X72889598Y-34114856D01*
X72889598Y-34114856D02*
X72984836Y-34162475D01*
X72984836Y-34162475D02*
X73175312Y-34162475D01*
X73175312Y-34162475D02*
X73270550Y-34114856D01*
X73270550Y-34114856D02*
X73318169Y-34067236D01*
X73318169Y-34067236D02*
X73365788Y-33971998D01*
X73365788Y-33971998D02*
X73365788Y-33733903D01*
X73365788Y-33733903D02*
X73318169Y-33638665D01*
X73318169Y-33638665D02*
X73270550Y-33591046D01*
X73270550Y-33591046D02*
X73175312Y-33543427D01*
X73175312Y-33543427D02*
X72984836Y-33543427D01*
X72984836Y-33543427D02*
X72889598Y-33591046D01*
X72889598Y-33591046D02*
X72841979Y-33638665D01*
X72841979Y-33638665D02*
X72794360Y-33733903D01*
X67556265Y-35724800D02*
X67699122Y-35772419D01*
X67699122Y-35772419D02*
X67937217Y-35772419D01*
X67937217Y-35772419D02*
X68032455Y-35724800D01*
X68032455Y-35724800D02*
X68080074Y-35677180D01*
X68080074Y-35677180D02*
X68127693Y-35581942D01*
X68127693Y-35581942D02*
X68127693Y-35486704D01*
X68127693Y-35486704D02*
X68080074Y-35391466D01*
X68080074Y-35391466D02*
X68032455Y-35343847D01*
X68032455Y-35343847D02*
X67937217Y-35296228D01*
X67937217Y-35296228D02*
X67746741Y-35248609D01*
X67746741Y-35248609D02*
X67651503Y-35200990D01*
X67651503Y-35200990D02*
X67603884Y-35153371D01*
X67603884Y-35153371D02*
X67556265Y-35058133D01*
X67556265Y-35058133D02*
X67556265Y-34962895D01*
X67556265Y-34962895D02*
X67603884Y-34867657D01*
X67603884Y-34867657D02*
X67651503Y-34820038D01*
X67651503Y-34820038D02*
X67746741Y-34772419D01*
X67746741Y-34772419D02*
X67984836Y-34772419D01*
X67984836Y-34772419D02*
X68127693Y-34820038D01*
X68556265Y-35772419D02*
X68556265Y-34772419D01*
X68556265Y-34772419D02*
X68794360Y-34772419D01*
X68794360Y-34772419D02*
X68937217Y-34820038D01*
X68937217Y-34820038D02*
X69032455Y-34915276D01*
X69032455Y-34915276D02*
X69080074Y-35010514D01*
X69080074Y-35010514D02*
X69127693Y-35200990D01*
X69127693Y-35200990D02*
X69127693Y-35343847D01*
X69127693Y-35343847D02*
X69080074Y-35534323D01*
X69080074Y-35534323D02*
X69032455Y-35629561D01*
X69032455Y-35629561D02*
X68937217Y-35724800D01*
X68937217Y-35724800D02*
X68794360Y-35772419D01*
X68794360Y-35772419D02*
X68556265Y-35772419D01*
X69508646Y-35486704D02*
X69984836Y-35486704D01*
X69413408Y-35772419D02*
X69746741Y-34772419D01*
X69746741Y-34772419D02*
X70080074Y-35772419D01*
X70413408Y-35677180D02*
X70461027Y-35724800D01*
X70461027Y-35724800D02*
X70413408Y-35772419D01*
X70413408Y-35772419D02*
X70365789Y-35724800D01*
X70365789Y-35724800D02*
X70413408Y-35677180D01*
X70413408Y-35677180D02*
X70413408Y-35772419D01*
X70413408Y-35153371D02*
X70461027Y-35200990D01*
X70461027Y-35200990D02*
X70413408Y-35248609D01*
X70413408Y-35248609D02*
X70365789Y-35200990D01*
X70365789Y-35200990D02*
X70413408Y-35153371D01*
X70413408Y-35153371D02*
X70413408Y-35248609D01*
X70889598Y-35772419D02*
X70889598Y-34772419D01*
X70889598Y-34772419D02*
X71270550Y-34772419D01*
X71270550Y-34772419D02*
X71365788Y-34820038D01*
X71365788Y-34820038D02*
X71413407Y-34867657D01*
X71413407Y-34867657D02*
X71461026Y-34962895D01*
X71461026Y-34962895D02*
X71461026Y-35105752D01*
X71461026Y-35105752D02*
X71413407Y-35200990D01*
X71413407Y-35200990D02*
X71365788Y-35248609D01*
X71365788Y-35248609D02*
X71270550Y-35296228D01*
X71270550Y-35296228D02*
X70889598Y-35296228D01*
X72222931Y-35248609D02*
X72365788Y-35296228D01*
X72365788Y-35296228D02*
X72413407Y-35343847D01*
X72413407Y-35343847D02*
X72461026Y-35439085D01*
X72461026Y-35439085D02*
X72461026Y-35581942D01*
X72461026Y-35581942D02*
X72413407Y-35677180D01*
X72413407Y-35677180D02*
X72365788Y-35724800D01*
X72365788Y-35724800D02*
X72270550Y-35772419D01*
X72270550Y-35772419D02*
X71889598Y-35772419D01*
X71889598Y-35772419D02*
X71889598Y-34772419D01*
X71889598Y-34772419D02*
X72222931Y-34772419D01*
X72222931Y-34772419D02*
X72318169Y-34820038D01*
X72318169Y-34820038D02*
X72365788Y-34867657D01*
X72365788Y-34867657D02*
X72413407Y-34962895D01*
X72413407Y-34962895D02*
X72413407Y-35058133D01*
X72413407Y-35058133D02*
X72365788Y-35153371D01*
X72365788Y-35153371D02*
X72318169Y-35200990D01*
X72318169Y-35200990D02*
X72222931Y-35248609D01*
X72222931Y-35248609D02*
X71889598Y-35248609D01*
X72794360Y-34772419D02*
X73461026Y-34772419D01*
X73461026Y-34772419D02*
X73032455Y-35772419D01*
D11*
X102101816Y-61748171D02*
X102060149Y-61700552D01*
X102060149Y-61700552D02*
X101982768Y-61557695D01*
X101982768Y-61557695D02*
X101947054Y-61462457D01*
X101947054Y-61462457D02*
X101917292Y-61319600D01*
X101917292Y-61319600D02*
X101899435Y-61081504D01*
X101899435Y-61081504D02*
X101923244Y-60891028D01*
X101923244Y-60891028D02*
X102000625Y-60652933D01*
X102000625Y-60652933D02*
X102066101Y-60510076D01*
X102066101Y-60510076D02*
X102125625Y-60414838D01*
X102125625Y-60414838D02*
X102238720Y-60271980D01*
X102238720Y-60271980D02*
X102292292Y-60224361D01*
X102929197Y-60843409D02*
X103066102Y-60891028D01*
X103066102Y-60891028D02*
X103107768Y-60938647D01*
X103107768Y-60938647D02*
X103143483Y-61033885D01*
X103143483Y-61033885D02*
X103125625Y-61176742D01*
X103125625Y-61176742D02*
X103066102Y-61271980D01*
X103066102Y-61271980D02*
X103012530Y-61319600D01*
X103012530Y-61319600D02*
X102911340Y-61367219D01*
X102911340Y-61367219D02*
X102530387Y-61367219D01*
X102530387Y-61367219D02*
X102655387Y-60367219D01*
X102655387Y-60367219D02*
X102988721Y-60367219D01*
X102988721Y-60367219D02*
X103078006Y-60414838D01*
X103078006Y-60414838D02*
X103119673Y-60462457D01*
X103119673Y-60462457D02*
X103155387Y-60557695D01*
X103155387Y-60557695D02*
X103143483Y-60652933D01*
X103143483Y-60652933D02*
X103083959Y-60748171D01*
X103083959Y-60748171D02*
X103030387Y-60795790D01*
X103030387Y-60795790D02*
X102929197Y-60843409D01*
X102929197Y-60843409D02*
X102595864Y-60843409D01*
X103578006Y-61367219D02*
X103768483Y-61367219D01*
X103768483Y-61367219D02*
X103869673Y-61319600D01*
X103869673Y-61319600D02*
X103923245Y-61271980D01*
X103923245Y-61271980D02*
X104036340Y-61129123D01*
X104036340Y-61129123D02*
X104107768Y-60938647D01*
X104107768Y-60938647D02*
X104155387Y-60557695D01*
X104155387Y-60557695D02*
X104119673Y-60462457D01*
X104119673Y-60462457D02*
X104078006Y-60414838D01*
X104078006Y-60414838D02*
X103988721Y-60367219D01*
X103988721Y-60367219D02*
X103798245Y-60367219D01*
X103798245Y-60367219D02*
X103697054Y-60414838D01*
X103697054Y-60414838D02*
X103643483Y-60462457D01*
X103643483Y-60462457D02*
X103583959Y-60557695D01*
X103583959Y-60557695D02*
X103554197Y-60795790D01*
X103554197Y-60795790D02*
X103589911Y-60891028D01*
X103589911Y-60891028D02*
X103631578Y-60938647D01*
X103631578Y-60938647D02*
X103720864Y-60986266D01*
X103720864Y-60986266D02*
X103911340Y-60986266D01*
X103911340Y-60986266D02*
X104012530Y-60938647D01*
X104012530Y-60938647D02*
X104066102Y-60891028D01*
X104066102Y-60891028D02*
X104125625Y-60795790D01*
X104339911Y-61748171D02*
X104393483Y-61700552D01*
X104393483Y-61700552D02*
X104506578Y-61557695D01*
X104506578Y-61557695D02*
X104566102Y-61462457D01*
X104566102Y-61462457D02*
X104631578Y-61319600D01*
X104631578Y-61319600D02*
X104708959Y-61081504D01*
X104708959Y-61081504D02*
X104732768Y-60891028D01*
X104732768Y-60891028D02*
X104714911Y-60652933D01*
X104714911Y-60652933D02*
X104685149Y-60510076D01*
X104685149Y-60510076D02*
X104649435Y-60414838D01*
X104649435Y-60414838D02*
X104572054Y-60271980D01*
X104572054Y-60271980D02*
X104530387Y-60224361D01*
X90401816Y-61748171D02*
X90360149Y-61700552D01*
X90360149Y-61700552D02*
X90282768Y-61557695D01*
X90282768Y-61557695D02*
X90247054Y-61462457D01*
X90247054Y-61462457D02*
X90217292Y-61319600D01*
X90217292Y-61319600D02*
X90199435Y-61081504D01*
X90199435Y-61081504D02*
X90223244Y-60891028D01*
X90223244Y-60891028D02*
X90300625Y-60652933D01*
X90300625Y-60652933D02*
X90366101Y-60510076D01*
X90366101Y-60510076D02*
X90425625Y-60414838D01*
X90425625Y-60414838D02*
X90538720Y-60271980D01*
X90538720Y-60271980D02*
X90592292Y-60224361D01*
X91229197Y-60843409D02*
X91366102Y-60891028D01*
X91366102Y-60891028D02*
X91407768Y-60938647D01*
X91407768Y-60938647D02*
X91443483Y-61033885D01*
X91443483Y-61033885D02*
X91425625Y-61176742D01*
X91425625Y-61176742D02*
X91366102Y-61271980D01*
X91366102Y-61271980D02*
X91312530Y-61319600D01*
X91312530Y-61319600D02*
X91211340Y-61367219D01*
X91211340Y-61367219D02*
X90830387Y-61367219D01*
X90830387Y-61367219D02*
X90955387Y-60367219D01*
X90955387Y-60367219D02*
X91288721Y-60367219D01*
X91288721Y-60367219D02*
X91378006Y-60414838D01*
X91378006Y-60414838D02*
X91419673Y-60462457D01*
X91419673Y-60462457D02*
X91455387Y-60557695D01*
X91455387Y-60557695D02*
X91443483Y-60652933D01*
X91443483Y-60652933D02*
X91383959Y-60748171D01*
X91383959Y-60748171D02*
X91330387Y-60795790D01*
X91330387Y-60795790D02*
X91229197Y-60843409D01*
X91229197Y-60843409D02*
X90895864Y-60843409D01*
X92044673Y-60795790D02*
X91955387Y-60748171D01*
X91955387Y-60748171D02*
X91913721Y-60700552D01*
X91913721Y-60700552D02*
X91878006Y-60605314D01*
X91878006Y-60605314D02*
X91883959Y-60557695D01*
X91883959Y-60557695D02*
X91943483Y-60462457D01*
X91943483Y-60462457D02*
X91997054Y-60414838D01*
X91997054Y-60414838D02*
X92098245Y-60367219D01*
X92098245Y-60367219D02*
X92288721Y-60367219D01*
X92288721Y-60367219D02*
X92378006Y-60414838D01*
X92378006Y-60414838D02*
X92419673Y-60462457D01*
X92419673Y-60462457D02*
X92455387Y-60557695D01*
X92455387Y-60557695D02*
X92449435Y-60605314D01*
X92449435Y-60605314D02*
X92389911Y-60700552D01*
X92389911Y-60700552D02*
X92336340Y-60748171D01*
X92336340Y-60748171D02*
X92235149Y-60795790D01*
X92235149Y-60795790D02*
X92044673Y-60795790D01*
X92044673Y-60795790D02*
X91943483Y-60843409D01*
X91943483Y-60843409D02*
X91889911Y-60891028D01*
X91889911Y-60891028D02*
X91830387Y-60986266D01*
X91830387Y-60986266D02*
X91806578Y-61176742D01*
X91806578Y-61176742D02*
X91842292Y-61271980D01*
X91842292Y-61271980D02*
X91883959Y-61319600D01*
X91883959Y-61319600D02*
X91973245Y-61367219D01*
X91973245Y-61367219D02*
X92163721Y-61367219D01*
X92163721Y-61367219D02*
X92264911Y-61319600D01*
X92264911Y-61319600D02*
X92318483Y-61271980D01*
X92318483Y-61271980D02*
X92378006Y-61176742D01*
X92378006Y-61176742D02*
X92401816Y-60986266D01*
X92401816Y-60986266D02*
X92366102Y-60891028D01*
X92366102Y-60891028D02*
X92324435Y-60843409D01*
X92324435Y-60843409D02*
X92235149Y-60795790D01*
X92639911Y-61748171D02*
X92693483Y-61700552D01*
X92693483Y-61700552D02*
X92806578Y-61557695D01*
X92806578Y-61557695D02*
X92866102Y-61462457D01*
X92866102Y-61462457D02*
X92931578Y-61319600D01*
X92931578Y-61319600D02*
X93008959Y-61081504D01*
X93008959Y-61081504D02*
X93032768Y-60891028D01*
X93032768Y-60891028D02*
X93014911Y-60652933D01*
X93014911Y-60652933D02*
X92985149Y-60510076D01*
X92985149Y-60510076D02*
X92949435Y-60414838D01*
X92949435Y-60414838D02*
X92872054Y-60271980D01*
X92872054Y-60271980D02*
X92830387Y-60224361D01*
X75101816Y-61948171D02*
X75060149Y-61900552D01*
X75060149Y-61900552D02*
X74982768Y-61757695D01*
X74982768Y-61757695D02*
X74947054Y-61662457D01*
X74947054Y-61662457D02*
X74917292Y-61519600D01*
X74917292Y-61519600D02*
X74899435Y-61281504D01*
X74899435Y-61281504D02*
X74923244Y-61091028D01*
X74923244Y-61091028D02*
X75000625Y-60852933D01*
X75000625Y-60852933D02*
X75066101Y-60710076D01*
X75066101Y-60710076D02*
X75125625Y-60614838D01*
X75125625Y-60614838D02*
X75238720Y-60471980D01*
X75238720Y-60471980D02*
X75292292Y-60424361D01*
X75518483Y-61281504D02*
X75994673Y-61281504D01*
X75387530Y-61567219D02*
X75845864Y-60567219D01*
X75845864Y-60567219D02*
X76054197Y-61567219D01*
X76911340Y-61567219D02*
X76339911Y-61567219D01*
X76625626Y-61567219D02*
X76750626Y-60567219D01*
X76750626Y-60567219D02*
X76637530Y-60710076D01*
X76637530Y-60710076D02*
X76530388Y-60805314D01*
X76530388Y-60805314D02*
X76429197Y-60852933D01*
X77863721Y-61567219D02*
X77292292Y-61567219D01*
X77578007Y-61567219D02*
X77703007Y-60567219D01*
X77703007Y-60567219D02*
X77589911Y-60710076D01*
X77589911Y-60710076D02*
X77482769Y-60805314D01*
X77482769Y-60805314D02*
X77381578Y-60852933D01*
X78149435Y-61948171D02*
X78203007Y-61900552D01*
X78203007Y-61900552D02*
X78316102Y-61757695D01*
X78316102Y-61757695D02*
X78375626Y-61662457D01*
X78375626Y-61662457D02*
X78441102Y-61519600D01*
X78441102Y-61519600D02*
X78518483Y-61281504D01*
X78518483Y-61281504D02*
X78542292Y-61091028D01*
X78542292Y-61091028D02*
X78524435Y-60852933D01*
X78524435Y-60852933D02*
X78494673Y-60710076D01*
X78494673Y-60710076D02*
X78458959Y-60614838D01*
X78458959Y-60614838D02*
X78381578Y-60471980D01*
X78381578Y-60471980D02*
X78339911Y-60424361D01*
X60301816Y-61848171D02*
X60260149Y-61800552D01*
X60260149Y-61800552D02*
X60182768Y-61657695D01*
X60182768Y-61657695D02*
X60147054Y-61562457D01*
X60147054Y-61562457D02*
X60117292Y-61419600D01*
X60117292Y-61419600D02*
X60099435Y-61181504D01*
X60099435Y-61181504D02*
X60123244Y-60991028D01*
X60123244Y-60991028D02*
X60200625Y-60752933D01*
X60200625Y-60752933D02*
X60266101Y-60610076D01*
X60266101Y-60610076D02*
X60325625Y-60514838D01*
X60325625Y-60514838D02*
X60438720Y-60371980D01*
X60438720Y-60371980D02*
X60492292Y-60324361D01*
X60718483Y-61181504D02*
X61194673Y-61181504D01*
X60587530Y-61467219D02*
X61045864Y-60467219D01*
X61045864Y-60467219D02*
X61254197Y-61467219D01*
X61801816Y-60895790D02*
X61712530Y-60848171D01*
X61712530Y-60848171D02*
X61670864Y-60800552D01*
X61670864Y-60800552D02*
X61635149Y-60705314D01*
X61635149Y-60705314D02*
X61641102Y-60657695D01*
X61641102Y-60657695D02*
X61700626Y-60562457D01*
X61700626Y-60562457D02*
X61754197Y-60514838D01*
X61754197Y-60514838D02*
X61855388Y-60467219D01*
X61855388Y-60467219D02*
X62045864Y-60467219D01*
X62045864Y-60467219D02*
X62135149Y-60514838D01*
X62135149Y-60514838D02*
X62176816Y-60562457D01*
X62176816Y-60562457D02*
X62212530Y-60657695D01*
X62212530Y-60657695D02*
X62206578Y-60705314D01*
X62206578Y-60705314D02*
X62147054Y-60800552D01*
X62147054Y-60800552D02*
X62093483Y-60848171D01*
X62093483Y-60848171D02*
X61992292Y-60895790D01*
X61992292Y-60895790D02*
X61801816Y-60895790D01*
X61801816Y-60895790D02*
X61700626Y-60943409D01*
X61700626Y-60943409D02*
X61647054Y-60991028D01*
X61647054Y-60991028D02*
X61587530Y-61086266D01*
X61587530Y-61086266D02*
X61563721Y-61276742D01*
X61563721Y-61276742D02*
X61599435Y-61371980D01*
X61599435Y-61371980D02*
X61641102Y-61419600D01*
X61641102Y-61419600D02*
X61730388Y-61467219D01*
X61730388Y-61467219D02*
X61920864Y-61467219D01*
X61920864Y-61467219D02*
X62022054Y-61419600D01*
X62022054Y-61419600D02*
X62075626Y-61371980D01*
X62075626Y-61371980D02*
X62135149Y-61276742D01*
X62135149Y-61276742D02*
X62158959Y-61086266D01*
X62158959Y-61086266D02*
X62123245Y-60991028D01*
X62123245Y-60991028D02*
X62081578Y-60943409D01*
X62081578Y-60943409D02*
X61992292Y-60895790D01*
X62397054Y-61848171D02*
X62450626Y-61800552D01*
X62450626Y-61800552D02*
X62563721Y-61657695D01*
X62563721Y-61657695D02*
X62623245Y-61562457D01*
X62623245Y-61562457D02*
X62688721Y-61419600D01*
X62688721Y-61419600D02*
X62766102Y-61181504D01*
X62766102Y-61181504D02*
X62789911Y-60991028D01*
X62789911Y-60991028D02*
X62772054Y-60752933D01*
X62772054Y-60752933D02*
X62742292Y-60610076D01*
X62742292Y-60610076D02*
X62706578Y-60514838D01*
X62706578Y-60514838D02*
X62629197Y-60371980D01*
X62629197Y-60371980D02*
X62587530Y-60324361D01*
D10*
X104208646Y-22372419D02*
X104827693Y-22372419D01*
X104827693Y-22372419D02*
X104494360Y-22753371D01*
X104494360Y-22753371D02*
X104637217Y-22753371D01*
X104637217Y-22753371D02*
X104732455Y-22800990D01*
X104732455Y-22800990D02*
X104780074Y-22848609D01*
X104780074Y-22848609D02*
X104827693Y-22943847D01*
X104827693Y-22943847D02*
X104827693Y-23181942D01*
X104827693Y-23181942D02*
X104780074Y-23277180D01*
X104780074Y-23277180D02*
X104732455Y-23324800D01*
X104732455Y-23324800D02*
X104637217Y-23372419D01*
X104637217Y-23372419D02*
X104351503Y-23372419D01*
X104351503Y-23372419D02*
X104256265Y-23324800D01*
X104256265Y-23324800D02*
X104208646Y-23277180D01*
X105113408Y-22372419D02*
X105446741Y-23372419D01*
X105446741Y-23372419D02*
X105780074Y-22372419D01*
X106018170Y-22372419D02*
X106637217Y-22372419D01*
X106637217Y-22372419D02*
X106303884Y-22753371D01*
X106303884Y-22753371D02*
X106446741Y-22753371D01*
X106446741Y-22753371D02*
X106541979Y-22800990D01*
X106541979Y-22800990D02*
X106589598Y-22848609D01*
X106589598Y-22848609D02*
X106637217Y-22943847D01*
X106637217Y-22943847D02*
X106637217Y-23181942D01*
X106637217Y-23181942D02*
X106589598Y-23277180D01*
X106589598Y-23277180D02*
X106541979Y-23324800D01*
X106541979Y-23324800D02*
X106446741Y-23372419D01*
X106446741Y-23372419D02*
X106161027Y-23372419D01*
X106161027Y-23372419D02*
X106065789Y-23324800D01*
X106065789Y-23324800D02*
X106018170Y-23277180D01*
X56000000Y-61900000D02*
X104000000Y-61900000D01*
X104000000Y-119900000D01*
X56000000Y-119900000D01*
X56000000Y-61900000D01*
X52400000Y-92500000D02*
X52400000Y-115300000D01*
X34400000Y-92500000D02*
X34400000Y-87800000D01*
X34400000Y-92500000D02*
X30100000Y-92500000D01*
X36900000Y-115300000D02*
X36900000Y-119900000D01*
X36900000Y-92500000D02*
X52400000Y-92500000D01*
X107600000Y-92500000D02*
X115000000Y-92500000D01*
X125600000Y-87800000D02*
X125600000Y-89400000D01*
X123100000Y-89400000D02*
X123100000Y-87800000D01*
X129900000Y-115300000D02*
X125600000Y-115300000D01*
X123100000Y-92500000D02*
X123100000Y-89400000D01*
X52400000Y-115300000D02*
X36900000Y-115300000D01*
X125500000Y-92500000D02*
X129900000Y-92500000D01*
X34400000Y-119900000D02*
X34400000Y-115300000D01*
X34400000Y-87800000D02*
X36900000Y-87800000D01*
X123100000Y-119900000D02*
X123100000Y-115300000D01*
X34400000Y-115300000D02*
X30100000Y-115300000D01*
X123100000Y-87800000D02*
X125600000Y-87800000D01*
X115000000Y-92500000D02*
X123100000Y-92500000D01*
X125600000Y-115200000D02*
X125600000Y-119900000D01*
X107600000Y-115300000D02*
X107600000Y-92500000D01*
X125600000Y-89400000D02*
X125500000Y-92500000D01*
X123100000Y-115300000D02*
X107600000Y-115300000D01*
X36900000Y-87800000D02*
X36900000Y-92500000D01*
X104738095Y-20517419D02*
X104738095Y-21326942D01*
X104738095Y-21326942D02*
X104785714Y-21422180D01*
X104785714Y-21422180D02*
X104833333Y-21469800D01*
X104833333Y-21469800D02*
X104928571Y-21517419D01*
X104928571Y-21517419D02*
X105119047Y-21517419D01*
X105119047Y-21517419D02*
X105214285Y-21469800D01*
X105214285Y-21469800D02*
X105261904Y-21422180D01*
X105261904Y-21422180D02*
X105309523Y-21326942D01*
X105309523Y-21326942D02*
X105309523Y-20517419D01*
X106261904Y-20517419D02*
X105785714Y-20517419D01*
X105785714Y-20517419D02*
X105738095Y-20993609D01*
X105738095Y-20993609D02*
X105785714Y-20945990D01*
X105785714Y-20945990D02*
X105880952Y-20898371D01*
X105880952Y-20898371D02*
X106119047Y-20898371D01*
X106119047Y-20898371D02*
X106214285Y-20945990D01*
X106214285Y-20945990D02*
X106261904Y-20993609D01*
X106261904Y-20993609D02*
X106309523Y-21088847D01*
X106309523Y-21088847D02*
X106309523Y-21326942D01*
X106309523Y-21326942D02*
X106261904Y-21422180D01*
X106261904Y-21422180D02*
X106214285Y-21469800D01*
X106214285Y-21469800D02*
X106119047Y-21517419D01*
X106119047Y-21517419D02*
X105880952Y-21517419D01*
X105880952Y-21517419D02*
X105785714Y-21469800D01*
X105785714Y-21469800D02*
X105738095Y-21422180D01*
X122323810Y-25457419D02*
X122323810Y-24457419D01*
X122990476Y-24457419D02*
X123180952Y-24457419D01*
X123180952Y-24457419D02*
X123276190Y-24505038D01*
X123276190Y-24505038D02*
X123371428Y-24600276D01*
X123371428Y-24600276D02*
X123419047Y-24790752D01*
X123419047Y-24790752D02*
X123419047Y-25124085D01*
X123419047Y-25124085D02*
X123371428Y-25314561D01*
X123371428Y-25314561D02*
X123276190Y-25409800D01*
X123276190Y-25409800D02*
X123180952Y-25457419D01*
X123180952Y-25457419D02*
X122990476Y-25457419D01*
X122990476Y-25457419D02*
X122895238Y-25409800D01*
X122895238Y-25409800D02*
X122800000Y-25314561D01*
X122800000Y-25314561D02*
X122752381Y-25124085D01*
X122752381Y-25124085D02*
X122752381Y-24790752D01*
X122752381Y-24790752D02*
X122800000Y-24600276D01*
X122800000Y-24600276D02*
X122895238Y-24505038D01*
X122895238Y-24505038D02*
X122990476Y-24457419D01*
X124371428Y-25457419D02*
X123800000Y-25457419D01*
X124085714Y-25457419D02*
X124085714Y-24457419D01*
X124085714Y-24457419D02*
X123990476Y-24600276D01*
X123990476Y-24600276D02*
X123895238Y-24695514D01*
X123895238Y-24695514D02*
X123800000Y-24743133D01*
X124704762Y-24457419D02*
X125323809Y-24457419D01*
X125323809Y-24457419D02*
X124990476Y-24838371D01*
X124990476Y-24838371D02*
X125133333Y-24838371D01*
X125133333Y-24838371D02*
X125228571Y-24885990D01*
X125228571Y-24885990D02*
X125276190Y-24933609D01*
X125276190Y-24933609D02*
X125323809Y-25028847D01*
X125323809Y-25028847D02*
X125323809Y-25266942D01*
X125323809Y-25266942D02*
X125276190Y-25362180D01*
X125276190Y-25362180D02*
X125228571Y-25409800D01*
X125228571Y-25409800D02*
X125133333Y-25457419D01*
X125133333Y-25457419D02*
X124847619Y-25457419D01*
X124847619Y-25457419D02*
X124752381Y-25409800D01*
X124752381Y-25409800D02*
X124704762Y-25362180D01*
X116223810Y-25457419D02*
X116223810Y-24457419D01*
X116890476Y-24457419D02*
X117080952Y-24457419D01*
X117080952Y-24457419D02*
X117176190Y-24505038D01*
X117176190Y-24505038D02*
X117271428Y-24600276D01*
X117271428Y-24600276D02*
X117319047Y-24790752D01*
X117319047Y-24790752D02*
X117319047Y-25124085D01*
X117319047Y-25124085D02*
X117271428Y-25314561D01*
X117271428Y-25314561D02*
X117176190Y-25409800D01*
X117176190Y-25409800D02*
X117080952Y-25457419D01*
X117080952Y-25457419D02*
X116890476Y-25457419D01*
X116890476Y-25457419D02*
X116795238Y-25409800D01*
X116795238Y-25409800D02*
X116700000Y-25314561D01*
X116700000Y-25314561D02*
X116652381Y-25124085D01*
X116652381Y-25124085D02*
X116652381Y-24790752D01*
X116652381Y-24790752D02*
X116700000Y-24600276D01*
X116700000Y-24600276D02*
X116795238Y-24505038D01*
X116795238Y-24505038D02*
X116890476Y-24457419D01*
X118271428Y-25457419D02*
X117700000Y-25457419D01*
X117985714Y-25457419D02*
X117985714Y-24457419D01*
X117985714Y-24457419D02*
X117890476Y-24600276D01*
X117890476Y-24600276D02*
X117795238Y-24695514D01*
X117795238Y-24695514D02*
X117700000Y-24743133D01*
X118652381Y-24552657D02*
X118700000Y-24505038D01*
X118700000Y-24505038D02*
X118795238Y-24457419D01*
X118795238Y-24457419D02*
X119033333Y-24457419D01*
X119033333Y-24457419D02*
X119128571Y-24505038D01*
X119128571Y-24505038D02*
X119176190Y-24552657D01*
X119176190Y-24552657D02*
X119223809Y-24647895D01*
X119223809Y-24647895D02*
X119223809Y-24743133D01*
X119223809Y-24743133D02*
X119176190Y-24885990D01*
X119176190Y-24885990D02*
X118604762Y-25457419D01*
X118604762Y-25457419D02*
X119223809Y-25457419D01*
X38118094Y-44573609D02*
X38260951Y-44621228D01*
X38260951Y-44621228D02*
X38308570Y-44668847D01*
X38308570Y-44668847D02*
X38356189Y-44764085D01*
X38356189Y-44764085D02*
X38356189Y-44906942D01*
X38356189Y-44906942D02*
X38308570Y-45002180D01*
X38308570Y-45002180D02*
X38260951Y-45049800D01*
X38260951Y-45049800D02*
X38165713Y-45097419D01*
X38165713Y-45097419D02*
X37784761Y-45097419D01*
X37784761Y-45097419D02*
X37784761Y-44097419D01*
X37784761Y-44097419D02*
X38118094Y-44097419D01*
X38118094Y-44097419D02*
X38213332Y-44145038D01*
X38213332Y-44145038D02*
X38260951Y-44192657D01*
X38260951Y-44192657D02*
X38308570Y-44287895D01*
X38308570Y-44287895D02*
X38308570Y-44383133D01*
X38308570Y-44383133D02*
X38260951Y-44478371D01*
X38260951Y-44478371D02*
X38213332Y-44525990D01*
X38213332Y-44525990D02*
X38118094Y-44573609D01*
X38118094Y-44573609D02*
X37784761Y-44573609D01*
X38927618Y-45097419D02*
X38832380Y-45049800D01*
X38832380Y-45049800D02*
X38784761Y-44954561D01*
X38784761Y-44954561D02*
X38784761Y-44097419D01*
X39737142Y-44430752D02*
X39737142Y-45097419D01*
X39308571Y-44430752D02*
X39308571Y-44954561D01*
X39308571Y-44954561D02*
X39356190Y-45049800D01*
X39356190Y-45049800D02*
X39451428Y-45097419D01*
X39451428Y-45097419D02*
X39594285Y-45097419D01*
X39594285Y-45097419D02*
X39689523Y-45049800D01*
X39689523Y-45049800D02*
X39737142Y-45002180D01*
X40594285Y-45049800D02*
X40499047Y-45097419D01*
X40499047Y-45097419D02*
X40308571Y-45097419D01*
X40308571Y-45097419D02*
X40213333Y-45049800D01*
X40213333Y-45049800D02*
X40165714Y-44954561D01*
X40165714Y-44954561D02*
X40165714Y-44573609D01*
X40165714Y-44573609D02*
X40213333Y-44478371D01*
X40213333Y-44478371D02*
X40308571Y-44430752D01*
X40308571Y-44430752D02*
X40499047Y-44430752D01*
X40499047Y-44430752D02*
X40594285Y-44478371D01*
X40594285Y-44478371D02*
X40641904Y-44573609D01*
X40641904Y-44573609D02*
X40641904Y-44668847D01*
X40641904Y-44668847D02*
X40165714Y-44764085D01*
X41070476Y-44430752D02*
X41070476Y-45430752D01*
X41070476Y-44478371D02*
X41165714Y-44430752D01*
X41165714Y-44430752D02*
X41356190Y-44430752D01*
X41356190Y-44430752D02*
X41451428Y-44478371D01*
X41451428Y-44478371D02*
X41499047Y-44525990D01*
X41499047Y-44525990D02*
X41546666Y-44621228D01*
X41546666Y-44621228D02*
X41546666Y-44906942D01*
X41546666Y-44906942D02*
X41499047Y-45002180D01*
X41499047Y-45002180D02*
X41451428Y-45049800D01*
X41451428Y-45049800D02*
X41356190Y-45097419D01*
X41356190Y-45097419D02*
X41165714Y-45097419D01*
X41165714Y-45097419D02*
X41070476Y-45049800D01*
X41975238Y-45097419D02*
X41975238Y-44430752D01*
X41975238Y-44097419D02*
X41927619Y-44145038D01*
X41927619Y-44145038D02*
X41975238Y-44192657D01*
X41975238Y-44192657D02*
X42022857Y-44145038D01*
X42022857Y-44145038D02*
X41975238Y-44097419D01*
X41975238Y-44097419D02*
X41975238Y-44192657D01*
X42594285Y-45097419D02*
X42499047Y-45049800D01*
X42499047Y-45049800D02*
X42451428Y-44954561D01*
X42451428Y-44954561D02*
X42451428Y-44097419D01*
X43118095Y-45097419D02*
X43022857Y-45049800D01*
X43022857Y-45049800D02*
X42975238Y-44954561D01*
X42975238Y-44954561D02*
X42975238Y-44097419D01*
X44022857Y-45097419D02*
X43451429Y-45097419D01*
X43737143Y-45097419D02*
X43737143Y-44097419D01*
X43737143Y-44097419D02*
X43641905Y-44240276D01*
X43641905Y-44240276D02*
X43546667Y-44335514D01*
X43546667Y-44335514D02*
X43451429Y-44383133D01*
X118057419Y-40342857D02*
X117581228Y-40676190D01*
X118057419Y-40914285D02*
X117057419Y-40914285D01*
X117057419Y-40914285D02*
X117057419Y-40533333D01*
X117057419Y-40533333D02*
X117105038Y-40438095D01*
X117105038Y-40438095D02*
X117152657Y-40390476D01*
X117152657Y-40390476D02*
X117247895Y-40342857D01*
X117247895Y-40342857D02*
X117390752Y-40342857D01*
X117390752Y-40342857D02*
X117485990Y-40390476D01*
X117485990Y-40390476D02*
X117533609Y-40438095D01*
X117533609Y-40438095D02*
X117581228Y-40533333D01*
X117581228Y-40533333D02*
X117581228Y-40914285D01*
X118057419Y-39390476D02*
X118057419Y-39961904D01*
X118057419Y-39676190D02*
X117057419Y-39676190D01*
X117057419Y-39676190D02*
X117200276Y-39771428D01*
X117200276Y-39771428D02*
X117295514Y-39866666D01*
X117295514Y-39866666D02*
X117343133Y-39961904D01*
X117485990Y-38819047D02*
X117438371Y-38914285D01*
X117438371Y-38914285D02*
X117390752Y-38961904D01*
X117390752Y-38961904D02*
X117295514Y-39009523D01*
X117295514Y-39009523D02*
X117247895Y-39009523D01*
X117247895Y-39009523D02*
X117152657Y-38961904D01*
X117152657Y-38961904D02*
X117105038Y-38914285D01*
X117105038Y-38914285D02*
X117057419Y-38819047D01*
X117057419Y-38819047D02*
X117057419Y-38628571D01*
X117057419Y-38628571D02*
X117105038Y-38533333D01*
X117105038Y-38533333D02*
X117152657Y-38485714D01*
X117152657Y-38485714D02*
X117247895Y-38438095D01*
X117247895Y-38438095D02*
X117295514Y-38438095D01*
X117295514Y-38438095D02*
X117390752Y-38485714D01*
X117390752Y-38485714D02*
X117438371Y-38533333D01*
X117438371Y-38533333D02*
X117485990Y-38628571D01*
X117485990Y-38628571D02*
X117485990Y-38819047D01*
X117485990Y-38819047D02*
X117533609Y-38914285D01*
X117533609Y-38914285D02*
X117581228Y-38961904D01*
X117581228Y-38961904D02*
X117676466Y-39009523D01*
X117676466Y-39009523D02*
X117866942Y-39009523D01*
X117866942Y-39009523D02*
X117962180Y-38961904D01*
X117962180Y-38961904D02*
X118009800Y-38914285D01*
X118009800Y-38914285D02*
X118057419Y-38819047D01*
X118057419Y-38819047D02*
X118057419Y-38628571D01*
X118057419Y-38628571D02*
X118009800Y-38533333D01*
X118009800Y-38533333D02*
X117962180Y-38485714D01*
X117962180Y-38485714D02*
X117866942Y-38438095D01*
X117866942Y-38438095D02*
X117676466Y-38438095D01*
X117676466Y-38438095D02*
X117581228Y-38485714D01*
X117581228Y-38485714D02*
X117533609Y-38533333D01*
X117533609Y-38533333D02*
X117485990Y-38628571D01*
X120857419Y-40342857D02*
X120381228Y-40676190D01*
X120857419Y-40914285D02*
X119857419Y-40914285D01*
X119857419Y-40914285D02*
X119857419Y-40533333D01*
X119857419Y-40533333D02*
X119905038Y-40438095D01*
X119905038Y-40438095D02*
X119952657Y-40390476D01*
X119952657Y-40390476D02*
X120047895Y-40342857D01*
X120047895Y-40342857D02*
X120190752Y-40342857D01*
X120190752Y-40342857D02*
X120285990Y-40390476D01*
X120285990Y-40390476D02*
X120333609Y-40438095D01*
X120333609Y-40438095D02*
X120381228Y-40533333D01*
X120381228Y-40533333D02*
X120381228Y-40914285D01*
X120857419Y-39390476D02*
X120857419Y-39961904D01*
X120857419Y-39676190D02*
X119857419Y-39676190D01*
X119857419Y-39676190D02*
X120000276Y-39771428D01*
X120000276Y-39771428D02*
X120095514Y-39866666D01*
X120095514Y-39866666D02*
X120143133Y-39961904D01*
X119857419Y-39057142D02*
X119857419Y-38390476D01*
X119857419Y-38390476D02*
X120857419Y-38819047D01*
D13*
X122659580Y-48366666D02*
X122707200Y-48414285D01*
X122707200Y-48414285D02*
X122754819Y-48557142D01*
X122754819Y-48557142D02*
X122754819Y-48652380D01*
X122754819Y-48652380D02*
X122707200Y-48795237D01*
X122707200Y-48795237D02*
X122611961Y-48890475D01*
X122611961Y-48890475D02*
X122516723Y-48938094D01*
X122516723Y-48938094D02*
X122326247Y-48985713D01*
X122326247Y-48985713D02*
X122183390Y-48985713D01*
X122183390Y-48985713D02*
X121992914Y-48938094D01*
X121992914Y-48938094D02*
X121897676Y-48890475D01*
X121897676Y-48890475D02*
X121802438Y-48795237D01*
X121802438Y-48795237D02*
X121754819Y-48652380D01*
X121754819Y-48652380D02*
X121754819Y-48557142D01*
X121754819Y-48557142D02*
X121802438Y-48414285D01*
X121802438Y-48414285D02*
X121850057Y-48366666D01*
X122088152Y-47509523D02*
X122754819Y-47509523D01*
X121707200Y-47747618D02*
X122421485Y-47985713D01*
X122421485Y-47985713D02*
X122421485Y-47366666D01*
X111059580Y-53366666D02*
X111107200Y-53414285D01*
X111107200Y-53414285D02*
X111154819Y-53557142D01*
X111154819Y-53557142D02*
X111154819Y-53652380D01*
X111154819Y-53652380D02*
X111107200Y-53795237D01*
X111107200Y-53795237D02*
X111011961Y-53890475D01*
X111011961Y-53890475D02*
X110916723Y-53938094D01*
X110916723Y-53938094D02*
X110726247Y-53985713D01*
X110726247Y-53985713D02*
X110583390Y-53985713D01*
X110583390Y-53985713D02*
X110392914Y-53938094D01*
X110392914Y-53938094D02*
X110297676Y-53890475D01*
X110297676Y-53890475D02*
X110202438Y-53795237D01*
X110202438Y-53795237D02*
X110154819Y-53652380D01*
X110154819Y-53652380D02*
X110154819Y-53557142D01*
X110154819Y-53557142D02*
X110202438Y-53414285D01*
X110202438Y-53414285D02*
X110250057Y-53366666D01*
X110154819Y-53033332D02*
X110154819Y-52414285D01*
X110154819Y-52414285D02*
X110535771Y-52747618D01*
X110535771Y-52747618D02*
X110535771Y-52604761D01*
X110535771Y-52604761D02*
X110583390Y-52509523D01*
X110583390Y-52509523D02*
X110631009Y-52461904D01*
X110631009Y-52461904D02*
X110726247Y-52414285D01*
X110726247Y-52414285D02*
X110964342Y-52414285D01*
X110964342Y-52414285D02*
X111059580Y-52461904D01*
X111059580Y-52461904D02*
X111107200Y-52509523D01*
X111107200Y-52509523D02*
X111154819Y-52604761D01*
X111154819Y-52604761D02*
X111154819Y-52890475D01*
X111154819Y-52890475D02*
X111107200Y-52985713D01*
X111107200Y-52985713D02*
X111059580Y-53033332D01*
X114566667Y-61507200D02*
X114709524Y-61554819D01*
X114709524Y-61554819D02*
X114947619Y-61554819D01*
X114947619Y-61554819D02*
X115042857Y-61507200D01*
X115042857Y-61507200D02*
X115090476Y-61459580D01*
X115090476Y-61459580D02*
X115138095Y-61364342D01*
X115138095Y-61364342D02*
X115138095Y-61269104D01*
X115138095Y-61269104D02*
X115090476Y-61173866D01*
X115090476Y-61173866D02*
X115042857Y-61126247D01*
X115042857Y-61126247D02*
X114947619Y-61078628D01*
X114947619Y-61078628D02*
X114757143Y-61031009D01*
X114757143Y-61031009D02*
X114661905Y-60983390D01*
X114661905Y-60983390D02*
X114614286Y-60935771D01*
X114614286Y-60935771D02*
X114566667Y-60840533D01*
X114566667Y-60840533D02*
X114566667Y-60745295D01*
X114566667Y-60745295D02*
X114614286Y-60650057D01*
X114614286Y-60650057D02*
X114661905Y-60602438D01*
X114661905Y-60602438D02*
X114757143Y-60554819D01*
X114757143Y-60554819D02*
X114995238Y-60554819D01*
X114995238Y-60554819D02*
X115138095Y-60602438D01*
X115471429Y-60554819D02*
X115709524Y-61554819D01*
X115709524Y-61554819D02*
X115900000Y-60840533D01*
X115900000Y-60840533D02*
X116090476Y-61554819D01*
X116090476Y-61554819D02*
X116328572Y-60554819D01*
X117185714Y-60554819D02*
X116709524Y-60554819D01*
X116709524Y-60554819D02*
X116661905Y-61031009D01*
X116661905Y-61031009D02*
X116709524Y-60983390D01*
X116709524Y-60983390D02*
X116804762Y-60935771D01*
X116804762Y-60935771D02*
X117042857Y-60935771D01*
X117042857Y-60935771D02*
X117138095Y-60983390D01*
X117138095Y-60983390D02*
X117185714Y-61031009D01*
X117185714Y-61031009D02*
X117233333Y-61126247D01*
X117233333Y-61126247D02*
X117233333Y-61364342D01*
X117233333Y-61364342D02*
X117185714Y-61459580D01*
X117185714Y-61459580D02*
X117138095Y-61507200D01*
X117138095Y-61507200D02*
X117042857Y-61554819D01*
X117042857Y-61554819D02*
X116804762Y-61554819D01*
X116804762Y-61554819D02*
X116709524Y-61507200D01*
X116709524Y-61507200D02*
X116661905Y-61459580D01*
D10*
X122238095Y-54257419D02*
X122238095Y-55066942D01*
X122238095Y-55066942D02*
X122285714Y-55162180D01*
X122285714Y-55162180D02*
X122333333Y-55209800D01*
X122333333Y-55209800D02*
X122428571Y-55257419D01*
X122428571Y-55257419D02*
X122619047Y-55257419D01*
X122619047Y-55257419D02*
X122714285Y-55209800D01*
X122714285Y-55209800D02*
X122761904Y-55162180D01*
X122761904Y-55162180D02*
X122809523Y-55066942D01*
X122809523Y-55066942D02*
X122809523Y-54257419D01*
X123190476Y-54257419D02*
X123857142Y-54257419D01*
X123857142Y-54257419D02*
X123428571Y-55257419D01*
D13*
X104707200Y-32633332D02*
X104754819Y-32490475D01*
X104754819Y-32490475D02*
X104754819Y-32252380D01*
X104754819Y-32252380D02*
X104707200Y-32157142D01*
X104707200Y-32157142D02*
X104659580Y-32109523D01*
X104659580Y-32109523D02*
X104564342Y-32061904D01*
X104564342Y-32061904D02*
X104469104Y-32061904D01*
X104469104Y-32061904D02*
X104373866Y-32109523D01*
X104373866Y-32109523D02*
X104326247Y-32157142D01*
X104326247Y-32157142D02*
X104278628Y-32252380D01*
X104278628Y-32252380D02*
X104231009Y-32442856D01*
X104231009Y-32442856D02*
X104183390Y-32538094D01*
X104183390Y-32538094D02*
X104135771Y-32585713D01*
X104135771Y-32585713D02*
X104040533Y-32633332D01*
X104040533Y-32633332D02*
X103945295Y-32633332D01*
X103945295Y-32633332D02*
X103850057Y-32585713D01*
X103850057Y-32585713D02*
X103802438Y-32538094D01*
X103802438Y-32538094D02*
X103754819Y-32442856D01*
X103754819Y-32442856D02*
X103754819Y-32204761D01*
X103754819Y-32204761D02*
X103802438Y-32061904D01*
X103754819Y-31728570D02*
X104754819Y-31490475D01*
X104754819Y-31490475D02*
X104040533Y-31299999D01*
X104040533Y-31299999D02*
X104754819Y-31109523D01*
X104754819Y-31109523D02*
X103754819Y-30871428D01*
X103850057Y-30538094D02*
X103802438Y-30490475D01*
X103802438Y-30490475D02*
X103754819Y-30395237D01*
X103754819Y-30395237D02*
X103754819Y-30157142D01*
X103754819Y-30157142D02*
X103802438Y-30061904D01*
X103802438Y-30061904D02*
X103850057Y-30014285D01*
X103850057Y-30014285D02*
X103945295Y-29966666D01*
X103945295Y-29966666D02*
X104040533Y-29966666D01*
X104040533Y-29966666D02*
X104183390Y-30014285D01*
X104183390Y-30014285D02*
X104754819Y-30585713D01*
X104754819Y-30585713D02*
X104754819Y-29966666D01*
D10*
X94256667Y-37509800D02*
X94399524Y-37557419D01*
X94399524Y-37557419D02*
X94637619Y-37557419D01*
X94637619Y-37557419D02*
X94732857Y-37509800D01*
X94732857Y-37509800D02*
X94780476Y-37462180D01*
X94780476Y-37462180D02*
X94828095Y-37366942D01*
X94828095Y-37366942D02*
X94828095Y-37271704D01*
X94828095Y-37271704D02*
X94780476Y-37176466D01*
X94780476Y-37176466D02*
X94732857Y-37128847D01*
X94732857Y-37128847D02*
X94637619Y-37081228D01*
X94637619Y-37081228D02*
X94447143Y-37033609D01*
X94447143Y-37033609D02*
X94351905Y-36985990D01*
X94351905Y-36985990D02*
X94304286Y-36938371D01*
X94304286Y-36938371D02*
X94256667Y-36843133D01*
X94256667Y-36843133D02*
X94256667Y-36747895D01*
X94256667Y-36747895D02*
X94304286Y-36652657D01*
X94304286Y-36652657D02*
X94351905Y-36605038D01*
X94351905Y-36605038D02*
X94447143Y-36557419D01*
X94447143Y-36557419D02*
X94685238Y-36557419D01*
X94685238Y-36557419D02*
X94828095Y-36605038D01*
X95161429Y-36557419D02*
X95399524Y-37557419D01*
X95399524Y-37557419D02*
X95590000Y-36843133D01*
X95590000Y-36843133D02*
X95780476Y-37557419D01*
X95780476Y-37557419D02*
X96018572Y-36557419D01*
X96923333Y-37557419D02*
X96351905Y-37557419D01*
X96637619Y-37557419D02*
X96637619Y-36557419D01*
X96637619Y-36557419D02*
X96542381Y-36700276D01*
X96542381Y-36700276D02*
X96447143Y-36795514D01*
X96447143Y-36795514D02*
X96351905Y-36843133D01*
X103957419Y-25995238D02*
X103481228Y-26328571D01*
X103957419Y-26566666D02*
X102957419Y-26566666D01*
X102957419Y-26566666D02*
X102957419Y-26185714D01*
X102957419Y-26185714D02*
X103005038Y-26090476D01*
X103005038Y-26090476D02*
X103052657Y-26042857D01*
X103052657Y-26042857D02*
X103147895Y-25995238D01*
X103147895Y-25995238D02*
X103290752Y-25995238D01*
X103290752Y-25995238D02*
X103385990Y-26042857D01*
X103385990Y-26042857D02*
X103433609Y-26090476D01*
X103433609Y-26090476D02*
X103481228Y-26185714D01*
X103481228Y-26185714D02*
X103481228Y-26566666D01*
X102957419Y-25709523D02*
X103957419Y-25376190D01*
X103957419Y-25376190D02*
X102957419Y-25042857D01*
X103957419Y-24185714D02*
X103957419Y-24757142D01*
X103957419Y-24471428D02*
X102957419Y-24471428D01*
X102957419Y-24471428D02*
X103100276Y-24566666D01*
X103100276Y-24566666D02*
X103195514Y-24661904D01*
X103195514Y-24661904D02*
X103243133Y-24757142D01*
X57857142Y-51157419D02*
X57523809Y-50681228D01*
X57285714Y-51157419D02*
X57285714Y-50157419D01*
X57285714Y-50157419D02*
X57666666Y-50157419D01*
X57666666Y-50157419D02*
X57761904Y-50205038D01*
X57761904Y-50205038D02*
X57809523Y-50252657D01*
X57809523Y-50252657D02*
X57857142Y-50347895D01*
X57857142Y-50347895D02*
X57857142Y-50490752D01*
X57857142Y-50490752D02*
X57809523Y-50585990D01*
X57809523Y-50585990D02*
X57761904Y-50633609D01*
X57761904Y-50633609D02*
X57666666Y-50681228D01*
X57666666Y-50681228D02*
X57285714Y-50681228D01*
X58809523Y-51157419D02*
X58238095Y-51157419D01*
X58523809Y-51157419D02*
X58523809Y-50157419D01*
X58523809Y-50157419D02*
X58428571Y-50300276D01*
X58428571Y-50300276D02*
X58333333Y-50395514D01*
X58333333Y-50395514D02*
X58238095Y-50443133D01*
X59190476Y-50252657D02*
X59238095Y-50205038D01*
X59238095Y-50205038D02*
X59333333Y-50157419D01*
X59333333Y-50157419D02*
X59571428Y-50157419D01*
X59571428Y-50157419D02*
X59666666Y-50205038D01*
X59666666Y-50205038D02*
X59714285Y-50252657D01*
X59714285Y-50252657D02*
X59761904Y-50347895D01*
X59761904Y-50347895D02*
X59761904Y-50443133D01*
X59761904Y-50443133D02*
X59714285Y-50585990D01*
X59714285Y-50585990D02*
X59142857Y-51157419D01*
X59142857Y-51157419D02*
X59761904Y-51157419D01*
X57857142Y-48557419D02*
X57523809Y-48081228D01*
X57285714Y-48557419D02*
X57285714Y-47557419D01*
X57285714Y-47557419D02*
X57666666Y-47557419D01*
X57666666Y-47557419D02*
X57761904Y-47605038D01*
X57761904Y-47605038D02*
X57809523Y-47652657D01*
X57809523Y-47652657D02*
X57857142Y-47747895D01*
X57857142Y-47747895D02*
X57857142Y-47890752D01*
X57857142Y-47890752D02*
X57809523Y-47985990D01*
X57809523Y-47985990D02*
X57761904Y-48033609D01*
X57761904Y-48033609D02*
X57666666Y-48081228D01*
X57666666Y-48081228D02*
X57285714Y-48081228D01*
X58809523Y-48557419D02*
X58238095Y-48557419D01*
X58523809Y-48557419D02*
X58523809Y-47557419D01*
X58523809Y-47557419D02*
X58428571Y-47700276D01*
X58428571Y-47700276D02*
X58333333Y-47795514D01*
X58333333Y-47795514D02*
X58238095Y-47843133D01*
X59761904Y-48557419D02*
X59190476Y-48557419D01*
X59476190Y-48557419D02*
X59476190Y-47557419D01*
X59476190Y-47557419D02*
X59380952Y-47700276D01*
X59380952Y-47700276D02*
X59285714Y-47795514D01*
X59285714Y-47795514D02*
X59190476Y-47843133D01*
X57857142Y-45957419D02*
X57523809Y-45481228D01*
X57285714Y-45957419D02*
X57285714Y-44957419D01*
X57285714Y-44957419D02*
X57666666Y-44957419D01*
X57666666Y-44957419D02*
X57761904Y-45005038D01*
X57761904Y-45005038D02*
X57809523Y-45052657D01*
X57809523Y-45052657D02*
X57857142Y-45147895D01*
X57857142Y-45147895D02*
X57857142Y-45290752D01*
X57857142Y-45290752D02*
X57809523Y-45385990D01*
X57809523Y-45385990D02*
X57761904Y-45433609D01*
X57761904Y-45433609D02*
X57666666Y-45481228D01*
X57666666Y-45481228D02*
X57285714Y-45481228D01*
X58809523Y-45957419D02*
X58238095Y-45957419D01*
X58523809Y-45957419D02*
X58523809Y-44957419D01*
X58523809Y-44957419D02*
X58428571Y-45100276D01*
X58428571Y-45100276D02*
X58333333Y-45195514D01*
X58333333Y-45195514D02*
X58238095Y-45243133D01*
X59428571Y-44957419D02*
X59523809Y-44957419D01*
X59523809Y-44957419D02*
X59619047Y-45005038D01*
X59619047Y-45005038D02*
X59666666Y-45052657D01*
X59666666Y-45052657D02*
X59714285Y-45147895D01*
X59714285Y-45147895D02*
X59761904Y-45338371D01*
X59761904Y-45338371D02*
X59761904Y-45576466D01*
X59761904Y-45576466D02*
X59714285Y-45766942D01*
X59714285Y-45766942D02*
X59666666Y-45862180D01*
X59666666Y-45862180D02*
X59619047Y-45909800D01*
X59619047Y-45909800D02*
X59523809Y-45957419D01*
X59523809Y-45957419D02*
X59428571Y-45957419D01*
X59428571Y-45957419D02*
X59333333Y-45909800D01*
X59333333Y-45909800D02*
X59285714Y-45862180D01*
X59285714Y-45862180D02*
X59238095Y-45766942D01*
X59238095Y-45766942D02*
X59190476Y-45576466D01*
X59190476Y-45576466D02*
X59190476Y-45338371D01*
X59190476Y-45338371D02*
X59238095Y-45147895D01*
X59238095Y-45147895D02*
X59285714Y-45052657D01*
X59285714Y-45052657D02*
X59333333Y-45005038D01*
X59333333Y-45005038D02*
X59428571Y-44957419D01*
X58333333Y-43357419D02*
X58000000Y-42881228D01*
X57761905Y-43357419D02*
X57761905Y-42357419D01*
X57761905Y-42357419D02*
X58142857Y-42357419D01*
X58142857Y-42357419D02*
X58238095Y-42405038D01*
X58238095Y-42405038D02*
X58285714Y-42452657D01*
X58285714Y-42452657D02*
X58333333Y-42547895D01*
X58333333Y-42547895D02*
X58333333Y-42690752D01*
X58333333Y-42690752D02*
X58285714Y-42785990D01*
X58285714Y-42785990D02*
X58238095Y-42833609D01*
X58238095Y-42833609D02*
X58142857Y-42881228D01*
X58142857Y-42881228D02*
X57761905Y-42881228D01*
X58809524Y-43357419D02*
X59000000Y-43357419D01*
X59000000Y-43357419D02*
X59095238Y-43309800D01*
X59095238Y-43309800D02*
X59142857Y-43262180D01*
X59142857Y-43262180D02*
X59238095Y-43119323D01*
X59238095Y-43119323D02*
X59285714Y-42928847D01*
X59285714Y-42928847D02*
X59285714Y-42547895D01*
X59285714Y-42547895D02*
X59238095Y-42452657D01*
X59238095Y-42452657D02*
X59190476Y-42405038D01*
X59190476Y-42405038D02*
X59095238Y-42357419D01*
X59095238Y-42357419D02*
X58904762Y-42357419D01*
X58904762Y-42357419D02*
X58809524Y-42405038D01*
X58809524Y-42405038D02*
X58761905Y-42452657D01*
X58761905Y-42452657D02*
X58714286Y-42547895D01*
X58714286Y-42547895D02*
X58714286Y-42785990D01*
X58714286Y-42785990D02*
X58761905Y-42881228D01*
X58761905Y-42881228D02*
X58809524Y-42928847D01*
X58809524Y-42928847D02*
X58904762Y-42976466D01*
X58904762Y-42976466D02*
X59095238Y-42976466D01*
X59095238Y-42976466D02*
X59190476Y-42928847D01*
X59190476Y-42928847D02*
X59238095Y-42881228D01*
X59238095Y-42881228D02*
X59285714Y-42785990D01*
X58333333Y-40557419D02*
X58000000Y-40081228D01*
X57761905Y-40557419D02*
X57761905Y-39557419D01*
X57761905Y-39557419D02*
X58142857Y-39557419D01*
X58142857Y-39557419D02*
X58238095Y-39605038D01*
X58238095Y-39605038D02*
X58285714Y-39652657D01*
X58285714Y-39652657D02*
X58333333Y-39747895D01*
X58333333Y-39747895D02*
X58333333Y-39890752D01*
X58333333Y-39890752D02*
X58285714Y-39985990D01*
X58285714Y-39985990D02*
X58238095Y-40033609D01*
X58238095Y-40033609D02*
X58142857Y-40081228D01*
X58142857Y-40081228D02*
X57761905Y-40081228D01*
X58904762Y-39985990D02*
X58809524Y-39938371D01*
X58809524Y-39938371D02*
X58761905Y-39890752D01*
X58761905Y-39890752D02*
X58714286Y-39795514D01*
X58714286Y-39795514D02*
X58714286Y-39747895D01*
X58714286Y-39747895D02*
X58761905Y-39652657D01*
X58761905Y-39652657D02*
X58809524Y-39605038D01*
X58809524Y-39605038D02*
X58904762Y-39557419D01*
X58904762Y-39557419D02*
X59095238Y-39557419D01*
X59095238Y-39557419D02*
X59190476Y-39605038D01*
X59190476Y-39605038D02*
X59238095Y-39652657D01*
X59238095Y-39652657D02*
X59285714Y-39747895D01*
X59285714Y-39747895D02*
X59285714Y-39795514D01*
X59285714Y-39795514D02*
X59238095Y-39890752D01*
X59238095Y-39890752D02*
X59190476Y-39938371D01*
X59190476Y-39938371D02*
X59095238Y-39985990D01*
X59095238Y-39985990D02*
X58904762Y-39985990D01*
X58904762Y-39985990D02*
X58809524Y-40033609D01*
X58809524Y-40033609D02*
X58761905Y-40081228D01*
X58761905Y-40081228D02*
X58714286Y-40176466D01*
X58714286Y-40176466D02*
X58714286Y-40366942D01*
X58714286Y-40366942D02*
X58761905Y-40462180D01*
X58761905Y-40462180D02*
X58809524Y-40509800D01*
X58809524Y-40509800D02*
X58904762Y-40557419D01*
X58904762Y-40557419D02*
X59095238Y-40557419D01*
X59095238Y-40557419D02*
X59190476Y-40509800D01*
X59190476Y-40509800D02*
X59238095Y-40462180D01*
X59238095Y-40462180D02*
X59285714Y-40366942D01*
X59285714Y-40366942D02*
X59285714Y-40176466D01*
X59285714Y-40176466D02*
X59238095Y-40081228D01*
X59238095Y-40081228D02*
X59190476Y-40033609D01*
X59190476Y-40033609D02*
X59095238Y-39985990D01*
X58333333Y-38057419D02*
X58000000Y-37581228D01*
X57761905Y-38057419D02*
X57761905Y-37057419D01*
X57761905Y-37057419D02*
X58142857Y-37057419D01*
X58142857Y-37057419D02*
X58238095Y-37105038D01*
X58238095Y-37105038D02*
X58285714Y-37152657D01*
X58285714Y-37152657D02*
X58333333Y-37247895D01*
X58333333Y-37247895D02*
X58333333Y-37390752D01*
X58333333Y-37390752D02*
X58285714Y-37485990D01*
X58285714Y-37485990D02*
X58238095Y-37533609D01*
X58238095Y-37533609D02*
X58142857Y-37581228D01*
X58142857Y-37581228D02*
X57761905Y-37581228D01*
X58666667Y-37057419D02*
X59333333Y-37057419D01*
X59333333Y-37057419D02*
X58904762Y-38057419D01*
X58333333Y-35257419D02*
X58000000Y-34781228D01*
X57761905Y-35257419D02*
X57761905Y-34257419D01*
X57761905Y-34257419D02*
X58142857Y-34257419D01*
X58142857Y-34257419D02*
X58238095Y-34305038D01*
X58238095Y-34305038D02*
X58285714Y-34352657D01*
X58285714Y-34352657D02*
X58333333Y-34447895D01*
X58333333Y-34447895D02*
X58333333Y-34590752D01*
X58333333Y-34590752D02*
X58285714Y-34685990D01*
X58285714Y-34685990D02*
X58238095Y-34733609D01*
X58238095Y-34733609D02*
X58142857Y-34781228D01*
X58142857Y-34781228D02*
X57761905Y-34781228D01*
X59190476Y-34257419D02*
X59000000Y-34257419D01*
X59000000Y-34257419D02*
X58904762Y-34305038D01*
X58904762Y-34305038D02*
X58857143Y-34352657D01*
X58857143Y-34352657D02*
X58761905Y-34495514D01*
X58761905Y-34495514D02*
X58714286Y-34685990D01*
X58714286Y-34685990D02*
X58714286Y-35066942D01*
X58714286Y-35066942D02*
X58761905Y-35162180D01*
X58761905Y-35162180D02*
X58809524Y-35209800D01*
X58809524Y-35209800D02*
X58904762Y-35257419D01*
X58904762Y-35257419D02*
X59095238Y-35257419D01*
X59095238Y-35257419D02*
X59190476Y-35209800D01*
X59190476Y-35209800D02*
X59238095Y-35162180D01*
X59238095Y-35162180D02*
X59285714Y-35066942D01*
X59285714Y-35066942D02*
X59285714Y-34828847D01*
X59285714Y-34828847D02*
X59238095Y-34733609D01*
X59238095Y-34733609D02*
X59190476Y-34685990D01*
X59190476Y-34685990D02*
X59095238Y-34638371D01*
X59095238Y-34638371D02*
X58904762Y-34638371D01*
X58904762Y-34638371D02*
X58809524Y-34685990D01*
X58809524Y-34685990D02*
X58761905Y-34733609D01*
X58761905Y-34733609D02*
X58714286Y-34828847D01*
X58333333Y-32657419D02*
X58000000Y-32181228D01*
X57761905Y-32657419D02*
X57761905Y-31657419D01*
X57761905Y-31657419D02*
X58142857Y-31657419D01*
X58142857Y-31657419D02*
X58238095Y-31705038D01*
X58238095Y-31705038D02*
X58285714Y-31752657D01*
X58285714Y-31752657D02*
X58333333Y-31847895D01*
X58333333Y-31847895D02*
X58333333Y-31990752D01*
X58333333Y-31990752D02*
X58285714Y-32085990D01*
X58285714Y-32085990D02*
X58238095Y-32133609D01*
X58238095Y-32133609D02*
X58142857Y-32181228D01*
X58142857Y-32181228D02*
X57761905Y-32181228D01*
X59238095Y-31657419D02*
X58761905Y-31657419D01*
X58761905Y-31657419D02*
X58714286Y-32133609D01*
X58714286Y-32133609D02*
X58761905Y-32085990D01*
X58761905Y-32085990D02*
X58857143Y-32038371D01*
X58857143Y-32038371D02*
X59095238Y-32038371D01*
X59095238Y-32038371D02*
X59190476Y-32085990D01*
X59190476Y-32085990D02*
X59238095Y-32133609D01*
X59238095Y-32133609D02*
X59285714Y-32228847D01*
X59285714Y-32228847D02*
X59285714Y-32466942D01*
X59285714Y-32466942D02*
X59238095Y-32562180D01*
X59238095Y-32562180D02*
X59190476Y-32609800D01*
X59190476Y-32609800D02*
X59095238Y-32657419D01*
X59095238Y-32657419D02*
X58857143Y-32657419D01*
X58857143Y-32657419D02*
X58761905Y-32609800D01*
X58761905Y-32609800D02*
X58714286Y-32562180D01*
X58333333Y-30257419D02*
X58000000Y-29781228D01*
X57761905Y-30257419D02*
X57761905Y-29257419D01*
X57761905Y-29257419D02*
X58142857Y-29257419D01*
X58142857Y-29257419D02*
X58238095Y-29305038D01*
X58238095Y-29305038D02*
X58285714Y-29352657D01*
X58285714Y-29352657D02*
X58333333Y-29447895D01*
X58333333Y-29447895D02*
X58333333Y-29590752D01*
X58333333Y-29590752D02*
X58285714Y-29685990D01*
X58285714Y-29685990D02*
X58238095Y-29733609D01*
X58238095Y-29733609D02*
X58142857Y-29781228D01*
X58142857Y-29781228D02*
X57761905Y-29781228D01*
X59190476Y-29590752D02*
X59190476Y-30257419D01*
X58952381Y-29209800D02*
X58714286Y-29924085D01*
X58714286Y-29924085D02*
X59333333Y-29924085D01*
X58333333Y-27657419D02*
X58000000Y-27181228D01*
X57761905Y-27657419D02*
X57761905Y-26657419D01*
X57761905Y-26657419D02*
X58142857Y-26657419D01*
X58142857Y-26657419D02*
X58238095Y-26705038D01*
X58238095Y-26705038D02*
X58285714Y-26752657D01*
X58285714Y-26752657D02*
X58333333Y-26847895D01*
X58333333Y-26847895D02*
X58333333Y-26990752D01*
X58333333Y-26990752D02*
X58285714Y-27085990D01*
X58285714Y-27085990D02*
X58238095Y-27133609D01*
X58238095Y-27133609D02*
X58142857Y-27181228D01*
X58142857Y-27181228D02*
X57761905Y-27181228D01*
X58666667Y-26657419D02*
X59285714Y-26657419D01*
X59285714Y-26657419D02*
X58952381Y-27038371D01*
X58952381Y-27038371D02*
X59095238Y-27038371D01*
X59095238Y-27038371D02*
X59190476Y-27085990D01*
X59190476Y-27085990D02*
X59238095Y-27133609D01*
X59238095Y-27133609D02*
X59285714Y-27228847D01*
X59285714Y-27228847D02*
X59285714Y-27466942D01*
X59285714Y-27466942D02*
X59238095Y-27562180D01*
X59238095Y-27562180D02*
X59190476Y-27609800D01*
X59190476Y-27609800D02*
X59095238Y-27657419D01*
X59095238Y-27657419D02*
X58809524Y-27657419D01*
X58809524Y-27657419D02*
X58714286Y-27609800D01*
X58714286Y-27609800D02*
X58666667Y-27562180D01*
X58333333Y-25057419D02*
X58000000Y-24581228D01*
X57761905Y-25057419D02*
X57761905Y-24057419D01*
X57761905Y-24057419D02*
X58142857Y-24057419D01*
X58142857Y-24057419D02*
X58238095Y-24105038D01*
X58238095Y-24105038D02*
X58285714Y-24152657D01*
X58285714Y-24152657D02*
X58333333Y-24247895D01*
X58333333Y-24247895D02*
X58333333Y-24390752D01*
X58333333Y-24390752D02*
X58285714Y-24485990D01*
X58285714Y-24485990D02*
X58238095Y-24533609D01*
X58238095Y-24533609D02*
X58142857Y-24581228D01*
X58142857Y-24581228D02*
X57761905Y-24581228D01*
X58714286Y-24152657D02*
X58761905Y-24105038D01*
X58761905Y-24105038D02*
X58857143Y-24057419D01*
X58857143Y-24057419D02*
X59095238Y-24057419D01*
X59095238Y-24057419D02*
X59190476Y-24105038D01*
X59190476Y-24105038D02*
X59238095Y-24152657D01*
X59238095Y-24152657D02*
X59285714Y-24247895D01*
X59285714Y-24247895D02*
X59285714Y-24343133D01*
X59285714Y-24343133D02*
X59238095Y-24485990D01*
X59238095Y-24485990D02*
X58666667Y-25057419D01*
X58666667Y-25057419D02*
X59285714Y-25057419D01*
X58333333Y-22457419D02*
X58000000Y-21981228D01*
X57761905Y-22457419D02*
X57761905Y-21457419D01*
X57761905Y-21457419D02*
X58142857Y-21457419D01*
X58142857Y-21457419D02*
X58238095Y-21505038D01*
X58238095Y-21505038D02*
X58285714Y-21552657D01*
X58285714Y-21552657D02*
X58333333Y-21647895D01*
X58333333Y-21647895D02*
X58333333Y-21790752D01*
X58333333Y-21790752D02*
X58285714Y-21885990D01*
X58285714Y-21885990D02*
X58238095Y-21933609D01*
X58238095Y-21933609D02*
X58142857Y-21981228D01*
X58142857Y-21981228D02*
X57761905Y-21981228D01*
X59285714Y-22457419D02*
X58714286Y-22457419D01*
X59000000Y-22457419D02*
X59000000Y-21457419D01*
X59000000Y-21457419D02*
X58904762Y-21600276D01*
X58904762Y-21600276D02*
X58809524Y-21695514D01*
X58809524Y-21695514D02*
X58714286Y-21743133D01*
D13*
X91099819Y-38258333D02*
X91814104Y-38258333D01*
X91814104Y-38258333D02*
X91956961Y-38305952D01*
X91956961Y-38305952D02*
X92052200Y-38401190D01*
X92052200Y-38401190D02*
X92099819Y-38544047D01*
X92099819Y-38544047D02*
X92099819Y-38639285D01*
X91099819Y-37353571D02*
X91099819Y-37544047D01*
X91099819Y-37544047D02*
X91147438Y-37639285D01*
X91147438Y-37639285D02*
X91195057Y-37686904D01*
X91195057Y-37686904D02*
X91337914Y-37782142D01*
X91337914Y-37782142D02*
X91528390Y-37829761D01*
X91528390Y-37829761D02*
X91909342Y-37829761D01*
X91909342Y-37829761D02*
X92004580Y-37782142D01*
X92004580Y-37782142D02*
X92052200Y-37734523D01*
X92052200Y-37734523D02*
X92099819Y-37639285D01*
X92099819Y-37639285D02*
X92099819Y-37448809D01*
X92099819Y-37448809D02*
X92052200Y-37353571D01*
X92052200Y-37353571D02*
X92004580Y-37305952D01*
X92004580Y-37305952D02*
X91909342Y-37258333D01*
X91909342Y-37258333D02*
X91671247Y-37258333D01*
X91671247Y-37258333D02*
X91576009Y-37305952D01*
X91576009Y-37305952D02*
X91528390Y-37353571D01*
X91528390Y-37353571D02*
X91480771Y-37448809D01*
X91480771Y-37448809D02*
X91480771Y-37639285D01*
X91480771Y-37639285D02*
X91528390Y-37734523D01*
X91528390Y-37734523D02*
X91576009Y-37782142D01*
X91576009Y-37782142D02*
X91671247Y-37829761D01*
X86024819Y-33633333D02*
X86739104Y-33633333D01*
X86739104Y-33633333D02*
X86881961Y-33680952D01*
X86881961Y-33680952D02*
X86977200Y-33776190D01*
X86977200Y-33776190D02*
X87024819Y-33919047D01*
X87024819Y-33919047D02*
X87024819Y-34014285D01*
X86024819Y-32680952D02*
X86024819Y-33157142D01*
X86024819Y-33157142D02*
X86501009Y-33204761D01*
X86501009Y-33204761D02*
X86453390Y-33157142D01*
X86453390Y-33157142D02*
X86405771Y-33061904D01*
X86405771Y-33061904D02*
X86405771Y-32823809D01*
X86405771Y-32823809D02*
X86453390Y-32728571D01*
X86453390Y-32728571D02*
X86501009Y-32680952D01*
X86501009Y-32680952D02*
X86596247Y-32633333D01*
X86596247Y-32633333D02*
X86834342Y-32633333D01*
X86834342Y-32633333D02*
X86929580Y-32680952D01*
X86929580Y-32680952D02*
X86977200Y-32728571D01*
X86977200Y-32728571D02*
X87024819Y-32823809D01*
X87024819Y-32823809D02*
X87024819Y-33061904D01*
X87024819Y-33061904D02*
X86977200Y-33157142D01*
X86977200Y-33157142D02*
X86929580Y-33204761D01*
X121854819Y-66033333D02*
X122569104Y-66033333D01*
X122569104Y-66033333D02*
X122711961Y-66080952D01*
X122711961Y-66080952D02*
X122807200Y-66176190D01*
X122807200Y-66176190D02*
X122854819Y-66319047D01*
X122854819Y-66319047D02*
X122854819Y-66414285D01*
X122188152Y-65128571D02*
X122854819Y-65128571D01*
X121807200Y-65366666D02*
X122521485Y-65604761D01*
X122521485Y-65604761D02*
X122521485Y-64985714D01*
X121854819Y-42033333D02*
X122569104Y-42033333D01*
X122569104Y-42033333D02*
X122711961Y-42080952D01*
X122711961Y-42080952D02*
X122807200Y-42176190D01*
X122807200Y-42176190D02*
X122854819Y-42319047D01*
X122854819Y-42319047D02*
X122854819Y-42414285D01*
X121854819Y-41652380D02*
X121854819Y-41033333D01*
X121854819Y-41033333D02*
X122235771Y-41366666D01*
X122235771Y-41366666D02*
X122235771Y-41223809D01*
X122235771Y-41223809D02*
X122283390Y-41128571D01*
X122283390Y-41128571D02*
X122331009Y-41080952D01*
X122331009Y-41080952D02*
X122426247Y-41033333D01*
X122426247Y-41033333D02*
X122664342Y-41033333D01*
X122664342Y-41033333D02*
X122759580Y-41080952D01*
X122759580Y-41080952D02*
X122807200Y-41128571D01*
X122807200Y-41128571D02*
X122854819Y-41223809D01*
X122854819Y-41223809D02*
X122854819Y-41509523D01*
X122854819Y-41509523D02*
X122807200Y-41604761D01*
X122807200Y-41604761D02*
X122759580Y-41652380D01*
X111866666Y-82184819D02*
X111866666Y-82899104D01*
X111866666Y-82899104D02*
X111819047Y-83041961D01*
X111819047Y-83041961D02*
X111723809Y-83137200D01*
X111723809Y-83137200D02*
X111580952Y-83184819D01*
X111580952Y-83184819D02*
X111485714Y-83184819D01*
X112295238Y-82280057D02*
X112342857Y-82232438D01*
X112342857Y-82232438D02*
X112438095Y-82184819D01*
X112438095Y-82184819D02*
X112676190Y-82184819D01*
X112676190Y-82184819D02*
X112771428Y-82232438D01*
X112771428Y-82232438D02*
X112819047Y-82280057D01*
X112819047Y-82280057D02*
X112866666Y-82375295D01*
X112866666Y-82375295D02*
X112866666Y-82470533D01*
X112866666Y-82470533D02*
X112819047Y-82613390D01*
X112819047Y-82613390D02*
X112247619Y-83184819D01*
X112247619Y-83184819D02*
X112866666Y-83184819D01*
X111866666Y-71684819D02*
X111866666Y-72399104D01*
X111866666Y-72399104D02*
X111819047Y-72541961D01*
X111819047Y-72541961D02*
X111723809Y-72637200D01*
X111723809Y-72637200D02*
X111580952Y-72684819D01*
X111580952Y-72684819D02*
X111485714Y-72684819D01*
X112866666Y-72684819D02*
X112295238Y-72684819D01*
X112580952Y-72684819D02*
X112580952Y-71684819D01*
X112580952Y-71684819D02*
X112485714Y-71827676D01*
X112485714Y-71827676D02*
X112390476Y-71922914D01*
X112390476Y-71922914D02*
X112295238Y-71970533D01*
D10*
X103761905Y-55557419D02*
X103761905Y-54557419D01*
X103761905Y-54557419D02*
X104000000Y-54557419D01*
X104000000Y-54557419D02*
X104142857Y-54605038D01*
X104142857Y-54605038D02*
X104238095Y-54700276D01*
X104238095Y-54700276D02*
X104285714Y-54795514D01*
X104285714Y-54795514D02*
X104333333Y-54985990D01*
X104333333Y-54985990D02*
X104333333Y-55128847D01*
X104333333Y-55128847D02*
X104285714Y-55319323D01*
X104285714Y-55319323D02*
X104238095Y-55414561D01*
X104238095Y-55414561D02*
X104142857Y-55509800D01*
X104142857Y-55509800D02*
X104000000Y-55557419D01*
X104000000Y-55557419D02*
X103761905Y-55557419D01*
X105190476Y-54890752D02*
X105190476Y-55557419D01*
X104952381Y-54509800D02*
X104714286Y-55224085D01*
X104714286Y-55224085D02*
X105333333Y-55224085D01*
X91061905Y-55557419D02*
X91061905Y-54557419D01*
X91061905Y-54557419D02*
X91300000Y-54557419D01*
X91300000Y-54557419D02*
X91442857Y-54605038D01*
X91442857Y-54605038D02*
X91538095Y-54700276D01*
X91538095Y-54700276D02*
X91585714Y-54795514D01*
X91585714Y-54795514D02*
X91633333Y-54985990D01*
X91633333Y-54985990D02*
X91633333Y-55128847D01*
X91633333Y-55128847D02*
X91585714Y-55319323D01*
X91585714Y-55319323D02*
X91538095Y-55414561D01*
X91538095Y-55414561D02*
X91442857Y-55509800D01*
X91442857Y-55509800D02*
X91300000Y-55557419D01*
X91300000Y-55557419D02*
X91061905Y-55557419D01*
X91966667Y-54557419D02*
X92585714Y-54557419D01*
X92585714Y-54557419D02*
X92252381Y-54938371D01*
X92252381Y-54938371D02*
X92395238Y-54938371D01*
X92395238Y-54938371D02*
X92490476Y-54985990D01*
X92490476Y-54985990D02*
X92538095Y-55033609D01*
X92538095Y-55033609D02*
X92585714Y-55128847D01*
X92585714Y-55128847D02*
X92585714Y-55366942D01*
X92585714Y-55366942D02*
X92538095Y-55462180D01*
X92538095Y-55462180D02*
X92490476Y-55509800D01*
X92490476Y-55509800D02*
X92395238Y-55557419D01*
X92395238Y-55557419D02*
X92109524Y-55557419D01*
X92109524Y-55557419D02*
X92014286Y-55509800D01*
X92014286Y-55509800D02*
X91966667Y-55462180D01*
X76061905Y-55557419D02*
X76061905Y-54557419D01*
X76061905Y-54557419D02*
X76300000Y-54557419D01*
X76300000Y-54557419D02*
X76442857Y-54605038D01*
X76442857Y-54605038D02*
X76538095Y-54700276D01*
X76538095Y-54700276D02*
X76585714Y-54795514D01*
X76585714Y-54795514D02*
X76633333Y-54985990D01*
X76633333Y-54985990D02*
X76633333Y-55128847D01*
X76633333Y-55128847D02*
X76585714Y-55319323D01*
X76585714Y-55319323D02*
X76538095Y-55414561D01*
X76538095Y-55414561D02*
X76442857Y-55509800D01*
X76442857Y-55509800D02*
X76300000Y-55557419D01*
X76300000Y-55557419D02*
X76061905Y-55557419D01*
X77014286Y-54652657D02*
X77061905Y-54605038D01*
X77061905Y-54605038D02*
X77157143Y-54557419D01*
X77157143Y-54557419D02*
X77395238Y-54557419D01*
X77395238Y-54557419D02*
X77490476Y-54605038D01*
X77490476Y-54605038D02*
X77538095Y-54652657D01*
X77538095Y-54652657D02*
X77585714Y-54747895D01*
X77585714Y-54747895D02*
X77585714Y-54843133D01*
X77585714Y-54843133D02*
X77538095Y-54985990D01*
X77538095Y-54985990D02*
X76966667Y-55557419D01*
X76966667Y-55557419D02*
X77585714Y-55557419D01*
X60861905Y-55557419D02*
X60861905Y-54557419D01*
X60861905Y-54557419D02*
X61100000Y-54557419D01*
X61100000Y-54557419D02*
X61242857Y-54605038D01*
X61242857Y-54605038D02*
X61338095Y-54700276D01*
X61338095Y-54700276D02*
X61385714Y-54795514D01*
X61385714Y-54795514D02*
X61433333Y-54985990D01*
X61433333Y-54985990D02*
X61433333Y-55128847D01*
X61433333Y-55128847D02*
X61385714Y-55319323D01*
X61385714Y-55319323D02*
X61338095Y-55414561D01*
X61338095Y-55414561D02*
X61242857Y-55509800D01*
X61242857Y-55509800D02*
X61100000Y-55557419D01*
X61100000Y-55557419D02*
X60861905Y-55557419D01*
X62385714Y-55557419D02*
X61814286Y-55557419D01*
X62100000Y-55557419D02*
X62100000Y-54557419D01*
X62100000Y-54557419D02*
X62004762Y-54700276D01*
X62004762Y-54700276D02*
X61909524Y-54795514D01*
X61909524Y-54795514D02*
X61814286Y-54843133D01*
X118033333Y-75962180D02*
X117985714Y-76009800D01*
X117985714Y-76009800D02*
X117842857Y-76057419D01*
X117842857Y-76057419D02*
X117747619Y-76057419D01*
X117747619Y-76057419D02*
X117604762Y-76009800D01*
X117604762Y-76009800D02*
X117509524Y-75914561D01*
X117509524Y-75914561D02*
X117461905Y-75819323D01*
X117461905Y-75819323D02*
X117414286Y-75628847D01*
X117414286Y-75628847D02*
X117414286Y-75485990D01*
X117414286Y-75485990D02*
X117461905Y-75295514D01*
X117461905Y-75295514D02*
X117509524Y-75200276D01*
X117509524Y-75200276D02*
X117604762Y-75105038D01*
X117604762Y-75105038D02*
X117747619Y-75057419D01*
X117747619Y-75057419D02*
X117842857Y-75057419D01*
X117842857Y-75057419D02*
X117985714Y-75105038D01*
X117985714Y-75105038D02*
X118033333Y-75152657D01*
X118604762Y-75485990D02*
X118509524Y-75438371D01*
X118509524Y-75438371D02*
X118461905Y-75390752D01*
X118461905Y-75390752D02*
X118414286Y-75295514D01*
X118414286Y-75295514D02*
X118414286Y-75247895D01*
X118414286Y-75247895D02*
X118461905Y-75152657D01*
X118461905Y-75152657D02*
X118509524Y-75105038D01*
X118509524Y-75105038D02*
X118604762Y-75057419D01*
X118604762Y-75057419D02*
X118795238Y-75057419D01*
X118795238Y-75057419D02*
X118890476Y-75105038D01*
X118890476Y-75105038D02*
X118938095Y-75152657D01*
X118938095Y-75152657D02*
X118985714Y-75247895D01*
X118985714Y-75247895D02*
X118985714Y-75295514D01*
X118985714Y-75295514D02*
X118938095Y-75390752D01*
X118938095Y-75390752D02*
X118890476Y-75438371D01*
X118890476Y-75438371D02*
X118795238Y-75485990D01*
X118795238Y-75485990D02*
X118604762Y-75485990D01*
X118604762Y-75485990D02*
X118509524Y-75533609D01*
X118509524Y-75533609D02*
X118461905Y-75581228D01*
X118461905Y-75581228D02*
X118414286Y-75676466D01*
X118414286Y-75676466D02*
X118414286Y-75866942D01*
X118414286Y-75866942D02*
X118461905Y-75962180D01*
X118461905Y-75962180D02*
X118509524Y-76009800D01*
X118509524Y-76009800D02*
X118604762Y-76057419D01*
X118604762Y-76057419D02*
X118795238Y-76057419D01*
X118795238Y-76057419D02*
X118890476Y-76009800D01*
X118890476Y-76009800D02*
X118938095Y-75962180D01*
X118938095Y-75962180D02*
X118985714Y-75866942D01*
X118985714Y-75866942D02*
X118985714Y-75676466D01*
X118985714Y-75676466D02*
X118938095Y-75581228D01*
X118938095Y-75581228D02*
X118890476Y-75533609D01*
X118890476Y-75533609D02*
X118795238Y-75485990D01*
X125633333Y-76062180D02*
X125585714Y-76109800D01*
X125585714Y-76109800D02*
X125442857Y-76157419D01*
X125442857Y-76157419D02*
X125347619Y-76157419D01*
X125347619Y-76157419D02*
X125204762Y-76109800D01*
X125204762Y-76109800D02*
X125109524Y-76014561D01*
X125109524Y-76014561D02*
X125061905Y-75919323D01*
X125061905Y-75919323D02*
X125014286Y-75728847D01*
X125014286Y-75728847D02*
X125014286Y-75585990D01*
X125014286Y-75585990D02*
X125061905Y-75395514D01*
X125061905Y-75395514D02*
X125109524Y-75300276D01*
X125109524Y-75300276D02*
X125204762Y-75205038D01*
X125204762Y-75205038D02*
X125347619Y-75157419D01*
X125347619Y-75157419D02*
X125442857Y-75157419D01*
X125442857Y-75157419D02*
X125585714Y-75205038D01*
X125585714Y-75205038D02*
X125633333Y-75252657D01*
X125966667Y-75157419D02*
X126633333Y-75157419D01*
X126633333Y-75157419D02*
X126204762Y-76157419D01*
D13*
X118233333Y-67659580D02*
X118185714Y-67707200D01*
X118185714Y-67707200D02*
X118042857Y-67754819D01*
X118042857Y-67754819D02*
X117947619Y-67754819D01*
X117947619Y-67754819D02*
X117804762Y-67707200D01*
X117804762Y-67707200D02*
X117709524Y-67611961D01*
X117709524Y-67611961D02*
X117661905Y-67516723D01*
X117661905Y-67516723D02*
X117614286Y-67326247D01*
X117614286Y-67326247D02*
X117614286Y-67183390D01*
X117614286Y-67183390D02*
X117661905Y-66992914D01*
X117661905Y-66992914D02*
X117709524Y-66897676D01*
X117709524Y-66897676D02*
X117804762Y-66802438D01*
X117804762Y-66802438D02*
X117947619Y-66754819D01*
X117947619Y-66754819D02*
X118042857Y-66754819D01*
X118042857Y-66754819D02*
X118185714Y-66802438D01*
X118185714Y-66802438D02*
X118233333Y-66850057D01*
X119090476Y-66754819D02*
X118900000Y-66754819D01*
X118900000Y-66754819D02*
X118804762Y-66802438D01*
X118804762Y-66802438D02*
X118757143Y-66850057D01*
X118757143Y-66850057D02*
X118661905Y-66992914D01*
X118661905Y-66992914D02*
X118614286Y-67183390D01*
X118614286Y-67183390D02*
X118614286Y-67564342D01*
X118614286Y-67564342D02*
X118661905Y-67659580D01*
X118661905Y-67659580D02*
X118709524Y-67707200D01*
X118709524Y-67707200D02*
X118804762Y-67754819D01*
X118804762Y-67754819D02*
X118995238Y-67754819D01*
X118995238Y-67754819D02*
X119090476Y-67707200D01*
X119090476Y-67707200D02*
X119138095Y-67659580D01*
X119138095Y-67659580D02*
X119185714Y-67564342D01*
X119185714Y-67564342D02*
X119185714Y-67326247D01*
X119185714Y-67326247D02*
X119138095Y-67231009D01*
X119138095Y-67231009D02*
X119090476Y-67183390D01*
X119090476Y-67183390D02*
X118995238Y-67135771D01*
X118995238Y-67135771D02*
X118804762Y-67135771D01*
X118804762Y-67135771D02*
X118709524Y-67183390D01*
X118709524Y-67183390D02*
X118661905Y-67231009D01*
X118661905Y-67231009D02*
X118614286Y-67326247D01*
X125833333Y-67659580D02*
X125785714Y-67707200D01*
X125785714Y-67707200D02*
X125642857Y-67754819D01*
X125642857Y-67754819D02*
X125547619Y-67754819D01*
X125547619Y-67754819D02*
X125404762Y-67707200D01*
X125404762Y-67707200D02*
X125309524Y-67611961D01*
X125309524Y-67611961D02*
X125261905Y-67516723D01*
X125261905Y-67516723D02*
X125214286Y-67326247D01*
X125214286Y-67326247D02*
X125214286Y-67183390D01*
X125214286Y-67183390D02*
X125261905Y-66992914D01*
X125261905Y-66992914D02*
X125309524Y-66897676D01*
X125309524Y-66897676D02*
X125404762Y-66802438D01*
X125404762Y-66802438D02*
X125547619Y-66754819D01*
X125547619Y-66754819D02*
X125642857Y-66754819D01*
X125642857Y-66754819D02*
X125785714Y-66802438D01*
X125785714Y-66802438D02*
X125833333Y-66850057D01*
X126738095Y-66754819D02*
X126261905Y-66754819D01*
X126261905Y-66754819D02*
X126214286Y-67231009D01*
X126214286Y-67231009D02*
X126261905Y-67183390D01*
X126261905Y-67183390D02*
X126357143Y-67135771D01*
X126357143Y-67135771D02*
X126595238Y-67135771D01*
X126595238Y-67135771D02*
X126690476Y-67183390D01*
X126690476Y-67183390D02*
X126738095Y-67231009D01*
X126738095Y-67231009D02*
X126785714Y-67326247D01*
X126785714Y-67326247D02*
X126785714Y-67564342D01*
X126785714Y-67564342D02*
X126738095Y-67659580D01*
X126738095Y-67659580D02*
X126690476Y-67707200D01*
X126690476Y-67707200D02*
X126595238Y-67754819D01*
X126595238Y-67754819D02*
X126357143Y-67754819D01*
X126357143Y-67754819D02*
X126261905Y-67707200D01*
X126261905Y-67707200D02*
X126214286Y-67659580D01*
D10*
X125933333Y-51762180D02*
X125885714Y-51809800D01*
X125885714Y-51809800D02*
X125742857Y-51857419D01*
X125742857Y-51857419D02*
X125647619Y-51857419D01*
X125647619Y-51857419D02*
X125504762Y-51809800D01*
X125504762Y-51809800D02*
X125409524Y-51714561D01*
X125409524Y-51714561D02*
X125361905Y-51619323D01*
X125361905Y-51619323D02*
X125314286Y-51428847D01*
X125314286Y-51428847D02*
X125314286Y-51285990D01*
X125314286Y-51285990D02*
X125361905Y-51095514D01*
X125361905Y-51095514D02*
X125409524Y-51000276D01*
X125409524Y-51000276D02*
X125504762Y-50905038D01*
X125504762Y-50905038D02*
X125647619Y-50857419D01*
X125647619Y-50857419D02*
X125742857Y-50857419D01*
X125742857Y-50857419D02*
X125885714Y-50905038D01*
X125885714Y-50905038D02*
X125933333Y-50952657D01*
X126314286Y-50952657D02*
X126361905Y-50905038D01*
X126361905Y-50905038D02*
X126457143Y-50857419D01*
X126457143Y-50857419D02*
X126695238Y-50857419D01*
X126695238Y-50857419D02*
X126790476Y-50905038D01*
X126790476Y-50905038D02*
X126838095Y-50952657D01*
X126838095Y-50952657D02*
X126885714Y-51047895D01*
X126885714Y-51047895D02*
X126885714Y-51143133D01*
X126885714Y-51143133D02*
X126838095Y-51285990D01*
X126838095Y-51285990D02*
X126266667Y-51857419D01*
X126266667Y-51857419D02*
X126885714Y-51857419D01*
X119062180Y-56866666D02*
X119109800Y-56914285D01*
X119109800Y-56914285D02*
X119157419Y-57057142D01*
X119157419Y-57057142D02*
X119157419Y-57152380D01*
X119157419Y-57152380D02*
X119109800Y-57295237D01*
X119109800Y-57295237D02*
X119014561Y-57390475D01*
X119014561Y-57390475D02*
X118919323Y-57438094D01*
X118919323Y-57438094D02*
X118728847Y-57485713D01*
X118728847Y-57485713D02*
X118585990Y-57485713D01*
X118585990Y-57485713D02*
X118395514Y-57438094D01*
X118395514Y-57438094D02*
X118300276Y-57390475D01*
X118300276Y-57390475D02*
X118205038Y-57295237D01*
X118205038Y-57295237D02*
X118157419Y-57152380D01*
X118157419Y-57152380D02*
X118157419Y-57057142D01*
X118157419Y-57057142D02*
X118205038Y-56914285D01*
X118205038Y-56914285D02*
X118252657Y-56866666D01*
X119157419Y-55914285D02*
X119157419Y-56485713D01*
X119157419Y-56199999D02*
X118157419Y-56199999D01*
X118157419Y-56199999D02*
X118300276Y-56295237D01*
X118300276Y-56295237D02*
X118395514Y-56390475D01*
X118395514Y-56390475D02*
X118443133Y-56485713D01*
%TO.C,U5*%
X106180000Y-43680000D02*
X106180000Y-41880000D01*
X106180000Y-43680000D02*
X116180000Y-43680000D01*
X116180000Y-43680000D02*
X116380000Y-43680000D01*
X116380000Y-43680000D02*
X116380000Y-41980000D01*
%TO.C,IO13*%
X121440888Y-23618888D02*
X122456888Y-23618888D01*
X121948888Y-23110888D02*
X121948888Y-24126888D01*
X126421112Y-22218888D02*
G75*
G02*
X122216664Y-22218888I-2102224J0D01*
G01*
X122216664Y-22218888D02*
G75*
G02*
X126421112Y-22218888I2102224J0D01*
G01*
%TO.C,IO12*%
X115840888Y-23518888D02*
X116856888Y-23518888D01*
X116348888Y-23010888D02*
X116348888Y-24026888D01*
X121021112Y-22218888D02*
G75*
G02*
X116816664Y-22218888I-2102224J0D01*
G01*
X116816664Y-22218888D02*
G75*
G02*
X121021112Y-22218888I2102224J0D01*
G01*
%TO.C,Bluepill1*%
X49600000Y-72440000D02*
X49600000Y-69640000D01*
X47900000Y-72440000D02*
X49600000Y-72440000D01*
X43500000Y-72440000D02*
X47900000Y-72440000D01*
X36300000Y-72440000D02*
X31800000Y-72440000D01*
D14*
X36300000Y-69740000D02*
X43500000Y-69740000D01*
X43500000Y-75140000D01*
X36300000Y-75140000D01*
X36300000Y-69740000D01*
%TO.C,R18*%
D10*
X118244000Y-36900000D02*
X116844000Y-36900000D01*
X116844000Y-42600000D01*
X118244000Y-42600000D01*
X118244000Y-36900000D01*
%TO.C,R17*%
X121044000Y-36900000D02*
X119644000Y-36900000D01*
X119644000Y-42600000D01*
X121044000Y-42600000D01*
X121044000Y-36900000D01*
D15*
%TO.C,C4*%
X122749759Y-44461000D02*
X123379759Y-44461000D01*
X123064759Y-44146000D02*
X123064759Y-44776000D01*
X126250000Y-43070000D02*
X126250000Y-49530000D01*
X126290000Y-43070000D02*
X126290000Y-49530000D01*
X126330000Y-43070000D02*
X126330000Y-49530000D01*
X126370000Y-43072000D02*
X126370000Y-49528000D01*
X126410000Y-43073000D02*
X126410000Y-49527000D01*
X126450000Y-43076000D02*
X126450000Y-49524000D01*
X126490000Y-43078000D02*
X126490000Y-45260000D01*
X126490000Y-47340000D02*
X126490000Y-49522000D01*
X126530000Y-43082000D02*
X126530000Y-45260000D01*
X126530000Y-47340000D02*
X126530000Y-49518000D01*
X126570000Y-43085000D02*
X126570000Y-45260000D01*
X126570000Y-47340000D02*
X126570000Y-49515000D01*
X126610000Y-43089000D02*
X126610000Y-45260000D01*
X126610000Y-47340000D02*
X126610000Y-49511000D01*
X126650000Y-43094000D02*
X126650000Y-45260000D01*
X126650000Y-47340000D02*
X126650000Y-49506000D01*
X126690000Y-43099000D02*
X126690000Y-45260000D01*
X126690000Y-47340000D02*
X126690000Y-49501000D01*
X126730000Y-43105000D02*
X126730000Y-45260000D01*
X126730000Y-47340000D02*
X126730000Y-49495000D01*
X126770000Y-43111000D02*
X126770000Y-45260000D01*
X126770000Y-47340000D02*
X126770000Y-49489000D01*
X126810000Y-43118000D02*
X126810000Y-45260000D01*
X126810000Y-47340000D02*
X126810000Y-49482000D01*
X126850000Y-43125000D02*
X126850000Y-45260000D01*
X126850000Y-47340000D02*
X126850000Y-49475000D01*
X126890000Y-43133000D02*
X126890000Y-45260000D01*
X126890000Y-47340000D02*
X126890000Y-49467000D01*
X126930000Y-43141000D02*
X126930000Y-45260000D01*
X126930000Y-47340000D02*
X126930000Y-49459000D01*
X126971000Y-43150000D02*
X126971000Y-45260000D01*
X126971000Y-47340000D02*
X126971000Y-49450000D01*
X127011000Y-43159000D02*
X127011000Y-45260000D01*
X127011000Y-47340000D02*
X127011000Y-49441000D01*
X127051000Y-43169000D02*
X127051000Y-45260000D01*
X127051000Y-47340000D02*
X127051000Y-49431000D01*
X127091000Y-43179000D02*
X127091000Y-45260000D01*
X127091000Y-47340000D02*
X127091000Y-49421000D01*
X127131000Y-43190000D02*
X127131000Y-45260000D01*
X127131000Y-47340000D02*
X127131000Y-49410000D01*
X127171000Y-43202000D02*
X127171000Y-45260000D01*
X127171000Y-47340000D02*
X127171000Y-49398000D01*
X127211000Y-43214000D02*
X127211000Y-45260000D01*
X127211000Y-47340000D02*
X127211000Y-49386000D01*
X127251000Y-43226000D02*
X127251000Y-45260000D01*
X127251000Y-47340000D02*
X127251000Y-49374000D01*
X127291000Y-43239000D02*
X127291000Y-45260000D01*
X127291000Y-47340000D02*
X127291000Y-49361000D01*
X127331000Y-43253000D02*
X127331000Y-45260000D01*
X127331000Y-47340000D02*
X127331000Y-49347000D01*
X127371000Y-43267000D02*
X127371000Y-45260000D01*
X127371000Y-47340000D02*
X127371000Y-49333000D01*
X127411000Y-43282000D02*
X127411000Y-45260000D01*
X127411000Y-47340000D02*
X127411000Y-49318000D01*
X127451000Y-43298000D02*
X127451000Y-45260000D01*
X127451000Y-47340000D02*
X127451000Y-49302000D01*
X127491000Y-43314000D02*
X127491000Y-45260000D01*
X127491000Y-47340000D02*
X127491000Y-49286000D01*
X127531000Y-43330000D02*
X127531000Y-45260000D01*
X127531000Y-47340000D02*
X127531000Y-49270000D01*
X127571000Y-43348000D02*
X127571000Y-45260000D01*
X127571000Y-47340000D02*
X127571000Y-49252000D01*
X127611000Y-43366000D02*
X127611000Y-45260000D01*
X127611000Y-47340000D02*
X127611000Y-49234000D01*
X127651000Y-43384000D02*
X127651000Y-45260000D01*
X127651000Y-47340000D02*
X127651000Y-49216000D01*
X127691000Y-43404000D02*
X127691000Y-45260000D01*
X127691000Y-47340000D02*
X127691000Y-49196000D01*
X127731000Y-43424000D02*
X127731000Y-45260000D01*
X127731000Y-47340000D02*
X127731000Y-49176000D01*
X127771000Y-43444000D02*
X127771000Y-45260000D01*
X127771000Y-47340000D02*
X127771000Y-49156000D01*
X127811000Y-43466000D02*
X127811000Y-45260000D01*
X127811000Y-47340000D02*
X127811000Y-49134000D01*
X127851000Y-43488000D02*
X127851000Y-45260000D01*
X127851000Y-47340000D02*
X127851000Y-49112000D01*
X127891000Y-43510000D02*
X127891000Y-45260000D01*
X127891000Y-47340000D02*
X127891000Y-49090000D01*
X127931000Y-43534000D02*
X127931000Y-45260000D01*
X127931000Y-47340000D02*
X127931000Y-49066000D01*
X127971000Y-43558000D02*
X127971000Y-45260000D01*
X127971000Y-47340000D02*
X127971000Y-49042000D01*
X128011000Y-43584000D02*
X128011000Y-45260000D01*
X128011000Y-47340000D02*
X128011000Y-49016000D01*
X128051000Y-43610000D02*
X128051000Y-45260000D01*
X128051000Y-47340000D02*
X128051000Y-48990000D01*
X128091000Y-43636000D02*
X128091000Y-45260000D01*
X128091000Y-47340000D02*
X128091000Y-48964000D01*
X128131000Y-43664000D02*
X128131000Y-45260000D01*
X128131000Y-47340000D02*
X128131000Y-48936000D01*
X128171000Y-43693000D02*
X128171000Y-45260000D01*
X128171000Y-47340000D02*
X128171000Y-48907000D01*
X128211000Y-43722000D02*
X128211000Y-45260000D01*
X128211000Y-47340000D02*
X128211000Y-48878000D01*
X128251000Y-43752000D02*
X128251000Y-45260000D01*
X128251000Y-47340000D02*
X128251000Y-48848000D01*
X128291000Y-43784000D02*
X128291000Y-45260000D01*
X128291000Y-47340000D02*
X128291000Y-48816000D01*
X128331000Y-43816000D02*
X128331000Y-45260000D01*
X128331000Y-47340000D02*
X128331000Y-48784000D01*
X128371000Y-43850000D02*
X128371000Y-45260000D01*
X128371000Y-47340000D02*
X128371000Y-48750000D01*
X128411000Y-43884000D02*
X128411000Y-45260000D01*
X128411000Y-47340000D02*
X128411000Y-48716000D01*
X128451000Y-43920000D02*
X128451000Y-45260000D01*
X128451000Y-47340000D02*
X128451000Y-48680000D01*
X128491000Y-43957000D02*
X128491000Y-45260000D01*
X128491000Y-47340000D02*
X128491000Y-48643000D01*
X128531000Y-43995000D02*
X128531000Y-45260000D01*
X128531000Y-47340000D02*
X128531000Y-48605000D01*
X128571000Y-44035000D02*
X128571000Y-48565000D01*
X128611000Y-44076000D02*
X128611000Y-48524000D01*
X128651000Y-44118000D02*
X128651000Y-48482000D01*
X128691000Y-44163000D02*
X128691000Y-48437000D01*
X128731000Y-44208000D02*
X128731000Y-48392000D01*
X128771000Y-44256000D02*
X128771000Y-48344000D01*
X128811000Y-44305000D02*
X128811000Y-48295000D01*
X128851000Y-44356000D02*
X128851000Y-48244000D01*
X128891000Y-44410000D02*
X128891000Y-48190000D01*
X128931000Y-44466000D02*
X128931000Y-48134000D01*
X128971000Y-44524000D02*
X128971000Y-48076000D01*
X129011000Y-44586000D02*
X129011000Y-48014000D01*
X129051000Y-44650000D02*
X129051000Y-47950000D01*
X129091000Y-44719000D02*
X129091000Y-47881000D01*
X129131000Y-44791000D02*
X129131000Y-47809000D01*
X129171000Y-44868000D02*
X129171000Y-47732000D01*
X129211000Y-44950000D02*
X129211000Y-47650000D01*
X129251000Y-45038000D02*
X129251000Y-47562000D01*
X129291000Y-45135000D02*
X129291000Y-47465000D01*
X129331000Y-45241000D02*
X129331000Y-47359000D01*
X129371000Y-45360000D02*
X129371000Y-47240000D01*
X129411000Y-45498000D02*
X129411000Y-47102000D01*
X129451000Y-45667000D02*
X129451000Y-46933000D01*
X129491000Y-45898000D02*
X129491000Y-46702000D01*
X129520000Y-46300000D02*
G75*
G02*
X122980000Y-46300000I-3270000J0D01*
G01*
X122980000Y-46300000D02*
G75*
G02*
X129520000Y-46300000I3270000J0D01*
G01*
%TO.C,C3*%
X115339000Y-53049759D02*
X115339000Y-53679759D01*
X115654000Y-53364759D02*
X115024000Y-53364759D01*
X116730000Y-56550000D02*
X110270000Y-56550000D01*
X116730000Y-56590000D02*
X110270000Y-56590000D01*
X116730000Y-56630000D02*
X110270000Y-56630000D01*
X116728000Y-56670000D02*
X110272000Y-56670000D01*
X116727000Y-56710000D02*
X110273000Y-56710000D01*
X116724000Y-56750000D02*
X110276000Y-56750000D01*
X116722000Y-56790000D02*
X114540000Y-56790000D01*
X112460000Y-56790000D02*
X110278000Y-56790000D01*
X116718000Y-56830000D02*
X114540000Y-56830000D01*
X112460000Y-56830000D02*
X110282000Y-56830000D01*
X116715000Y-56870000D02*
X114540000Y-56870000D01*
X112460000Y-56870000D02*
X110285000Y-56870000D01*
X116711000Y-56910000D02*
X114540000Y-56910000D01*
X112460000Y-56910000D02*
X110289000Y-56910000D01*
X116706000Y-56950000D02*
X114540000Y-56950000D01*
X112460000Y-56950000D02*
X110294000Y-56950000D01*
X116701000Y-56990000D02*
X114540000Y-56990000D01*
X112460000Y-56990000D02*
X110299000Y-56990000D01*
X116695000Y-57030000D02*
X114540000Y-57030000D01*
X112460000Y-57030000D02*
X110305000Y-57030000D01*
X116689000Y-57070000D02*
X114540000Y-57070000D01*
X112460000Y-57070000D02*
X110311000Y-57070000D01*
X116682000Y-57110000D02*
X114540000Y-57110000D01*
X112460000Y-57110000D02*
X110318000Y-57110000D01*
X116675000Y-57150000D02*
X114540000Y-57150000D01*
X112460000Y-57150000D02*
X110325000Y-57150000D01*
X116667000Y-57190000D02*
X114540000Y-57190000D01*
X112460000Y-57190000D02*
X110333000Y-57190000D01*
X116659000Y-57230000D02*
X114540000Y-57230000D01*
X112460000Y-57230000D02*
X110341000Y-57230000D01*
X116650000Y-57271000D02*
X114540000Y-57271000D01*
X112460000Y-57271000D02*
X110350000Y-57271000D01*
X116641000Y-57311000D02*
X114540000Y-57311000D01*
X112460000Y-57311000D02*
X110359000Y-57311000D01*
X116631000Y-57351000D02*
X114540000Y-57351000D01*
X112460000Y-57351000D02*
X110369000Y-57351000D01*
X116621000Y-57391000D02*
X114540000Y-57391000D01*
X112460000Y-57391000D02*
X110379000Y-57391000D01*
X116610000Y-57431000D02*
X114540000Y-57431000D01*
X112460000Y-57431000D02*
X110390000Y-57431000D01*
X116598000Y-57471000D02*
X114540000Y-57471000D01*
X112460000Y-57471000D02*
X110402000Y-57471000D01*
X116586000Y-57511000D02*
X114540000Y-57511000D01*
X112460000Y-57511000D02*
X110414000Y-57511000D01*
X116574000Y-57551000D02*
X114540000Y-57551000D01*
X112460000Y-57551000D02*
X110426000Y-57551000D01*
X116561000Y-57591000D02*
X114540000Y-57591000D01*
X112460000Y-57591000D02*
X110439000Y-57591000D01*
X116547000Y-57631000D02*
X114540000Y-57631000D01*
X112460000Y-57631000D02*
X110453000Y-57631000D01*
X116533000Y-57671000D02*
X114540000Y-57671000D01*
X112460000Y-57671000D02*
X110467000Y-57671000D01*
X116518000Y-57711000D02*
X114540000Y-57711000D01*
X112460000Y-57711000D02*
X110482000Y-57711000D01*
X116502000Y-57751000D02*
X114540000Y-57751000D01*
X112460000Y-57751000D02*
X110498000Y-57751000D01*
X116486000Y-57791000D02*
X114540000Y-57791000D01*
X112460000Y-57791000D02*
X110514000Y-57791000D01*
X116470000Y-57831000D02*
X114540000Y-57831000D01*
X112460000Y-57831000D02*
X110530000Y-57831000D01*
X116452000Y-57871000D02*
X114540000Y-57871000D01*
X112460000Y-57871000D02*
X110548000Y-57871000D01*
X116434000Y-57911000D02*
X114540000Y-57911000D01*
X112460000Y-57911000D02*
X110566000Y-57911000D01*
X116416000Y-57951000D02*
X114540000Y-57951000D01*
X112460000Y-57951000D02*
X110584000Y-57951000D01*
X116396000Y-57991000D02*
X114540000Y-57991000D01*
X112460000Y-57991000D02*
X110604000Y-57991000D01*
X116376000Y-58031000D02*
X114540000Y-58031000D01*
X112460000Y-58031000D02*
X110624000Y-58031000D01*
X116356000Y-58071000D02*
X114540000Y-58071000D01*
X112460000Y-58071000D02*
X110644000Y-58071000D01*
X116334000Y-58111000D02*
X114540000Y-58111000D01*
X112460000Y-58111000D02*
X110666000Y-58111000D01*
X116312000Y-58151000D02*
X114540000Y-58151000D01*
X112460000Y-58151000D02*
X110688000Y-58151000D01*
X116290000Y-58191000D02*
X114540000Y-58191000D01*
X112460000Y-58191000D02*
X110710000Y-58191000D01*
X116266000Y-58231000D02*
X114540000Y-58231000D01*
X112460000Y-58231000D02*
X110734000Y-58231000D01*
X116242000Y-58271000D02*
X114540000Y-58271000D01*
X112460000Y-58271000D02*
X110758000Y-58271000D01*
X116216000Y-58311000D02*
X114540000Y-58311000D01*
X112460000Y-58311000D02*
X110784000Y-58311000D01*
X116190000Y-58351000D02*
X114540000Y-58351000D01*
X112460000Y-58351000D02*
X110810000Y-58351000D01*
X116164000Y-58391000D02*
X114540000Y-58391000D01*
X112460000Y-58391000D02*
X110836000Y-58391000D01*
X116136000Y-58431000D02*
X114540000Y-58431000D01*
X112460000Y-58431000D02*
X110864000Y-58431000D01*
X116107000Y-58471000D02*
X114540000Y-58471000D01*
X112460000Y-58471000D02*
X110893000Y-58471000D01*
X116078000Y-58511000D02*
X114540000Y-58511000D01*
X112460000Y-58511000D02*
X110922000Y-58511000D01*
X116048000Y-58551000D02*
X114540000Y-58551000D01*
X112460000Y-58551000D02*
X110952000Y-58551000D01*
X116016000Y-58591000D02*
X114540000Y-58591000D01*
X112460000Y-58591000D02*
X110984000Y-58591000D01*
X115984000Y-58631000D02*
X114540000Y-58631000D01*
X112460000Y-58631000D02*
X111016000Y-58631000D01*
X115950000Y-58671000D02*
X114540000Y-58671000D01*
X112460000Y-58671000D02*
X111050000Y-58671000D01*
X115916000Y-58711000D02*
X114540000Y-58711000D01*
X112460000Y-58711000D02*
X111084000Y-58711000D01*
X115880000Y-58751000D02*
X114540000Y-58751000D01*
X112460000Y-58751000D02*
X111120000Y-58751000D01*
X115843000Y-58791000D02*
X114540000Y-58791000D01*
X112460000Y-58791000D02*
X111157000Y-58791000D01*
X115805000Y-58831000D02*
X114540000Y-58831000D01*
X112460000Y-58831000D02*
X111195000Y-58831000D01*
X115765000Y-58871000D02*
X111235000Y-58871000D01*
X115724000Y-58911000D02*
X111276000Y-58911000D01*
X115682000Y-58951000D02*
X111318000Y-58951000D01*
X115637000Y-58991000D02*
X111363000Y-58991000D01*
X115592000Y-59031000D02*
X111408000Y-59031000D01*
X115544000Y-59071000D02*
X111456000Y-59071000D01*
X115495000Y-59111000D02*
X111505000Y-59111000D01*
X115444000Y-59151000D02*
X111556000Y-59151000D01*
X115390000Y-59191000D02*
X111610000Y-59191000D01*
X115334000Y-59231000D02*
X111666000Y-59231000D01*
X115276000Y-59271000D02*
X111724000Y-59271000D01*
X115214000Y-59311000D02*
X111786000Y-59311000D01*
X115150000Y-59351000D02*
X111850000Y-59351000D01*
X115081000Y-59391000D02*
X111919000Y-59391000D01*
X115009000Y-59431000D02*
X111991000Y-59431000D01*
X114932000Y-59471000D02*
X112068000Y-59471000D01*
X114850000Y-59511000D02*
X112150000Y-59511000D01*
X114762000Y-59551000D02*
X112238000Y-59551000D01*
X114665000Y-59591000D02*
X112335000Y-59591000D01*
X114559000Y-59631000D02*
X112441000Y-59631000D01*
X114440000Y-59671000D02*
X112560000Y-59671000D01*
X114302000Y-59711000D02*
X112698000Y-59711000D01*
X114133000Y-59751000D02*
X112867000Y-59751000D01*
X113902000Y-59791000D02*
X113098000Y-59791000D01*
X116770000Y-56550000D02*
G75*
G02*
X110230000Y-56550000I-3270000J0D01*
G01*
X110230000Y-56550000D02*
G75*
G02*
X116770000Y-56550000I3270000J0D01*
G01*
%TO.C,SW5*%
X119510000Y-62270000D02*
X119510000Y-63600000D01*
X118180000Y-62270000D02*
X119510000Y-62270000D01*
X116910000Y-62270000D02*
X111770000Y-62270000D01*
X116910000Y-62270000D02*
X116910000Y-64930000D01*
X111770000Y-62270000D02*
X111770000Y-64930000D01*
X116910000Y-64930000D02*
X111770000Y-64930000D01*
%TO.C,U7*%
D10*
X121100000Y-53200000D02*
X129700000Y-53200000D01*
X129700000Y-53900000D01*
X121100000Y-53900000D01*
X121100000Y-53200000D01*
X121100000Y-53900000D02*
X129700000Y-53900000D01*
X129700000Y-56600000D01*
X121100000Y-56600000D01*
X121100000Y-53900000D01*
D15*
%TO.C,SW2*%
X103130000Y-29970000D02*
X103130000Y-31300000D01*
X101800000Y-29970000D02*
X103130000Y-29970000D01*
X100530000Y-29970000D02*
X95390000Y-29970000D01*
X100530000Y-29970000D02*
X100530000Y-32630000D01*
X95390000Y-29970000D02*
X95390000Y-32630000D01*
X100530000Y-32630000D02*
X95390000Y-32630000D01*
%TO.C,SW1*%
D10*
X95590000Y-35500000D02*
X103190000Y-35500000D01*
X103190000Y-39500000D01*
X95590000Y-39500000D01*
X95590000Y-35500000D01*
%TO.C,RV1*%
X102840000Y-27240000D02*
X95940000Y-27240000D01*
X95940000Y-20940000D01*
X102840000Y-20940000D01*
X102840000Y-27240000D01*
%TO.C,R12*%
X55500000Y-49916000D02*
X61200000Y-49916000D01*
X61200000Y-51316000D01*
X55500000Y-51316000D01*
X55500000Y-49916000D01*
%TO.C,R11*%
X55500000Y-47304000D02*
X61200000Y-47304000D01*
X61200000Y-48704000D01*
X55500000Y-48704000D01*
X55500000Y-47304000D01*
%TO.C,R10*%
X55500000Y-44692000D02*
X61200000Y-44692000D01*
X61200000Y-46092000D01*
X55500000Y-46092000D01*
X55500000Y-44692000D01*
%TO.C,R9*%
X55500000Y-42080000D02*
X61200000Y-42080000D01*
X61200000Y-43480000D01*
X55500000Y-43480000D01*
X55500000Y-42080000D01*
%TO.C,R8*%
X61300000Y-40700000D02*
X55600000Y-40700000D01*
X55600000Y-39300000D01*
X61300000Y-39300000D01*
X61300000Y-40700000D01*
%TO.C,R7*%
X61300000Y-38200000D02*
X55600000Y-38200000D01*
X55600000Y-36800000D01*
X61300000Y-36800000D01*
X61300000Y-38200000D01*
%TO.C,R6*%
X61300000Y-35444000D02*
X55600000Y-35444000D01*
X55600000Y-34044000D01*
X61300000Y-34044000D01*
X61300000Y-35444000D01*
%TO.C,R5*%
X61300000Y-32832000D02*
X55600000Y-32832000D01*
X55600000Y-31432000D01*
X61300000Y-31432000D01*
X61300000Y-32832000D01*
%TO.C,R4*%
X55500000Y-29020000D02*
X61200000Y-29020000D01*
X61200000Y-30420000D01*
X55500000Y-30420000D01*
X55500000Y-29020000D01*
%TO.C,R3*%
X55500000Y-26408000D02*
X61200000Y-26408000D01*
X61200000Y-27808000D01*
X55500000Y-27808000D01*
X55500000Y-26408000D01*
%TO.C,R2*%
X55500000Y-23796000D02*
X61200000Y-23796000D01*
X61200000Y-25196000D01*
X55500000Y-25196000D01*
X55500000Y-23796000D01*
%TO.C,R1*%
X55500000Y-21184000D02*
X61200000Y-21184000D01*
X61200000Y-22584000D01*
X55500000Y-22584000D01*
X55500000Y-21184000D01*
D15*
%TO.C,J6*%
X87605000Y-36595000D02*
X69765000Y-36595000D01*
X87605000Y-36595000D02*
X87605000Y-39255000D01*
X69765000Y-36595000D02*
X69765000Y-39255000D01*
X90205000Y-37925000D02*
X90205000Y-39255000D01*
X90205000Y-39255000D02*
X88875000Y-39255000D01*
X87605000Y-39255000D02*
X69765000Y-39255000D01*
%TO.C,J5*%
X82530000Y-31970000D02*
X74850000Y-31970000D01*
X82530000Y-31970000D02*
X82530000Y-34630000D01*
X74850000Y-31970000D02*
X74850000Y-34630000D01*
X85130000Y-33300000D02*
X85130000Y-34630000D01*
X85130000Y-34630000D02*
X83800000Y-34630000D01*
X82530000Y-34630000D02*
X74850000Y-34630000D01*
%TO.C,J4*%
X129750000Y-58150000D02*
X128500000Y-58150000D01*
X129460000Y-58440000D02*
X123490000Y-58440000D01*
X123490000Y-58440000D02*
X123490000Y-66060000D01*
X129450000Y-58450000D02*
X128700000Y-58450000D01*
X128700000Y-58450000D02*
X128700000Y-60250000D01*
X127200000Y-58450000D02*
X127200000Y-59200000D01*
X127200000Y-59200000D02*
X124250000Y-59200000D01*
X124250000Y-59200000D02*
X124250000Y-62250000D01*
X129750000Y-59400000D02*
X129750000Y-58150000D01*
X129450000Y-60250000D02*
X129450000Y-58450000D01*
X128700000Y-60250000D02*
X129450000Y-60250000D01*
X129450000Y-61750000D02*
X128700000Y-61750000D01*
X128700000Y-61750000D02*
X128700000Y-62750000D01*
X129450000Y-62750000D02*
X129450000Y-61750000D01*
X128700000Y-62750000D02*
X129450000Y-62750000D01*
X129450000Y-64250000D02*
X128700000Y-64250000D01*
X128700000Y-64250000D02*
X128700000Y-66050000D01*
X127200000Y-65300000D02*
X124250000Y-65300000D01*
X124250000Y-65300000D02*
X124250000Y-62250000D01*
X129450000Y-66050000D02*
X129450000Y-64250000D01*
X128700000Y-66050000D02*
X129450000Y-66050000D01*
X127200000Y-66050000D02*
X127200000Y-65300000D01*
X129460000Y-66060000D02*
X129460000Y-58440000D01*
X123490000Y-66060000D02*
X129460000Y-66060000D01*
%TO.C,J3*%
X129650000Y-34150000D02*
X128400000Y-34150000D01*
X129360000Y-34440000D02*
X123390000Y-34440000D01*
X123390000Y-34440000D02*
X123390000Y-42060000D01*
X129350000Y-34450000D02*
X128600000Y-34450000D01*
X128600000Y-34450000D02*
X128600000Y-36250000D01*
X127100000Y-34450000D02*
X127100000Y-35200000D01*
X127100000Y-35200000D02*
X124150000Y-35200000D01*
X124150000Y-35200000D02*
X124150000Y-38250000D01*
X129650000Y-35400000D02*
X129650000Y-34150000D01*
X129350000Y-36250000D02*
X129350000Y-34450000D01*
X128600000Y-36250000D02*
X129350000Y-36250000D01*
X129350000Y-37750000D02*
X128600000Y-37750000D01*
X128600000Y-37750000D02*
X128600000Y-38750000D01*
X129350000Y-38750000D02*
X129350000Y-37750000D01*
X128600000Y-38750000D02*
X129350000Y-38750000D01*
X129350000Y-40250000D02*
X128600000Y-40250000D01*
X128600000Y-40250000D02*
X128600000Y-42050000D01*
X127100000Y-41300000D02*
X124150000Y-41300000D01*
X124150000Y-41300000D02*
X124150000Y-38250000D01*
X129350000Y-42050000D02*
X129350000Y-40250000D01*
X128600000Y-42050000D02*
X129350000Y-42050000D01*
X127100000Y-42050000D02*
X127100000Y-41300000D01*
X129360000Y-42060000D02*
X129360000Y-34440000D01*
X123390000Y-42060000D02*
X129360000Y-42060000D01*
%TO.C,J2*%
X110870000Y-83730000D02*
X112200000Y-83730000D01*
X110870000Y-85060000D02*
X110870000Y-83730000D01*
X110870000Y-86330000D02*
X110870000Y-91470000D01*
X110870000Y-86330000D02*
X113530000Y-86330000D01*
X110870000Y-91470000D02*
X113530000Y-91470000D01*
X113530000Y-86330000D02*
X113530000Y-91470000D01*
%TO.C,J1*%
X110870000Y-73230000D02*
X112200000Y-73230000D01*
X110870000Y-74560000D02*
X110870000Y-73230000D01*
X110870000Y-75830000D02*
X110870000Y-80970000D01*
X110870000Y-75830000D02*
X113530000Y-75830000D01*
X110870000Y-80970000D02*
X113530000Y-80970000D01*
X113530000Y-75830000D02*
X113530000Y-80970000D01*
D10*
%TO.C,D4*%
X106490888Y-55430000D02*
X106490888Y-56446000D01*
X106998888Y-55938000D02*
X105982888Y-55938000D01*
X106561112Y-57970000D02*
G75*
G02*
X102356664Y-57970000I-2102224J0D01*
G01*
X102356664Y-57970000D02*
G75*
G02*
X106561112Y-57970000I2102224J0D01*
G01*
%TO.C,D3*%
X93790888Y-55378888D02*
X93790888Y-56394888D01*
X94298888Y-55886888D02*
X93282888Y-55886888D01*
X93861112Y-57918888D02*
G75*
G02*
X89656664Y-57918888I-2102224J0D01*
G01*
X89656664Y-57918888D02*
G75*
G02*
X93861112Y-57918888I2102224J0D01*
G01*
%TO.C,D2*%
X78790888Y-55478888D02*
X78790888Y-56494888D01*
X79298888Y-55986888D02*
X78282888Y-55986888D01*
X78861112Y-58018888D02*
G75*
G02*
X74656664Y-58018888I-2102224J0D01*
G01*
X74656664Y-58018888D02*
G75*
G02*
X78861112Y-58018888I2102224J0D01*
G01*
%TO.C,D1*%
X63590888Y-55378888D02*
X63590888Y-56394888D01*
X64098888Y-55886888D02*
X63082888Y-55886888D01*
X63661112Y-57918888D02*
G75*
G02*
X59456664Y-57918888I-2102224J0D01*
G01*
X59456664Y-57918888D02*
G75*
G02*
X63661112Y-57918888I2102224J0D01*
G01*
%TO.C,C8*%
X116765112Y-74800000D02*
X119765112Y-74800000D01*
X119765112Y-76400000D01*
X116765112Y-76400000D01*
X116765112Y-74800000D01*
%TO.C,C7*%
X124365112Y-74800000D02*
X127365112Y-74800000D01*
X127365112Y-76400000D01*
X124365112Y-76400000D01*
X124365112Y-74800000D01*
D15*
%TO.C,C6*%
X115745225Y-69225000D02*
X116245225Y-69225000D01*
X115995225Y-68975000D02*
X115995225Y-69475000D01*
X118550000Y-68120000D02*
X118550000Y-73280000D01*
X118590000Y-68120000D02*
X118590000Y-73280000D01*
X118630000Y-68121000D02*
X118630000Y-73279000D01*
X118670000Y-68122000D02*
X118670000Y-73278000D01*
X118710000Y-68124000D02*
X118710000Y-73276000D01*
X118750000Y-68127000D02*
X118750000Y-73273000D01*
X118790000Y-68131000D02*
X118790000Y-69660000D01*
X118790000Y-71740000D02*
X118790000Y-73269000D01*
X118830000Y-68135000D02*
X118830000Y-69660000D01*
X118830000Y-71740000D02*
X118830000Y-73265000D01*
X118870000Y-68139000D02*
X118870000Y-69660000D01*
X118870000Y-71740000D02*
X118870000Y-73261000D01*
X118910000Y-68144000D02*
X118910000Y-69660000D01*
X118910000Y-71740000D02*
X118910000Y-73256000D01*
X118950000Y-68150000D02*
X118950000Y-69660000D01*
X118950000Y-71740000D02*
X118950000Y-73250000D01*
X118990000Y-68157000D02*
X118990000Y-69660000D01*
X118990000Y-71740000D02*
X118990000Y-73243000D01*
X119030000Y-68164000D02*
X119030000Y-69660000D01*
X119030000Y-71740000D02*
X119030000Y-73236000D01*
X119070000Y-68172000D02*
X119070000Y-69660000D01*
X119070000Y-71740000D02*
X119070000Y-73228000D01*
X119110000Y-68180000D02*
X119110000Y-69660000D01*
X119110000Y-71740000D02*
X119110000Y-73220000D01*
X119150000Y-68189000D02*
X119150000Y-69660000D01*
X119150000Y-71740000D02*
X119150000Y-73211000D01*
X119190000Y-68199000D02*
X119190000Y-69660000D01*
X119190000Y-71740000D02*
X119190000Y-73201000D01*
X119230000Y-68209000D02*
X119230000Y-69660000D01*
X119230000Y-71740000D02*
X119230000Y-73191000D01*
X119271000Y-68220000D02*
X119271000Y-69660000D01*
X119271000Y-71740000D02*
X119271000Y-73180000D01*
X119311000Y-68232000D02*
X119311000Y-69660000D01*
X119311000Y-71740000D02*
X119311000Y-73168000D01*
X119351000Y-68245000D02*
X119351000Y-69660000D01*
X119351000Y-71740000D02*
X119351000Y-73155000D01*
X119391000Y-68258000D02*
X119391000Y-69660000D01*
X119391000Y-71740000D02*
X119391000Y-73142000D01*
X119431000Y-68272000D02*
X119431000Y-69660000D01*
X119431000Y-71740000D02*
X119431000Y-73128000D01*
X119471000Y-68286000D02*
X119471000Y-69660000D01*
X119471000Y-71740000D02*
X119471000Y-73114000D01*
X119511000Y-68302000D02*
X119511000Y-69660000D01*
X119511000Y-71740000D02*
X119511000Y-73098000D01*
X119551000Y-68318000D02*
X119551000Y-69660000D01*
X119551000Y-71740000D02*
X119551000Y-73082000D01*
X119591000Y-68335000D02*
X119591000Y-69660000D01*
X119591000Y-71740000D02*
X119591000Y-73065000D01*
X119631000Y-68352000D02*
X119631000Y-69660000D01*
X119631000Y-71740000D02*
X119631000Y-73048000D01*
X119671000Y-68371000D02*
X119671000Y-69660000D01*
X119671000Y-71740000D02*
X119671000Y-73029000D01*
X119711000Y-68390000D02*
X119711000Y-69660000D01*
X119711000Y-71740000D02*
X119711000Y-73010000D01*
X119751000Y-68410000D02*
X119751000Y-69660000D01*
X119751000Y-71740000D02*
X119751000Y-72990000D01*
X119791000Y-68432000D02*
X119791000Y-69660000D01*
X119791000Y-71740000D02*
X119791000Y-72968000D01*
X119831000Y-68453000D02*
X119831000Y-69660000D01*
X119831000Y-71740000D02*
X119831000Y-72947000D01*
X119871000Y-68476000D02*
X119871000Y-69660000D01*
X119871000Y-71740000D02*
X119871000Y-72924000D01*
X119911000Y-68500000D02*
X119911000Y-69660000D01*
X119911000Y-71740000D02*
X119911000Y-72900000D01*
X119951000Y-68525000D02*
X119951000Y-69660000D01*
X119951000Y-71740000D02*
X119951000Y-72875000D01*
X119991000Y-68551000D02*
X119991000Y-69660000D01*
X119991000Y-71740000D02*
X119991000Y-72849000D01*
X120031000Y-68578000D02*
X120031000Y-69660000D01*
X120031000Y-71740000D02*
X120031000Y-72822000D01*
X120071000Y-68605000D02*
X120071000Y-69660000D01*
X120071000Y-71740000D02*
X120071000Y-72795000D01*
X120111000Y-68635000D02*
X120111000Y-69660000D01*
X120111000Y-71740000D02*
X120111000Y-72765000D01*
X120151000Y-68665000D02*
X120151000Y-69660000D01*
X120151000Y-71740000D02*
X120151000Y-72735000D01*
X120191000Y-68696000D02*
X120191000Y-69660000D01*
X120191000Y-71740000D02*
X120191000Y-72704000D01*
X120231000Y-68729000D02*
X120231000Y-69660000D01*
X120231000Y-71740000D02*
X120231000Y-72671000D01*
X120271000Y-68763000D02*
X120271000Y-69660000D01*
X120271000Y-71740000D02*
X120271000Y-72637000D01*
X120311000Y-68799000D02*
X120311000Y-69660000D01*
X120311000Y-71740000D02*
X120311000Y-72601000D01*
X120351000Y-68836000D02*
X120351000Y-69660000D01*
X120351000Y-71740000D02*
X120351000Y-72564000D01*
X120391000Y-68874000D02*
X120391000Y-69660000D01*
X120391000Y-71740000D02*
X120391000Y-72526000D01*
X120431000Y-68915000D02*
X120431000Y-69660000D01*
X120431000Y-71740000D02*
X120431000Y-72485000D01*
X120471000Y-68957000D02*
X120471000Y-69660000D01*
X120471000Y-71740000D02*
X120471000Y-72443000D01*
X120511000Y-69001000D02*
X120511000Y-69660000D01*
X120511000Y-71740000D02*
X120511000Y-72399000D01*
X120551000Y-69047000D02*
X120551000Y-69660000D01*
X120551000Y-71740000D02*
X120551000Y-72353000D01*
X120591000Y-69095000D02*
X120591000Y-69660000D01*
X120591000Y-71740000D02*
X120591000Y-72305000D01*
X120631000Y-69146000D02*
X120631000Y-69660000D01*
X120631000Y-71740000D02*
X120631000Y-72254000D01*
X120671000Y-69200000D02*
X120671000Y-69660000D01*
X120671000Y-71740000D02*
X120671000Y-72200000D01*
X120711000Y-69257000D02*
X120711000Y-69660000D01*
X120711000Y-71740000D02*
X120711000Y-72143000D01*
X120751000Y-69317000D02*
X120751000Y-69660000D01*
X120751000Y-71740000D02*
X120751000Y-72083000D01*
X120791000Y-69381000D02*
X120791000Y-69660000D01*
X120791000Y-71740000D02*
X120791000Y-72019000D01*
X120831000Y-69449000D02*
X120831000Y-69660000D01*
X120831000Y-71740000D02*
X120831000Y-71951000D01*
X120871000Y-69522000D02*
X120871000Y-71878000D01*
X120911000Y-69602000D02*
X120911000Y-71798000D01*
X120951000Y-69689000D02*
X120951000Y-71711000D01*
X120991000Y-69785000D02*
X120991000Y-71615000D01*
X121031000Y-69895000D02*
X121031000Y-71505000D01*
X121071000Y-70023000D02*
X121071000Y-71377000D01*
X121111000Y-70182000D02*
X121111000Y-71218000D01*
X121151000Y-70416000D02*
X121151000Y-70984000D01*
X121170000Y-70700000D02*
G75*
G02*
X115930000Y-70700000I-2620000J0D01*
G01*
X115930000Y-70700000D02*
G75*
G02*
X121170000Y-70700000I2620000J0D01*
G01*
%TO.C,C5*%
X123145225Y-69225000D02*
X123645225Y-69225000D01*
X123395225Y-68975000D02*
X123395225Y-69475000D01*
X125950000Y-68120000D02*
X125950000Y-73280000D01*
X125990000Y-68120000D02*
X125990000Y-73280000D01*
X126030000Y-68121000D02*
X126030000Y-73279000D01*
X126070000Y-68122000D02*
X126070000Y-73278000D01*
X126110000Y-68124000D02*
X126110000Y-73276000D01*
X126150000Y-68127000D02*
X126150000Y-73273000D01*
X126190000Y-68131000D02*
X126190000Y-69660000D01*
X126190000Y-71740000D02*
X126190000Y-73269000D01*
X126230000Y-68135000D02*
X126230000Y-69660000D01*
X126230000Y-71740000D02*
X126230000Y-73265000D01*
X126270000Y-68139000D02*
X126270000Y-69660000D01*
X126270000Y-71740000D02*
X126270000Y-73261000D01*
X126310000Y-68144000D02*
X126310000Y-69660000D01*
X126310000Y-71740000D02*
X126310000Y-73256000D01*
X126350000Y-68150000D02*
X126350000Y-69660000D01*
X126350000Y-71740000D02*
X126350000Y-73250000D01*
X126390000Y-68157000D02*
X126390000Y-69660000D01*
X126390000Y-71740000D02*
X126390000Y-73243000D01*
X126430000Y-68164000D02*
X126430000Y-69660000D01*
X126430000Y-71740000D02*
X126430000Y-73236000D01*
X126470000Y-68172000D02*
X126470000Y-69660000D01*
X126470000Y-71740000D02*
X126470000Y-73228000D01*
X126510000Y-68180000D02*
X126510000Y-69660000D01*
X126510000Y-71740000D02*
X126510000Y-73220000D01*
X126550000Y-68189000D02*
X126550000Y-69660000D01*
X126550000Y-71740000D02*
X126550000Y-73211000D01*
X126590000Y-68199000D02*
X126590000Y-69660000D01*
X126590000Y-71740000D02*
X126590000Y-73201000D01*
X126630000Y-68209000D02*
X126630000Y-69660000D01*
X126630000Y-71740000D02*
X126630000Y-73191000D01*
X126671000Y-68220000D02*
X126671000Y-69660000D01*
X126671000Y-71740000D02*
X126671000Y-73180000D01*
X126711000Y-68232000D02*
X126711000Y-69660000D01*
X126711000Y-71740000D02*
X126711000Y-73168000D01*
X126751000Y-68245000D02*
X126751000Y-69660000D01*
X126751000Y-71740000D02*
X126751000Y-73155000D01*
X126791000Y-68258000D02*
X126791000Y-69660000D01*
X126791000Y-71740000D02*
X126791000Y-73142000D01*
X126831000Y-68272000D02*
X126831000Y-69660000D01*
X126831000Y-71740000D02*
X126831000Y-73128000D01*
X126871000Y-68286000D02*
X126871000Y-69660000D01*
X126871000Y-71740000D02*
X126871000Y-73114000D01*
X126911000Y-68302000D02*
X126911000Y-69660000D01*
X126911000Y-71740000D02*
X126911000Y-73098000D01*
X126951000Y-68318000D02*
X126951000Y-69660000D01*
X126951000Y-71740000D02*
X126951000Y-73082000D01*
X126991000Y-68335000D02*
X126991000Y-69660000D01*
X126991000Y-71740000D02*
X126991000Y-73065000D01*
X127031000Y-68352000D02*
X127031000Y-69660000D01*
X127031000Y-71740000D02*
X127031000Y-73048000D01*
X127071000Y-68371000D02*
X127071000Y-69660000D01*
X127071000Y-71740000D02*
X127071000Y-73029000D01*
X127111000Y-68390000D02*
X127111000Y-69660000D01*
X127111000Y-71740000D02*
X127111000Y-73010000D01*
X127151000Y-68410000D02*
X127151000Y-69660000D01*
X127151000Y-71740000D02*
X127151000Y-72990000D01*
X127191000Y-68432000D02*
X127191000Y-69660000D01*
X127191000Y-71740000D02*
X127191000Y-72968000D01*
X127231000Y-68453000D02*
X127231000Y-69660000D01*
X127231000Y-71740000D02*
X127231000Y-72947000D01*
X127271000Y-68476000D02*
X127271000Y-69660000D01*
X127271000Y-71740000D02*
X127271000Y-72924000D01*
X127311000Y-68500000D02*
X127311000Y-69660000D01*
X127311000Y-71740000D02*
X127311000Y-72900000D01*
X127351000Y-68525000D02*
X127351000Y-69660000D01*
X127351000Y-71740000D02*
X127351000Y-72875000D01*
X127391000Y-68551000D02*
X127391000Y-69660000D01*
X127391000Y-71740000D02*
X127391000Y-72849000D01*
X127431000Y-68578000D02*
X127431000Y-69660000D01*
X127431000Y-71740000D02*
X127431000Y-72822000D01*
X127471000Y-68605000D02*
X127471000Y-69660000D01*
X127471000Y-71740000D02*
X127471000Y-72795000D01*
X127511000Y-68635000D02*
X127511000Y-69660000D01*
X127511000Y-71740000D02*
X127511000Y-72765000D01*
X127551000Y-68665000D02*
X127551000Y-69660000D01*
X127551000Y-71740000D02*
X127551000Y-72735000D01*
X127591000Y-68696000D02*
X127591000Y-69660000D01*
X127591000Y-71740000D02*
X127591000Y-72704000D01*
X127631000Y-68729000D02*
X127631000Y-69660000D01*
X127631000Y-71740000D02*
X127631000Y-72671000D01*
X127671000Y-68763000D02*
X127671000Y-69660000D01*
X127671000Y-71740000D02*
X127671000Y-72637000D01*
X127711000Y-68799000D02*
X127711000Y-69660000D01*
X127711000Y-71740000D02*
X127711000Y-72601000D01*
X127751000Y-68836000D02*
X127751000Y-69660000D01*
X127751000Y-71740000D02*
X127751000Y-72564000D01*
X127791000Y-68874000D02*
X127791000Y-69660000D01*
X127791000Y-71740000D02*
X127791000Y-72526000D01*
X127831000Y-68915000D02*
X127831000Y-69660000D01*
X127831000Y-71740000D02*
X127831000Y-72485000D01*
X127871000Y-68957000D02*
X127871000Y-69660000D01*
X127871000Y-71740000D02*
X127871000Y-72443000D01*
X127911000Y-69001000D02*
X127911000Y-69660000D01*
X127911000Y-71740000D02*
X127911000Y-72399000D01*
X127951000Y-69047000D02*
X127951000Y-69660000D01*
X127951000Y-71740000D02*
X127951000Y-72353000D01*
X127991000Y-69095000D02*
X127991000Y-69660000D01*
X127991000Y-71740000D02*
X127991000Y-72305000D01*
X128031000Y-69146000D02*
X128031000Y-69660000D01*
X128031000Y-71740000D02*
X128031000Y-72254000D01*
X128071000Y-69200000D02*
X128071000Y-69660000D01*
X128071000Y-71740000D02*
X128071000Y-72200000D01*
X128111000Y-69257000D02*
X128111000Y-69660000D01*
X128111000Y-71740000D02*
X128111000Y-72143000D01*
X128151000Y-69317000D02*
X128151000Y-69660000D01*
X128151000Y-71740000D02*
X128151000Y-72083000D01*
X128191000Y-69381000D02*
X128191000Y-69660000D01*
X128191000Y-71740000D02*
X128191000Y-72019000D01*
X128231000Y-69449000D02*
X128231000Y-69660000D01*
X128231000Y-71740000D02*
X128231000Y-71951000D01*
X128271000Y-69522000D02*
X128271000Y-71878000D01*
X128311000Y-69602000D02*
X128311000Y-71798000D01*
X128351000Y-69689000D02*
X128351000Y-71711000D01*
X128391000Y-69785000D02*
X128391000Y-71615000D01*
X128431000Y-69895000D02*
X128431000Y-71505000D01*
X128471000Y-70023000D02*
X128471000Y-71377000D01*
X128511000Y-70182000D02*
X128511000Y-71218000D01*
X128551000Y-70416000D02*
X128551000Y-70984000D01*
X128570000Y-70700000D02*
G75*
G02*
X123330000Y-70700000I-2620000J0D01*
G01*
X123330000Y-70700000D02*
G75*
G02*
X128570000Y-70700000I2620000J0D01*
G01*
%TO.C,C2*%
D10*
X124560000Y-50600000D02*
X127560000Y-50600000D01*
X127560000Y-52200000D01*
X124560000Y-52200000D01*
X124560000Y-50600000D01*
%TO.C,C1*%
X119500000Y-55160000D02*
X117900000Y-55160000D01*
X117900000Y-58160000D01*
X119500000Y-58160000D01*
X119500000Y-55160000D01*
%TD*%
M02*
